999
FreeCAD v1.1 44987 (Git)
  0
SECTION
  2
HEADER
  9
$ACADVER
  1
AC1014
  9
$ACADMAINTVER
 70
     9
  9
$DWGCODEPAGE
  3
ANSI_1252
  9
$TEXTSTYLE
  7
STANDARD
  9
$DIMSTYLE
  2
STANDARD
  9
$DIMTXSTY
  7
STANDARD
  9
$CMLSTYLE
  2
STANDARD
  9
$LUNITS
 70
2
  9
$INSUNITS
 70
4
  9
$PEXTMAX
 10
50
 20
50
 30
50
  9
$PEXTMIN
 10
0
 20
0
 30
0
  9
$HANDSEED
  5
FFFF
  0
ENDSEC
  0
SECTION
  2
CLASSES
  0
CLASS
  1
ACDBDICTIONARYWDFLT
  2
AcDbDictionaryWithDefault
  3
ObjectDBX Classes
 90
        0
280
     0
281
     0
  0
CLASS
  1
XRECORD
  2
AcDbXrecord
  3
ObjectDBX Classes
 90
        0
280
     0
281
     0
  0
CLASS
  1
LWPOLYLINE
  2
AcDbPolyline
  3
ObjectDBX Classes
 90
        0
280
     0
281
     1
  0
ENDSEC
  0
SECTION
  2
TABLES
  0
TABLE
  2
VPORT
  5
20
330
0
100
AcDbSymbolTable
 70
     1
  0
VPORT
  5
21
330
20
100
AcDbSymbolTableRecord
100
AcDbViewportTableRecord
  2
*ACTIVE
 70
     0
  0
ENDTAB
  0
TABLE
  2
LTYPE
  5
22
330
0
100
AcDbSymbolTable
 70
     1
  0
LTYPE
  5
23
330
21
100
AcDbSymbolTableRecord
100
AcDbLinetypeTableRecord
  2
BYBLOCK
 70
     0
  3

 72
    65
 73
     0
 40
0.0
  0
LTYPE
  5
24
330
21
100
AcDbSymbolTableRecord
100
AcDbLinetypeTableRecord
  2
BYLAYER
 70
     0
  3

 72
    65
 73
     0
 40
0.0
  0
LTYPE
  5
25
330
21
100
AcDbSymbolTableRecord
100
AcDbLinetypeTableRecord
  2
CONTINUOUS
 70
     0
  3
Solid line
 72
    65
 73
     0
 40
0.0
  0
ENDTAB
  0
TABLE
  2
LAYER
  5
A86
330
0
100
AcDbSymbolTable
 70
10
  0
LAYER
  5
A87
330
A86
100
AcDbSymbolTableRecord
100
AcDbLayerTableRecord
  2
0
 70
   0
 62
   7
  6
CONTINUOUS
  0
LAYER
  5
A88
330
A86
100
AcDbSymbolTableRecord
100
AcDbLayerTableRecord
  2
Front
 70
    0
 62
    7
  6
CONTINUOUS
  0
LAYER
  5
A89
330
A86
100
AcDbSymbolTableRecord
100
AcDbLayerTableRecord
  2
End
 70
    0
 62
    7
  6
CONTINUOUS
  0
LAYER
  5
A8A
330
A86
100
AcDbSymbolTableRecord
100
AcDbLayerTableRecord
  2
d000
 70
    0
 62
    7
  6
CONTINUOUS
  0
LAYER
  5
A8B
330
A86
100
AcDbSymbolTableRecord
100
AcDbLayerTableRecord
  2
d001
 70
    0
 62
    7
  6
CONTINUOUS
  0
LAYER
  5
A8C
330
A86
100
AcDbSymbolTableRecord
100
AcDbLayerTableRecord
  2
d002
 70
    0
 62
    7
  6
CONTINUOUS
  0
LAYER
  5
A8D
330
A86
100
AcDbSymbolTableRecord
100
AcDbLayerTableRecord
  2
d003
 70
    0
 62
    7
  6
CONTINUOUS
  0
LAYER
  5
A8E
330
A86
100
AcDbSymbolTableRecord
100
AcDbLayerTableRecord
  2
d004
 70
    0
 62
    7
  6
CONTINUOUS
  0
LAYER
  5
A8F
330
A86
100
AcDbSymbolTableRecord
100
AcDbLayerTableRecord
  2
note007
 70
    0
 62
    7
  6
CONTINUOUS
  0
LAYER
  5
A90
330
A86
100
AcDbSymbolTableRecord
100
AcDbLayerTableRecord
  2
note008
 70
    0
 62
    7
  6
CONTINUOUS
  0
ENDTAB
  0
TABLE
  2
STYLE
  5
70
330
0
100
AcDbSymbolTable
 70
     2
  0
STYLE
  5
71
330
70
100
AcDbSymbolTableRecord
100
AcDbTextStyleTableRecord
  2
STANDARD
 70
     0
 40
0.0
 41
1.0
 50
0.0
 71
     0
 42
2.5
  3
arial.ttf
  4

  0
STYLE
  5
72
330
70
100
AcDbSymbolTableRecord
100
AcDbTextStyleTableRecord
  2
ANNOTATIVE
 70
     0
 40
0.0
 41
1.0
 50
0.0
 71
     0
 42
2.5
  3
arial.ttf
  4

  0
ENDTAB
  0
TABLE
  2
VIEW
  5
73
330
0
100
AcDbSymbolTable
 70
     0
  0
ENDTAB
  0
TABLE
  2
UCS
  5
74
330
0
100
AcDbSymbolTable
 70
     0
  0
ENDTAB
  0
TABLE
  2
APPID
  5
75
330
0
100
AcDbSymbolTable
 70
     2
  0
APPID
  5
76
330
75
100
AcDbSymbolTableRecord
100
AcDbRegAppTableRecord
  2
ACAD
 70
     0
  0
APPID
  5
77
330
75
100
AcDbSymbolTableRecord
100
AcDbRegAppTableRecord
  2
ACADANNOTATIVE
 70
     0
  0
ENDTAB
  0
TABLE
  2
DIMSTYLE
  5
78
330
0
100
AcDbSymbolTable
 70
     2
  0
DIMSTYLE
105
79
330
78
100
AcDbSymbolTableRecord
100
AcDbDimStyleTableRecord
  2
STANDARD
 70
     0
  3

  4

  5

  6

  7

 40
0.0
 41
2.5
 42
0.625
 43
3.75
 44
1.25
 45
0.0
 46
0.0
 47
0.0
 48
0.0
140
2.5
141
2.5
142
0.0
143
0.03937007874016
144
1.0
145
0.0
146
1.0
147
0.625
 71
     0
 72
     0
 73
     0
 74
     0
 75
     0
 76
     0
 77
     1
 78
     8
170
     0
171
     3
172
     1
173
     0
174
     0
175
     0
176
     0
177
     0
178
     0
270
     2
271
     2
272
     2
273
     2
274
     3
340
71
275
     0
280
     0
281
     0
282
     0
283
     0
284
     8
285
     0
286
     0
287
     3
288
     0
  0
ENDTAB
  0
TABLE
  2
BLOCK_RECORD
  5
A01
330
0
100
AcDbSymbolTable
  70
5
  0
BLOCK_RECORD
  5
A02
330
A01
100
AcDbSymbolTableRecord
100
AcDbBlockTableRecord
  2
*MODEL_SPACE
  0
BLOCK_RECORD
  5
A03
330
A01
100
AcDbSymbolTableRecord
100
AcDbBlockTableRecord
  2
*PAPER_SPACE
  0
BLOCK_RECORD
  5
A55
330
A01
100
AcDbSymbolTableRecord
100
AcDbBlockTableRecord
  2
*d000
  0
BLOCK_RECORD
  5
A5F
330
A01
100
AcDbSymbolTableRecord
100
AcDbBlockTableRecord
  2
*d001
  0
BLOCK_RECORD
  5
A69
330
A01
100
AcDbSymbolTableRecord
100
AcDbBlockTableRecord
  2
*d002
  0
BLOCK_RECORD
  5
A73
330
A01
100
AcDbSymbolTableRecord
100
AcDbBlockTableRecord
  2
*d003
  0
BLOCK_RECORD
  5
A7B
330
A01
100
AcDbSymbolTableRecord
100
AcDbBlockTableRecord
  2
*d004
  0
ENDTAB
  0
ENDSEC
  0
SECTION
  2
BLOCKS
  0
BLOCK
  5
A04
330
A02
100
AcDbEntity
  8
0
100
AcDbBlockBegin
  2
*MODEL_SPACE
 70
   0
 10
0
 20
0
 30
0
  3
*MODEL_SPACE
  1
 
  0
ENDBLK
  5
A05
330
A02
100
AcDbEntity
  8
0
100
AcDbBlockEnd
  0
BLOCK
  5
A06
330
A03
100
AcDbEntity
 67
1
  8
0
100
AcDbBlockBegin
  2
*PAPER_SPACE
 70
   0
 10
0
 20
0
 30
0
  3
*PAPER_SPACE
  1
 
  0
ENDBLK
  5
A07
330
A03
100
AcDbEntity
 67
    1
  8
0
100
AcDbBlockEnd
  0
BLOCK
  5
A56
330
A55
100
AcDbEntity
  8
d000
100
AcDbBlockBegin
  2
*d000
 70
   1
 10
0
 20
0
 30
0
  3
*d000
  1
 
  0
LINE
  5
A57
330
A55
100
AcDbEntity
  8
d000
100
AcDbLine
 10
145
 20
255
 30
0
 11
111
 21
255
 31
0
  0
LINE
  5
A58
330
A55
100
AcDbEntity
  8
d000
100
AcDbLine
 10
145
 20
105
 30
0
 11
111
 21
105
 31
0
  0
LINE
  5
A59
330
A55
100
AcDbEntity
  8
d000
100
AcDbLine
 10
111
 20
105
 30
0
 11
111
 21
255
 31
0
  0
TEXT
  5
A5A
330
A55
100
AcDbEntity
  8
d000
100
AcDbText
 10
116
 20
180
 30
0
 40
3.5
  1
300
  7
STANDARD
 72
1
 11
111
 21
180
 31
0
100
AcDbText
  0
SOLID
  5
A5B
330
A55
100
AcDbEntity
  8
0
 62
     0
100
AcDbTrace
 10
110.583
 20
100
 30
0
 11
111.417
 21
100
 31
0
 12
111
 22
105
 32
0
 13
111
 23
105
 33
0
  0
SOLID
  5
A5C
330
A55
100
AcDbEntity
  8
0
 62
     0
100
AcDbTrace
 10
110.583
 20
260
 30
0
 11
111.417
 21
260
 31
0
 12
111
 22
255
 32
0
 13
111
 23
255
 33
0
  0
ENDBLK
  5
A5D
330
A55
100
AcDbEntity
  8
d000
100
AcDbBlockEnd
  0
BLOCK
  5
A60
330
A5F
100
AcDbEntity
  8
d001
100
AcDbBlockBegin
  2
*d001
 70
   1
 10
0
 20
0
 30
0
  3
*d001
  1
 
  0
LINE
  5
A61
330
A5F
100
AcDbEntity
  8
d001
100
AcDbLine
 10
360
 20
160
 30
0
 11
360
 21
147
 31
0
  0
LINE
  5
A62
330
A5F
100
AcDbEntity
  8
d001
100
AcDbLine
 10
320
 20
160
 30
0
 11
320
 21
147
 31
0
  0
LINE
  5
A63
330
A5F
100
AcDbEntity
  8
d001
100
AcDbLine
 10
320
 20
147
 30
0
 11
360
 21
147
 31
0
  0
TEXT
  5
A64
330
A5F
100
AcDbEntity
  8
d001
100
AcDbText
 10
340
 20
152
 30
0
 40
3.5
  1
20
  7
STANDARD
 72
1
 11
340
 21
147
 31
0
100
AcDbText
  0
SOLID
  5
A65
330
A5F
100
AcDbEntity
  8
0
 62
     0
100
AcDbTrace
 10
315
 20
146.583
 30
0
 11
315
 21
147.417
 31
0
 12
320
 22
147
 32
0
 13
320
 23
147
 33
0
  0
SOLID
  5
A66
330
A5F
100
AcDbEntity
  8
0
 62
     0
100
AcDbTrace
 10
365
 20
146.583
 30
0
 11
365
 21
147.417
 31
0
 12
360
 22
147
 32
0
 13
360
 23
147
 33
0
  0
ENDBLK
  5
A67
330
A5F
100
AcDbEntity
  8
d001
100
AcDbBlockEnd
  0
BLOCK
  5
A6A
330
A69
100
AcDbEntity
  8
d002
100
AcDbBlockBegin
  2
*d002
 70
   1
 10
0
 20
0
 30
0
  3
*d002
  1
 
  0
LINE
  5
A6B
330
A69
100
AcDbEntity
  8
d002
100
AcDbLine
 10
334
 20
200
 30
0
 11
305
 21
200
 31
0
  0
LINE
  5
A6C
330
A69
100
AcDbEntity
  8
d002
100
AcDbLine
 10
334
 20
160
 30
0
 11
305
 21
160
 31
0
  0
LINE
  5
A6D
330
A69
100
AcDbEntity
  8
d002
100
AcDbLine
 10
305
 20
160
 30
0
 11
305
 21
200
 31
0
  0
TEXT
  5
A6E
330
A69
100
AcDbEntity
  8
d002
100
AcDbText
 10
310
 20
180
 30
0
 40
3.5
  1
20
  7
STANDARD
 72
1
 11
305
 21
180
 31
0
100
AcDbText
  0
SOLID
  5
A6F
330
A69
100
AcDbEntity
  8
0
 62
     0
100
AcDbTrace
 10
304.583
 20
155
 30
0
 11
305.417
 21
155
 31
0
 12
305
 22
160
 32
0
 13
305
 23
160
 33
0
  0
SOLID
  5
A70
330
A69
100
AcDbEntity
  8
0
 62
     0
100
AcDbTrace
 10
304.583
 20
205
 30
0
 11
305.417
 21
205
 31
0
 12
305
 22
200
 32
0
 13
305
 23
200
 33
0
  0
ENDBLK
  5
A71
330
A69
100
AcDbEntity
  8
d002
100
AcDbBlockEnd
  0
BLOCK
  5
A74
330
A73
100
AcDbEntity
  8
d003
100
AcDbBlockBegin
  2
*d003
 70
   1
 10
0
 20
0
 30
0
  3
*d003
  1
 
  0
LINE
  5
A75
330
A73
100
AcDbEntity
  8
d003
100
AcDbLine
 10
150
 20
180
 30
0
 11
150
 21
180
 31
0
  0
TEXT
  5
A76
330
A73
100
AcDbEntity
  8
d003
100
AcDbText
 10
196
 20
210
 30
0
 40
3.5
  1
⌀5,4
  7
STANDARD
 72
1
 11
196
 21
210
 31
0
100
AcDbText
  0
SOLID
  5
A77
330
A73
100
AcDbEntity
  8
0
 62
     0
100
AcDbTrace
 10
150
 20
180
 30
0
 11
150
 21
180
 31
0
 12
150
 22
180
 32
0
 13
150
 23
180
 33
0
  0
SOLID
  5
A78
330
A73
100
AcDbEntity
  8
0
 62
     0
100
AcDbTrace
 10
150
 20
180
 30
0
 11
150
 21
180
 31
0
 12
150
 22
180
 32
0
 13
150
 23
180
 33
0
  0
ENDBLK
  5
A79
330
A73
100
AcDbEntity
  8
d003
100
AcDbBlockEnd
  0
BLOCK
  5
A7C
330
A7B
100
AcDbEntity
  8
d004
100
AcDbBlockBegin
  2
*d004
 70
   1
 10
0
 20
0
 30
0
  3
*d004
  1
 
  0
LINE
  5
A7D
330
A7B
100
AcDbEntity
  8
d004
100
AcDbLine
 10
150
 20
105
 30
0
 11
183
 21
105
 31
0
  0
LINE
  5
A7E
330
A7B
100
AcDbEntity
  8
d004
100
AcDbLine
 10
150
 20
180
 30
0
 11
183
 21
180
 31
0
  0
LINE
  5
A7F
330
A7B
100
AcDbEntity
  8
d004
100
AcDbLine
 10
183
 20
180
 30
0
 11
183
 21
105
 31
0
  0
TEXT
  5
A80
330
A7B
100
AcDbEntity
  8
d004
100
AcDbText
 10
178
 20
160
 30
0
 40
3.5
  1
150
  7
STANDARD
 72
1
 11
183
 21
160
 31
0
100
AcDbText
  0
SOLID
  5
A81
330
A7B
100
AcDbEntity
  8
0
 62
     0
100
AcDbTrace
 10
183.417
 20
185
 30
0
 11
182.583
 21
185
 31
0
 12
183
 22
180
 32
0
 13
183
 23
180
 33
0
  0
SOLID
  5
A82
330
A7B
100
AcDbEntity
  8
0
 62
     0
100
AcDbTrace
 10
183.417
 20
100
 30
0
 11
182.583
 21
100
 31
0
 12
183
 22
105
 32
0
 13
183
 23
105
 33
0
  0
ENDBLK
  5
A83
330
A7B
100
AcDbEntity
  8
d004
100
AcDbBlockEnd
  0
ENDSEC
  0
SECTION
  2
ENTITIES
  0
LINE
  5
A08
330
A02
100
AcDbEntity
  8
Front
100
AcDbLine
 10
145.000000000
 20
105.000000000
 30
0.000000000
 11
148.500000000
 21
105.000000000
 31
0.000000000
  0
LINE
  5
A09
330
A02
100
AcDbEntity
  8
Front
100
AcDbLine
 10
148.500000000
 20
105.000000000
 30
0.000000000
 11
148.500000000
 21
255.000000000
 31
0.000000000
  0
LINE
  5
A0A
330
A02
100
AcDbEntity
  8
Front
100
AcDbLine
 10
145.000000000
 20
255.000000000
 30
0.000000000
 11
148.500000000
 21
255.000000000
 31
0.000000000
  0
LINE
  5
A0B
330
A02
100
AcDbEntity
  8
Front
100
AcDbLine
 10
145.000000000
 20
105.000000000
 30
0.000000000
 11
145.000000000
 21
255.000000000
 31
0.000000000
  0
LINE
  5
A0C
330
A02
100
AcDbEntity
  8
Front
100
AcDbLine
 10
148.707106781
 20
105.000000000
 30
0.000000000
 11
148.500000000
 21
105.000000000
 31
0.000000000
  0
LINE
  5
A0D
330
A02
100
AcDbEntity
  8
Front
100
AcDbLine
 10
151.292893219
 20
105.000000000
 30
0.000000000
 11
148.707106781
 21
105.000000000
 31
0.000000000
  0
LINE
  5
A0E
330
A02
100
AcDbEntity
  8
Front
100
AcDbLine
 10
151.500000000
 20
105.000000000
 30
0.000000000
 11
151.292893219
 21
105.000000000
 31
0.000000000
  0
LINE
  5
A0F
330
A02
100
AcDbEntity
  8
Front
100
AcDbLine
 10
151.500000000
 20
105.000000000
 30
0.000000000
 11
155.000000000
 21
105.000000000
 31
0.000000000
  0
LINE
  5
A10
330
A02
100
AcDbEntity
  8
Front
100
AcDbLine
 10
148.707106781
 20
255.000000000
 30
0.000000000
 11
148.500000000
 21
255.000000000
 31
0.000000000
  0
LINE
  5
A11
330
A02
100
AcDbEntity
  8
Front
100
AcDbLine
 10
151.292893219
 20
255.000000000
 30
0.000000000
 11
148.707106781
 21
255.000000000
 31
0.000000000
  0
LINE
  5
A12
330
A02
100
AcDbEntity
  8
Front
100
AcDbLine
 10
151.500000000
 20
255.000000000
 30
0.000000000
 11
151.292893219
 21
255.000000000
 31
0.000000000
  0
LINE
  5
A13
330
A02
100
AcDbEntity
  8
Front
100
AcDbLine
 10
151.500000000
 20
255.000000000
 30
0.000000000
 11
155.000000000
 21
255.000000000
 31
0.000000000
  0
LINE
  5
A14
330
A02
100
AcDbEntity
  8
Front
100
AcDbLine
 10
148.707106781
 20
105.000000000
 30
0.000000000
 11
148.707106781
 21
179.611506596
 31
0.000000000
  0
SPLINE
  5
A15
330
A02
100
AcDbEntity
  8
Front
100
AcDbSpline
210
0
220
0
230
1
 70
8
 71
3
 72
8
 73
4
 74
0
 40
5.991284764
 40
5.991284764
 40
5.991284764
 40
5.991284764
 40
6.575085851
 40
6.575085851
 40
6.575085851
 40
6.575085851
 10
148.707106781
 20
179.611506596
 30
0.000000000
 10
148.631376184
 20
179.863223183
 30
0.000000000
 10
148.631376184
 20
180.136776817
 30
0.000000000
 10
148.707106781
 20
180.388493404
 30
0.000000000
  0
LINE
  5
A16
330
A02
100
AcDbEntity
  8
Front
100
AcDbLine
 10
148.707106781
 20
180.388493404
 30
0.000000000
 11
148.707106781
 21
255.000000000
 31
0.000000000
  0
LINE
  5
A17
330
A02
100
AcDbEntity
  8
Front
100
AcDbLine
 10
151.292893219
 20
105.000000000
 30
0.000000000
 11
151.292893219
 21
179.611506596
 31
0.000000000
  0
ARC
  5
A18
330
A02
100
AcDbEntity
  8
Front
100
AcDbCircle
 10
150.000000000
 20
180.000000000
 30
0.000000000
 40
1.350000000
100
AcDbArc
 50
-163.275330825
 51
-16.724669175
  0
LINE
  5
A19
330
A02
100
AcDbEntity
  8
Front
100
AcDbLine
 10
151.292893219
 20
180.388493404
 30
0.000000000
 11
151.292893219
 21
255.000000000
 31
0.000000000
  0
SPLINE
  5
A1A
330
A02
100
AcDbEntity
  8
Front
100
AcDbSpline
210
0
220
0
230
1
 70
8
 71
2
 72
6
 73
3
 74
0
 40
5.991284764
 40
5.991284764
 40
5.991284764
 40
6.283185307
 40
6.283185307
 40
6.283185307
 10
151.292893219
 20
180.388493404
 30
0.000000000
 10
151.349715348
 20
180.198402079
 30
0.000000000
 10
151.350000000
 20
180.000000000
 30
0.000000000
  0
SPLINE
  5
A1B
330
A02
100
AcDbEntity
  8
Front
100
AcDbSpline
210
0
220
0
230
1
 70
8
 71
2
 72
6
 73
3
 74
0
 40
0.000000000
 40
0.000000000
 40
0.000000000
 40
0.291900543
 40
0.291900543
 40
0.291900543
 10
151.350000000
 20
180.000000000
 30
0.000000000
 10
151.349715348
 20
179.801597921
 30
0.000000000
 10
151.292893219
 20
179.611506596
 30
0.000000000
  0
LINE
  5
A1C
330
A02
100
AcDbEntity
  8
Front
100
AcDbLine
 10
155.000000000
 20
105.000000000
 30
0.000000000
 11
155.000000000
 21
255.000000000
 31
0.000000000
  0
LINE
  5
A1D
330
A02
100
AcDbEntity
  8
Front
100
AcDbLine
 10
151.500000000
 20
255.000000000
 30
0.000000000
 11
151.500000000
 21
105.000000000
 31
0.000000000
  0
SPLINE
  5
A1E
330
A02
100
AcDbEntity
  8
Front
100
AcDbSpline
210
0
220
0
230
1
 70
8
 71
3
 72
23
 73
19
 74
0
 40
0.500938103
 40
0.500938103
 40
0.500938103
 40
0.500938103
 40
0.607165396
 40
0.607165396
 40
0.607165396
 40
0.669660590
 40
0.669660590
 40
0.669660590
 40
0.716813034
 40
0.716813034
 40
0.716813034
 40
0.774877647
 40
0.774877647
 40
0.774877647
 40
0.893292710
 40
0.893292710
 40
0.893292710
 40
1.000000000
 40
1.000000000
 40
1.000000000
 40
1.000000000
 10
148.950000000
 20
179.151471863
 30
0.000000000
 10
148.950443960
 20
179.152094998
 30
0.000000000
 10
149.021504605
 20
179.056510448
 30
0.000000000
 10
149.143896653
 20
178.956167131
 30
0.000000000
 10
149.215704402
 20
178.894651186
 30
0.000000000
 10
149.309559031
 20
178.835382126
 30
0.000000000
 10
149.425460541
 20
178.778359951
 30
0.000000000
 10
149.513755650
 20
178.735502606
 30
0.000000000
 10
149.616285415
 20
178.701601507
 30
0.000000000
 10
149.733049836
 20
178.676656654
 30
0.000000000
 10
149.876442948
 20
178.646991678
 30
0.000000000
 10
150.041238153
 20
178.641460329
 30
0.000000000
 10
150.190834588
 20
178.663556152
 30
0.000000000
 10
150.500319521
 20
178.709255618
 30
0.000000000
 10
150.715237143
 20
178.841929078
 30
0.000000000
 10
150.852990864
 20
178.953622159
 30
0.000000000
 10
150.977343643
 20
179.054938038
 30
0.000000000
 10
151.049525623
 20
179.152078078
 30
0.000000000
 10
151.050000000
 20
179.151471863
 30
0.000000000
  0
ARC
  5
A1F
330
A02
100
AcDbEntity
  8
Front
100
AcDbCircle
 10
150.000000000
 20
180.000000000
 30
0.000000000
 40
1.350000000
100
AcDbArc
 50
16.724669175
 51
163.275330825
  0
SPLINE
  5
A20
330
A02
100
AcDbEntity
  8
Front
100
AcDbSpline
210
0
220
0
230
1
 70
8
 71
3
 72
8
 73
4
 74
0
 40
0.000000000
 40
0.000000000
 40
0.000000000
 40
0.000000000
 40
0.140625242
 40
0.140625242
 40
0.140625242
 40
0.140625242
 10
151.050000000
 20
180.848528137
 30
0.000000000
 10
151.047567293
 20
180.849391445
 30
0.000000000
 10
150.930191530
 20
181.010399624
 30
0.000000000
 10
150.719970609
 20
181.141990510
 30
0.000000000
  0
SPLINE
  5
A21
330
A02
100
AcDbEntity
  8
Front
100
AcDbSpline
210
0
220
0
230
1
 70
8
 71
3
 72
8
 73
4
 74
0
 40
0.144674337
 40
0.144674337
 40
0.144674337
 40
0.144674337
 40
0.224633245
 40
0.224633245
 40
0.224633245
 40
0.224633245
 10
150.701240506
 20
181.153586475
 30
0.000000000
 10
150.576936441
 20
181.229119944
 30
0.000000000
 10
150.412014886
 20
181.301981329
 30
0.000000000
 10
150.207189235
 20
181.334006238
 30
0.000000000
  0
SPLINE
  5
A22
330
A02
100
AcDbEntity
  8
Front
100
AcDbSpline
210
0
220
0
230
1
 70
8
 71
3
 72
11
 73
7
 74
0
 40
0.264733250
 40
0.264733250
 40
0.264733250
 40
0.264733250
 40
0.332772733
 40
0.332772733
 40
0.332772733
 40
0.396043837
 40
0.396043837
 40
0.396043837
 40
0.396043837
 10
149.889188224
 20
181.345444440
 30
0.000000000
 10
149.708255656
 20
181.330697872
 30
0.000000000
 10
149.548064424
 20
181.279984685
 30
0.000000000
 10
149.422413213
 20
181.220202239
 30
0.000000000
 10
149.305517421
 20
181.162270157
 30
0.000000000
 10
149.211146688
 20
181.102218329
 30
0.000000000
 10
149.139301013
 20
181.040046754
 30
0.000000000
  0
SPLINE
  5
A23
330
A02
100
AcDbEntity
  8
Front
100
AcDbSpline
210
0
220
0
230
1
 70
8
 71
3
 72
8
 73
4
 74
0
 40
0.400750492
 40
0.400750492
 40
0.400750492
 40
0.400750492
 40
0.500938112
 40
0.500938112
 40
0.500938112
 40
0.500938112
 10
149.123419798
 20
181.026697197
 30
0.000000000
 10
149.013917331
 20
180.933142806
 30
0.000000000
 10
148.950265145
 20
180.847822402
 30
0.000000000
 10
148.950000000
 20
180.848528137
 30
0.000000000
  0
LINE
  5
A24
330
A02
100
AcDbEntity
  8
End
100
AcDbLine
 10
320.000000000
 20
200.000000000
 30
0.000000000
 11
334.000000000
 21
200.000000000
 31
0.000000000
  0
LINE
  5
A25
330
A02
100
AcDbEntity
  8
End
100
AcDbLine
 10
334.000000000
 20
160.000000000
 30
0.000000000
 11
320.000000000
 21
160.000000000
 31
0.000000000
  0
LINE
  5
A26
330
A02
100
AcDbEntity
  8
End
100
AcDbLine
 10
334.000000000
 20
160.000000000
 30
0.000000000
 11
334.000000000
 21
164.000000000
 31
0.000000000
  0
LINE
  5
A27
330
A02
100
AcDbEntity
  8
End
100
AcDbLine
 10
320.000000000
 20
160.000000000
 30
0.000000000
 11
320.000000000
 21
174.000000000
 31
0.000000000
  0
LINE
  5
A28
330
A02
100
AcDbEntity
  8
End
100
AcDbLine
 10
334.000000000
 20
164.000000000
 30
0.000000000
 11
329.000000000
 21
164.000000000
 31
0.000000000
  0
LINE
  5
A29
330
A02
100
AcDbEntity
  8
End
100
AcDbLine
 10
324.000000000
 20
174.000000000
 30
0.000000000
 11
320.000000000
 21
174.000000000
 31
0.000000000
  0
LINE
  5
A2A
330
A02
100
AcDbEntity
  8
End
100
AcDbLine
 10
329.000000000
 20
164.000000000
 30
0.000000000
 11
329.000000000
 21
166.171572875
 31
0.000000000
  0
LINE
  5
A2B
330
A02
100
AcDbEntity
  8
End
100
AcDbLine
 10
324.000000000
 20
169.000000000
 30
0.000000000
 11
324.000000000
 21
174.000000000
 31
0.000000000
  0
LINE
  5
A2C
330
A02
100
AcDbEntity
  8
End
100
AcDbLine
 10
329.000000000
 20
166.171572875
 30
0.000000000
 11
334.828427125
 21
172.000000000
 31
0.000000000
  0
LINE
  5
A2D
330
A02
100
AcDbEntity
  8
End
100
AcDbLine
 10
326.171572875
 20
169.000000000
 30
0.000000000
 11
324.000000000
 21
169.000000000
 31
0.000000000
  0
LINE
  5
A2E
330
A02
100
AcDbEntity
  8
End
100
AcDbLine
 10
334.828427125
 20
172.000000000
 30
0.000000000
 11
345.171572875
 21
172.000000000
 31
0.000000000
  0
LINE
  5
A2F
330
A02
100
AcDbEntity
  8
End
100
AcDbLine
 10
332.000000000
 20
174.828427125
 30
0.000000000
 11
326.171572875
 21
169.000000000
 31
0.000000000
  0
LINE
  5
A30
330
A02
100
AcDbEntity
  8
End
100
AcDbLine
 10
345.171572875
 20
172.000000000
 30
0.000000000
 11
351.000000000
 21
166.171572875
 31
0.000000000
  0
LINE
  5
A31
330
A02
100
AcDbEntity
  8
End
100
AcDbLine
 10
332.000000000
 20
185.171572875
 30
0.000000000
 11
332.000000000
 21
174.828427125
 31
0.000000000
  0
LINE
  5
A32
330
A02
100
AcDbEntity
  8
End
100
AcDbLine
 10
351.000000000
 20
166.171572875
 30
0.000000000
 11
351.000000000
 21
164.000000000
 31
0.000000000
  0
LINE
  5
A33
330
A02
100
AcDbEntity
  8
End
100
AcDbLine
 10
326.171572875
 20
191.000000000
 30
0.000000000
 11
332.000000000
 21
185.171572875
 31
0.000000000
  0
LINE
  5
A34
330
A02
100
AcDbEntity
  8
End
100
AcDbLine
 10
351.000000000
 20
164.000000000
 30
0.000000000
 11
346.000000000
 21
164.000000000
 31
0.000000000
  0
LINE
  5
A35
330
A02
100
AcDbEntity
  8
End
100
AcDbLine
 10
324.000000000
 20
191.000000000
 30
0.000000000
 11
326.171572875
 21
191.000000000
 31
0.000000000
  0
LINE
  5
A36
330
A02
100
AcDbEntity
  8
End
100
AcDbLine
 10
346.000000000
 20
164.000000000
 30
0.000000000
 11
346.000000000
 21
160.000000000
 31
0.000000000
  0
LINE
  5
A37
330
A02
100
AcDbEntity
  8
End
100
AcDbLine
 10
324.000000000
 20
186.000000000
 30
0.000000000
 11
324.000000000
 21
191.000000000
 31
0.000000000
  0
LINE
  5
A38
330
A02
100
AcDbEntity
  8
End
100
AcDbLine
 10
360.000000000
 20
160.000000000
 30
0.000000000
 11
346.000000000
 21
160.000000000
 31
0.000000000
  0
LINE
  5
A39
330
A02
100
AcDbEntity
  8
End
100
AcDbLine
 10
320.000000000
 20
186.000000000
 30
0.000000000
 11
324.000000000
 21
186.000000000
 31
0.000000000
  0
LINE
  5
A3A
330
A02
100
AcDbEntity
  8
End
100
AcDbLine
 10
360.000000000
 20
174.000000000
 30
0.000000000
 11
360.000000000
 21
160.000000000
 31
0.000000000
  0
LINE
  5
A3B
330
A02
100
AcDbEntity
  8
End
100
AcDbLine
 10
320.000000000
 20
186.000000000
 30
0.000000000
 11
320.000000000
 21
200.000000000
 31
0.000000000
  0
LINE
  5
A3C
330
A02
100
AcDbEntity
  8
End
100
AcDbLine
 10
360.000000000
 20
174.000000000
 30
0.000000000
 11
356.000000000
 21
174.000000000
 31
0.000000000
  0
LINE
  5
A3D
330
A02
100
AcDbEntity
  8
End
100
AcDbLine
 10
356.000000000
 20
174.000000000
 30
0.000000000
 11
356.000000000
 21
169.000000000
 31
0.000000000
  0
LINE
  5
A3E
330
A02
100
AcDbEntity
  8
End
100
AcDbLine
 10
334.000000000
 20
196.000000000
 30
0.000000000
 11
334.000000000
 21
200.000000000
 31
0.000000000
  0
LINE
  5
A3F
330
A02
100
AcDbEntity
  8
End
100
AcDbLine
 10
356.000000000
 20
169.000000000
 30
0.000000000
 11
353.828427125
 21
169.000000000
 31
0.000000000
  0
LINE
  5
A40
330
A02
100
AcDbEntity
  8
End
100
AcDbLine
 10
329.000000000
 20
196.000000000
 30
0.000000000
 11
334.000000000
 21
196.000000000
 31
0.000000000
  0
LINE
  5
A41
330
A02
100
AcDbEntity
  8
End
100
AcDbLine
 10
353.828427125
 20
169.000000000
 30
0.000000000
 11
348.000000000
 21
174.828427125
 31
0.000000000
  0
LINE
  5
A42
330
A02
100
AcDbEntity
  8
End
100
AcDbLine
 10
329.000000000
 20
193.828427125
 30
0.000000000
 11
329.000000000
 21
196.000000000
 31
0.000000000
  0
LINE
  5
A43
330
A02
100
AcDbEntity
  8
End
100
AcDbLine
 10
348.000000000
 20
174.828427125
 30
0.000000000
 11
348.000000000
 21
185.171572875
 31
0.000000000
  0
LINE
  5
A44
330
A02
100
AcDbEntity
  8
End
100
AcDbLine
 10
334.828427125
 20
188.000000000
 30
0.000000000
 11
329.000000000
 21
193.828427125
 31
0.000000000
  0
LINE
  5
A45
330
A02
100
AcDbEntity
  8
End
100
AcDbLine
 10
348.000000000
 20
185.171572875
 30
0.000000000
 11
353.828427125
 21
191.000000000
 31
0.000000000
  0
LINE
  5
A46
330
A02
100
AcDbEntity
  8
End
100
AcDbLine
 10
345.171572875
 20
188.000000000
 30
0.000000000
 11
334.828427125
 21
188.000000000
 31
0.000000000
  0
LINE
  5
A47
330
A02
100
AcDbEntity
  8
End
100
AcDbLine
 10
353.828427125
 20
191.000000000
 30
0.000000000
 11
356.000000000
 21
191.000000000
 31
0.000000000
  0
LINE
  5
A48
330
A02
100
AcDbEntity
  8
End
100
AcDbLine
 10
351.000000000
 20
193.828427125
 30
0.000000000
 11
345.171572875
 21
188.000000000
 31
0.000000000
  0
LINE
  5
A49
330
A02
100
AcDbEntity
  8
End
100
AcDbLine
 10
356.000000000
 20
191.000000000
 30
0.000000000
 11
356.000000000
 21
186.000000000
 31
0.000000000
  0
LINE
  5
A4A
330
A02
100
AcDbEntity
  8
End
100
AcDbLine
 10
351.000000000
 20
196.000000000
 30
0.000000000
 11
351.000000000
 21
193.828427125
 31
0.000000000
  0
LINE
  5
A4B
330
A02
100
AcDbEntity
  8
End
100
AcDbLine
 10
356.000000000
 20
186.000000000
 30
0.000000000
 11
360.000000000
 21
186.000000000
 31
0.000000000
  0
LINE
  5
A4C
330
A02
100
AcDbEntity
  8
End
100
AcDbLine
 10
346.000000000
 20
196.000000000
 30
0.000000000
 11
351.000000000
 21
196.000000000
 31
0.000000000
  0
LINE
  5
A4D
330
A02
100
AcDbEntity
  8
End
100
AcDbLine
 10
360.000000000
 20
200.000000000
 30
0.000000000
 11
360.000000000
 21
186.000000000
 31
0.000000000
  0
LINE
  5
A4E
330
A02
100
AcDbEntity
  8
End
100
AcDbLine
 10
346.000000000
 20
200.000000000
 30
0.000000000
 11
346.000000000
 21
196.000000000
 31
0.000000000
  0
LINE
  5
A4F
330
A02
100
AcDbEntity
  8
End
100
AcDbLine
 10
346.000000000
 20
200.000000000
 30
0.000000000
 11
360.000000000
 21
200.000000000
 31
0.000000000
  0
CIRCLE
  5
A50
330
A02
100
AcDbEntity
  8
End
100
AcDbCircle
 10
340.000000000
 20
180.000000000
 30
0.000000000
 40
4.200000000
  0
SPLINE
  5
A51
330
A02
100
AcDbEntity
  8
End
100
AcDbSpline
210
0
220
0
230
1
 70
8
 71
1
 72
4
 73
2
 74
0
 40
0.000000000
 40
0.000000000
 40
0.006524679
 40
0.006524679
 10
344.200000000
 20
180.000000000
 30
0.000000000
 10
344.196804753
 20
179.836201550
 30
0.000000000
  0
SPLINE
  5
A52
330
A02
100
AcDbEntity
  8
End
100
AcDbSpline
210
0
220
0
230
1
 70
8
 71
3
 72
8
 73
4
 74
0
 40
0.188990971
 40
0.188990971
 40
0.188990971
 40
0.188990971
 40
0.229541107
 40
0.229541107
 40
0.229541107
 40
0.229541107
 10
341.829362108
 20
176.219334203
 30
0.000000000
 10
341.486450936
 20
176.053309407
 30
0.000000000
 10
341.099069853
 20
175.923888846
 30
0.000000000
 10
340.677351075
 20
175.854979424
 30
0.000000000
  0
SPLINE
  5
A53
330
A02
100
AcDbEntity
  8
End
100
AcDbSpline
210
0
220
0
230
1
 70
8
 71
1
 72
4
 73
2
 74
0
 40
0.999993686
 40
0.999993686
 40
1.000000000
 40
1.000000000
 10
344.199999997
 20
180.000160000
 30
0.000000000
 10
344.200000000
 20
180.000000000
 30
0.000000000
  0
DIMENSION
  5
A54
330
A02
100
AcDbEntity
  8
d000
100
AcDbDimension
  2
*d000
 10
111.000000000
 20
180.000000000
 30
0.000000000
 11
116.000000000
 21
180.000000000
 31
0.000000000
 70
32
  1
300
  3
STANDARD
100
AcDbAlignedDimension
 13
145.000000000
 23
105.000000000
 33
0.000000000
 14
145.000000000
 24
255.000000000
 34
0.000000000
 50
90
100
AcDbRotatedDimension
  0
DIMENSION
  5
A5E
330
A02
100
AcDbEntity
  8
d001
100
AcDbDimension
  2
*d001
 10
340.000000000
 20
147.000000000
 30
0.000000000
 11
340.000000000
 21
152.000000000
 31
0.000000000
 70
32
  1
20
  3
STANDARD
100
AcDbAlignedDimension
 13
320.000000000
 23
160.000000000
 33
0.000000000
 14
360.000000000
 24
160.000000000
 34
0.000000000
100
AcDbRotatedDimension
  0
DIMENSION
  5
A68
330
A02
100
AcDbEntity
  8
d002
100
AcDbDimension
  2
*d002
 10
305.000000000
 20
180.000000000
 30
0.000000000
 11
310.000000000
 21
180.000000000
 31
0.000000000
 70
32
  1
20
  3
STANDARD
100
AcDbAlignedDimension
 13
334.000000000
 23
160.000000000
 33
0.000000000
 14
334.000000000
 24
200.000000000
 34
0.000000000
 50
90
100
AcDbRotatedDimension
  0
DIMENSION
  5
A72
330
A02
100
AcDbEntity
  8
d003
100
AcDbDimension
  2
*d003
 10
150.000000000
 20
180.000000000
 30
0.000000000
 11
196.000000000
 21
210.000000000
 31
0.000000000
 70
3
  1
⌀5,4
  3
STANDARD
100
AcDbDiametricDimension
 15
150.000000000
 25
180.000000000
 35
0.000000000
 40
0
  0
DIMENSION
  5
A7A
330
A02
100
AcDbEntity
  8
d004
100
AcDbDimension
  2
*d004
 10
183.000000000
 20
160.000000000
 30
0.000000000
 11
178.000000000
 21
160.000000000
 31
0.000000000
 70
32
  1
150
  3
STANDARD
100
AcDbAlignedDimension
 13
150.000000000
 23
180.000000000
 33
0.000000000
 14
150.000000000
 24
105.000000000
 34
0.000000000
 50
90
100
AcDbRotatedDimension
  0
TEXT
  5
A84
330
A02
100
AcDbEntity
  8
note007
100
AcDbText
 10
82.000000000
 20
58.000000000
 30
0.000000000
 40
3.200000000
  1
bought 2020 extrusion, 300 long -- only the cross hole is machined
  7
STANDARD
 72
1
 11
82.000000000
 21
58.000000000
 31
0.000000000
100
AcDbText
  0
TEXT
  5
A85
330
A02
100
AcDbEntity
  8
note008
100
AcDbText
 10
330.000000000
 20
262.000000000
 30
0.000000000
 40
2.600000000
  1
HOLE SUMMARY
  7
STANDARD
 72
1
 11
330.000000000
 21
262.000000000
 31
0.000000000
100
AcDbText
  0
ENDSEC
  0
SECTION
  2
OBJECTS
  0
DICTIONARY
  5
F000
330
0
100
AcDbDictionary
  3
ACAD_GROUP
350
F001
  0
DICTIONARY
  5
F001
330
F000
100
AcDbDictionary
  0
ENDSEC
  0
EOF