999
FreeCAD v1.1 44987 (Git)
  0
SECTION
  2
HEADER
  9
$ACADVER
  1
AC1014
  9
$ACADMAINTVER
 70
     9
  9
$DWGCODEPAGE
  3
ANSI_1252
  9
$TEXTSTYLE
  7
STANDARD
  9
$DIMSTYLE
  2
STANDARD
  9
$DIMTXSTY
  7
STANDARD
  9
$CMLSTYLE
  2
STANDARD
  9
$LUNITS
 70
2
  9
$INSUNITS
 70
4
  9
$PEXTMAX
 10
50
 20
50
 30
50
  9
$PEXTMIN
 10
0
 20
0
 30
0
  9
$HANDSEED
  5
FFFF
  0
ENDSEC
  0
SECTION
  2
CLASSES
  0
CLASS
  1
ACDBDICTIONARYWDFLT
  2
AcDbDictionaryWithDefault
  3
ObjectDBX Classes
 90
        0
280
     0
281
     0
  0
CLASS
  1
XRECORD
  2
AcDbXrecord
  3
ObjectDBX Classes
 90
        0
280
     0
281
     0
  0
CLASS
  1
LWPOLYLINE
  2
AcDbPolyline
  3
ObjectDBX Classes
 90
        0
280
     0
281
     1
  0
ENDSEC
  0
SECTION
  2
TABLES
  0
TABLE
  2
VPORT
  5
20
330
0
100
AcDbSymbolTable
 70
     1
  0
VPORT
  5
21
330
20
100
AcDbSymbolTableRecord
100
AcDbViewportTableRecord
  2
*ACTIVE
 70
     0
  0
ENDTAB
  0
TABLE
  2
LTYPE
  5
22
330
0
100
AcDbSymbolTable
 70
     1
  0
LTYPE
  5
23
330
21
100
AcDbSymbolTableRecord
100
AcDbLinetypeTableRecord
  2
BYBLOCK
 70
     0
  3

 72
    65
 73
     0
 40
0.0
  0
LTYPE
  5
24
330
21
100
AcDbSymbolTableRecord
100
AcDbLinetypeTableRecord
  2
BYLAYER
 70
     0
  3

 72
    65
 73
     0
 40
0.0
  0
LTYPE
  5
25
330
21
100
AcDbSymbolTableRecord
100
AcDbLinetypeTableRecord
  2
CONTINUOUS
 70
     0
  3
Solid line
 72
    65
 73
     0
 40
0.0
  0
ENDTAB
  0
TABLE
  2
LAYER
  5
A88
330
0
100
AcDbSymbolTable
 70
10
  0
LAYER
  5
A89
330
A88
100
AcDbSymbolTableRecord
100
AcDbLayerTableRecord
  2
0
 70
   0
 62
   7
  6
CONTINUOUS
  0
LAYER
  5
A8A
330
A88
100
AcDbSymbolTableRecord
100
AcDbLayerTableRecord
  2
Front
 70
    0
 62
    7
  6
CONTINUOUS
  0
LAYER
  5
A8B
330
A88
100
AcDbSymbolTableRecord
100
AcDbLayerTableRecord
  2
d000
 70
    0
 62
    7
  6
CONTINUOUS
  0
LAYER
  5
A8C
330
A88
100
AcDbSymbolTableRecord
100
AcDbLayerTableRecord
  2
d001
 70
    0
 62
    7
  6
CONTINUOUS
  0
LAYER
  5
A8D
330
A88
100
AcDbSymbolTableRecord
100
AcDbLayerTableRecord
  2
d002
 70
    0
 62
    7
  6
CONTINUOUS
  0
LAYER
  5
A8E
330
A88
100
AcDbSymbolTableRecord
100
AcDbLayerTableRecord
  2
End
 70
    0
 62
    7
  6
CONTINUOUS
  0
LAYER
  5
A8F
330
A88
100
AcDbSymbolTableRecord
100
AcDbLayerTableRecord
  2
d003
 70
    0
 62
    7
  6
CONTINUOUS
  0
LAYER
  5
A90
330
A88
100
AcDbSymbolTableRecord
100
AcDbLayerTableRecord
  2
d004
 70
    0
 62
    7
  6
CONTINUOUS
  0
LAYER
  5
A91
330
A88
100
AcDbSymbolTableRecord
100
AcDbLayerTableRecord
  2
note007
 70
    0
 62
    7
  6
CONTINUOUS
  0
LAYER
  5
A92
330
A88
100
AcDbSymbolTableRecord
100
AcDbLayerTableRecord
  2
note008
 70
    0
 62
    7
  6
CONTINUOUS
  0
ENDTAB
  0
TABLE
  2
STYLE
  5
70
330
0
100
AcDbSymbolTable
 70
     2
  0
STYLE
  5
71
330
70
100
AcDbSymbolTableRecord
100
AcDbTextStyleTableRecord
  2
STANDARD
 70
     0
 40
0.0
 41
1.0
 50
0.0
 71
     0
 42
2.5
  3
arial.ttf
  4

  0
STYLE
  5
72
330
70
100
AcDbSymbolTableRecord
100
AcDbTextStyleTableRecord
  2
ANNOTATIVE
 70
     0
 40
0.0
 41
1.0
 50
0.0
 71
     0
 42
2.5
  3
arial.ttf
  4

  0
ENDTAB
  0
TABLE
  2
VIEW
  5
73
330
0
100
AcDbSymbolTable
 70
     0
  0
ENDTAB
  0
TABLE
  2
UCS
  5
74
330
0
100
AcDbSymbolTable
 70
     0
  0
ENDTAB
  0
TABLE
  2
APPID
  5
75
330
0
100
AcDbSymbolTable
 70
     2
  0
APPID
  5
76
330
75
100
AcDbSymbolTableRecord
100
AcDbRegAppTableRecord
  2
ACAD
 70
     0
  0
APPID
  5
77
330
75
100
AcDbSymbolTableRecord
100
AcDbRegAppTableRecord
  2
ACADANNOTATIVE
 70
     0
  0
ENDTAB
  0
TABLE
  2
DIMSTYLE
  5
78
330
0
100
AcDbSymbolTable
 70
     2
  0
DIMSTYLE
105
79
330
78
100
AcDbSymbolTableRecord
100
AcDbDimStyleTableRecord
  2
STANDARD
 70
     0
  3

  4

  5

  6

  7

 40
0.0
 41
2.5
 42
0.625
 43
3.75
 44
1.25
 45
0.0
 46
0.0
 47
0.0
 48
0.0
140
2.5
141
2.5
142
0.0
143
0.03937007874016
144
1.0
145
0.0
146
1.0
147
0.625
 71
     0
 72
     0
 73
     0
 74
     0
 75
     0
 76
     0
 77
     1
 78
     8
170
     0
171
     3
172
     1
173
     0
174
     0
175
     0
176
     0
177
     0
178
     0
270
     2
271
     2
272
     2
273
     2
274
     3
340
71
275
     0
280
     0
281
     0
282
     0
283
     0
284
     8
285
     0
286
     0
287
     3
288
     0
  0
ENDTAB
  0
TABLE
  2
BLOCK_RECORD
  5
A01
330
0
100
AcDbSymbolTable
  70
5
  0
BLOCK_RECORD
  5
A02
330
A01
100
AcDbSymbolTableRecord
100
AcDbBlockTableRecord
  2
*MODEL_SPACE
  0
BLOCK_RECORD
  5
A03
330
A01
100
AcDbSymbolTableRecord
100
AcDbBlockTableRecord
  2
*PAPER_SPACE
  0
BLOCK_RECORD
  5
A26
330
A01
100
AcDbSymbolTableRecord
100
AcDbBlockTableRecord
  2
*d000
  0
BLOCK_RECORD
  5
A30
330
A01
100
AcDbSymbolTableRecord
100
AcDbBlockTableRecord
  2
*d001
  0
BLOCK_RECORD
  5
A3A
330
A01
100
AcDbSymbolTableRecord
100
AcDbBlockTableRecord
  2
*d002
  0
BLOCK_RECORD
  5
A73
330
A01
100
AcDbSymbolTableRecord
100
AcDbBlockTableRecord
  2
*d003
  0
BLOCK_RECORD
  5
A7D
330
A01
100
AcDbSymbolTableRecord
100
AcDbBlockTableRecord
  2
*d004
  0
ENDTAB
  0
ENDSEC
  0
SECTION
  2
BLOCKS
  0
BLOCK
  5
A04
330
A02
100
AcDbEntity
  8
0
100
AcDbBlockBegin
  2
*MODEL_SPACE
 70
   0
 10
0
 20
0
 30
0
  3
*MODEL_SPACE
  1
 
  0
ENDBLK
  5
A05
330
A02
100
AcDbEntity
  8
0
100
AcDbBlockEnd
  0
BLOCK
  5
A06
330
A03
100
AcDbEntity
 67
1
  8
0
100
AcDbBlockBegin
  2
*PAPER_SPACE
 70
   0
 10
0
 20
0
 30
0
  3
*PAPER_SPACE
  1
 
  0
ENDBLK
  5
A07
330
A03
100
AcDbEntity
 67
    1
  8
0
100
AcDbBlockEnd
  0
BLOCK
  5
A27
330
A26
100
AcDbEntity
  8
d000
100
AcDbBlockBegin
  2
*d000
 70
   1
 10
0
 20
0
 30
0
  3
*d000
  1
 
  0
LINE
  5
A28
330
A26
100
AcDbEntity
  8
d000
100
AcDbLine
 10
75
 20
140
 30
0
 11
75
 21
124
 31
0
  0
LINE
  5
A29
330
A26
100
AcDbEntity
  8
d000
100
AcDbLine
 10
150
 20
140
 30
0
 11
150
 21
124
 31
0
  0
LINE
  5
A2A
330
A26
100
AcDbEntity
  8
d000
100
AcDbLine
 10
150
 20
124
 30
0
 11
75
 21
124
 31
0
  0
TEXT
  5
A2B
330
A26
100
AcDbEntity
  8
d000
100
AcDbText
 10
150
 20
119
 30
0
 40
3.5
  1
150
  7
STANDARD
 72
1
 11
150
 21
124
 31
0
100
AcDbText
  0
SOLID
  5
A2C
330
A26
100
AcDbEntity
  8
0
 62
     0
100
AcDbTrace
 10
155
 20
123.583
 30
0
 11
155
 21
124.417
 31
0
 12
150
 22
124
 32
0
 13
150
 23
124
 33
0
  0
SOLID
  5
A2D
330
A26
100
AcDbEntity
  8
0
 62
     0
100
AcDbTrace
 10
70
 20
123.583
 30
0
 11
70
 21
124.417
 31
0
 12
75
 22
124
 32
0
 13
75
 23
124
 33
0
  0
ENDBLK
  5
A2E
330
A26
100
AcDbEntity
  8
d000
100
AcDbBlockEnd
  0
BLOCK
  5
A31
330
A30
100
AcDbEntity
  8
d001
100
AcDbBlockBegin
  2
*d001
 70
   1
 10
0
 20
0
 30
0
  3
*d001
  1
 
  0
LINE
  5
A32
330
A30
100
AcDbEntity
  8
d001
100
AcDbLine
 10
225
 20
145
 30
0
 11
225
 21
103
 31
0
  0
LINE
  5
A33
330
A30
100
AcDbEntity
  8
d001
100
AcDbLine
 10
75
 20
145
 30
0
 11
75
 21
103
 31
0
  0
LINE
  5
A34
330
A30
100
AcDbEntity
  8
d001
100
AcDbLine
 10
75
 20
103
 30
0
 11
225
 21
103
 31
0
  0
TEXT
  5
A35
330
A30
100
AcDbEntity
  8
d001
100
AcDbText
 10
150
 20
108
 30
0
 40
3.5
  1
300
  7
STANDARD
 72
1
 11
150
 21
103
 31
0
100
AcDbText
  0
SOLID
  5
A36
330
A30
100
AcDbEntity
  8
0
 62
     0
100
AcDbTrace
 10
70
 20
102.583
 30
0
 11
70
 21
103.417
 31
0
 12
75
 22
103
 32
0
 13
75
 23
103
 33
0
  0
SOLID
  5
A37
330
A30
100
AcDbEntity
  8
0
 62
     0
100
AcDbTrace
 10
230
 20
102.583
 30
0
 11
230
 21
103.417
 31
0
 12
225
 22
103
 32
0
 13
225
 23
103
 33
0
  0
ENDBLK
  5
A38
330
A30
100
AcDbEntity
  8
d001
100
AcDbBlockEnd
  0
BLOCK
  5
A3B
330
A3A
100
AcDbEntity
  8
d002
100
AcDbBlockBegin
  2
*d002
 70
   1
 10
0
 20
0
 30
0
  3
*d002
  1
 
  0
LINE
  5
A3C
330
A3A
100
AcDbEntity
  8
d002
100
AcDbLine
 10
150
 20
140
 30
0
 11
150
 21
140
 31
0
  0
TEXT
  5
A3D
330
A3A
100
AcDbEntity
  8
d002
100
AcDbText
 10
175
 20
170
 30
0
 40
3.5
  1
1x ⌀5,4
  7
STANDARD
 72
1
 11
175
 21
170
 31
0
100
AcDbText
  0
SOLID
  5
A3E
330
A3A
100
AcDbEntity
  8
0
 62
     0
100
AcDbTrace
 10
150
 20
140
 30
0
 11
150
 21
140
 31
0
 12
150
 22
140
 32
0
 13
150
 23
140
 33
0
  0
SOLID
  5
A3F
330
A3A
100
AcDbEntity
  8
0
 62
     0
100
AcDbTrace
 10
150
 20
140
 30
0
 11
150
 21
140
 31
0
 12
150
 22
140
 32
0
 13
150
 23
140
 33
0
  0
ENDBLK
  5
A40
330
A3A
100
AcDbEntity
  8
d002
100
AcDbBlockEnd
  0
BLOCK
  5
A74
330
A73
100
AcDbEntity
  8
d003
100
AcDbBlockBegin
  2
*d003
 70
   1
 10
0
 20
0
 30
0
  3
*d003
  1
 
  0
LINE
  5
A75
330
A73
100
AcDbEntity
  8
d003
100
AcDbLine
 10
355
 20
220
 30
0
 11
355
 21
159
 31
0
  0
LINE
  5
A76
330
A73
100
AcDbEntity
  8
d003
100
AcDbLine
 10
315
 20
220
 30
0
 11
315
 21
159
 31
0
  0
LINE
  5
A77
330
A73
100
AcDbEntity
  8
d003
100
AcDbLine
 10
315
 20
159
 30
0
 11
355
 21
159
 31
0
  0
TEXT
  5
A78
330
A73
100
AcDbEntity
  8
d003
100
AcDbText
 10
335
 20
164
 30
0
 40
3.5
  1
20
  7
STANDARD
 72
1
 11
335
 21
159
 31
0
100
AcDbText
  0
SOLID
  5
A79
330
A73
100
AcDbEntity
  8
0
 62
     0
100
AcDbTrace
 10
310
 20
158.583
 30
0
 11
310
 21
159.417
 31
0
 12
315
 22
159
 32
0
 13
315
 23
159
 33
0
  0
SOLID
  5
A7A
330
A73
100
AcDbEntity
  8
0
 62
     0
100
AcDbTrace
 10
360
 20
158.583
 30
0
 11
360
 21
159.417
 31
0
 12
355
 22
159
 32
0
 13
355
 23
159
 33
0
  0
ENDBLK
  5
A7B
330
A73
100
AcDbEntity
  8
d003
100
AcDbBlockEnd
  0
BLOCK
  5
A7E
330
A7D
100
AcDbEntity
  8
d004
100
AcDbBlockBegin
  2
*d004
 70
   1
 10
0
 20
0
 30
0
  3
*d004
  1
 
  0
LINE
  5
A7F
330
A7D
100
AcDbEntity
  8
d004
100
AcDbLine
 10
315
 20
220
 30
0
 11
294
 21
220
 31
0
  0
LINE
  5
A80
330
A7D
100
AcDbEntity
  8
d004
100
AcDbLine
 10
315
 20
180
 30
0
 11
294
 21
180
 31
0
  0
LINE
  5
A81
330
A7D
100
AcDbEntity
  8
d004
100
AcDbLine
 10
294
 20
180
 30
0
 11
294
 21
220
 31
0
  0
TEXT
  5
A82
330
A7D
100
AcDbEntity
  8
d004
100
AcDbText
 10
299
 20
200
 30
0
 40
3.5
  1
20
  7
STANDARD
 72
1
 11
294
 21
200
 31
0
100
AcDbText
  0
SOLID
  5
A83
330
A7D
100
AcDbEntity
  8
0
 62
     0
100
AcDbTrace
 10
293.583
 20
175
 30
0
 11
294.417
 21
175
 31
0
 12
294
 22
180
 32
0
 13
294
 23
180
 33
0
  0
SOLID
  5
A84
330
A7D
100
AcDbEntity
  8
0
 62
     0
100
AcDbTrace
 10
293.583
 20
225
 30
0
 11
294.417
 21
225
 31
0
 12
294
 22
220
 32
0
 13
294
 23
220
 33
0
  0
ENDBLK
  5
A85
330
A7D
100
AcDbEntity
  8
d004
100
AcDbBlockEnd
  0
ENDSEC
  0
SECTION
  2
ENTITIES
  0
LINE
  5
A08
330
A02
100
AcDbEntity
  8
Front
100
AcDbLine
 10
75.000000000
 20
145.000000000
 30
0.000000000
 11
75.000000000
 21
141.500000000
 31
0.000000000
  0
LINE
  5
A09
330
A02
100
AcDbEntity
  8
Front
100
AcDbLine
 10
75.000000000
 20
141.500000000
 30
0.000000000
 11
225.000000000
 21
141.500000000
 31
0.000000000
  0
LINE
  5
A0A
330
A02
100
AcDbEntity
  8
Front
100
AcDbLine
 10
225.000000000
 20
145.000000000
 30
0.000000000
 11
225.000000000
 21
141.500000000
 31
0.000000000
  0
LINE
  5
A0B
330
A02
100
AcDbEntity
  8
Front
100
AcDbLine
 10
75.000000000
 20
145.000000000
 30
0.000000000
 11
225.000000000
 21
145.000000000
 31
0.000000000
  0
LINE
  5
A0C
330
A02
100
AcDbEntity
  8
Front
100
AcDbLine
 10
75.000000000
 20
141.292893219
 30
0.000000000
 11
75.000000000
 21
141.500000000
 31
0.000000000
  0
LINE
  5
A0D
330
A02
100
AcDbEntity
  8
Front
100
AcDbLine
 10
75.000000000
 20
138.707106781
 30
0.000000000
 11
75.000000000
 21
141.292893219
 31
0.000000000
  0
LINE
  5
A0E
330
A02
100
AcDbEntity
  8
Front
100
AcDbLine
 10
75.000000000
 20
138.500000000
 30
0.000000000
 11
75.000000000
 21
138.707106781
 31
0.000000000
  0
LINE
  5
A0F
330
A02
100
AcDbEntity
  8
Front
100
AcDbLine
 10
75.000000000
 20
138.500000000
 30
0.000000000
 11
75.000000000
 21
135.000000000
 31
0.000000000
  0
LINE
  5
A10
330
A02
100
AcDbEntity
  8
Front
100
AcDbLine
 10
225.000000000
 20
141.292893219
 30
0.000000000
 11
225.000000000
 21
141.500000000
 31
0.000000000
  0
LINE
  5
A11
330
A02
100
AcDbEntity
  8
Front
100
AcDbLine
 10
225.000000000
 20
138.707106781
 30
0.000000000
 11
225.000000000
 21
141.292893219
 31
0.000000000
  0
LINE
  5
A12
330
A02
100
AcDbEntity
  8
Front
100
AcDbLine
 10
225.000000000
 20
138.500000000
 30
0.000000000
 11
225.000000000
 21
138.707106781
 31
0.000000000
  0
LINE
  5
A13
330
A02
100
AcDbEntity
  8
Front
100
AcDbLine
 10
225.000000000
 20
138.500000000
 30
0.000000000
 11
225.000000000
 21
135.000000000
 31
0.000000000
  0
LINE
  5
A14
330
A02
100
AcDbEntity
  8
Front
100
AcDbLine
 10
75.000000000
 20
141.292893219
 30
0.000000000
 11
149.611506596
 21
141.292893219
 31
0.000000000
  0
SPLINE
  5
A15
330
A02
100
AcDbEntity
  8
Front
100
AcDbSpline
210
0
220
0
230
1
 70
8
 71
3
 72
8
 73
4
 74
0
 40
5.991284764
 40
5.991284764
 40
5.991284764
 40
5.991284764
 40
6.575085851
 40
6.575085851
 40
6.575085851
 40
6.575085851
 10
149.611506596
 20
141.292893219
 30
0.000000000
 10
149.863223183
 20
141.368623816
 30
0.000000000
 10
150.136776817
 20
141.368623816
 30
0.000000000
 10
150.388493404
 20
141.292893219
 30
0.000000000
  0
LINE
  5
A16
330
A02
100
AcDbEntity
  8
Front
100
AcDbLine
 10
150.388493404
 20
141.292893219
 30
0.000000000
 11
225.000000000
 21
141.292893219
 31
0.000000000
  0
LINE
  5
A17
330
A02
100
AcDbEntity
  8
Front
100
AcDbLine
 10
75.000000000
 20
138.707106781
 30
0.000000000
 11
149.611506596
 21
138.707106781
 31
0.000000000
  0
ARC
  5
A18
330
A02
100
AcDbEntity
  8
Front
100
AcDbCircle
 10
150.000000000
 20
140.000000000
 30
0.000000000
 40
1.350000000
100
AcDbArc
 50
106.724669175
 51
-106.724669175
  0
LINE
  5
A19
330
A02
100
AcDbEntity
  8
Front
100
AcDbLine
 10
150.388493404
 20
138.707106781
 30
0.000000000
 11
225.000000000
 21
138.707106781
 31
0.000000000
  0
SPLINE
  5
A1A
330
A02
100
AcDbEntity
  8
Front
100
AcDbSpline
210
0
220
0
230
1
 70
8
 71
2
 72
6
 73
3
 74
0
 40
5.991284764
 40
5.991284764
 40
5.991284764
 40
6.283185307
 40
6.283185307
 40
6.283185307
 10
150.388493404
 20
138.707106781
 30
0.000000000
 10
150.198402079
 20
138.650284652
 30
0.000000000
 10
150.000000000
 20
138.650000000
 30
0.000000000
  0
SPLINE
  5
A1B
330
A02
100
AcDbEntity
  8
Front
100
AcDbSpline
210
0
220
0
230
1
 70
8
 71
2
 72
6
 73
3
 74
0
 40
0.000000000
 40
0.000000000
 40
0.000000000
 40
0.291900543
 40
0.291900543
 40
0.291900543
 10
150.000000000
 20
138.650000000
 30
0.000000000
 10
149.801597921
 20
138.650284652
 30
0.000000000
 10
149.611506596
 20
138.707106781
 30
0.000000000
  0
LINE
  5
A1C
330
A02
100
AcDbEntity
  8
Front
100
AcDbLine
 10
75.000000000
 20
135.000000000
 30
0.000000000
 11
225.000000000
 21
135.000000000
 31
0.000000000
  0
LINE
  5
A1D
330
A02
100
AcDbEntity
  8
Front
100
AcDbLine
 10
225.000000000
 20
138.500000000
 30
0.000000000
 11
75.000000000
 21
138.500000000
 31
0.000000000
  0
SPLINE
  5
A1E
330
A02
100
AcDbEntity
  8
Front
100
AcDbSpline
210
0
220
0
230
1
 70
8
 71
3
 72
23
 73
19
 74
0
 40
0.500938103
 40
0.500938103
 40
0.500938103
 40
0.500938103
 40
0.607165396
 40
0.607165396
 40
0.607165396
 40
0.669660590
 40
0.669660590
 40
0.669660590
 40
0.716813034
 40
0.716813034
 40
0.716813034
 40
0.774877647
 40
0.774877647
 40
0.774877647
 40
0.893292710
 40
0.893292710
 40
0.893292710
 40
1.000000000
 40
1.000000000
 40
1.000000000
 40
1.000000000
 10
149.151471863
 20
141.050000000
 30
0.000000000
 10
149.152094998
 20
141.049556040
 30
0.000000000
 10
149.056510448
 20
140.978495395
 30
0.000000000
 10
148.956167131
 20
140.856103347
 30
0.000000000
 10
148.894651186
 20
140.784295598
 30
0.000000000
 10
148.835382126
 20
140.690440969
 30
0.000000000
 10
148.778359951
 20
140.574539459
 30
0.000000000
 10
148.735502606
 20
140.486244350
 30
0.000000000
 10
148.701601507
 20
140.383714585
 30
0.000000000
 10
148.676656654
 20
140.266950164
 30
0.000000000
 10
148.646991678
 20
140.123557052
 30
0.000000000
 10
148.641460329
 20
139.958761847
 30
0.000000000
 10
148.663556152
 20
139.809165412
 30
0.000000000
 10
148.709255618
 20
139.499680479
 30
0.000000000
 10
148.841929078
 20
139.284762857
 30
0.000000000
 10
148.953622159
 20
139.147009136
 30
0.000000000
 10
149.054938038
 20
139.022656357
 30
0.000000000
 10
149.152078078
 20
138.950474377
 30
0.000000000
 10
149.151471863
 20
138.950000000
 30
0.000000000
  0
ARC
  5
A1F
330
A02
100
AcDbEntity
  8
Front
100
AcDbCircle
 10
150.000000000
 20
140.000000000
 30
0.000000000
 40
1.350000000
100
AcDbArc
 50
-73.275330825
 51
73.275330825
  0
SPLINE
  5
A20
330
A02
100
AcDbEntity
  8
Front
100
AcDbSpline
210
0
220
0
230
1
 70
8
 71
3
 72
8
 73
4
 74
0
 40
0.000000000
 40
0.000000000
 40
0.000000000
 40
0.000000000
 40
0.140625242
 40
0.140625242
 40
0.140625242
 40
0.140625242
 10
150.848528137
 20
138.950000000
 30
0.000000000
 10
150.849391445
 20
138.952432707
 30
0.000000000
 10
151.010399624
 20
139.069808470
 30
0.000000000
 10
151.141990510
 20
139.280029391
 30
0.000000000
  0
SPLINE
  5
A21
330
A02
100
AcDbEntity
  8
Front
100
AcDbSpline
210
0
220
0
230
1
 70
8
 71
3
 72
8
 73
4
 74
0
 40
0.144674337
 40
0.144674337
 40
0.144674337
 40
0.144674337
 40
0.224633245
 40
0.224633245
 40
0.224633245
 40
0.224633245
 10
151.153586475
 20
139.298759494
 30
0.000000000
 10
151.229119944
 20
139.423063559
 30
0.000000000
 10
151.301981329
 20
139.587985114
 30
0.000000000
 10
151.334006238
 20
139.792810765
 30
0.000000000
  0
SPLINE
  5
A22
330
A02
100
AcDbEntity
  8
Front
100
AcDbSpline
210
0
220
0
230
1
 70
8
 71
3
 72
11
 73
7
 74
0
 40
0.264733250
 40
0.264733250
 40
0.264733250
 40
0.264733250
 40
0.332772733
 40
0.332772733
 40
0.332772733
 40
0.396043837
 40
0.396043837
 40
0.396043837
 40
0.396043837
 10
151.345444440
 20
140.110811776
 30
0.000000000
 10
151.330697872
 20
140.291744344
 30
0.000000000
 10
151.279984685
 20
140.451935576
 30
0.000000000
 10
151.220202239
 20
140.577586787
 30
0.000000000
 10
151.162270157
 20
140.694482579
 30
0.000000000
 10
151.102218329
 20
140.788853312
 30
0.000000000
 10
151.040046754
 20
140.860698987
 30
0.000000000
  0
SPLINE
  5
A23
330
A02
100
AcDbEntity
  8
Front
100
AcDbSpline
210
0
220
0
230
1
 70
8
 71
3
 72
8
 73
4
 74
0
 40
0.400750492
 40
0.400750492
 40
0.400750492
 40
0.400750492
 40
0.500938112
 40
0.500938112
 40
0.500938112
 40
0.500938112
 10
151.026697197
 20
140.876580202
 30
0.000000000
 10
150.933142806
 20
140.986082669
 30
0.000000000
 10
150.847822402
 20
141.049734855
 30
0.000000000
 10
150.848528137
 20
141.050000000
 30
0.000000000
  0
LINE
  5
A24
330
A02
100
AcDbEntity
  8
Front
100
AcDbLine
 10
150.000000000
 20
129.000000000
 30
0.000000000
 11
150.000000000
 21
151.000000000
 31
0.000000000
  0
DIMENSION
  5
A25
330
A02
100
AcDbEntity
  8
d000
100
AcDbDimension
  2
*d000
 10
150.000000000
 20
124.000000000
 30
0.000000000
 11
150.000000000
 21
119.000000000
 31
0.000000000
 70
32
  1
150
  3
STANDARD
100
AcDbAlignedDimension
 13
150.000000000
 23
140.000000000
 33
0.000000000
 14
75.000000000
 24
140.000000000
 34
0.000000000
100
AcDbRotatedDimension
  0
DIMENSION
  5
A2F
330
A02
100
AcDbEntity
  8
d001
100
AcDbDimension
  2
*d001
 10
150.000000000
 20
103.000000000
 30
0.000000000
 11
150.000000000
 21
108.000000000
 31
0.000000000
 70
32
  1
300
  3
STANDARD
100
AcDbAlignedDimension
 13
75.000000000
 23
145.000000000
 33
0.000000000
 14
225.000000000
 24
145.000000000
 34
0.000000000
100
AcDbRotatedDimension
  0
DIMENSION
  5
A39
330
A02
100
AcDbEntity
  8
d002
100
AcDbDimension
  2
*d002
 10
150.000000000
 20
140.000000000
 30
0.000000000
 11
175.000000000
 21
170.000000000
 31
0.000000000
 70
3
  1
1x ⌀5,4
  3
STANDARD
100
AcDbDiametricDimension
 15
150.000000000
 25
140.000000000
 35
0.000000000
 40
0
  0
LINE
  5
A41
330
A02
100
AcDbEntity
  8
End
100
AcDbLine
 10
315.000000000
 20
180.000000000
 30
0.000000000
 11
329.000000000
 21
180.000000000
 31
0.000000000
  0
LINE
  5
A42
330
A02
100
AcDbEntity
  8
End
100
AcDbLine
 10
329.000000000
 20
184.000000000
 30
0.000000000
 11
329.000000000
 21
180.000000000
 31
0.000000000
  0
LINE
  5
A43
330
A02
100
AcDbEntity
  8
End
100
AcDbLine
 10
329.000000000
 20
220.000000000
 30
0.000000000
 11
315.000000000
 21
220.000000000
 31
0.000000000
  0
LINE
  5
A44
330
A02
100
AcDbEntity
  8
End
100
AcDbLine
 10
329.000000000
 20
220.000000000
 30
0.000000000
 11
329.000000000
 21
216.000000000
 31
0.000000000
  0
LINE
  5
A45
330
A02
100
AcDbEntity
  8
End
100
AcDbLine
 10
315.000000000
 20
220.000000000
 30
0.000000000
 11
315.000000000
 21
206.000000000
 31
0.000000000
  0
LINE
  5
A46
330
A02
100
AcDbEntity
  8
End
100
AcDbLine
 10
329.000000000
 20
216.000000000
 30
0.000000000
 11
324.000000000
 21
216.000000000
 31
0.000000000
  0
LINE
  5
A47
330
A02
100
AcDbEntity
  8
End
100
AcDbLine
 10
319.000000000
 20
206.000000000
 30
0.000000000
 11
315.000000000
 21
206.000000000
 31
0.000000000
  0
LINE
  5
A48
330
A02
100
AcDbEntity
  8
End
100
AcDbLine
 10
324.000000000
 20
216.000000000
 30
0.000000000
 11
324.000000000
 21
213.828427125
 31
0.000000000
  0
LINE
  5
A49
330
A02
100
AcDbEntity
  8
End
100
AcDbLine
 10
319.000000000
 20
211.000000000
 30
0.000000000
 11
319.000000000
 21
206.000000000
 31
0.000000000
  0
LINE
  5
A4A
330
A02
100
AcDbEntity
  8
End
100
AcDbLine
 10
324.000000000
 20
213.828427125
 30
0.000000000
 11
329.828427125
 21
208.000000000
 31
0.000000000
  0
LINE
  5
A4B
330
A02
100
AcDbEntity
  8
End
100
AcDbLine
 10
321.171572875
 20
211.000000000
 30
0.000000000
 11
319.000000000
 21
211.000000000
 31
0.000000000
  0
LINE
  5
A4C
330
A02
100
AcDbEntity
  8
End
100
AcDbLine
 10
329.828427125
 20
208.000000000
 30
0.000000000
 11
340.171572875
 21
208.000000000
 31
0.000000000
  0
LINE
  5
A4D
330
A02
100
AcDbEntity
  8
End
100
AcDbLine
 10
327.000000000
 20
205.171572875
 30
0.000000000
 11
321.171572875
 21
211.000000000
 31
0.000000000
  0
LINE
  5
A4E
330
A02
100
AcDbEntity
  8
End
100
AcDbLine
 10
340.171572875
 20
208.000000000
 30
0.000000000
 11
346.000000000
 21
213.828427125
 31
0.000000000
  0
LINE
  5
A4F
330
A02
100
AcDbEntity
  8
End
100
AcDbLine
 10
327.000000000
 20
194.828427125
 30
0.000000000
 11
327.000000000
 21
205.171572875
 31
0.000000000
  0
LINE
  5
A50
330
A02
100
AcDbEntity
  8
End
100
AcDbLine
 10
346.000000000
 20
213.828427125
 30
0.000000000
 11
346.000000000
 21
216.000000000
 31
0.000000000
  0
LINE
  5
A51
330
A02
100
AcDbEntity
  8
End
100
AcDbLine
 10
321.171572875
 20
189.000000000
 30
0.000000000
 11
327.000000000
 21
194.828427125
 31
0.000000000
  0
LINE
  5
A52
330
A02
100
AcDbEntity
  8
End
100
AcDbLine
 10
346.000000000
 20
216.000000000
 30
0.000000000
 11
341.000000000
 21
216.000000000
 31
0.000000000
  0
LINE
  5
A53
330
A02
100
AcDbEntity
  8
End
100
AcDbLine
 10
319.000000000
 20
189.000000000
 30
0.000000000
 11
321.171572875
 21
189.000000000
 31
0.000000000
  0
LINE
  5
A54
330
A02
100
AcDbEntity
  8
End
100
AcDbLine
 10
341.000000000
 20
216.000000000
 30
0.000000000
 11
341.000000000
 21
220.000000000
 31
0.000000000
  0
LINE
  5
A55
330
A02
100
AcDbEntity
  8
End
100
AcDbLine
 10
319.000000000
 20
194.000000000
 30
0.000000000
 11
319.000000000
 21
189.000000000
 31
0.000000000
  0
LINE
  5
A56
330
A02
100
AcDbEntity
  8
End
100
AcDbLine
 10
355.000000000
 20
220.000000000
 30
0.000000000
 11
341.000000000
 21
220.000000000
 31
0.000000000
  0
LINE
  5
A57
330
A02
100
AcDbEntity
  8
End
100
AcDbLine
 10
315.000000000
 20
194.000000000
 30
0.000000000
 11
319.000000000
 21
194.000000000
 31
0.000000000
  0
LINE
  5
A58
330
A02
100
AcDbEntity
  8
End
100
AcDbLine
 10
355.000000000
 20
206.000000000
 30
0.000000000
 11
355.000000000
 21
220.000000000
 31
0.000000000
  0
LINE
  5
A59
330
A02
100
AcDbEntity
  8
End
100
AcDbLine
 10
315.000000000
 20
194.000000000
 30
0.000000000
 11
315.000000000
 21
180.000000000
 31
0.000000000
  0
LINE
  5
A5A
330
A02
100
AcDbEntity
  8
End
100
AcDbLine
 10
355.000000000
 20
206.000000000
 30
0.000000000
 11
351.000000000
 21
206.000000000
 31
0.000000000
  0
LINE
  5
A5B
330
A02
100
AcDbEntity
  8
End
100
AcDbLine
 10
351.000000000
 20
206.000000000
 30
0.000000000
 11
351.000000000
 21
211.000000000
 31
0.000000000
  0
LINE
  5
A5C
330
A02
100
AcDbEntity
  8
End
100
AcDbLine
 10
351.000000000
 20
211.000000000
 30
0.000000000
 11
348.828427125
 21
211.000000000
 31
0.000000000
  0
LINE
  5
A5D
330
A02
100
AcDbEntity
  8
End
100
AcDbLine
 10
324.000000000
 20
184.000000000
 30
0.000000000
 11
329.000000000
 21
184.000000000
 31
0.000000000
  0
LINE
  5
A5E
330
A02
100
AcDbEntity
  8
End
100
AcDbLine
 10
348.828427125
 20
211.000000000
 30
0.000000000
 11
343.000000000
 21
205.171572875
 31
0.000000000
  0
LINE
  5
A5F
330
A02
100
AcDbEntity
  8
End
100
AcDbLine
 10
324.000000000
 20
186.171572875
 30
0.000000000
 11
324.000000000
 21
184.000000000
 31
0.000000000
  0
LINE
  5
A60
330
A02
100
AcDbEntity
  8
End
100
AcDbLine
 10
343.000000000
 20
205.171572875
 30
0.000000000
 11
343.000000000
 21
194.828427125
 31
0.000000000
  0
LINE
  5
A61
330
A02
100
AcDbEntity
  8
End
100
AcDbLine
 10
329.828427125
 20
192.000000000
 30
0.000000000
 11
324.000000000
 21
186.171572875
 31
0.000000000
  0
LINE
  5
A62
330
A02
100
AcDbEntity
  8
End
100
AcDbLine
 10
343.000000000
 20
194.828427125
 30
0.000000000
 11
348.828427125
 21
189.000000000
 31
0.000000000
  0
LINE
  5
A63
330
A02
100
AcDbEntity
  8
End
100
AcDbLine
 10
340.171572875
 20
192.000000000
 30
0.000000000
 11
329.828427125
 21
192.000000000
 31
0.000000000
  0
LINE
  5
A64
330
A02
100
AcDbEntity
  8
End
100
AcDbLine
 10
348.828427125
 20
189.000000000
 30
0.000000000
 11
351.000000000
 21
189.000000000
 31
0.000000000
  0
LINE
  5
A65
330
A02
100
AcDbEntity
  8
End
100
AcDbLine
 10
346.000000000
 20
186.171572875
 30
0.000000000
 11
340.171572875
 21
192.000000000
 31
0.000000000
  0
LINE
  5
A66
330
A02
100
AcDbEntity
  8
End
100
AcDbLine
 10
351.000000000
 20
189.000000000
 30
0.000000000
 11
351.000000000
 21
194.000000000
 31
0.000000000
  0
LINE
  5
A67
330
A02
100
AcDbEntity
  8
End
100
AcDbLine
 10
346.000000000
 20
184.000000000
 30
0.000000000
 11
346.000000000
 21
186.171572875
 31
0.000000000
  0
LINE
  5
A68
330
A02
100
AcDbEntity
  8
End
100
AcDbLine
 10
351.000000000
 20
194.000000000
 30
0.000000000
 11
355.000000000
 21
194.000000000
 31
0.000000000
  0
LINE
  5
A69
330
A02
100
AcDbEntity
  8
End
100
AcDbLine
 10
341.000000000
 20
184.000000000
 30
0.000000000
 11
346.000000000
 21
184.000000000
 31
0.000000000
  0
LINE
  5
A6A
330
A02
100
AcDbEntity
  8
End
100
AcDbLine
 10
355.000000000
 20
180.000000000
 30
0.000000000
 11
355.000000000
 21
194.000000000
 31
0.000000000
  0
LINE
  5
A6B
330
A02
100
AcDbEntity
  8
End
100
AcDbLine
 10
341.000000000
 20
180.000000000
 30
0.000000000
 11
341.000000000
 21
184.000000000
 31
0.000000000
  0
LINE
  5
A6C
330
A02
100
AcDbEntity
  8
End
100
AcDbLine
 10
341.000000000
 20
180.000000000
 30
0.000000000
 11
355.000000000
 21
180.000000000
 31
0.000000000
  0
CIRCLE
  5
A6D
330
A02
100
AcDbEntity
  8
End
100
AcDbCircle
 10
335.000000000
 20
200.000000000
 30
0.000000000
 40
4.200000000
  0
SPLINE
  5
A6E
330
A02
100
AcDbEntity
  8
End
100
AcDbSpline
210
0
220
0
230
1
 70
9
 71
3
 72
59
 73
55
 74
0
 40
0.000000000
 40
0.000000000
 40
0.000000000
 40
0.000000000
 40
0.046234513
 40
0.046234513
 40
0.046234513
 40
0.106627416
 40
0.106627416
 40
0.106627416
 40
0.169357093
 40
0.169357093
 40
0.169357093
 40
0.216686453
 40
0.216686453
 40
0.216686453
 40
0.274968926
 40
0.274968926
 40
0.274968926
 40
0.332772698
 40
0.332772698
 40
0.332772698
 40
0.393828311
 40
0.393828311
 40
0.393828311
 40
0.454438668
 40
0.454438668
 40
0.454438668
 40
0.500590019
 40
0.500590019
 40
0.500590019
 40
0.546998242
 40
0.546998242
 40
0.546998242
 40
0.607165396
 40
0.607165396
 40
0.607165396
 40
0.669660590
 40
0.669660590
 40
0.669660590
 40
0.716813034
 40
0.716813034
 40
0.716813034
 40
0.774877647
 40
0.774877647
 40
0.774877647
 40
0.832465345
 40
0.832465345
 40
0.832465345
 40
0.893292710
 40
0.893292710
 40
0.893292710
 40
0.953676484
 40
0.953676484
 40
0.953676484
 40
1.000000000
 40
1.000000000
 40
1.000000000
 40
1.000000000
 10
339.200000000
 20
200.000000000
 30
0.000000000
 10
339.200229758
 20
200.387268823
 30
0.000000000
 10
339.145634927
 20
200.772125348
 30
0.000000000
 10
339.044232884
 20
201.133216829
 30
0.000000000
 10
338.911005668
 20
201.604635722
 30
0.000000000
 10
338.704399170
 20
202.037479075
 30
0.000000000
 10
338.424413390
 20
202.431746890
 30
0.000000000
 10
338.133784460
 20
202.839878826
 30
0.000000000
 10
337.765161808
 20
203.209190137
 30
0.000000000
 10
337.298157836
 20
203.515461643
 30
0.000000000
 10
336.945911420
 20
203.745741600
 30
0.000000000
 10
336.533924322
 20
203.939387997
 30
0.000000000
 10
336.067800654
 20
204.061994801
 30
0.000000000
 10
335.494228209
 20
204.216069626
 30
0.000000000
 10
334.835047387
 20
204.243881770
 30
0.000000000
 10
334.236661650
 20
204.130050189
 30
0.000000000
 10
333.641100720
 20
204.019956595
 30
0.000000000
 10
333.118195835
 20
203.790176235
 30
0.000000000
 10
332.689652851
 20
203.507462908
 30
0.000000000
 10
332.235038436
 20
203.207117922
 30
0.000000000
 10
331.874196550
 20
202.846803102
 30
0.000000000
 10
331.588036544
 20
202.449184635
 30
0.000000000
 10
331.303823315
 20
202.053170185
 30
0.000000000
 10
331.094041950
 20
201.617977103
 30
0.000000000
 10
330.958692450
 20
201.143605390
 30
0.000000000
 10
330.856201467
 20
200.782198885
 30
0.000000000
 10
330.800592736
 20
200.396832832
 30
0.000000000
 10
330.800009190
 20
200.008786047
 30
0.000000000
 10
330.798954369
 20
199.618579450
 30
0.000000000
 10
330.853593336
 20
199.230598458
 30
0.000000000
 10
330.955767116
 20
198.866783171
 30
0.000000000
 10
331.088994332
 20
198.395364278
 30
0.000000000
 10
331.295600830
 20
197.962520925
 30
0.000000000
 10
331.575586610
 20
197.568253110
 30
0.000000000
 10
331.866215540
 20
197.160121174
 30
0.000000000
 10
332.234838192
 20
196.790809863
 30
0.000000000
 10
332.701842164
 20
196.484538357
 30
0.000000000
 10
333.054088580
 20
196.254258400
 30
0.000000000
 10
333.466075678
 20
196.060612003
 30
0.000000000
 10
333.932199346
 20
195.938005199
 30
0.000000000
 10
334.505771791
 20
195.783930374
 30
0.000000000
 10
335.164952613
 20
195.756118230
 30
0.000000000
 10
335.763338350
 20
195.869949811
 30
0.000000000
 10
336.358899209
 20
195.980043391
 30
0.000000000
 10
336.881804083
 20
196.209823716
 30
0.000000000
 10
337.310347149
 20
196.492537092
 30
0.000000000
 10
337.764961564
 20
196.792882078
 30
0.000000000
 10
338.125803450
 20
197.153196898
 30
0.000000000
 10
338.411963456
 20
197.550815365
 30
0.000000000
 10
338.696176685
 20
197.946829815
 30
0.000000000
 10
338.905958050
 20
198.382022897
 30
0.000000000
 10
339.041307550
 20
198.856394610
 30
0.000000000
 10
339.144576403
 20
199.220518466
 30
0.000000000
 10
339.200237436
 20
199.609016098
 30
0.000000000
 10
339.200000000
 20
200.000000000
 30
0.000000000
  0
SPLINE
  5
A6F
330
A02
100
AcDbEntity
  8
End
100
AcDbSpline
210
0
220
0
230
1
 70
8
 71
1
 72
4
 73
2
 74
0
 40
0.000000000
 40
0.000000000
 40
0.006524680
 40
0.006524680
 10
339.200000000
 20
200.000000000
 30
0.000000000
 10
339.196804753
 20
200.163798450
 30
0.000000000
  0
SPLINE
  5
A70
330
A02
100
AcDbEntity
  8
End
100
AcDbSpline
210
0
220
0
230
1
 70
8
 71
3
 72
8
 73
4
 74
0
 40
0.188992131
 40
0.188992131
 40
0.188992131
 40
0.188992131
 40
0.229542525
 40
0.229542525
 40
0.229542525
 40
0.229542525
 10
336.829333177
 20
203.780679796
 30
0.000000000
 10
336.486417619
 20
203.946703517
 30
0.000000000
 10
336.099031133
 20
204.076122025
 30
0.000000000
 10
335.677307792
 20
204.145027648
 30
0.000000000
  0
SPLINE
  5
A71
330
A02
100
AcDbEntity
  8
End
100
AcDbSpline
210
0
220
0
230
1
 70
8
 71
1
 72
4
 73
2
 74
0
 40
0.999993686
 40
0.999993686
 40
1.000000000
 40
1.000000000
 10
339.199999997
 20
199.999840000
 30
0.000000000
 10
339.200000000
 20
200.000000000
 30
0.000000000
  0
DIMENSION
  5
A72
330
A02
100
AcDbEntity
  8
d003
100
AcDbDimension
  2
*d003
 10
335.000000000
 20
159.000000000
 30
0.000000000
 11
335.000000000
 21
164.000000000
 31
0.000000000
 70
32
  1
20
  3
STANDARD
100
AcDbAlignedDimension
 13
315.000000000
 23
220.000000000
 33
0.000000000
 14
355.000000000
 24
220.000000000
 34
0.000000000
100
AcDbRotatedDimension
  0
DIMENSION
  5
A7C
330
A02
100
AcDbEntity
  8
d004
100
AcDbDimension
  2
*d004
 10
294.000000000
 20
200.000000000
 30
0.000000000
 11
299.000000000
 21
200.000000000
 31
0.000000000
 70
32
  1
20
  3
STANDARD
100
AcDbAlignedDimension
 13
315.000000000
 23
180.000000000
 33
0.000000000
 14
315.000000000
 24
220.000000000
 34
0.000000000
 50
90
100
AcDbRotatedDimension
  0
TEXT
  5
A86
330
A02
100
AcDbEntity
  8
note007
100
AcDbText
 10
335.000000000
 20
153.000000000
 30
0.000000000
 40
3.000000000
  1
END VIEW   2 : 1
  7
STANDARD
 72
1
 11
335.000000000
 21
153.000000000
 31
0.000000000
100
AcDbText
  0
TEXT
  5
A87
330
A02
100
AcDbEntity
  8
note008
100
AcDbText
 10
79.590000000
 20
44.990000000
 30
0.000000000
 40
3.000000000
  1
bought 2020 extrusion, 300 long -- one hole is machined
  7
STANDARD
 72
1
 11
79.590000000
 21
44.990000000
 31
0.000000000
100
AcDbText
  0
ENDSEC
  0
SECTION
  2
OBJECTS
  0
DICTIONARY
  5
F000
330
0
100
AcDbDictionary
  3
ACAD_GROUP
350
F001
  0
DICTIONARY
  5
F001
330
F000
100
AcDbDictionary
  0
ENDSEC
  0
EOF