999
FreeCAD v1.1 44987 (Git)
  0
SECTION
  2
HEADER
  9
$ACADVER
  1
AC1014
  9
$ACADMAINTVER
 70
     9
  9
$DWGCODEPAGE
  3
ANSI_1252
  9
$TEXTSTYLE
  7
STANDARD
  9
$DIMSTYLE
  2
STANDARD
  9
$DIMTXSTY
  7
STANDARD
  9
$CMLSTYLE
  2
STANDARD
  9
$LUNITS
 70
2
  9
$INSUNITS
 70
4
  9
$PEXTMAX
 10
50
 20
50
 30
50
  9
$PEXTMIN
 10
0
 20
0
 30
0
  9
$HANDSEED
  5
FFFF
  0
ENDSEC
  0
SECTION
  2
CLASSES
  0
CLASS
  1
ACDBDICTIONARYWDFLT
  2
AcDbDictionaryWithDefault
  3
ObjectDBX Classes
 90
        0
280
     0
281
     0
  0
CLASS
  1
XRECORD
  2
AcDbXrecord
  3
ObjectDBX Classes
 90
        0
280
     0
281
     0
  0
CLASS
  1
LWPOLYLINE
  2
AcDbPolyline
  3
ObjectDBX Classes
 90
        0
280
     0
281
     1
  0
ENDSEC
  0
SECTION
  2
TABLES
  0
TABLE
  2
VPORT
  5
20
330
0
100
AcDbSymbolTable
 70
     1
  0
VPORT
  5
21
330
20
100
AcDbSymbolTableRecord
100
AcDbViewportTableRecord
  2
*ACTIVE
 70
     0
  0
ENDTAB
  0
TABLE
  2
LTYPE
  5
22
330
0
100
AcDbSymbolTable
 70
     1
  0
LTYPE
  5
23
330
21
100
AcDbSymbolTableRecord
100
AcDbLinetypeTableRecord
  2
BYBLOCK
 70
     0
  3

 72
    65
 73
     0
 40
0.0
  0
LTYPE
  5
24
330
21
100
AcDbSymbolTableRecord
100
AcDbLinetypeTableRecord
  2
BYLAYER
 70
     0
  3

 72
    65
 73
     0
 40
0.0
  0
LTYPE
  5
25
330
21
100
AcDbSymbolTableRecord
100
AcDbLinetypeTableRecord
  2
CONTINUOUS
 70
     0
  3
Solid line
 72
    65
 73
     0
 40
0.0
  0
ENDTAB
  0
TABLE
  2
LAYER
  5
AE0
330
0
100
AcDbSymbolTable
 70
17
  0
LAYER
  5
AE1
330
AE0
100
AcDbSymbolTableRecord
100
AcDbLayerTableRecord
  2
0
 70
   0
 62
   7
  6
CONTINUOUS
  0
LAYER
  5
AE2
330
AE0
100
AcDbSymbolTableRecord
100
AcDbLayerTableRecord
  2
Face
 70
    0
 62
    7
  6
CONTINUOUS
  0
LAYER
  5
AE3
330
AE0
100
AcDbSymbolTableRecord
100
AcDbLayerTableRecord
  2
Edge
 70
    0
 62
    7
  6
CONTINUOUS
  0
LAYER
  5
AE4
330
AE0
100
AcDbSymbolTableRecord
100
AcDbLayerTableRecord
  2
d000
 70
    0
 62
    7
  6
CONTINUOUS
  0
LAYER
  5
AE5
330
AE0
100
AcDbSymbolTableRecord
100
AcDbLayerTableRecord
  2
d001
 70
    0
 62
    7
  6
CONTINUOUS
  0
LAYER
  5
AE6
330
AE0
100
AcDbSymbolTableRecord
100
AcDbLayerTableRecord
  2
d002
 70
    0
 62
    7
  6
CONTINUOUS
  0
LAYER
  5
AE7
330
AE0
100
AcDbSymbolTableRecord
100
AcDbLayerTableRecord
  2
d003
 70
    0
 62
    7
  6
CONTINUOUS
  0
LAYER
  5
AE8
330
AE0
100
AcDbSymbolTableRecord
100
AcDbLayerTableRecord
  2
d004
 70
    0
 62
    7
  6
CONTINUOUS
  0
LAYER
  5
AE9
330
AE0
100
AcDbSymbolTableRecord
100
AcDbLayerTableRecord
  2
d005
 70
    0
 62
    7
  6
CONTINUOUS
  0
LAYER
  5
AEA
330
AE0
100
AcDbSymbolTableRecord
100
AcDbLayerTableRecord
  2
d006
 70
    0
 62
    7
  6
CONTINUOUS
  0
LAYER
  5
AEB
330
AE0
100
AcDbSymbolTableRecord
100
AcDbLayerTableRecord
  2
d007
 70
    0
 62
    7
  6
CONTINUOUS
  0
LAYER
  5
AEC
330
AE0
100
AcDbSymbolTableRecord
100
AcDbLayerTableRecord
  2
d008
 70
    0
 62
    7
  6
CONTINUOUS
  0
LAYER
  5
AED
330
AE0
100
AcDbSymbolTableRecord
100
AcDbLayerTableRecord
  2
d009
 70
    0
 62
    7
  6
CONTINUOUS
  0
LAYER
  5
AEE
330
AE0
100
AcDbSymbolTableRecord
100
AcDbLayerTableRecord
  2
d010
 70
    0
 62
    7
  6
CONTINUOUS
  0
LAYER
  5
AEF
330
AE0
100
AcDbSymbolTableRecord
100
AcDbLayerTableRecord
  2
d011
 70
    0
 62
    7
  6
CONTINUOUS
  0
LAYER
  5
AF0
330
AE0
100
AcDbSymbolTableRecord
100
AcDbLayerTableRecord
  2
note014
 70
    0
 62
    7
  6
CONTINUOUS
  0
LAYER
  5
AF1
330
AE0
100
AcDbSymbolTableRecord
100
AcDbLayerTableRecord
  2
note015
 70
    0
 62
    7
  6
CONTINUOUS
  0
ENDTAB
  0
TABLE
  2
STYLE
  5
70
330
0
100
AcDbSymbolTable
 70
     2
  0
STYLE
  5
71
330
70
100
AcDbSymbolTableRecord
100
AcDbTextStyleTableRecord
  2
STANDARD
 70
     0
 40
0.0
 41
1.0
 50
0.0
 71
     0
 42
2.5
  3
arial.ttf
  4

  0
STYLE
  5
72
330
70
100
AcDbSymbolTableRecord
100
AcDbTextStyleTableRecord
  2
ANNOTATIVE
 70
     0
 40
0.0
 41
1.0
 50
0.0
 71
     0
 42
2.5
  3
arial.ttf
  4

  0
ENDTAB
  0
TABLE
  2
VIEW
  5
73
330
0
100
AcDbSymbolTable
 70
     0
  0
ENDTAB
  0
TABLE
  2
UCS
  5
74
330
0
100
AcDbSymbolTable
 70
     0
  0
ENDTAB
  0
TABLE
  2
APPID
  5
75
330
0
100
AcDbSymbolTable
 70
     2
  0
APPID
  5
76
330
75
100
AcDbSymbolTableRecord
100
AcDbRegAppTableRecord
  2
ACAD
 70
     0
  0
APPID
  5
77
330
75
100
AcDbSymbolTableRecord
100
AcDbRegAppTableRecord
  2
ACADANNOTATIVE
 70
     0
  0
ENDTAB
  0
TABLE
  2
DIMSTYLE
  5
78
330
0
100
AcDbSymbolTable
 70
     2
  0
DIMSTYLE
105
79
330
78
100
AcDbSymbolTableRecord
100
AcDbDimStyleTableRecord
  2
STANDARD
 70
     0
  3

  4

  5

  6

  7

 40
0.0
 41
2.5
 42
0.625
 43
3.75
 44
1.25
 45
0.0
 46
0.0
 47
0.0
 48
0.0
140
2.5
141
2.5
142
0.0
143
0.03937007874016
144
1.0
145
0.0
146
1.0
147
0.625
 71
     0
 72
     0
 73
     0
 74
     0
 75
     0
 76
     0
 77
     1
 78
     8
170
     0
171
     3
172
     1
173
     0
174
     0
175
     0
176
     0
177
     0
178
     0
270
     2
271
     2
272
     2
273
     2
274
     3
340
71
275
     0
280
     0
281
     0
282
     0
283
     0
284
     8
285
     0
286
     0
287
     3
288
     0
  0
ENDTAB
  0
TABLE
  2
BLOCK_RECORD
  5
A01
330
0
100
AcDbSymbolTable
  70
5
  0
BLOCK_RECORD
  5
A02
330
A01
100
AcDbSymbolTableRecord
100
AcDbBlockTableRecord
  2
*MODEL_SPACE
  0
BLOCK_RECORD
  5
A03
330
A01
100
AcDbSymbolTableRecord
100
AcDbBlockTableRecord
  2
*PAPER_SPACE
  0
BLOCK_RECORD
  5
A69
330
A01
100
AcDbSymbolTableRecord
100
AcDbBlockTableRecord
  2
*d000
  0
BLOCK_RECORD
  5
A73
330
A01
100
AcDbSymbolTableRecord
100
AcDbBlockTableRecord
  2
*d001
  0
BLOCK_RECORD
  5
A7D
330
A01
100
AcDbSymbolTableRecord
100
AcDbBlockTableRecord
  2
*d002
  0
BLOCK_RECORD
  5
A87
330
A01
100
AcDbSymbolTableRecord
100
AcDbBlockTableRecord
  2
*d003
  0
BLOCK_RECORD
  5
A8F
330
A01
100
AcDbSymbolTableRecord
100
AcDbBlockTableRecord
  2
*d004
  0
BLOCK_RECORD
  5
A99
330
A01
100
AcDbSymbolTableRecord
100
AcDbBlockTableRecord
  2
*d005
  0
BLOCK_RECORD
  5
AA3
330
A01
100
AcDbSymbolTableRecord
100
AcDbBlockTableRecord
  2
*d006
  0
BLOCK_RECORD
  5
AAD
330
A01
100
AcDbSymbolTableRecord
100
AcDbBlockTableRecord
  2
*d007
  0
BLOCK_RECORD
  5
AB7
330
A01
100
AcDbSymbolTableRecord
100
AcDbBlockTableRecord
  2
*d008
  0
BLOCK_RECORD
  5
AC1
330
A01
100
AcDbSymbolTableRecord
100
AcDbBlockTableRecord
  2
*d009
  0
BLOCK_RECORD
  5
ACB
330
A01
100
AcDbSymbolTableRecord
100
AcDbBlockTableRecord
  2
*d010
  0
BLOCK_RECORD
  5
AD5
330
A01
100
AcDbSymbolTableRecord
100
AcDbBlockTableRecord
  2
*d011
  0
ENDTAB
  0
ENDSEC
  0
SECTION
  2
BLOCKS
  0
BLOCK
  5
A04
330
A02
100
AcDbEntity
  8
0
100
AcDbBlockBegin
  2
*MODEL_SPACE
 70
   0
 10
0
 20
0
 30
0
  3
*MODEL_SPACE
  1
 
  0
ENDBLK
  5
A05
330
A02
100
AcDbEntity
  8
0
100
AcDbBlockEnd
  0
BLOCK
  5
A06
330
A03
100
AcDbEntity
 67
1
  8
0
100
AcDbBlockBegin
  2
*PAPER_SPACE
 70
   0
 10
0
 20
0
 30
0
  3
*PAPER_SPACE
  1
 
  0
ENDBLK
  5
A07
330
A03
100
AcDbEntity
 67
    1
  8
0
100
AcDbBlockEnd
  0
BLOCK
  5
A6A
330
A69
100
AcDbEntity
  8
d000
100
AcDbBlockBegin
  2
*d000
 70
   1
 10
0
 20
0
 30
0
  3
*d000
  1
 
  0
LINE
  5
A6B
330
A69
100
AcDbEntity
  8
d000
100
AcDbLine
 10
210
 20
230
 30
0
 11
210
 21
111
 31
0
  0
LINE
  5
A6C
330
A69
100
AcDbEntity
  8
d000
100
AcDbLine
 10
90
 20
230
 30
0
 11
90
 21
111
 31
0
  0
LINE
  5
A6D
330
A69
100
AcDbEntity
  8
d000
100
AcDbLine
 10
90
 20
111
 30
0
 11
210
 21
111
 31
0
  0
TEXT
  5
A6E
330
A69
100
AcDbEntity
  8
d000
100
AcDbText
 10
150
 20
116
 30
0
 40
3.5
  1
240
  7
STANDARD
 72
1
 11
150
 21
111
 31
0
100
AcDbText
  0
SOLID
  5
A6F
330
A69
100
AcDbEntity
  8
0
 62
     0
100
AcDbTrace
 10
85
 20
110.583
 30
0
 11
85
 21
111.417
 31
0
 12
90
 22
111
 32
0
 13
90
 23
111
 33
0
  0
SOLID
  5
A70
330
A69
100
AcDbEntity
  8
0
 62
     0
100
AcDbTrace
 10
215
 20
110.583
 30
0
 11
215
 21
111.417
 31
0
 12
210
 22
111
 32
0
 13
210
 23
111
 33
0
  0
ENDBLK
  5
A71
330
A69
100
AcDbEntity
  8
d000
100
AcDbBlockEnd
  0
BLOCK
  5
A74
330
A73
100
AcDbEntity
  8
d001
100
AcDbBlockBegin
  2
*d001
 70
   1
 10
0
 20
0
 30
0
  3
*d001
  1
 
  0
LINE
  5
A75
330
A73
100
AcDbEntity
  8
d001
100
AcDbLine
 10
90
 20
230
 30
0
 11
71
 21
230
 31
0
  0
LINE
  5
A76
330
A73
100
AcDbEntity
  8
d001
100
AcDbLine
 10
90
 20
130
 30
0
 11
71
 21
130
 31
0
  0
LINE
  5
A77
330
A73
100
AcDbEntity
  8
d001
100
AcDbLine
 10
71
 20
130
 30
0
 11
71
 21
230
 31
0
  0
TEXT
  5
A78
330
A73
100
AcDbEntity
  8
d001
100
AcDbText
 10
76
 20
180
 30
0
 40
3.5
  1
200
  7
STANDARD
 72
1
 11
71
 21
180
 31
0
100
AcDbText
  0
SOLID
  5
A79
330
A73
100
AcDbEntity
  8
0
 62
     0
100
AcDbTrace
 10
70.5833
 20
125
 30
0
 11
71.4167
 21
125
 31
0
 12
71
 22
130
 32
0
 13
71
 23
130
 33
0
  0
SOLID
  5
A7A
330
A73
100
AcDbEntity
  8
0
 62
     0
100
AcDbTrace
 10
70.5833
 20
235
 30
0
 11
71.4167
 21
235
 31
0
 12
71
 22
230
 32
0
 13
71
 23
230
 33
0
  0
ENDBLK
  5
A7B
330
A73
100
AcDbEntity
  8
d001
100
AcDbBlockEnd
  0
BLOCK
  5
A7E
330
A7D
100
AcDbEntity
  8
d002
100
AcDbBlockBegin
  2
*d002
 70
   1
 10
0
 20
0
 30
0
  3
*d002
  1
 
  0
LINE
  5
A7F
330
A7D
100
AcDbEntity
  8
d002
100
AcDbLine
 10
341.5
 20
130
 30
0
 11
341.5
 21
113
 31
0
  0
LINE
  5
A80
330
A7D
100
AcDbEntity
  8
d002
100
AcDbLine
 10
338.5
 20
130
 30
0
 11
338.5
 21
113
 31
0
  0
LINE
  5
A81
330
A7D
100
AcDbEntity
  8
d002
100
AcDbLine
 10
338.5
 20
113
 30
0
 11
341.5
 21
113
 31
0
  0
TEXT
  5
A82
330
A7D
100
AcDbEntity
  8
d002
100
AcDbText
 10
340
 20
118
 30
0
 40
3.5
  1
6
  7
STANDARD
 72
1
 11
340
 21
113
 31
0
100
AcDbText
  0
SOLID
  5
A83
330
A7D
100
AcDbEntity
  8
0
 62
     0
100
AcDbTrace
 10
333.5
 20
112.583
 30
0
 11
333.5
 21
113.417
 31
0
 12
338.5
 22
113
 32
0
 13
338.5
 23
113
 33
0
  0
SOLID
  5
A84
330
A7D
100
AcDbEntity
  8
0
 62
     0
100
AcDbTrace
 10
346.5
 20
112.583
 30
0
 11
346.5
 21
113.417
 31
0
 12
341.5
 22
113
 32
0
 13
341.5
 23
113
 33
0
  0
ENDBLK
  5
A85
330
A7D
100
AcDbEntity
  8
d002
100
AcDbBlockEnd
  0
BLOCK
  5
A88
330
A87
100
AcDbEntity
  8
d003
100
AcDbBlockBegin
  2
*d003
 70
   1
 10
0
 20
0
 30
0
  3
*d003
  1
 
  0
LINE
  5
A89
330
A87
100
AcDbEntity
  8
d003
100
AcDbLine
 10
202.5
 20
217.5
 30
0
 11
202.5
 21
217.5
 31
0
  0
TEXT
  5
A8A
330
A87
100
AcDbEntity
  8
d003
100
AcDbText
 10
234
 20
230
 30
0
 40
3.5
  1
⌀3,5
  7
STANDARD
 72
1
 11
234
 21
230
 31
0
100
AcDbText
  0
SOLID
  5
A8B
330
A87
100
AcDbEntity
  8
0
 62
     0
100
AcDbTrace
 10
202.5
 20
217.5
 30
0
 11
202.5
 21
217.5
 31
0
 12
202.5
 22
217.5
 32
0
 13
202.5
 23
217.5
 33
0
  0
SOLID
  5
A8C
330
A87
100
AcDbEntity
  8
0
 62
     0
100
AcDbTrace
 10
202.5
 20
217.5
 30
0
 11
202.5
 21
217.5
 31
0
 12
202.5
 22
217.5
 32
0
 13
202.5
 23
217.5
 33
0
  0
ENDBLK
  5
A8D
330
A87
100
AcDbEntity
  8
d003
100
AcDbBlockEnd
  0
BLOCK
  5
A90
330
A8F
100
AcDbEntity
  8
d004
100
AcDbBlockBegin
  2
*d004
 70
   1
 10
0
 20
0
 30
0
  3
*d004
  1
 
  0
LINE
  5
A91
330
A8F
100
AcDbEntity
  8
d004
100
AcDbLine
 10
90
 20
157.826
 30
0
 11
90
 21
109
 31
0
  0
LINE
  5
A92
330
A8F
100
AcDbEntity
  8
d004
100
AcDbLine
 10
119.48
 20
157.826
 30
0
 11
119.48
 21
109
 31
0
  0
LINE
  5
A93
330
A8F
100
AcDbEntity
  8
d004
100
AcDbLine
 10
119.48
 20
109
 30
0
 11
90
 21
109
 31
0
  0
TEXT
  5
A94
330
A8F
100
AcDbEntity
  8
d004
100
AcDbText
 10
150
 20
104
 30
0
 40
3.5
  1
58,96
  7
STANDARD
 72
1
 11
150
 21
109
 31
0
100
AcDbText
  0
SOLID
  5
A95
330
A8F
100
AcDbEntity
  8
0
 62
     0
100
AcDbTrace
 10
124.48
 20
108.583
 30
0
 11
124.48
 21
109.417
 31
0
 12
119.48
 22
109
 32
0
 13
119.48
 23
109
 33
0
  0
SOLID
  5
A96
330
A8F
100
AcDbEntity
  8
0
 62
     0
100
AcDbTrace
 10
85
 20
108.583
 30
0
 11
85
 21
109.417
 31
0
 12
90
 22
109
 32
0
 13
90
 23
109
 33
0
  0
ENDBLK
  5
A97
330
A8F
100
AcDbEntity
  8
d004
100
AcDbBlockEnd
  0
BLOCK
  5
A9A
330
A99
100
AcDbEntity
  8
d005
100
AcDbBlockBegin
  2
*d005
 70
   1
 10
0
 20
0
 30
0
  3
*d005
  1
 
  0
LINE
  5
A9B
330
A99
100
AcDbEntity
  8
d005
100
AcDbLine
 10
90
 20
144.121
 30
0
 11
90
 21
101
 31
0
  0
LINE
  5
A9C
330
A99
100
AcDbEntity
  8
d005
100
AcDbLine
 10
161.658
 20
144.121
 30
0
 11
161.658
 21
101
 31
0
  0
LINE
  5
A9D
330
A99
100
AcDbEntity
  8
d005
100
AcDbLine
 10
161.658
 20
101
 30
0
 11
90
 21
101
 31
0
  0
TEXT
  5
A9E
330
A99
100
AcDbEntity
  8
d005
100
AcDbText
 10
150
 20
96
 30
0
 40
3.5
  1
143,32
  7
STANDARD
 72
1
 11
150
 21
101
 31
0
100
AcDbText
  0
SOLID
  5
A9F
330
A99
100
AcDbEntity
  8
0
 62
     0
100
AcDbTrace
 10
166.658
 20
100.583
 30
0
 11
166.658
 21
101.417
 31
0
 12
161.658
 22
101
 32
0
 13
161.658
 23
101
 33
0
  0
SOLID
  5
AA0
330
A99
100
AcDbEntity
  8
0
 62
     0
100
AcDbTrace
 10
85
 20
100.583
 30
0
 11
85
 21
101.417
 31
0
 12
90
 22
101
 32
0
 13
90
 23
101
 33
0
  0
ENDBLK
  5
AA1
330
A99
100
AcDbEntity
  8
d005
100
AcDbBlockEnd
  0
BLOCK
  5
AA4
330
AA3
100
AcDbEntity
  8
d006
100
AcDbBlockBegin
  2
*d006
 70
   1
 10
0
 20
0
 30
0
  3
*d006
  1
 
  0
LINE
  5
AA5
330
AA3
100
AcDbEntity
  8
d006
100
AcDbLine
 10
90
 20
180
 30
0
 11
90
 21
93
 31
0
  0
LINE
  5
AA6
330
AA3
100
AcDbEntity
  8
d006
100
AcDbLine
 10
187.725
 20
180
 30
0
 11
187.725
 21
93
 31
0
  0
LINE
  5
AA7
330
AA3
100
AcDbEntity
  8
d006
100
AcDbLine
 10
187.725
 20
93
 30
0
 11
90
 21
93
 31
0
  0
TEXT
  5
AA8
330
AA3
100
AcDbEntity
  8
d006
100
AcDbText
 10
150
 20
88
 30
0
 40
3.5
  1
195,45
  7
STANDARD
 72
1
 11
150
 21
93
 31
0
100
AcDbText
  0
SOLID
  5
AA9
330
AA3
100
AcDbEntity
  8
0
 62
     0
100
AcDbTrace
 10
192.725
 20
92.5833
 30
0
 11
192.725
 21
93.4167
 31
0
 12
187.725
 22
93
 32
0
 13
187.725
 23
93
 33
0
  0
SOLID
  5
AAA
330
AA3
100
AcDbEntity
  8
0
 62
     0
100
AcDbTrace
 10
85
 20
92.5833
 30
0
 11
85
 21
93.4167
 31
0
 12
90
 22
93
 32
0
 13
90
 23
93
 33
0
  0
ENDBLK
  5
AAB
330
AA3
100
AcDbEntity
  8
d006
100
AcDbBlockEnd
  0
BLOCK
  5
AAE
330
AAD
100
AcDbEntity
  8
d007
100
AcDbBlockBegin
  2
*d007
 70
   1
 10
0
 20
0
 30
0
  3
*d007
  1
 
  0
LINE
  5
AAF
330
AAD
100
AcDbEntity
  8
d007
100
AcDbLine
 10
161.658
 20
130
 30
0
 11
69
 21
130
 31
0
  0
LINE
  5
AB0
330
AAD
100
AcDbEntity
  8
d007
100
AcDbLine
 10
161.658
 20
144.121
 30
0
 11
69
 21
144.121
 31
0
  0
LINE
  5
AB1
330
AAD
100
AcDbEntity
  8
d007
100
AcDbLine
 10
69
 20
144.121
 30
0
 11
69
 21
130
 31
0
  0
TEXT
  5
AB2
330
AAD
100
AcDbEntity
  8
d007
100
AcDbText
 10
64
 20
180
 30
0
 40
3.5
  1
28,24
  7
STANDARD
 72
1
 11
69
 21
180
 31
0
100
AcDbText
  0
SOLID
  5
AB3
330
AAD
100
AcDbEntity
  8
0
 62
     0
100
AcDbTrace
 10
68.5833
 20
149.121
 30
0
 11
69.4167
 21
149.121
 31
0
 12
69
 22
144.121
 32
0
 13
69
 23
144.121
 33
0
  0
SOLID
  5
AB4
330
AAD
100
AcDbEntity
  8
0
 62
     0
100
AcDbTrace
 10
68.5833
 20
125
 30
0
 11
69.4167
 21
125
 31
0
 12
69
 22
130
 32
0
 13
69
 23
130
 33
0
  0
ENDBLK
  5
AB5
330
AAD
100
AcDbEntity
  8
d007
100
AcDbBlockEnd
  0
BLOCK
  5
AB8
330
AB7
100
AcDbEntity
  8
d008
100
AcDbBlockBegin
  2
*d008
 70
   1
 10
0
 20
0
 30
0
  3
*d008
  1
 
  0
LINE
  5
AB9
330
AB7
100
AcDbEntity
  8
d008
100
AcDbLine
 10
119.48
 20
130
 30
0
 11
61
 21
130
 31
0
  0
LINE
  5
ABA
330
AB7
100
AcDbEntity
  8
d008
100
AcDbLine
 10
119.48
 20
157.826
 30
0
 11
61
 21
157.826
 31
0
  0
LINE
  5
ABB
330
AB7
100
AcDbEntity
  8
d008
100
AcDbLine
 10
61
 20
157.826
 30
0
 11
61
 21
130
 31
0
  0
TEXT
  5
ABC
330
AB7
100
AcDbEntity
  8
d008
100
AcDbText
 10
56
 20
180
 30
0
 40
3.5
  1
55,65
  7
STANDARD
 72
1
 11
61
 21
180
 31
0
100
AcDbText
  0
SOLID
  5
ABD
330
AB7
100
AcDbEntity
  8
0
 62
     0
100
AcDbTrace
 10
60.5833
 20
162.826
 30
0
 11
61.4167
 21
162.826
 31
0
 12
61
 22
157.826
 32
0
 13
61
 23
157.826
 33
0
  0
SOLID
  5
ABE
330
AB7
100
AcDbEntity
  8
0
 62
     0
100
AcDbTrace
 10
60.5833
 20
125
 30
0
 11
61.4167
 21
125
 31
0
 12
61
 22
130
 32
0
 13
61
 23
130
 33
0
  0
ENDBLK
  5
ABF
330
AB7
100
AcDbEntity
  8
d008
100
AcDbBlockEnd
  0
BLOCK
  5
AC2
330
AC1
100
AcDbEntity
  8
d009
100
AcDbBlockBegin
  2
*d009
 70
   1
 10
0
 20
0
 30
0
  3
*d009
  1
 
  0
LINE
  5
AC3
330
AC1
100
AcDbEntity
  8
d009
100
AcDbLine
 10
187.725
 20
130
 30
0
 11
53
 21
130
 31
0
  0
LINE
  5
AC4
330
AC1
100
AcDbEntity
  8
d009
100
AcDbLine
 10
187.725
 20
180
 30
0
 11
53
 21
180
 31
0
  0
LINE
  5
AC5
330
AC1
100
AcDbEntity
  8
d009
100
AcDbLine
 10
53
 20
180
 30
0
 11
53
 21
130
 31
0
  0
TEXT
  5
AC6
330
AC1
100
AcDbEntity
  8
d009
100
AcDbText
 10
48
 20
180
 30
0
 40
3.5
  1
100
  7
STANDARD
 72
1
 11
53
 21
180
 31
0
100
AcDbText
  0
SOLID
  5
AC7
330
AC1
100
AcDbEntity
  8
0
 62
     0
100
AcDbTrace
 10
52.5833
 20
185
 30
0
 11
53.4167
 21
185
 31
0
 12
53
 22
180
 32
0
 13
53
 23
180
 33
0
  0
SOLID
  5
AC8
330
AC1
100
AcDbEntity
  8
0
 62
     0
100
AcDbTrace
 10
52.5833
 20
125
 30
0
 11
53.4167
 21
125
 31
0
 12
53
 22
130
 32
0
 13
53
 23
130
 33
0
  0
ENDBLK
  5
AC9
330
AC1
100
AcDbEntity
  8
d009
100
AcDbBlockEnd
  0
BLOCK
  5
ACC
330
ACB
100
AcDbEntity
  8
d010
100
AcDbBlockBegin
  2
*d010
 70
   1
 10
0
 20
0
 30
0
  3
*d010
  1
 
  0
LINE
  5
ACD
330
ACB
100
AcDbEntity
  8
d010
100
AcDbLine
 10
119.48
 20
130
 30
0
 11
45
 21
130
 31
0
  0
LINE
  5
ACE
330
ACB
100
AcDbEntity
  8
d010
100
AcDbLine
 10
119.48
 20
202.174
 30
0
 11
45
 21
202.174
 31
0
  0
LINE
  5
ACF
330
ACB
100
AcDbEntity
  8
d010
100
AcDbLine
 10
45
 20
202.174
 30
0
 11
45
 21
130
 31
0
  0
TEXT
  5
AD0
330
ACB
100
AcDbEntity
  8
d010
100
AcDbText
 10
40
 20
180
 30
0
 40
3.5
  1
144,35
  7
STANDARD
 72
1
 11
45
 21
180
 31
0
100
AcDbText
  0
SOLID
  5
AD1
330
ACB
100
AcDbEntity
  8
0
 62
     0
100
AcDbTrace
 10
44.5833
 20
207.174
 30
0
 11
45.4167
 21
207.174
 31
0
 12
45
 22
202.174
 32
0
 13
45
 23
202.174
 33
0
  0
SOLID
  5
AD2
330
ACB
100
AcDbEntity
  8
0
 62
     0
100
AcDbTrace
 10
44.5833
 20
125
 30
0
 11
45.4167
 21
125
 31
0
 12
45
 22
130
 32
0
 13
45
 23
130
 33
0
  0
ENDBLK
  5
AD3
330
ACB
100
AcDbEntity
  8
d010
100
AcDbBlockEnd
  0
BLOCK
  5
AD6
330
AD5
100
AcDbEntity
  8
d011
100
AcDbBlockBegin
  2
*d011
 70
   1
 10
0
 20
0
 30
0
  3
*d011
  1
 
  0
LINE
  5
AD7
330
AD5
100
AcDbEntity
  8
d011
100
AcDbLine
 10
161.658
 20
130
 30
0
 11
37
 21
130
 31
0
  0
LINE
  5
AD8
330
AD5
100
AcDbEntity
  8
d011
100
AcDbLine
 10
161.658
 20
215.879
 30
0
 11
37
 21
215.879
 31
0
  0
LINE
  5
AD9
330
AD5
100
AcDbEntity
  8
d011
100
AcDbLine
 10
37
 20
215.879
 30
0
 11
37
 21
130
 31
0
  0
TEXT
  5
ADA
330
AD5
100
AcDbEntity
  8
d011
100
AcDbText
 10
32
 20
180
 30
0
 40
3.5
  1
171,76
  7
STANDARD
 72
1
 11
37
 21
180
 31
0
100
AcDbText
  0
SOLID
  5
ADB
330
AD5
100
AcDbEntity
  8
0
 62
     0
100
AcDbTrace
 10
36.5833
 20
220.879
 30
0
 11
37.4167
 21
220.879
 31
0
 12
37
 22
215.879
 32
0
 13
37
 23
215.879
 33
0
  0
SOLID
  5
ADC
330
AD5
100
AcDbEntity
  8
0
 62
     0
100
AcDbTrace
 10
36.5833
 20
125
 30
0
 11
37.4167
 21
125
 31
0
 12
37
 22
130
 32
0
 13
37
 23
130
 33
0
  0
ENDBLK
  5
ADD
330
AD5
100
AcDbEntity
  8
d011
100
AcDbBlockEnd
  0
ENDSEC
  0
SECTION
  2
ENTITIES
  0
LINE
  5
A08
330
A02
100
AcDbEntity
  8
Face
100
AcDbLine
 10
90.000000000
 20
130.000000000
 30
0.000000000
 11
210.000000000
 21
130.000000000
 31
0.000000000
  0
LINE
  5
A09
330
A02
100
AcDbEntity
  8
Face
100
AcDbLine
 10
90.000000000
 20
230.000000000
 30
0.000000000
 11
90.000000000
 21
130.000000000
 31
0.000000000
  0
LINE
  5
A0A
330
A02
100
AcDbEntity
  8
Face
100
AcDbLine
 10
210.000000000
 20
130.000000000
 30
0.000000000
 11
210.000000000
 21
230.000000000
 31
0.000000000
  0
LINE
  5
A0B
330
A02
100
AcDbEntity
  8
Face
100
AcDbLine
 10
210.000000000
 20
230.000000000
 30
0.000000000
 11
90.000000000
 21
230.000000000
 31
0.000000000
  0
CIRCLE
  5
A0C
330
A02
100
AcDbEntity
  8
Face
100
AcDbCircle
 10
97.500000000
 20
142.500000000
 30
0.000000000
 40
0.875000000
  0
CIRCLE
  5
A0D
330
A02
100
AcDbEntity
  8
Face
100
AcDbCircle
 10
105.000000000
 20
150.000000000
 30
0.000000000
 40
0.875000000
  0
CIRCLE
  5
A0E
330
A02
100
AcDbEntity
  8
Face
100
AcDbCircle
 10
97.500000000
 20
157.500000000
 30
0.000000000
 40
0.875000000
  0
CIRCLE
  5
A0F
330
A02
100
AcDbEntity
  8
Face
100
AcDbCircle
 10
112.500000000
 20
142.500000000
 30
0.000000000
 40
0.875000000
  0
CIRCLE
  5
A10
330
A02
100
AcDbEntity
  8
Face
100
AcDbCircle
 10
120.000000000
 20
150.000000000
 30
0.000000000
 40
0.875000000
  0
CIRCLE
  5
A11
330
A02
100
AcDbEntity
  8
Face
100
AcDbCircle
 10
112.500000000
 20
157.500000000
 30
0.000000000
 40
0.875000000
  0
CIRCLE
  5
A12
330
A02
100
AcDbEntity
  8
Face
100
AcDbCircle
 10
119.479833887
 20
157.825801357
 30
0.000000000
 40
0.875000000
  0
CIRCLE
  5
A13
330
A02
100
AcDbEntity
  8
Face
100
AcDbCircle
 10
105.000000000
 20
165.000000000
 30
0.000000000
 40
0.875000000
  0
CIRCLE
  5
A14
330
A02
100
AcDbEntity
  8
Face
100
AcDbCircle
 10
97.500000000
 20
172.500000000
 30
0.000000000
 40
0.875000000
  0
CIRCLE
  5
A15
330
A02
100
AcDbEntity
  8
Face
100
AcDbCircle
 10
120.000000000
 20
165.000000000
 30
0.000000000
 40
0.875000000
  0
CIRCLE
  5
A16
330
A02
100
AcDbEntity
  8
Face
100
AcDbCircle
 10
112.500000000
 20
172.500000000
 30
0.000000000
 40
0.875000000
  0
CIRCLE
  5
A17
330
A02
100
AcDbEntity
  8
Face
100
AcDbCircle
 10
127.500000000
 20
142.500000000
 30
0.000000000
 40
0.875000000
  0
CIRCLE
  5
A18
330
A02
100
AcDbEntity
  8
Face
100
AcDbCircle
 10
135.000000000
 20
150.000000000
 30
0.000000000
 40
0.875000000
  0
CIRCLE
  5
A19
330
A02
100
AcDbEntity
  8
Face
100
AcDbCircle
 10
127.500000000
 20
157.500000000
 30
0.000000000
 40
0.875000000
  0
CIRCLE
  5
A1A
330
A02
100
AcDbEntity
  8
Face
100
AcDbCircle
 10
142.500000000
 20
142.500000000
 30
0.000000000
 40
0.875000000
  0
CIRCLE
  5
A1B
330
A02
100
AcDbEntity
  8
Face
100
AcDbCircle
 10
142.500000000
 20
157.500000000
 30
0.000000000
 40
0.875000000
  0
CIRCLE
  5
A1C
330
A02
100
AcDbEntity
  8
Face
100
AcDbCircle
 10
135.000000000
 20
165.000000000
 30
0.000000000
 40
0.875000000
  0
CIRCLE
  5
A1D
330
A02
100
AcDbEntity
  8
Face
100
AcDbCircle
 10
127.500000000
 20
172.500000000
 30
0.000000000
 40
0.875000000
  0
CIRCLE
  5
A1E
330
A02
100
AcDbEntity
  8
Face
100
AcDbCircle
 10
142.500000000
 20
172.500000000
 30
0.000000000
 40
0.875000000
  0
CIRCLE
  5
A1F
330
A02
100
AcDbEntity
  8
Face
100
AcDbCircle
 10
97.500000000
 20
187.500000000
 30
0.000000000
 40
0.875000000
  0
CIRCLE
  5
A20
330
A02
100
AcDbEntity
  8
Face
100
AcDbCircle
 10
105.000000000
 20
180.000000000
 30
0.000000000
 40
0.875000000
  0
CIRCLE
  5
A21
330
A02
100
AcDbEntity
  8
Face
100
AcDbCircle
 10
105.000000000
 20
195.000000000
 30
0.000000000
 40
0.875000000
  0
CIRCLE
  5
A22
330
A02
100
AcDbEntity
  8
Face
100
AcDbCircle
 10
112.500000000
 20
187.500000000
 30
0.000000000
 40
0.875000000
  0
CIRCLE
  5
A23
330
A02
100
AcDbEntity
  8
Face
100
AcDbCircle
 10
120.000000000
 20
180.000000000
 30
0.000000000
 40
0.875000000
  0
CIRCLE
  5
A24
330
A02
100
AcDbEntity
  8
Face
100
AcDbCircle
 10
120.000000000
 20
195.000000000
 30
0.000000000
 40
0.875000000
  0
CIRCLE
  5
A25
330
A02
100
AcDbEntity
  8
Face
100
AcDbCircle
 10
97.500000000
 20
202.500000000
 30
0.000000000
 40
0.875000000
  0
CIRCLE
  5
A26
330
A02
100
AcDbEntity
  8
Face
100
AcDbCircle
 10
97.500000000
 20
217.500000000
 30
0.000000000
 40
0.875000000
  0
CIRCLE
  5
A27
330
A02
100
AcDbEntity
  8
Face
100
AcDbCircle
 10
105.000000000
 20
210.000000000
 30
0.000000000
 40
0.875000000
  0
CIRCLE
  5
A28
330
A02
100
AcDbEntity
  8
Face
100
AcDbCircle
 10
112.500000000
 20
202.500000000
 30
0.000000000
 40
0.875000000
  0
CIRCLE
  5
A29
330
A02
100
AcDbEntity
  8
Face
100
AcDbCircle
 10
119.479833887
 20
202.174198643
 30
0.000000000
 40
0.875000000
  0
CIRCLE
  5
A2A
330
A02
100
AcDbEntity
  8
Face
100
AcDbCircle
 10
112.500000000
 20
217.500000000
 30
0.000000000
 40
0.875000000
  0
CIRCLE
  5
A2B
330
A02
100
AcDbEntity
  8
Face
100
AcDbCircle
 10
120.000000000
 20
210.000000000
 30
0.000000000
 40
0.875000000
  0
CIRCLE
  5
A2C
330
A02
100
AcDbEntity
  8
Face
100
AcDbCircle
 10
127.500000000
 20
187.500000000
 30
0.000000000
 40
0.875000000
  0
CIRCLE
  5
A2D
330
A02
100
AcDbEntity
  8
Face
100
AcDbCircle
 10
135.000000000
 20
180.000000000
 30
0.000000000
 40
0.875000000
  0
CIRCLE
  5
A2E
330
A02
100
AcDbEntity
  8
Face
100
AcDbCircle
 10
135.000000000
 20
195.000000000
 30
0.000000000
 40
0.875000000
  0
CIRCLE
  5
A2F
330
A02
100
AcDbEntity
  8
Face
100
AcDbCircle
 10
142.500000000
 20
187.500000000
 30
0.000000000
 40
0.875000000
  0
CIRCLE
  5
A30
330
A02
100
AcDbEntity
  8
Face
100
AcDbCircle
 10
127.500000000
 20
202.500000000
 30
0.000000000
 40
0.875000000
  0
CIRCLE
  5
A31
330
A02
100
AcDbEntity
  8
Face
100
AcDbCircle
 10
127.500000000
 20
217.500000000
 30
0.000000000
 40
0.875000000
  0
CIRCLE
  5
A32
330
A02
100
AcDbEntity
  8
Face
100
AcDbCircle
 10
135.000000000
 20
210.000000000
 30
0.000000000
 40
0.875000000
  0
CIRCLE
  5
A33
330
A02
100
AcDbEntity
  8
Face
100
AcDbCircle
 10
142.500000000
 20
202.500000000
 30
0.000000000
 40
0.875000000
  0
CIRCLE
  5
A34
330
A02
100
AcDbEntity
  8
Face
100
AcDbCircle
 10
142.500000000
 20
217.500000000
 30
0.000000000
 40
0.875000000
  0
CIRCLE
  5
A35
330
A02
100
AcDbEntity
  8
Face
100
AcDbCircle
 10
150.000000000
 20
150.000000000
 30
0.000000000
 40
0.875000000
  0
CIRCLE
  5
A36
330
A02
100
AcDbEntity
  8
Face
100
AcDbCircle
 10
157.500000000
 20
142.500000000
 30
0.000000000
 40
0.875000000
  0
CIRCLE
  5
A37
330
A02
100
AcDbEntity
  8
Face
100
AcDbCircle
 10
161.657666113
 20
144.121392923
 30
0.000000000
 40
0.875000000
  0
CIRCLE
  5
A38
330
A02
100
AcDbEntity
  8
Face
100
AcDbCircle
 10
157.500000000
 20
157.500000000
 30
0.000000000
 40
0.875000000
  0
CIRCLE
  5
A39
330
A02
100
AcDbEntity
  8
Face
100
AcDbCircle
 10
165.000000000
 20
150.000000000
 30
0.000000000
 40
0.875000000
  0
CIRCLE
  5
A3A
330
A02
100
AcDbEntity
  8
Face
100
AcDbCircle
 10
172.500000000
 20
142.500000000
 30
0.000000000
 40
0.875000000
  0
CIRCLE
  5
A3B
330
A02
100
AcDbEntity
  8
Face
100
AcDbCircle
 10
172.500000000
 20
157.500000000
 30
0.000000000
 40
0.875000000
  0
CIRCLE
  5
A3C
330
A02
100
AcDbEntity
  8
Face
100
AcDbCircle
 10
150.000000000
 20
165.000000000
 30
0.000000000
 40
0.875000000
  0
CIRCLE
  5
A3D
330
A02
100
AcDbEntity
  8
Face
100
AcDbCircle
 10
157.500000000
 20
172.500000000
 30
0.000000000
 40
0.875000000
  0
CIRCLE
  5
A3E
330
A02
100
AcDbEntity
  8
Face
100
AcDbCircle
 10
165.000000000
 20
165.000000000
 30
0.000000000
 40
0.875000000
  0
CIRCLE
  5
A3F
330
A02
100
AcDbEntity
  8
Face
100
AcDbCircle
 10
172.500000000
 20
172.500000000
 30
0.000000000
 40
0.875000000
  0
CIRCLE
  5
A40
330
A02
100
AcDbEntity
  8
Face
100
AcDbCircle
 10
180.000000000
 20
150.000000000
 30
0.000000000
 40
0.875000000
  0
CIRCLE
  5
A41
330
A02
100
AcDbEntity
  8
Face
100
AcDbCircle
 10
187.500000000
 20
142.500000000
 30
0.000000000
 40
0.875000000
  0
CIRCLE
  5
A42
330
A02
100
AcDbEntity
  8
Face
100
AcDbCircle
 10
187.500000000
 20
157.500000000
 30
0.000000000
 40
0.875000000
  0
CIRCLE
  5
A43
330
A02
100
AcDbEntity
  8
Face
100
AcDbCircle
 10
195.000000000
 20
150.000000000
 30
0.000000000
 40
0.875000000
  0
CIRCLE
  5
A44
330
A02
100
AcDbEntity
  8
Face
100
AcDbCircle
 10
202.500000000
 20
142.500000000
 30
0.000000000
 40
0.875000000
  0
CIRCLE
  5
A45
330
A02
100
AcDbEntity
  8
Face
100
AcDbCircle
 10
202.500000000
 20
157.500000000
 30
0.000000000
 40
0.875000000
  0
CIRCLE
  5
A46
330
A02
100
AcDbEntity
  8
Face
100
AcDbCircle
 10
180.000000000
 20
165.000000000
 30
0.000000000
 40
0.875000000
  0
CIRCLE
  5
A47
330
A02
100
AcDbEntity
  8
Face
100
AcDbCircle
 10
187.500000000
 20
172.500000000
 30
0.000000000
 40
0.875000000
  0
CIRCLE
  5
A48
330
A02
100
AcDbEntity
  8
Face
100
AcDbCircle
 10
195.000000000
 20
165.000000000
 30
0.000000000
 40
0.875000000
  0
CIRCLE
  5
A49
330
A02
100
AcDbEntity
  8
Face
100
AcDbCircle
 10
202.500000000
 20
172.500000000
 30
0.000000000
 40
0.875000000
  0
CIRCLE
  5
A4A
330
A02
100
AcDbEntity
  8
Face
100
AcDbCircle
 10
150.000000000
 20
180.000000000
 30
0.000000000
 40
0.875000000
  0
CIRCLE
  5
A4B
330
A02
100
AcDbEntity
  8
Face
100
AcDbCircle
 10
157.500000000
 20
187.500000000
 30
0.000000000
 40
0.875000000
  0
CIRCLE
  5
A4C
330
A02
100
AcDbEntity
  8
Face
100
AcDbCircle
 10
150.000000000
 20
195.000000000
 30
0.000000000
 40
0.875000000
  0
CIRCLE
  5
A4D
330
A02
100
AcDbEntity
  8
Face
100
AcDbCircle
 10
165.000000000
 20
180.000000000
 30
0.000000000
 40
0.875000000
  0
CIRCLE
  5
A4E
330
A02
100
AcDbEntity
  8
Face
100
AcDbCircle
 10
172.500000000
 20
187.500000000
 30
0.000000000
 40
0.875000000
  0
CIRCLE
  5
A4F
330
A02
100
AcDbEntity
  8
Face
100
AcDbCircle
 10
165.000000000
 20
195.000000000
 30
0.000000000
 40
0.875000000
  0
CIRCLE
  5
A50
330
A02
100
AcDbEntity
  8
Face
100
AcDbCircle
 10
157.500000000
 20
202.500000000
 30
0.000000000
 40
0.875000000
  0
CIRCLE
  5
A51
330
A02
100
AcDbEntity
  8
Face
100
AcDbCircle
 10
150.000000000
 20
210.000000000
 30
0.000000000
 40
0.875000000
  0
CIRCLE
  5
A52
330
A02
100
AcDbEntity
  8
Face
100
AcDbCircle
 10
157.500000000
 20
217.500000000
 30
0.000000000
 40
0.875000000
  0
CIRCLE
  5
A53
330
A02
100
AcDbEntity
  8
Face
100
AcDbCircle
 10
161.657666113
 20
215.878607077
 30
0.000000000
 40
0.875000000
  0
CIRCLE
  5
A54
330
A02
100
AcDbEntity
  8
Face
100
AcDbCircle
 10
172.500000000
 20
202.500000000
 30
0.000000000
 40
0.875000000
  0
CIRCLE
  5
A55
330
A02
100
AcDbEntity
  8
Face
100
AcDbCircle
 10
165.000000000
 20
210.000000000
 30
0.000000000
 40
0.875000000
  0
CIRCLE
  5
A56
330
A02
100
AcDbEntity
  8
Face
100
AcDbCircle
 10
172.500000000
 20
217.500000000
 30
0.000000000
 40
0.875000000
  0
CIRCLE
  5
A57
330
A02
100
AcDbEntity
  8
Face
100
AcDbCircle
 10
180.000000000
 20
180.000000000
 30
0.000000000
 40
0.875000000
  0
CIRCLE
  5
A58
330
A02
100
AcDbEntity
  8
Face
100
AcDbCircle
 10
187.725000000
 20
180.000000000
 30
0.000000000
 40
0.875000000
  0
CIRCLE
  5
A59
330
A02
100
AcDbEntity
  8
Face
100
AcDbCircle
 10
187.500000000
 20
187.500000000
 30
0.000000000
 40
0.875000000
  0
CIRCLE
  5
A5A
330
A02
100
AcDbEntity
  8
Face
100
AcDbCircle
 10
180.000000000
 20
195.000000000
 30
0.000000000
 40
0.875000000
  0
CIRCLE
  5
A5B
330
A02
100
AcDbEntity
  8
Face
100
AcDbCircle
 10
195.000000000
 20
180.000000000
 30
0.000000000
 40
0.875000000
  0
CIRCLE
  5
A5C
330
A02
100
AcDbEntity
  8
Face
100
AcDbCircle
 10
202.500000000
 20
187.500000000
 30
0.000000000
 40
0.875000000
  0
CIRCLE
  5
A5D
330
A02
100
AcDbEntity
  8
Face
100
AcDbCircle
 10
195.000000000
 20
195.000000000
 30
0.000000000
 40
0.875000000
  0
CIRCLE
  5
A5E
330
A02
100
AcDbEntity
  8
Face
100
AcDbCircle
 10
187.500000000
 20
202.500000000
 30
0.000000000
 40
0.875000000
  0
CIRCLE
  5
A5F
330
A02
100
AcDbEntity
  8
Face
100
AcDbCircle
 10
180.000000000
 20
210.000000000
 30
0.000000000
 40
0.875000000
  0
CIRCLE
  5
A60
330
A02
100
AcDbEntity
  8
Face
100
AcDbCircle
 10
187.500000000
 20
217.500000000
 30
0.000000000
 40
0.875000000
  0
CIRCLE
  5
A61
330
A02
100
AcDbEntity
  8
Face
100
AcDbCircle
 10
202.500000000
 20
202.500000000
 30
0.000000000
 40
0.875000000
  0
CIRCLE
  5
A62
330
A02
100
AcDbEntity
  8
Face
100
AcDbCircle
 10
195.000000000
 20
210.000000000
 30
0.000000000
 40
0.875000000
  0
CIRCLE
  5
A63
330
A02
100
AcDbEntity
  8
Face
100
AcDbCircle
 10
202.500000000
 20
217.500000000
 30
0.000000000
 40
0.875000000
  0
LINE
  5
A64
330
A02
100
AcDbEntity
  8
Edge
100
AcDbLine
 10
338.500000000
 20
130.000000000
 30
0.000000000
 11
341.500000000
 21
130.000000000
 31
0.000000000
  0
LINE
  5
A65
330
A02
100
AcDbEntity
  8
Edge
100
AcDbLine
 10
338.500000000
 20
230.000000000
 30
0.000000000
 11
341.500000000
 21
230.000000000
 31
0.000000000
  0
LINE
  5
A66
330
A02
100
AcDbEntity
  8
Edge
100
AcDbLine
 10
338.500000000
 20
130.000000000
 30
0.000000000
 11
338.500000000
 21
230.000000000
 31
0.000000000
  0
LINE
  5
A67
330
A02
100
AcDbEntity
  8
Edge
100
AcDbLine
 10
341.500000000
 20
130.000000000
 30
0.000000000
 11
341.500000000
 21
230.000000000
 31
0.000000000
  0
DIMENSION
  5
A68
330
A02
100
AcDbEntity
  8
d000
100
AcDbDimension
  2
*d000
 10
150.000000000
 20
111.000000000
 30
0.000000000
 11
150.000000000
 21
116.000000000
 31
0.000000000
 70
32
  1
240
  3
STANDARD
100
AcDbAlignedDimension
 13
90.000000000
 23
230.000000000
 33
0.000000000
 14
210.000000000
 24
230.000000000
 34
0.000000000
100
AcDbRotatedDimension
  0
DIMENSION
  5
A72
330
A02
100
AcDbEntity
  8
d001
100
AcDbDimension
  2
*d001
 10
71.000000000
 20
180.000000000
 30
0.000000000
 11
76.000000000
 21
180.000000000
 31
0.000000000
 70
32
  1
200
  3
STANDARD
100
AcDbAlignedDimension
 13
90.000000000
 23
130.000000000
 33
0.000000000
 14
90.000000000
 24
230.000000000
 34
0.000000000
 50
90
100
AcDbRotatedDimension
  0
DIMENSION
  5
A7C
330
A02
100
AcDbEntity
  8
d002
100
AcDbDimension
  2
*d002
 10
340.000000000
 20
113.000000000
 30
0.000000000
 11
340.000000000
 21
118.000000000
 31
0.000000000
 70
32
  1
6
  3
STANDARD
100
AcDbAlignedDimension
 13
338.500000000
 23
130.000000000
 33
0.000000000
 14
341.500000000
 24
130.000000000
 34
0.000000000
100
AcDbRotatedDimension
  0
DIMENSION
  5
A86
330
A02
100
AcDbEntity
  8
d003
100
AcDbDimension
  2
*d003
 10
202.500000000
 20
217.500000000
 30
0.000000000
 11
234.000000000
 21
230.000000000
 31
0.000000000
 70
3
  1
⌀3,5
  3
STANDARD
100
AcDbDiametricDimension
 15
202.500000000
 25
217.500000000
 35
0.000000000
 40
0
  0
DIMENSION
  5
A8E
330
A02
100
AcDbEntity
  8
d004
100
AcDbDimension
  2
*d004
 10
150.000000000
 20
109.000000000
 30
0.000000000
 11
150.000000000
 21
104.000000000
 31
0.000000000
 70
32
  1
58,96
  3
STANDARD
100
AcDbAlignedDimension
 13
119.479833887
 23
157.825801357
 33
0.000000000
 14
90.000000000
 24
157.825801357
 34
0.000000000
100
AcDbRotatedDimension
  0
DIMENSION
  5
A98
330
A02
100
AcDbEntity
  8
d005
100
AcDbDimension
  2
*d005
 10
150.000000000
 20
101.000000000
 30
0.000000000
 11
150.000000000
 21
96.000000000
 31
0.000000000
 70
32
  1
143,32
  3
STANDARD
100
AcDbAlignedDimension
 13
161.657666113
 23
144.121392923
 33
0.000000000
 14
90.000000000
 24
144.121392923
 34
0.000000000
100
AcDbRotatedDimension
  0
DIMENSION
  5
AA2
330
A02
100
AcDbEntity
  8
d006
100
AcDbDimension
  2
*d006
 10
150.000000000
 20
93.000000000
 30
0.000000000
 11
150.000000000
 21
88.000000000
 31
0.000000000
 70
32
  1
195,45
  3
STANDARD
100
AcDbAlignedDimension
 13
187.725000000
 23
180.000000000
 33
0.000000000
 14
90.000000000
 24
180.000000000
 34
0.000000000
100
AcDbRotatedDimension
  0
DIMENSION
  5
AAC
330
A02
100
AcDbEntity
  8
d007
100
AcDbDimension
  2
*d007
 10
69.000000000
 20
180.000000000
 30
0.000000000
 11
64.000000000
 21
180.000000000
 31
0.000000000
 70
32
  1
28,24
  3
STANDARD
100
AcDbAlignedDimension
 13
161.657666113
 23
144.121392923
 33
0.000000000
 14
161.657666113
 24
130.000000000
 34
0.000000000
 50
90
100
AcDbRotatedDimension
  0
DIMENSION
  5
AB6
330
A02
100
AcDbEntity
  8
d008
100
AcDbDimension
  2
*d008
 10
61.000000000
 20
180.000000000
 30
0.000000000
 11
56.000000000
 21
180.000000000
 31
0.000000000
 70
32
  1
55,65
  3
STANDARD
100
AcDbAlignedDimension
 13
119.479833887
 23
157.825801357
 33
0.000000000
 14
119.479833887
 24
130.000000000
 34
0.000000000
 50
90
100
AcDbRotatedDimension
  0
DIMENSION
  5
AC0
330
A02
100
AcDbEntity
  8
d009
100
AcDbDimension
  2
*d009
 10
53.000000000
 20
180.000000000
 30
0.000000000
 11
48.000000000
 21
180.000000000
 31
0.000000000
 70
32
  1
100
  3
STANDARD
100
AcDbAlignedDimension
 13
187.725000000
 23
180.000000000
 33
0.000000000
 14
187.725000000
 24
130.000000000
 34
0.000000000
 50
90
100
AcDbRotatedDimension
  0
DIMENSION
  5
ACA
330
A02
100
AcDbEntity
  8
d010
100
AcDbDimension
  2
*d010
 10
45.000000000
 20
180.000000000
 30
0.000000000
 11
40.000000000
 21
180.000000000
 31
0.000000000
 70
32
  1
144,35
  3
STANDARD
100
AcDbAlignedDimension
 13
119.479833887
 23
202.174198643
 33
0.000000000
 14
119.479833887
 24
130.000000000
 34
0.000000000
 50
90
100
AcDbRotatedDimension
  0
DIMENSION
  5
AD4
330
A02
100
AcDbEntity
  8
d011
100
AcDbDimension
  2
*d011
 10
37.000000000
 20
180.000000000
 30
0.000000000
 11
32.000000000
 21
180.000000000
 31
0.000000000
 70
32
  1
171,76
  3
STANDARD
100
AcDbAlignedDimension
 13
161.657666113
 23
215.878607077
 33
0.000000000
 14
161.657666113
 24
130.000000000
 34
0.000000000
 50
90
100
AcDbRotatedDimension
  0
TEXT
  5
ADE
330
A02
100
AcDbEntity
  8
note014
100
AcDbText
 10
82.000000000
 20
58.000000000
 30
0.000000000
 40
3.200000000
  1
5 x DIA 3.5 on a DIA 150.9 bolt circle, at 0 and +/-72 and +/-144 deg
  7
STANDARD
 72
1
 11
82.000000000
 21
58.000000000
 31
0.000000000
100
AcDbText
  0
TEXT
  5
ADF
330
A02
100
AcDbEntity
  8
note015
100
AcDbText
 10
330.000000000
 20
262.000000000
 30
0.000000000
 40
2.600000000
  1
HOLE SUMMARY
  7
STANDARD
 72
1
 11
330.000000000
 21
262.000000000
 31
0.000000000
100
AcDbText
  0
ENDSEC
  0
SECTION
  2
OBJECTS
  0
DICTIONARY
  5
F000
330
0
100
AcDbDictionary
  3
ACAD_GROUP
350
F001
  0
DICTIONARY
  5
F001
330
F000
100
AcDbDictionary
  0
ENDSEC
  0
EOF