999
FreeCAD v1.1 44987 (Git)
  0
SECTION
  2
HEADER
  9
$ACADVER
  1
AC1014
  9
$ACADMAINTVER
 70
     9
  9
$DWGCODEPAGE
  3
ANSI_1252
  9
$TEXTSTYLE
  7
STANDARD
  9
$DIMSTYLE
  2
STANDARD
  9
$DIMTXSTY
  7
STANDARD
  9
$CMLSTYLE
  2
STANDARD
  9
$LUNITS
 70
2
  9
$INSUNITS
 70
4
  9
$PEXTMAX
 10
50
 20
50
 30
50
  9
$PEXTMIN
 10
0
 20
0
 30
0
  9
$HANDSEED
  5
FFFF
  0
ENDSEC
  0
SECTION
  2
CLASSES
  0
CLASS
  1
ACDBDICTIONARYWDFLT
  2
AcDbDictionaryWithDefault
  3
ObjectDBX Classes
 90
        0
280
     0
281
     0
  0
CLASS
  1
XRECORD
  2
AcDbXrecord
  3
ObjectDBX Classes
 90
        0
280
     0
281
     0
  0
CLASS
  1
LWPOLYLINE
  2
AcDbPolyline
  3
ObjectDBX Classes
 90
        0
280
     0
281
     1
  0
ENDSEC
  0
SECTION
  2
TABLES
  0
TABLE
  2
VPORT
  5
20
330
0
100
AcDbSymbolTable
 70
     1
  0
VPORT
  5
21
330
20
100
AcDbSymbolTableRecord
100
AcDbViewportTableRecord
  2
*ACTIVE
 70
     0
  0
ENDTAB
  0
TABLE
  2
LTYPE
  5
22
330
0
100
AcDbSymbolTable
 70
     1
  0
LTYPE
  5
23
330
21
100
AcDbSymbolTableRecord
100
AcDbLinetypeTableRecord
  2
BYBLOCK
 70
     0
  3

 72
    65
 73
     0
 40
0.0
  0
LTYPE
  5
24
330
21
100
AcDbSymbolTableRecord
100
AcDbLinetypeTableRecord
  2
BYLAYER
 70
     0
  3

 72
    65
 73
     0
 40
0.0
  0
LTYPE
  5
25
330
21
100
AcDbSymbolTableRecord
100
AcDbLinetypeTableRecord
  2
CONTINUOUS
 70
     0
  3
Solid line
 72
    65
 73
     0
 40
0.0
  0
ENDTAB
  0
TABLE
  2
LAYER
  5
AE3
330
0
100
AcDbSymbolTable
 70
23
  0
LAYER
  5
AE4
330
AE3
100
AcDbSymbolTableRecord
100
AcDbLayerTableRecord
  2
0
 70
   0
 62
   7
  6
CONTINUOUS
  0
LAYER
  5
AE5
330
AE3
100
AcDbSymbolTableRecord
100
AcDbLayerTableRecord
  2
Face
 70
    0
 62
    7
  6
CONTINUOUS
  0
LAYER
  5
AE6
330
AE3
100
AcDbSymbolTableRecord
100
AcDbLayerTableRecord
  2
Edge
 70
    0
 62
    7
  6
CONTINUOUS
  0
LAYER
  5
AE7
330
AE3
100
AcDbSymbolTableRecord
100
AcDbLayerTableRecord
  2
d000
 70
    0
 62
    7
  6
CONTINUOUS
  0
LAYER
  5
AE8
330
AE3
100
AcDbSymbolTableRecord
100
AcDbLayerTableRecord
  2
d001
 70
    0
 62
    7
  6
CONTINUOUS
  0
LAYER
  5
AE9
330
AE3
100
AcDbSymbolTableRecord
100
AcDbLayerTableRecord
  2
d002
 70
    0
 62
    7
  6
CONTINUOUS
  0
LAYER
  5
AEA
330
AE3
100
AcDbSymbolTableRecord
100
AcDbLayerTableRecord
  2
d003
 70
    0
 62
    7
  6
CONTINUOUS
  0
LAYER
  5
AEB
330
AE3
100
AcDbSymbolTableRecord
100
AcDbLayerTableRecord
  2
d004
 70
    0
 62
    7
  6
CONTINUOUS
  0
LAYER
  5
AEC
330
AE3
100
AcDbSymbolTableRecord
100
AcDbLayerTableRecord
  2
d005
 70
    0
 62
    7
  6
CONTINUOUS
  0
LAYER
  5
AED
330
AE3
100
AcDbSymbolTableRecord
100
AcDbLayerTableRecord
  2
d006
 70
    0
 62
    7
  6
CONTINUOUS
  0
LAYER
  5
AEE
330
AE3
100
AcDbSymbolTableRecord
100
AcDbLayerTableRecord
  2
d007
 70
    0
 62
    7
  6
CONTINUOUS
  0
LAYER
  5
AEF
330
AE3
100
AcDbSymbolTableRecord
100
AcDbLayerTableRecord
  2
d008
 70
    0
 62
    7
  6
CONTINUOUS
  0
LAYER
  5
AF0
330
AE3
100
AcDbSymbolTableRecord
100
AcDbLayerTableRecord
  2
d009
 70
    0
 62
    7
  6
CONTINUOUS
  0
LAYER
  5
AF1
330
AE3
100
AcDbSymbolTableRecord
100
AcDbLayerTableRecord
  2
d010
 70
    0
 62
    7
  6
CONTINUOUS
  0
LAYER
  5
AF2
330
AE3
100
AcDbSymbolTableRecord
100
AcDbLayerTableRecord
  2
d011
 70
    0
 62
    7
  6
CONTINUOUS
  0
LAYER
  5
AF3
330
AE3
100
AcDbSymbolTableRecord
100
AcDbLayerTableRecord
  2
d012
 70
    0
 62
    7
  6
CONTINUOUS
  0
LAYER
  5
AF4
330
AE3
100
AcDbSymbolTableRecord
100
AcDbLayerTableRecord
  2
d013
 70
    0
 62
    7
  6
CONTINUOUS
  0
LAYER
  5
AF5
330
AE3
100
AcDbSymbolTableRecord
100
AcDbLayerTableRecord
  2
d014
 70
    0
 62
    7
  6
CONTINUOUS
  0
LAYER
  5
AF6
330
AE3
100
AcDbSymbolTableRecord
100
AcDbLayerTableRecord
  2
d015
 70
    0
 62
    7
  6
CONTINUOUS
  0
LAYER
  5
AF7
330
AE3
100
AcDbSymbolTableRecord
100
AcDbLayerTableRecord
  2
d016
 70
    0
 62
    7
  6
CONTINUOUS
  0
LAYER
  5
AF8
330
AE3
100
AcDbSymbolTableRecord
100
AcDbLayerTableRecord
  2
d017
 70
    0
 62
    7
  6
CONTINUOUS
  0
LAYER
  5
AF9
330
AE3
100
AcDbSymbolTableRecord
100
AcDbLayerTableRecord
  2
note020
 70
    0
 62
    7
  6
CONTINUOUS
  0
LAYER
  5
AFA
330
AE3
100
AcDbSymbolTableRecord
100
AcDbLayerTableRecord
  2
note021
 70
    0
 62
    7
  6
CONTINUOUS
  0
ENDTAB
  0
TABLE
  2
STYLE
  5
70
330
0
100
AcDbSymbolTable
 70
     2
  0
STYLE
  5
71
330
70
100
AcDbSymbolTableRecord
100
AcDbTextStyleTableRecord
  2
STANDARD
 70
     0
 40
0.0
 41
1.0
 50
0.0
 71
     0
 42
2.5
  3
arial.ttf
  4

  0
STYLE
  5
72
330
70
100
AcDbSymbolTableRecord
100
AcDbTextStyleTableRecord
  2
ANNOTATIVE
 70
     0
 40
0.0
 41
1.0
 50
0.0
 71
     0
 42
2.5
  3
arial.ttf
  4

  0
ENDTAB
  0
TABLE
  2
VIEW
  5
73
330
0
100
AcDbSymbolTable
 70
     0
  0
ENDTAB
  0
TABLE
  2
UCS
  5
74
330
0
100
AcDbSymbolTable
 70
     0
  0
ENDTAB
  0
TABLE
  2
APPID
  5
75
330
0
100
AcDbSymbolTable
 70
     2
  0
APPID
  5
76
330
75
100
AcDbSymbolTableRecord
100
AcDbRegAppTableRecord
  2
ACAD
 70
     0
  0
APPID
  5
77
330
75
100
AcDbSymbolTableRecord
100
AcDbRegAppTableRecord
  2
ACADANNOTATIVE
 70
     0
  0
ENDTAB
  0
TABLE
  2
DIMSTYLE
  5
78
330
0
100
AcDbSymbolTable
 70
     2
  0
DIMSTYLE
105
79
330
78
100
AcDbSymbolTableRecord
100
AcDbDimStyleTableRecord
  2
STANDARD
 70
     0
  3

  4

  5

  6

  7

 40
0.0
 41
2.5
 42
0.625
 43
3.75
 44
1.25
 45
0.0
 46
0.0
 47
0.0
 48
0.0
140
2.5
141
2.5
142
0.0
143
0.03937007874016
144
1.0
145
0.0
146
1.0
147
0.625
 71
     0
 72
     0
 73
     0
 74
     0
 75
     0
 76
     0
 77
     1
 78
     8
170
     0
171
     3
172
     1
173
     0
174
     0
175
     0
176
     0
177
     0
178
     0
270
     2
271
     2
272
     2
273
     2
274
     3
340
71
275
     0
280
     0
281
     0
282
     0
283
     0
284
     8
285
     0
286
     0
287
     3
288
     0
  0
ENDTAB
  0
TABLE
  2
BLOCK_RECORD
  5
A01
330
0
100
AcDbSymbolTable
  70
5
  0
BLOCK_RECORD
  5
A02
330
A01
100
AcDbSymbolTableRecord
100
AcDbBlockTableRecord
  2
*MODEL_SPACE
  0
BLOCK_RECORD
  5
A03
330
A01
100
AcDbSymbolTableRecord
100
AcDbBlockTableRecord
  2
*PAPER_SPACE
  0
BLOCK_RECORD
  5
A32
330
A01
100
AcDbSymbolTableRecord
100
AcDbBlockTableRecord
  2
*d000
  0
BLOCK_RECORD
  5
A3C
330
A01
100
AcDbSymbolTableRecord
100
AcDbBlockTableRecord
  2
*d001
  0
BLOCK_RECORD
  5
A46
330
A01
100
AcDbSymbolTableRecord
100
AcDbBlockTableRecord
  2
*d002
  0
BLOCK_RECORD
  5
A50
330
A01
100
AcDbSymbolTableRecord
100
AcDbBlockTableRecord
  2
*d003
  0
BLOCK_RECORD
  5
A58
330
A01
100
AcDbSymbolTableRecord
100
AcDbBlockTableRecord
  2
*d004
  0
BLOCK_RECORD
  5
A60
330
A01
100
AcDbSymbolTableRecord
100
AcDbBlockTableRecord
  2
*d005
  0
BLOCK_RECORD
  5
A6A
330
A01
100
AcDbSymbolTableRecord
100
AcDbBlockTableRecord
  2
*d006
  0
BLOCK_RECORD
  5
A74
330
A01
100
AcDbSymbolTableRecord
100
AcDbBlockTableRecord
  2
*d007
  0
BLOCK_RECORD
  5
A7E
330
A01
100
AcDbSymbolTableRecord
100
AcDbBlockTableRecord
  2
*d008
  0
BLOCK_RECORD
  5
A88
330
A01
100
AcDbSymbolTableRecord
100
AcDbBlockTableRecord
  2
*d009
  0
BLOCK_RECORD
  5
A92
330
A01
100
AcDbSymbolTableRecord
100
AcDbBlockTableRecord
  2
*d010
  0
BLOCK_RECORD
  5
A9C
330
A01
100
AcDbSymbolTableRecord
100
AcDbBlockTableRecord
  2
*d011
  0
BLOCK_RECORD
  5
AA6
330
A01
100
AcDbSymbolTableRecord
100
AcDbBlockTableRecord
  2
*d012
  0
BLOCK_RECORD
  5
AB0
330
A01
100
AcDbSymbolTableRecord
100
AcDbBlockTableRecord
  2
*d013
  0
BLOCK_RECORD
  5
ABA
330
A01
100
AcDbSymbolTableRecord
100
AcDbBlockTableRecord
  2
*d014
  0
BLOCK_RECORD
  5
AC4
330
A01
100
AcDbSymbolTableRecord
100
AcDbBlockTableRecord
  2
*d015
  0
BLOCK_RECORD
  5
ACE
330
A01
100
AcDbSymbolTableRecord
100
AcDbBlockTableRecord
  2
*d016
  0
BLOCK_RECORD
  5
AD8
330
A01
100
AcDbSymbolTableRecord
100
AcDbBlockTableRecord
  2
*d017
  0
ENDTAB
  0
ENDSEC
  0
SECTION
  2
BLOCKS
  0
BLOCK
  5
A04
330
A02
100
AcDbEntity
  8
0
100
AcDbBlockBegin
  2
*MODEL_SPACE
 70
   0
 10
0
 20
0
 30
0
  3
*MODEL_SPACE
  1
 
  0
ENDBLK
  5
A05
330
A02
100
AcDbEntity
  8
0
100
AcDbBlockEnd
  0
BLOCK
  5
A06
330
A03
100
AcDbEntity
 67
1
  8
0
100
AcDbBlockBegin
  2
*PAPER_SPACE
 70
   0
 10
0
 20
0
 30
0
  3
*PAPER_SPACE
  1
 
  0
ENDBLK
  5
A07
330
A03
100
AcDbEntity
 67
    1
  8
0
100
AcDbBlockEnd
  0
BLOCK
  5
A33
330
A32
100
AcDbEntity
  8
d000
100
AcDbBlockBegin
  2
*d000
 70
   1
 10
0
 20
0
 30
0
  3
*d000
  1
 
  0
LINE
  5
A34
330
A32
100
AcDbEntity
  8
d000
100
AcDbLine
 10
200
 20
230
 30
0
 11
200
 21
111
 31
0
  0
LINE
  5
A35
330
A32
100
AcDbEntity
  8
d000
100
AcDbLine
 10
100
 20
230
 30
0
 11
100
 21
111
 31
0
  0
LINE
  5
A36
330
A32
100
AcDbEntity
  8
d000
100
AcDbLine
 10
100
 20
111
 30
0
 11
200
 21
111
 31
0
  0
TEXT
  5
A37
330
A32
100
AcDbEntity
  8
d000
100
AcDbText
 10
150
 20
116
 30
0
 40
3.5
  1
200
  7
STANDARD
 72
1
 11
150
 21
111
 31
0
100
AcDbText
  0
SOLID
  5
A38
330
A32
100
AcDbEntity
  8
0
 62
     0
100
AcDbTrace
 10
95
 20
110.583
 30
0
 11
95
 21
111.417
 31
0
 12
100
 22
111
 32
0
 13
100
 23
111
 33
0
  0
SOLID
  5
A39
330
A32
100
AcDbEntity
  8
0
 62
     0
100
AcDbTrace
 10
205
 20
110.583
 30
0
 11
205
 21
111.417
 31
0
 12
200
 22
111
 32
0
 13
200
 23
111
 33
0
  0
ENDBLK
  5
A3A
330
A32
100
AcDbEntity
  8
d000
100
AcDbBlockEnd
  0
BLOCK
  5
A3D
330
A3C
100
AcDbEntity
  8
d001
100
AcDbBlockBegin
  2
*d001
 70
   1
 10
0
 20
0
 30
0
  3
*d001
  1
 
  0
LINE
  5
A3E
330
A3C
100
AcDbEntity
  8
d001
100
AcDbLine
 10
100
 20
230
 30
0
 11
81
 21
230
 31
0
  0
LINE
  5
A3F
330
A3C
100
AcDbEntity
  8
d001
100
AcDbLine
 10
100
 20
130
 30
0
 11
81
 21
130
 31
0
  0
LINE
  5
A40
330
A3C
100
AcDbEntity
  8
d001
100
AcDbLine
 10
81
 20
130
 30
0
 11
81
 21
230
 31
0
  0
TEXT
  5
A41
330
A3C
100
AcDbEntity
  8
d001
100
AcDbText
 10
86
 20
180
 30
0
 40
3.5
  1
200
  7
STANDARD
 72
1
 11
81
 21
180
 31
0
100
AcDbText
  0
SOLID
  5
A42
330
A3C
100
AcDbEntity
  8
0
 62
     0
100
AcDbTrace
 10
80.5833
 20
125
 30
0
 11
81.4167
 21
125
 31
0
 12
81
 22
130
 32
0
 13
81
 23
130
 33
0
  0
SOLID
  5
A43
330
A3C
100
AcDbEntity
  8
0
 62
     0
100
AcDbTrace
 10
80.5833
 20
235
 30
0
 11
81.4167
 21
235
 31
0
 12
81
 22
230
 32
0
 13
81
 23
230
 33
0
  0
ENDBLK
  5
A44
330
A3C
100
AcDbEntity
  8
d001
100
AcDbBlockEnd
  0
BLOCK
  5
A47
330
A46
100
AcDbEntity
  8
d002
100
AcDbBlockBegin
  2
*d002
 70
   1
 10
0
 20
0
 30
0
  3
*d002
  1
 
  0
LINE
  5
A48
330
A46
100
AcDbEntity
  8
d002
100
AcDbLine
 10
341.5
 20
130
 30
0
 11
341.5
 21
113
 31
0
  0
LINE
  5
A49
330
A46
100
AcDbEntity
  8
d002
100
AcDbLine
 10
338.5
 20
130
 30
0
 11
338.5
 21
113
 31
0
  0
LINE
  5
A4A
330
A46
100
AcDbEntity
  8
d002
100
AcDbLine
 10
338.5
 20
113
 30
0
 11
341.5
 21
113
 31
0
  0
TEXT
  5
A4B
330
A46
100
AcDbEntity
  8
d002
100
AcDbText
 10
340
 20
118
 30
0
 40
3.5
  1
6
  7
STANDARD
 72
1
 11
340
 21
113
 31
0
100
AcDbText
  0
SOLID
  5
A4C
330
A46
100
AcDbEntity
  8
0
 62
     0
100
AcDbTrace
 10
333.5
 20
112.583
 30
0
 11
333.5
 21
113.417
 31
0
 12
338.5
 22
113
 32
0
 13
338.5
 23
113
 33
0
  0
SOLID
  5
A4D
330
A46
100
AcDbEntity
  8
0
 62
     0
100
AcDbTrace
 10
346.5
 20
112.583
 30
0
 11
346.5
 21
113.417
 31
0
 12
341.5
 22
113
 32
0
 13
341.5
 23
113
 33
0
  0
ENDBLK
  5
A4E
330
A46
100
AcDbEntity
  8
d002
100
AcDbBlockEnd
  0
BLOCK
  5
A51
330
A50
100
AcDbEntity
  8
d003
100
AcDbBlockBegin
  2
*d003
 70
   1
 10
0
 20
0
 30
0
  3
*d003
  1
 
  0
LINE
  5
A52
330
A50
100
AcDbEntity
  8
d003
100
AcDbLine
 10
191
 20
215
 30
0
 11
191
 21
215
 31
0
  0
TEXT
  5
A53
330
A50
100
AcDbEntity
  8
d003
100
AcDbText
 10
224
 20
230
 30
0
 40
3.5
  1
⌀2,5
  7
STANDARD
 72
1
 11
224
 21
230
 31
0
100
AcDbText
  0
SOLID
  5
A54
330
A50
100
AcDbEntity
  8
0
 62
     0
100
AcDbTrace
 10
191
 20
215
 30
0
 11
191
 21
215
 31
0
 12
191
 22
215
 32
0
 13
191
 23
215
 33
0
  0
SOLID
  5
A55
330
A50
100
AcDbEntity
  8
0
 62
     0
100
AcDbTrace
 10
191
 20
215
 30
0
 11
191
 21
215
 31
0
 12
191
 22
215
 32
0
 13
191
 23
215
 33
0
  0
ENDBLK
  5
A56
330
A50
100
AcDbEntity
  8
d003
100
AcDbBlockEnd
  0
BLOCK
  5
A59
330
A58
100
AcDbEntity
  8
d004
100
AcDbBlockBegin
  2
*d004
 70
   1
 10
0
 20
0
 30
0
  3
*d004
  1
 
  0
LINE
  5
A5A
330
A58
100
AcDbEntity
  8
d004
100
AcDbLine
 10
161.658
 20
215.879
 30
0
 11
161.658
 21
215.879
 31
0
  0
TEXT
  5
A5B
330
A58
100
AcDbEntity
  8
d004
100
AcDbText
 10
224
 20
221
 30
0
 40
3.5
  1
⌀10
  7
STANDARD
 72
1
 11
224
 21
221
 31
0
100
AcDbText
  0
SOLID
  5
A5C
330
A58
100
AcDbEntity
  8
0
 62
     0
100
AcDbTrace
 10
161.658
 20
215.879
 30
0
 11
161.658
 21
215.879
 31
0
 12
161.658
 22
215.879
 32
0
 13
161.658
 23
215.879
 33
0
  0
SOLID
  5
A5D
330
A58
100
AcDbEntity
  8
0
 62
     0
100
AcDbTrace
 10
161.658
 20
215.879
 30
0
 11
161.658
 21
215.879
 31
0
 12
161.658
 22
215.879
 32
0
 13
161.658
 23
215.879
 33
0
  0
ENDBLK
  5
A5E
330
A58
100
AcDbEntity
  8
d004
100
AcDbBlockEnd
  0
BLOCK
  5
A61
330
A60
100
AcDbEntity
  8
d005
100
AcDbBlockBegin
  2
*d005
 70
   1
 10
0
 20
0
 30
0
  3
*d005
  1
 
  0
LINE
  5
A62
330
A60
100
AcDbEntity
  8
d005
100
AcDbLine
 10
100
 20
157.826
 30
0
 11
100
 21
109
 31
0
  0
LINE
  5
A63
330
A60
100
AcDbEntity
  8
d005
100
AcDbLine
 10
119.48
 20
157.826
 30
0
 11
119.48
 21
109
 31
0
  0
LINE
  5
A64
330
A60
100
AcDbEntity
  8
d005
100
AcDbLine
 10
119.48
 20
109
 30
0
 11
100
 21
109
 31
0
  0
TEXT
  5
A65
330
A60
100
AcDbEntity
  8
d005
100
AcDbText
 10
150
 20
104
 30
0
 40
3.5
  1
38,96
  7
STANDARD
 72
1
 11
150
 21
109
 31
0
100
AcDbText
  0
SOLID
  5
A66
330
A60
100
AcDbEntity
  8
0
 62
     0
100
AcDbTrace
 10
124.48
 20
108.583
 30
0
 11
124.48
 21
109.417
 31
0
 12
119.48
 22
109
 32
0
 13
119.48
 23
109
 33
0
  0
SOLID
  5
A67
330
A60
100
AcDbEntity
  8
0
 62
     0
100
AcDbTrace
 10
95
 20
108.583
 30
0
 11
95
 21
109.417
 31
0
 12
100
 22
109
 32
0
 13
100
 23
109
 33
0
  0
ENDBLK
  5
A68
330
A60
100
AcDbEntity
  8
d005
100
AcDbBlockEnd
  0
BLOCK
  5
A6B
330
A6A
100
AcDbEntity
  8
d006
100
AcDbBlockBegin
  2
*d006
 70
   1
 10
0
 20
0
 30
0
  3
*d006
  1
 
  0
LINE
  5
A6C
330
A6A
100
AcDbEntity
  8
d006
100
AcDbLine
 10
100
 20
180
 30
0
 11
100
 21
101
 31
0
  0
LINE
  5
A6D
330
A6A
100
AcDbEntity
  8
d006
100
AcDbLine
 10
119.5
 20
180
 30
0
 11
119.5
 21
101
 31
0
  0
LINE
  5
A6E
330
A6A
100
AcDbEntity
  8
d006
100
AcDbLine
 10
119.5
 20
101
 30
0
 11
100
 21
101
 31
0
  0
TEXT
  5
A6F
330
A6A
100
AcDbEntity
  8
d006
100
AcDbText
 10
150
 20
96
 30
0
 40
3.5
  1
39
  7
STANDARD
 72
1
 11
150
 21
101
 31
0
100
AcDbText
  0
SOLID
  5
A70
330
A6A
100
AcDbEntity
  8
0
 62
     0
100
AcDbTrace
 10
124.5
 20
100.583
 30
0
 11
124.5
 21
101.417
 31
0
 12
119.5
 22
101
 32
0
 13
119.5
 23
101
 33
0
  0
SOLID
  5
A71
330
A6A
100
AcDbEntity
  8
0
 62
     0
100
AcDbTrace
 10
95
 20
100.583
 30
0
 11
95
 21
101.417
 31
0
 12
100
 22
101
 32
0
 13
100
 23
101
 33
0
  0
ENDBLK
  5
A72
330
A6A
100
AcDbEntity
  8
d006
100
AcDbBlockEnd
  0
BLOCK
  5
A75
330
A74
100
AcDbEntity
  8
d007
100
AcDbBlockBegin
  2
*d007
 70
   1
 10
0
 20
0
 30
0
  3
*d007
  1
 
  0
LINE
  5
A76
330
A74
100
AcDbEntity
  8
d007
100
AcDbLine
 10
100
 20
149.5
 30
0
 11
100
 21
93
 31
0
  0
LINE
  5
A77
330
A74
100
AcDbEntity
  8
d007
100
AcDbLine
 10
150
 20
149.5
 30
0
 11
150
 21
93
 31
0
  0
LINE
  5
A78
330
A74
100
AcDbEntity
  8
d007
100
AcDbLine
 10
150
 20
93
 30
0
 11
100
 21
93
 31
0
  0
TEXT
  5
A79
330
A74
100
AcDbEntity
  8
d007
100
AcDbText
 10
150
 20
88
 30
0
 40
3.5
  1
100
  7
STANDARD
 72
1
 11
150
 21
93
 31
0
100
AcDbText
  0
SOLID
  5
A7A
330
A74
100
AcDbEntity
  8
0
 62
     0
100
AcDbTrace
 10
155
 20
92.5833
 30
0
 11
155
 21
93.4167
 31
0
 12
150
 22
93
 32
0
 13
150
 23
93
 33
0
  0
SOLID
  5
A7B
330
A74
100
AcDbEntity
  8
0
 62
     0
100
AcDbTrace
 10
95
 20
92.5833
 30
0
 11
95
 21
93.4167
 31
0
 12
100
 22
93
 32
0
 13
100
 23
93
 33
0
  0
ENDBLK
  5
A7C
330
A74
100
AcDbEntity
  8
d007
100
AcDbBlockEnd
  0
BLOCK
  5
A7F
330
A7E
100
AcDbEntity
  8
d008
100
AcDbBlockBegin
  2
*d008
 70
   1
 10
0
 20
0
 30
0
  3
*d008
  1
 
  0
LINE
  5
A80
330
A7E
100
AcDbEntity
  8
d008
100
AcDbLine
 10
100
 20
144.121
 30
0
 11
100
 21
85
 31
0
  0
LINE
  5
A81
330
A7E
100
AcDbEntity
  8
d008
100
AcDbLine
 10
161.658
 20
144.121
 30
0
 11
161.658
 21
85
 31
0
  0
LINE
  5
A82
330
A7E
100
AcDbEntity
  8
d008
100
AcDbLine
 10
161.658
 20
85
 30
0
 11
100
 21
85
 31
0
  0
TEXT
  5
A83
330
A7E
100
AcDbEntity
  8
d008
100
AcDbText
 10
150
 20
80
 30
0
 40
3.5
  1
123,32
  7
STANDARD
 72
1
 11
150
 21
85
 31
0
100
AcDbText
  0
SOLID
  5
A84
330
A7E
100
AcDbEntity
  8
0
 62
     0
100
AcDbTrace
 10
166.658
 20
84.5833
 30
0
 11
166.658
 21
85.4167
 31
0
 12
161.658
 22
85
 32
0
 13
161.658
 23
85
 33
0
  0
SOLID
  5
A85
330
A7E
100
AcDbEntity
  8
0
 62
     0
100
AcDbTrace
 10
95
 20
84.5833
 30
0
 11
95
 21
85.4167
 31
0
 12
100
 22
85
 32
0
 13
100
 23
85
 33
0
  0
ENDBLK
  5
A86
330
A7E
100
AcDbEntity
  8
d008
100
AcDbBlockEnd
  0
BLOCK
  5
A89
330
A88
100
AcDbEntity
  8
d009
100
AcDbBlockBegin
  2
*d009
 70
   1
 10
0
 20
0
 30
0
  3
*d009
  1
 
  0
LINE
  5
A8A
330
A88
100
AcDbEntity
  8
d009
100
AcDbLine
 10
100
 20
180
 30
0
 11
100
 21
77
 31
0
  0
LINE
  5
A8B
330
A88
100
AcDbEntity
  8
d009
100
AcDbLine
 10
180.5
 20
180
 30
0
 11
180.5
 21
77
 31
0
  0
LINE
  5
A8C
330
A88
100
AcDbEntity
  8
d009
100
AcDbLine
 10
180.5
 20
77
 30
0
 11
100
 21
77
 31
0
  0
TEXT
  5
A8D
330
A88
100
AcDbEntity
  8
d009
100
AcDbText
 10
150
 20
72
 30
0
 40
3.5
  1
161
  7
STANDARD
 72
1
 11
150
 21
77
 31
0
100
AcDbText
  0
SOLID
  5
A8E
330
A88
100
AcDbEntity
  8
0
 62
     0
100
AcDbTrace
 10
185.5
 20
76.5833
 30
0
 11
185.5
 21
77.4167
 31
0
 12
180.5
 22
77
 32
0
 13
180.5
 23
77
 33
0
  0
SOLID
  5
A8F
330
A88
100
AcDbEntity
  8
0
 62
     0
100
AcDbTrace
 10
95
 20
76.5833
 30
0
 11
95
 21
77.4167
 31
0
 12
100
 22
77
 32
0
 13
100
 23
77
 33
0
  0
ENDBLK
  5
A90
330
A88
100
AcDbEntity
  8
d009
100
AcDbBlockEnd
  0
BLOCK
  5
A93
330
A92
100
AcDbEntity
  8
d010
100
AcDbBlockBegin
  2
*d010
 70
   1
 10
0
 20
0
 30
0
  3
*d010
  1
 
  0
LINE
  5
A94
330
A92
100
AcDbEntity
  8
d010
100
AcDbLine
 10
100
 20
180
 30
0
 11
100
 21
69
 31
0
  0
LINE
  5
A95
330
A92
100
AcDbEntity
  8
d010
100
AcDbLine
 10
187.725
 20
180
 30
0
 11
187.725
 21
69
 31
0
  0
LINE
  5
A96
330
A92
100
AcDbEntity
  8
d010
100
AcDbLine
 10
187.725
 20
69
 30
0
 11
100
 21
69
 31
0
  0
TEXT
  5
A97
330
A92
100
AcDbEntity
  8
d010
100
AcDbText
 10
150
 20
64
 30
0
 40
3.5
  1
175,45
  7
STANDARD
 72
1
 11
150
 21
69
 31
0
100
AcDbText
  0
SOLID
  5
A98
330
A92
100
AcDbEntity
  8
0
 62
     0
100
AcDbTrace
 10
192.725
 20
68.5833
 30
0
 11
192.725
 21
69.4167
 31
0
 12
187.725
 22
69
 32
0
 13
187.725
 23
69
 33
0
  0
SOLID
  5
A99
330
A92
100
AcDbEntity
  8
0
 62
     0
100
AcDbTrace
 10
95
 20
68.5833
 30
0
 11
95
 21
69.4167
 31
0
 12
100
 22
69
 32
0
 13
100
 23
69
 33
0
  0
ENDBLK
  5
A9A
330
A92
100
AcDbEntity
  8
d010
100
AcDbBlockEnd
  0
BLOCK
  5
A9D
330
A9C
100
AcDbEntity
  8
d011
100
AcDbBlockBegin
  2
*d011
 70
   1
 10
0
 20
0
 30
0
  3
*d011
  1
 
  0
LINE
  5
A9E
330
A9C
100
AcDbEntity
  8
d011
100
AcDbLine
 10
161.658
 20
130
 30
0
 11
79
 21
130
 31
0
  0
LINE
  5
A9F
330
A9C
100
AcDbEntity
  8
d011
100
AcDbLine
 10
161.658
 20
144.121
 30
0
 11
79
 21
144.121
 31
0
  0
LINE
  5
AA0
330
A9C
100
AcDbEntity
  8
d011
100
AcDbLine
 10
79
 20
144.121
 30
0
 11
79
 21
130
 31
0
  0
TEXT
  5
AA1
330
A9C
100
AcDbEntity
  8
d011
100
AcDbText
 10
74
 20
180
 30
0
 40
3.5
  1
28,24
  7
STANDARD
 72
1
 11
79
 21
180
 31
0
100
AcDbText
  0
SOLID
  5
AA2
330
A9C
100
AcDbEntity
  8
0
 62
     0
100
AcDbTrace
 10
78.5833
 20
149.121
 30
0
 11
79.4167
 21
149.121
 31
0
 12
79
 22
144.121
 32
0
 13
79
 23
144.121
 33
0
  0
SOLID
  5
AA3
330
A9C
100
AcDbEntity
  8
0
 62
     0
100
AcDbTrace
 10
78.5833
 20
125
 30
0
 11
79.4167
 21
125
 31
0
 12
79
 22
130
 32
0
 13
79
 23
130
 33
0
  0
ENDBLK
  5
AA4
330
A9C
100
AcDbEntity
  8
d011
100
AcDbBlockEnd
  0
BLOCK
  5
AA7
330
AA6
100
AcDbEntity
  8
d012
100
AcDbBlockBegin
  2
*d012
 70
   1
 10
0
 20
0
 30
0
  3
*d012
  1
 
  0
LINE
  5
AA8
330
AA6
100
AcDbEntity
  8
d012
100
AcDbLine
 10
150
 20
130
 30
0
 11
71
 21
130
 31
0
  0
LINE
  5
AA9
330
AA6
100
AcDbEntity
  8
d012
100
AcDbLine
 10
150
 20
149.5
 30
0
 11
71
 21
149.5
 31
0
  0
LINE
  5
AAA
330
AA6
100
AcDbEntity
  8
d012
100
AcDbLine
 10
71
 20
149.5
 30
0
 11
71
 21
130
 31
0
  0
TEXT
  5
AAB
330
AA6
100
AcDbEntity
  8
d012
100
AcDbText
 10
66
 20
180
 30
0
 40
3.5
  1
39
  7
STANDARD
 72
1
 11
71
 21
180
 31
0
100
AcDbText
  0
SOLID
  5
AAC
330
AA6
100
AcDbEntity
  8
0
 62
     0
100
AcDbTrace
 10
70.5833
 20
154.5
 30
0
 11
71.4167
 21
154.5
 31
0
 12
71
 22
149.5
 32
0
 13
71
 23
149.5
 33
0
  0
SOLID
  5
AAD
330
AA6
100
AcDbEntity
  8
0
 62
     0
100
AcDbTrace
 10
70.5833
 20
125
 30
0
 11
71.4167
 21
125
 31
0
 12
71
 22
130
 32
0
 13
71
 23
130
 33
0
  0
ENDBLK
  5
AAE
330
AA6
100
AcDbEntity
  8
d012
100
AcDbBlockEnd
  0
BLOCK
  5
AB1
330
AB0
100
AcDbEntity
  8
d013
100
AcDbBlockBegin
  2
*d013
 70
   1
 10
0
 20
0
 30
0
  3
*d013
  1
 
  0
LINE
  5
AB2
330
AB0
100
AcDbEntity
  8
d013
100
AcDbLine
 10
119.48
 20
130
 30
0
 11
63
 21
130
 31
0
  0
LINE
  5
AB3
330
AB0
100
AcDbEntity
  8
d013
100
AcDbLine
 10
119.48
 20
157.826
 30
0
 11
63
 21
157.826
 31
0
  0
LINE
  5
AB4
330
AB0
100
AcDbEntity
  8
d013
100
AcDbLine
 10
63
 20
157.826
 30
0
 11
63
 21
130
 31
0
  0
TEXT
  5
AB5
330
AB0
100
AcDbEntity
  8
d013
100
AcDbText
 10
58
 20
180
 30
0
 40
3.5
  1
55,65
  7
STANDARD
 72
1
 11
63
 21
180
 31
0
100
AcDbText
  0
SOLID
  5
AB6
330
AB0
100
AcDbEntity
  8
0
 62
     0
100
AcDbTrace
 10
62.5833
 20
162.826
 30
0
 11
63.4167
 21
162.826
 31
0
 12
63
 22
157.826
 32
0
 13
63
 23
157.826
 33
0
  0
SOLID
  5
AB7
330
AB0
100
AcDbEntity
  8
0
 62
     0
100
AcDbTrace
 10
62.5833
 20
125
 30
0
 11
63.4167
 21
125
 31
0
 12
63
 22
130
 32
0
 13
63
 23
130
 33
0
  0
ENDBLK
  5
AB8
330
AB0
100
AcDbEntity
  8
d013
100
AcDbBlockEnd
  0
BLOCK
  5
ABB
330
ABA
100
AcDbEntity
  8
d014
100
AcDbBlockBegin
  2
*d014
 70
   1
 10
0
 20
0
 30
0
  3
*d014
  1
 
  0
LINE
  5
ABC
330
ABA
100
AcDbEntity
  8
d014
100
AcDbLine
 10
180.5
 20
130
 30
0
 11
55
 21
130
 31
0
  0
LINE
  5
ABD
330
ABA
100
AcDbEntity
  8
d014
100
AcDbLine
 10
180.5
 20
180
 30
0
 11
55
 21
180
 31
0
  0
LINE
  5
ABE
330
ABA
100
AcDbEntity
  8
d014
100
AcDbLine
 10
55
 20
180
 30
0
 11
55
 21
130
 31
0
  0
TEXT
  5
ABF
330
ABA
100
AcDbEntity
  8
d014
100
AcDbText
 10
50
 20
180
 30
0
 40
3.5
  1
100
  7
STANDARD
 72
1
 11
55
 21
180
 31
0
100
AcDbText
  0
SOLID
  5
AC0
330
ABA
100
AcDbEntity
  8
0
 62
     0
100
AcDbTrace
 10
54.5833
 20
185
 30
0
 11
55.4167
 21
185
 31
0
 12
55
 22
180
 32
0
 13
55
 23
180
 33
0
  0
SOLID
  5
AC1
330
ABA
100
AcDbEntity
  8
0
 62
     0
100
AcDbTrace
 10
54.5833
 20
125
 30
0
 11
55.4167
 21
125
 31
0
 12
55
 22
130
 32
0
 13
55
 23
130
 33
0
  0
ENDBLK
  5
AC2
330
ABA
100
AcDbEntity
  8
d014
100
AcDbBlockEnd
  0
BLOCK
  5
AC5
330
AC4
100
AcDbEntity
  8
d015
100
AcDbBlockBegin
  2
*d015
 70
   1
 10
0
 20
0
 30
0
  3
*d015
  1
 
  0
LINE
  5
AC6
330
AC4
100
AcDbEntity
  8
d015
100
AcDbLine
 10
119.48
 20
130
 30
0
 11
47
 21
130
 31
0
  0
LINE
  5
AC7
330
AC4
100
AcDbEntity
  8
d015
100
AcDbLine
 10
119.48
 20
202.174
 30
0
 11
47
 21
202.174
 31
0
  0
LINE
  5
AC8
330
AC4
100
AcDbEntity
  8
d015
100
AcDbLine
 10
47
 20
202.174
 30
0
 11
47
 21
130
 31
0
  0
TEXT
  5
AC9
330
AC4
100
AcDbEntity
  8
d015
100
AcDbText
 10
42
 20
180
 30
0
 40
3.5
  1
144,35
  7
STANDARD
 72
1
 11
47
 21
180
 31
0
100
AcDbText
  0
SOLID
  5
ACA
330
AC4
100
AcDbEntity
  8
0
 62
     0
100
AcDbTrace
 10
46.5833
 20
207.174
 30
0
 11
47.4167
 21
207.174
 31
0
 12
47
 22
202.174
 32
0
 13
47
 23
202.174
 33
0
  0
SOLID
  5
ACB
330
AC4
100
AcDbEntity
  8
0
 62
     0
100
AcDbTrace
 10
46.5833
 20
125
 30
0
 11
47.4167
 21
125
 31
0
 12
47
 22
130
 32
0
 13
47
 23
130
 33
0
  0
ENDBLK
  5
ACC
330
AC4
100
AcDbEntity
  8
d015
100
AcDbBlockEnd
  0
BLOCK
  5
ACF
330
ACE
100
AcDbEntity
  8
d016
100
AcDbBlockBegin
  2
*d016
 70
   1
 10
0
 20
0
 30
0
  3
*d016
  1
 
  0
LINE
  5
AD0
330
ACE
100
AcDbEntity
  8
d016
100
AcDbLine
 10
150
 20
130
 30
0
 11
39
 21
130
 31
0
  0
LINE
  5
AD1
330
ACE
100
AcDbEntity
  8
d016
100
AcDbLine
 10
150
 20
210.5
 30
0
 11
39
 21
210.5
 31
0
  0
LINE
  5
AD2
330
ACE
100
AcDbEntity
  8
d016
100
AcDbLine
 10
39
 20
210.5
 30
0
 11
39
 21
130
 31
0
  0
TEXT
  5
AD3
330
ACE
100
AcDbEntity
  8
d016
100
AcDbText
 10
34
 20
180
 30
0
 40
3.5
  1
161
  7
STANDARD
 72
1
 11
39
 21
180
 31
0
100
AcDbText
  0
SOLID
  5
AD4
330
ACE
100
AcDbEntity
  8
0
 62
     0
100
AcDbTrace
 10
38.5833
 20
215.5
 30
0
 11
39.4167
 21
215.5
 31
0
 12
39
 22
210.5
 32
0
 13
39
 23
210.5
 33
0
  0
SOLID
  5
AD5
330
ACE
100
AcDbEntity
  8
0
 62
     0
100
AcDbTrace
 10
38.5833
 20
125
 30
0
 11
39.4167
 21
125
 31
0
 12
39
 22
130
 32
0
 13
39
 23
130
 33
0
  0
ENDBLK
  5
AD6
330
ACE
100
AcDbEntity
  8
d016
100
AcDbBlockEnd
  0
BLOCK
  5
AD9
330
AD8
100
AcDbEntity
  8
d017
100
AcDbBlockBegin
  2
*d017
 70
   1
 10
0
 20
0
 30
0
  3
*d017
  1
 
  0
LINE
  5
ADA
330
AD8
100
AcDbEntity
  8
d017
100
AcDbLine
 10
161.658
 20
130
 30
0
 11
31
 21
130
 31
0
  0
LINE
  5
ADB
330
AD8
100
AcDbEntity
  8
d017
100
AcDbLine
 10
161.658
 20
215.879
 30
0
 11
31
 21
215.879
 31
0
  0
LINE
  5
ADC
330
AD8
100
AcDbEntity
  8
d017
100
AcDbLine
 10
31
 20
215.879
 30
0
 11
31
 21
130
 31
0
  0
TEXT
  5
ADD
330
AD8
100
AcDbEntity
  8
d017
100
AcDbText
 10
26
 20
180
 30
0
 40
3.5
  1
171,76
  7
STANDARD
 72
1
 11
31
 21
180
 31
0
100
AcDbText
  0
SOLID
  5
ADE
330
AD8
100
AcDbEntity
  8
0
 62
     0
100
AcDbTrace
 10
30.5833
 20
220.879
 30
0
 11
31.4167
 21
220.879
 31
0
 12
31
 22
215.879
 32
0
 13
31
 23
215.879
 33
0
  0
SOLID
  5
ADF
330
AD8
100
AcDbEntity
  8
0
 62
     0
100
AcDbTrace
 10
30.5833
 20
125
 30
0
 11
31.4167
 21
125
 31
0
 12
31
 22
130
 32
0
 13
31
 23
130
 33
0
  0
ENDBLK
  5
AE0
330
AD8
100
AcDbEntity
  8
d017
100
AcDbBlockEnd
  0
ENDSEC
  0
SECTION
  2
ENTITIES
  0
LINE
  5
A08
330
A02
100
AcDbEntity
  8
Face
100
AcDbLine
 10
100.000000000
 20
130.000000000
 30
0.000000000
 11
200.000000000
 21
130.000000000
 31
0.000000000
  0
LINE
  5
A09
330
A02
100
AcDbEntity
  8
Face
100
AcDbLine
 10
100.000000000
 20
230.000000000
 30
0.000000000
 11
100.000000000
 21
130.000000000
 31
0.000000000
  0
LINE
  5
A0A
330
A02
100
AcDbEntity
  8
Face
100
AcDbLine
 10
200.000000000
 20
130.000000000
 30
0.000000000
 11
200.000000000
 21
230.000000000
 31
0.000000000
  0
LINE
  5
A0B
330
A02
100
AcDbEntity
  8
Face
100
AcDbLine
 10
200.000000000
 20
230.000000000
 30
0.000000000
 11
100.000000000
 21
230.000000000
 31
0.000000000
  0
CIRCLE
  5
A0C
330
A02
100
AcDbEntity
  8
Face
100
AcDbCircle
 10
103.150000000
 20
132.000000000
 30
0.000000000
 40
0.625000000
  0
CIRCLE
  5
A0D
330
A02
100
AcDbEntity
  8
Face
100
AcDbCircle
 10
103.150000000
 20
138.000000000
 30
0.000000000
 40
0.625000000
  0
CIRCLE
  5
A0E
330
A02
100
AcDbEntity
  8
Face
100
AcDbCircle
 10
113.300000000
 20
132.000000000
 30
0.000000000
 40
0.625000000
  0
CIRCLE
  5
A0F
330
A02
100
AcDbEntity
  8
Face
100
AcDbCircle
 10
113.300000000
 20
138.000000000
 30
0.000000000
 40
0.625000000
  0
CIRCLE
  5
A10
330
A02
100
AcDbEntity
  8
Face
100
AcDbCircle
 10
109.000000000
 20
145.000000000
 30
0.000000000
 40
0.625000000
  0
CIRCLE
  5
A11
330
A02
100
AcDbEntity
  8
Face
100
AcDbCircle
 10
109.000000000
 20
154.000000000
 30
0.000000000
 40
0.625000000
  0
CIRCLE
  5
A12
330
A02
100
AcDbEntity
  8
Face
100
AcDbCircle
 10
123.500000000
 20
145.000000000
 30
0.000000000
 40
0.625000000
  0
CIRCLE
  5
A13
330
A02
100
AcDbEntity
  8
Face
100
AcDbCircle
 10
123.500000000
 20
154.000000000
 30
0.000000000
 40
0.625000000
  0
CIRCLE
  5
A14
330
A02
100
AcDbEntity
  8
Face
100
AcDbCircle
 10
119.479833887
 20
157.825801357
 30
0.000000000
 40
2.500000000
  0
CIRCLE
  5
A15
330
A02
100
AcDbEntity
  8
Face
100
AcDbCircle
 10
119.500000000
 20
180.000000000
 30
0.000000000
 40
0.625000000
  0
CIRCLE
  5
A16
330
A02
100
AcDbEntity
  8
Face
100
AcDbCircle
 10
119.479833887
 20
202.174198643
 30
0.000000000
 40
2.500000000
  0
CIRCLE
  5
A17
330
A02
100
AcDbEntity
  8
Face
100
AcDbCircle
 10
109.000000000
 20
206.000000000
 30
0.000000000
 40
0.625000000
  0
CIRCLE
  5
A18
330
A02
100
AcDbEntity
  8
Face
100
AcDbCircle
 10
109.000000000
 20
215.000000000
 30
0.000000000
 40
0.625000000
  0
CIRCLE
  5
A19
330
A02
100
AcDbEntity
  8
Face
100
AcDbCircle
 10
103.150000000
 20
222.000000000
 30
0.000000000
 40
0.625000000
  0
CIRCLE
  5
A1A
330
A02
100
AcDbEntity
  8
Face
100
AcDbCircle
 10
103.150000000
 20
228.000000000
 30
0.000000000
 40
0.625000000
  0
CIRCLE
  5
A1B
330
A02
100
AcDbEntity
  8
Face
100
AcDbCircle
 10
113.300000000
 20
222.000000000
 30
0.000000000
 40
0.625000000
  0
CIRCLE
  5
A1C
330
A02
100
AcDbEntity
  8
Face
100
AcDbCircle
 10
113.300000000
 20
228.000000000
 30
0.000000000
 40
0.625000000
  0
CIRCLE
  5
A1D
330
A02
100
AcDbEntity
  8
Face
100
AcDbCircle
 10
123.500000000
 20
206.000000000
 30
0.000000000
 40
0.625000000
  0
CIRCLE
  5
A1E
330
A02
100
AcDbEntity
  8
Face
100
AcDbCircle
 10
123.500000000
 20
215.000000000
 30
0.000000000
 40
0.625000000
  0
CIRCLE
  5
A1F
330
A02
100
AcDbEntity
  8
Face
100
AcDbCircle
 10
150.000000000
 20
149.500000000
 30
0.000000000
 40
0.625000000
  0
CIRCLE
  5
A20
330
A02
100
AcDbEntity
  8
Face
100
AcDbCircle
 10
161.657666113
 20
144.121392923
 30
0.000000000
 40
2.500000000
  0
CIRCLE
  5
A21
330
A02
100
AcDbEntity
  8
Face
100
AcDbCircle
 10
176.500000000
 20
145.000000000
 30
0.000000000
 40
0.625000000
  0
CIRCLE
  5
A22
330
A02
100
AcDbEntity
  8
Face
100
AcDbCircle
 10
176.500000000
 20
154.000000000
 30
0.000000000
 40
0.625000000
  0
CIRCLE
  5
A23
330
A02
100
AcDbEntity
  8
Face
100
AcDbCircle
 10
191.000000000
 20
145.000000000
 30
0.000000000
 40
0.625000000
  0
CIRCLE
  5
A24
330
A02
100
AcDbEntity
  8
Face
100
AcDbCircle
 10
191.000000000
 20
154.000000000
 30
0.000000000
 40
0.625000000
  0
CIRCLE
  5
A25
330
A02
100
AcDbEntity
  8
Face
100
AcDbCircle
 10
180.500000000
 20
180.000000000
 30
0.000000000
 40
0.625000000
  0
CIRCLE
  5
A26
330
A02
100
AcDbEntity
  8
Face
100
AcDbCircle
 10
187.725000000
 20
180.000000000
 30
0.000000000
 40
2.500000000
  0
CIRCLE
  5
A27
330
A02
100
AcDbEntity
  8
Face
100
AcDbCircle
 10
150.000000000
 20
210.500000000
 30
0.000000000
 40
0.625000000
  0
CIRCLE
  5
A28
330
A02
100
AcDbEntity
  8
Face
100
AcDbCircle
 10
161.657666113
 20
215.878607077
 30
0.000000000
 40
2.500000000
  0
CIRCLE
  5
A29
330
A02
100
AcDbEntity
  8
Face
100
AcDbCircle
 10
176.500000000
 20
206.000000000
 30
0.000000000
 40
0.625000000
  0
CIRCLE
  5
A2A
330
A02
100
AcDbEntity
  8
Face
100
AcDbCircle
 10
176.500000000
 20
215.000000000
 30
0.000000000
 40
0.625000000
  0
CIRCLE
  5
A2B
330
A02
100
AcDbEntity
  8
Face
100
AcDbCircle
 10
191.000000000
 20
206.000000000
 30
0.000000000
 40
0.625000000
  0
CIRCLE
  5
A2C
330
A02
100
AcDbEntity
  8
Face
100
AcDbCircle
 10
191.000000000
 20
215.000000000
 30
0.000000000
 40
0.625000000
  0
LINE
  5
A2D
330
A02
100
AcDbEntity
  8
Edge
100
AcDbLine
 10
338.500000000
 20
130.000000000
 30
0.000000000
 11
341.500000000
 21
130.000000000
 31
0.000000000
  0
LINE
  5
A2E
330
A02
100
AcDbEntity
  8
Edge
100
AcDbLine
 10
338.500000000
 20
230.000000000
 30
0.000000000
 11
341.500000000
 21
230.000000000
 31
0.000000000
  0
LINE
  5
A2F
330
A02
100
AcDbEntity
  8
Edge
100
AcDbLine
 10
338.500000000
 20
130.000000000
 30
0.000000000
 11
338.500000000
 21
230.000000000
 31
0.000000000
  0
LINE
  5
A30
330
A02
100
AcDbEntity
  8
Edge
100
AcDbLine
 10
341.500000000
 20
130.000000000
 30
0.000000000
 11
341.500000000
 21
230.000000000
 31
0.000000000
  0
DIMENSION
  5
A31
330
A02
100
AcDbEntity
  8
d000
100
AcDbDimension
  2
*d000
 10
150.000000000
 20
111.000000000
 30
0.000000000
 11
150.000000000
 21
116.000000000
 31
0.000000000
 70
32
  1
200
  3
STANDARD
100
AcDbAlignedDimension
 13
100.000000000
 23
230.000000000
 33
0.000000000
 14
200.000000000
 24
230.000000000
 34
0.000000000
100
AcDbRotatedDimension
  0
DIMENSION
  5
A3B
330
A02
100
AcDbEntity
  8
d001
100
AcDbDimension
  2
*d001
 10
81.000000000
 20
180.000000000
 30
0.000000000
 11
86.000000000
 21
180.000000000
 31
0.000000000
 70
32
  1
200
  3
STANDARD
100
AcDbAlignedDimension
 13
100.000000000
 23
130.000000000
 33
0.000000000
 14
100.000000000
 24
230.000000000
 34
0.000000000
 50
90
100
AcDbRotatedDimension
  0
DIMENSION
  5
A45
330
A02
100
AcDbEntity
  8
d002
100
AcDbDimension
  2
*d002
 10
340.000000000
 20
113.000000000
 30
0.000000000
 11
340.000000000
 21
118.000000000
 31
0.000000000
 70
32
  1
6
  3
STANDARD
100
AcDbAlignedDimension
 13
338.500000000
 23
130.000000000
 33
0.000000000
 14
341.500000000
 24
130.000000000
 34
0.000000000
100
AcDbRotatedDimension
  0
DIMENSION
  5
A4F
330
A02
100
AcDbEntity
  8
d003
100
AcDbDimension
  2
*d003
 10
191.000000000
 20
215.000000000
 30
0.000000000
 11
224.000000000
 21
230.000000000
 31
0.000000000
 70
3
  1
⌀2,5
  3
STANDARD
100
AcDbDiametricDimension
 15
191.000000000
 25
215.000000000
 35
0.000000000
 40
0
  0
DIMENSION
  5
A57
330
A02
100
AcDbEntity
  8
d004
100
AcDbDimension
  2
*d004
 10
161.657666113
 20
215.878607077
 30
0.000000000
 11
224.000000000
 21
221.000000000
 31
0.000000000
 70
3
  1
⌀10
  3
STANDARD
100
AcDbDiametricDimension
 15
161.657666113
 25
215.878607077
 35
0.000000000
 40
0
  0
DIMENSION
  5
A5F
330
A02
100
AcDbEntity
  8
d005
100
AcDbDimension
  2
*d005
 10
150.000000000
 20
109.000000000
 30
0.000000000
 11
150.000000000
 21
104.000000000
 31
0.000000000
 70
32
  1
38,96
  3
STANDARD
100
AcDbAlignedDimension
 13
119.479833887
 23
157.825801357
 33
0.000000000
 14
100.000000000
 24
157.825801357
 34
0.000000000
100
AcDbRotatedDimension
  0
DIMENSION
  5
A69
330
A02
100
AcDbEntity
  8
d006
100
AcDbDimension
  2
*d006
 10
150.000000000
 20
101.000000000
 30
0.000000000
 11
150.000000000
 21
96.000000000
 31
0.000000000
 70
32
  1
39
  3
STANDARD
100
AcDbAlignedDimension
 13
119.500000000
 23
180.000000000
 33
0.000000000
 14
100.000000000
 24
180.000000000
 34
0.000000000
100
AcDbRotatedDimension
  0
DIMENSION
  5
A73
330
A02
100
AcDbEntity
  8
d007
100
AcDbDimension
  2
*d007
 10
150.000000000
 20
93.000000000
 30
0.000000000
 11
150.000000000
 21
88.000000000
 31
0.000000000
 70
32
  1
100
  3
STANDARD
100
AcDbAlignedDimension
 13
150.000000000
 23
149.500000000
 33
0.000000000
 14
100.000000000
 24
149.500000000
 34
0.000000000
100
AcDbRotatedDimension
  0
DIMENSION
  5
A7D
330
A02
100
AcDbEntity
  8
d008
100
AcDbDimension
  2
*d008
 10
150.000000000
 20
85.000000000
 30
0.000000000
 11
150.000000000
 21
80.000000000
 31
0.000000000
 70
32
  1
123,32
  3
STANDARD
100
AcDbAlignedDimension
 13
161.657666113
 23
144.121392923
 33
0.000000000
 14
100.000000000
 24
144.121392923
 34
0.000000000
100
AcDbRotatedDimension
  0
DIMENSION
  5
A87
330
A02
100
AcDbEntity
  8
d009
100
AcDbDimension
  2
*d009
 10
150.000000000
 20
77.000000000
 30
0.000000000
 11
150.000000000
 21
72.000000000
 31
0.000000000
 70
32
  1
161
  3
STANDARD
100
AcDbAlignedDimension
 13
180.500000000
 23
180.000000000
 33
0.000000000
 14
100.000000000
 24
180.000000000
 34
0.000000000
100
AcDbRotatedDimension
  0
DIMENSION
  5
A91
330
A02
100
AcDbEntity
  8
d010
100
AcDbDimension
  2
*d010
 10
150.000000000
 20
69.000000000
 30
0.000000000
 11
150.000000000
 21
64.000000000
 31
0.000000000
 70
32
  1
175,45
  3
STANDARD
100
AcDbAlignedDimension
 13
187.725000000
 23
180.000000000
 33
0.000000000
 14
100.000000000
 24
180.000000000
 34
0.000000000
100
AcDbRotatedDimension
  0
DIMENSION
  5
A9B
330
A02
100
AcDbEntity
  8
d011
100
AcDbDimension
  2
*d011
 10
79.000000000
 20
180.000000000
 30
0.000000000
 11
74.000000000
 21
180.000000000
 31
0.000000000
 70
32
  1
28,24
  3
STANDARD
100
AcDbAlignedDimension
 13
161.657666113
 23
144.121392923
 33
0.000000000
 14
161.657666113
 24
130.000000000
 34
0.000000000
 50
90
100
AcDbRotatedDimension
  0
DIMENSION
  5
AA5
330
A02
100
AcDbEntity
  8
d012
100
AcDbDimension
  2
*d012
 10
71.000000000
 20
180.000000000
 30
0.000000000
 11
66.000000000
 21
180.000000000
 31
0.000000000
 70
32
  1
39
  3
STANDARD
100
AcDbAlignedDimension
 13
150.000000000
 23
149.500000000
 33
0.000000000
 14
150.000000000
 24
130.000000000
 34
0.000000000
 50
90
100
AcDbRotatedDimension
  0
DIMENSION
  5
AAF
330
A02
100
AcDbEntity
  8
d013
100
AcDbDimension
  2
*d013
 10
63.000000000
 20
180.000000000
 30
0.000000000
 11
58.000000000
 21
180.000000000
 31
0.000000000
 70
32
  1
55,65
  3
STANDARD
100
AcDbAlignedDimension
 13
119.479833887
 23
157.825801357
 33
0.000000000
 14
119.479833887
 24
130.000000000
 34
0.000000000
 50
90
100
AcDbRotatedDimension
  0
DIMENSION
  5
AB9
330
A02
100
AcDbEntity
  8
d014
100
AcDbDimension
  2
*d014
 10
55.000000000
 20
180.000000000
 30
0.000000000
 11
50.000000000
 21
180.000000000
 31
0.000000000
 70
32
  1
100
  3
STANDARD
100
AcDbAlignedDimension
 13
180.500000000
 23
180.000000000
 33
0.000000000
 14
180.500000000
 24
130.000000000
 34
0.000000000
 50
90
100
AcDbRotatedDimension
  0
DIMENSION
  5
AC3
330
A02
100
AcDbEntity
  8
d015
100
AcDbDimension
  2
*d015
 10
47.000000000
 20
180.000000000
 30
0.000000000
 11
42.000000000
 21
180.000000000
 31
0.000000000
 70
32
  1
144,35
  3
STANDARD
100
AcDbAlignedDimension
 13
119.479833887
 23
202.174198643
 33
0.000000000
 14
119.479833887
 24
130.000000000
 34
0.000000000
 50
90
100
AcDbRotatedDimension
  0
DIMENSION
  5
ACD
330
A02
100
AcDbEntity
  8
d016
100
AcDbDimension
  2
*d016
 10
39.000000000
 20
180.000000000
 30
0.000000000
 11
34.000000000
 21
180.000000000
 31
0.000000000
 70
32
  1
161
  3
STANDARD
100
AcDbAlignedDimension
 13
150.000000000
 23
210.500000000
 33
0.000000000
 14
150.000000000
 24
130.000000000
 34
0.000000000
 50
90
100
AcDbRotatedDimension
  0
DIMENSION
  5
AD7
330
A02
100
AcDbEntity
  8
d017
100
AcDbDimension
  2
*d017
 10
31.000000000
 20
180.000000000
 30
0.000000000
 11
26.000000000
 21
180.000000000
 31
0.000000000
 70
32
  1
171,76
  3
STANDARD
100
AcDbAlignedDimension
 13
161.657666113
 23
215.878607077
 33
0.000000000
 14
161.657666113
 24
130.000000000
 34
0.000000000
 50
90
100
AcDbRotatedDimension
  0
TEXT
  5
AE1
330
A02
100
AcDbEntity
  8
note020
100
AcDbText
 10
82.000000000
 20
58.000000000
 30
0.000000000
 40
3.200000000
  1
4 x M3 on a DIA 122 bolt circle, at 0/90/180/270 deg
  7
STANDARD
 72
1
 11
82.000000000
 21
58.000000000
 31
0.000000000
100
AcDbText
  0
TEXT
  5
AE2
330
A02
100
AcDbEntity
  8
note021
100
AcDbText
 10
330.000000000
 20
262.000000000
 30
0.000000000
 40
2.600000000
  1
HOLE SUMMARY
  7
STANDARD
 72
1
 11
330.000000000
 21
262.000000000
 31
0.000000000
100
AcDbText
  0
ENDSEC
  0
SECTION
  2
OBJECTS
  0
DICTIONARY
  5
F000
330
0
100
AcDbDictionary
  3
ACAD_GROUP
350
F001
  0
DICTIONARY
  5
F001
330
F000
100
AcDbDictionary
  0
ENDSEC
  0
EOF