999
FreeCAD v1.1 44987 (Git)
  0
SECTION
  2
HEADER
  9
$ACADVER
  1
AC1014
  9
$ACADMAINTVER
 70
     9
  9
$DWGCODEPAGE
  3
ANSI_1252
  9
$TEXTSTYLE
  7
STANDARD
  9
$DIMSTYLE
  2
STANDARD
  9
$DIMTXSTY
  7
STANDARD
  9
$CMLSTYLE
  2
STANDARD
  9
$LUNITS
 70
2
  9
$INSUNITS
 70
4
  9
$PEXTMAX
 10
50
 20
50
 30
50
  9
$PEXTMIN
 10
0
 20
0
 30
0
  9
$HANDSEED
  5
FFFF
  0
ENDSEC
  0
SECTION
  2
CLASSES
  0
CLASS
  1
ACDBDICTIONARYWDFLT
  2
AcDbDictionaryWithDefault
  3
ObjectDBX Classes
 90
        0
280
     0
281
     0
  0
CLASS
  1
XRECORD
  2
AcDbXrecord
  3
ObjectDBX Classes
 90
        0
280
     0
281
     0
  0
CLASS
  1
LWPOLYLINE
  2
AcDbPolyline
  3
ObjectDBX Classes
 90
        0
280
     0
281
     1
  0
ENDSEC
  0
SECTION
  2
TABLES
  0
TABLE
  2
VPORT
  5
20
330
0
100
AcDbSymbolTable
 70
     1
  0
VPORT
  5
21
330
20
100
AcDbSymbolTableRecord
100
AcDbViewportTableRecord
  2
*ACTIVE
 70
     0
  0
ENDTAB
  0
TABLE
  2
LTYPE
  5
22
330
0
100
AcDbSymbolTable
 70
     1
  0
LTYPE
  5
23
330
21
100
AcDbSymbolTableRecord
100
AcDbLinetypeTableRecord
  2
BYBLOCK
 70
     0
  3

 72
    65
 73
     0
 40
0.0
  0
LTYPE
  5
24
330
21
100
AcDbSymbolTableRecord
100
AcDbLinetypeTableRecord
  2
BYLAYER
 70
     0
  3

 72
    65
 73
     0
 40
0.0
  0
LTYPE
  5
25
330
21
100
AcDbSymbolTableRecord
100
AcDbLinetypeTableRecord
  2
CONTINUOUS
 70
     0
  3
Solid line
 72
    65
 73
     0
 40
0.0
  0
ENDTAB
  0
TABLE
  2
LAYER
  5
AD8
330
0
100
AcDbSymbolTable
 70
22
  0
LAYER
  5
AD9
330
AD8
100
AcDbSymbolTableRecord
100
AcDbLayerTableRecord
  2
0
 70
   0
 62
   7
  6
CONTINUOUS
  0
LAYER
  5
ADA
330
AD8
100
AcDbSymbolTableRecord
100
AcDbLayerTableRecord
  2
Face
 70
    0
 62
    7
  6
CONTINUOUS
  0
LAYER
  5
ADB
330
AD8
100
AcDbSymbolTableRecord
100
AcDbLayerTableRecord
  2
Edge
 70
    0
 62
    7
  6
CONTINUOUS
  0
LAYER
  5
ADC
330
AD8
100
AcDbSymbolTableRecord
100
AcDbLayerTableRecord
  2
d000
 70
    0
 62
    7
  6
CONTINUOUS
  0
LAYER
  5
ADD
330
AD8
100
AcDbSymbolTableRecord
100
AcDbLayerTableRecord
  2
d001
 70
    0
 62
    7
  6
CONTINUOUS
  0
LAYER
  5
ADE
330
AD8
100
AcDbSymbolTableRecord
100
AcDbLayerTableRecord
  2
d002
 70
    0
 62
    7
  6
CONTINUOUS
  0
LAYER
  5
ADF
330
AD8
100
AcDbSymbolTableRecord
100
AcDbLayerTableRecord
  2
d003
 70
    0
 62
    7
  6
CONTINUOUS
  0
LAYER
  5
AE0
330
AD8
100
AcDbSymbolTableRecord
100
AcDbLayerTableRecord
  2
d004
 70
    0
 62
    7
  6
CONTINUOUS
  0
LAYER
  5
AE1
330
AD8
100
AcDbSymbolTableRecord
100
AcDbLayerTableRecord
  2
d005
 70
    0
 62
    7
  6
CONTINUOUS
  0
LAYER
  5
AE2
330
AD8
100
AcDbSymbolTableRecord
100
AcDbLayerTableRecord
  2
d006
 70
    0
 62
    7
  6
CONTINUOUS
  0
LAYER
  5
AE3
330
AD8
100
AcDbSymbolTableRecord
100
AcDbLayerTableRecord
  2
d007
 70
    0
 62
    7
  6
CONTINUOUS
  0
LAYER
  5
AE4
330
AD8
100
AcDbSymbolTableRecord
100
AcDbLayerTableRecord
  2
d008
 70
    0
 62
    7
  6
CONTINUOUS
  0
LAYER
  5
AE5
330
AD8
100
AcDbSymbolTableRecord
100
AcDbLayerTableRecord
  2
d009
 70
    0
 62
    7
  6
CONTINUOUS
  0
LAYER
  5
AE6
330
AD8
100
AcDbSymbolTableRecord
100
AcDbLayerTableRecord
  2
d010
 70
    0
 62
    7
  6
CONTINUOUS
  0
LAYER
  5
AE7
330
AD8
100
AcDbSymbolTableRecord
100
AcDbLayerTableRecord
  2
d011
 70
    0
 62
    7
  6
CONTINUOUS
  0
LAYER
  5
AE8
330
AD8
100
AcDbSymbolTableRecord
100
AcDbLayerTableRecord
  2
d012
 70
    0
 62
    7
  6
CONTINUOUS
  0
LAYER
  5
AE9
330
AD8
100
AcDbSymbolTableRecord
100
AcDbLayerTableRecord
  2
note015
 70
    0
 62
    7
  6
CONTINUOUS
  0
LAYER
  5
AEA
330
AD8
100
AcDbSymbolTableRecord
100
AcDbLayerTableRecord
  2
d013
 70
    0
 62
    7
  6
CONTINUOUS
  0
LAYER
  5
AEB
330
AD8
100
AcDbSymbolTableRecord
100
AcDbLayerTableRecord
  2
d014
 70
    0
 62
    7
  6
CONTINUOUS
  0
LAYER
  5
AEC
330
AD8
100
AcDbSymbolTableRecord
100
AcDbLayerTableRecord
  2
d015
 70
    0
 62
    7
  6
CONTINUOUS
  0
LAYER
  5
AED
330
AD8
100
AcDbSymbolTableRecord
100
AcDbLayerTableRecord
  2
d016
 70
    0
 62
    7
  6
CONTINUOUS
  0
LAYER
  5
AEE
330
AD8
100
AcDbSymbolTableRecord
100
AcDbLayerTableRecord
  2
note020
 70
    0
 62
    7
  6
CONTINUOUS
  0
ENDTAB
  0
TABLE
  2
STYLE
  5
70
330
0
100
AcDbSymbolTable
 70
     2
  0
STYLE
  5
71
330
70
100
AcDbSymbolTableRecord
100
AcDbTextStyleTableRecord
  2
STANDARD
 70
     0
 40
0.0
 41
1.0
 50
0.0
 71
     0
 42
2.5
  3
arial.ttf
  4

  0
STYLE
  5
72
330
70
100
AcDbSymbolTableRecord
100
AcDbTextStyleTableRecord
  2
ANNOTATIVE
 70
     0
 40
0.0
 41
1.0
 50
0.0
 71
     0
 42
2.5
  3
arial.ttf
  4

  0
ENDTAB
  0
TABLE
  2
VIEW
  5
73
330
0
100
AcDbSymbolTable
 70
     0
  0
ENDTAB
  0
TABLE
  2
UCS
  5
74
330
0
100
AcDbSymbolTable
 70
     0
  0
ENDTAB
  0
TABLE
  2
APPID
  5
75
330
0
100
AcDbSymbolTable
 70
     2
  0
APPID
  5
76
330
75
100
AcDbSymbolTableRecord
100
AcDbRegAppTableRecord
  2
ACAD
 70
     0
  0
APPID
  5
77
330
75
100
AcDbSymbolTableRecord
100
AcDbRegAppTableRecord
  2
ACADANNOTATIVE
 70
     0
  0
ENDTAB
  0
TABLE
  2
DIMSTYLE
  5
78
330
0
100
AcDbSymbolTable
 70
     2
  0
DIMSTYLE
105
79
330
78
100
AcDbSymbolTableRecord
100
AcDbDimStyleTableRecord
  2
STANDARD
 70
     0
  3

  4

  5

  6

  7

 40
0.0
 41
2.5
 42
0.625
 43
3.75
 44
1.25
 45
0.0
 46
0.0
 47
0.0
 48
0.0
140
2.5
141
2.5
142
0.0
143
0.03937007874016
144
1.0
145
0.0
146
1.0
147
0.625
 71
     0
 72
     0
 73
     0
 74
     0
 75
     0
 76
     0
 77
     1
 78
     8
170
     0
171
     3
172
     1
173
     0
174
     0
175
     0
176
     0
177
     0
178
     0
270
     2
271
     2
272
     2
273
     2
274
     3
340
71
275
     0
280
     0
281
     0
282
     0
283
     0
284
     8
285
     0
286
     0
287
     3
288
     0
  0
ENDTAB
  0
TABLE
  2
BLOCK_RECORD
  5
A01
330
0
100
AcDbSymbolTable
  70
5
  0
BLOCK_RECORD
  5
A02
330
A01
100
AcDbSymbolTableRecord
100
AcDbBlockTableRecord
  2
*MODEL_SPACE
  0
BLOCK_RECORD
  5
A03
330
A01
100
AcDbSymbolTableRecord
100
AcDbBlockTableRecord
  2
*PAPER_SPACE
  0
BLOCK_RECORD
  5
A35
330
A01
100
AcDbSymbolTableRecord
100
AcDbBlockTableRecord
  2
*d000
  0
BLOCK_RECORD
  5
A3F
330
A01
100
AcDbSymbolTableRecord
100
AcDbBlockTableRecord
  2
*d001
  0
BLOCK_RECORD
  5
A49
330
A01
100
AcDbSymbolTableRecord
100
AcDbBlockTableRecord
  2
*d002
  0
BLOCK_RECORD
  5
A53
330
A01
100
AcDbSymbolTableRecord
100
AcDbBlockTableRecord
  2
*d003
  0
BLOCK_RECORD
  5
A5D
330
A01
100
AcDbSymbolTableRecord
100
AcDbBlockTableRecord
  2
*d004
  0
BLOCK_RECORD
  5
A67
330
A01
100
AcDbSymbolTableRecord
100
AcDbBlockTableRecord
  2
*d005
  0
BLOCK_RECORD
  5
A71
330
A01
100
AcDbSymbolTableRecord
100
AcDbBlockTableRecord
  2
*d006
  0
BLOCK_RECORD
  5
A7B
330
A01
100
AcDbSymbolTableRecord
100
AcDbBlockTableRecord
  2
*d007
  0
BLOCK_RECORD
  5
A85
330
A01
100
AcDbSymbolTableRecord
100
AcDbBlockTableRecord
  2
*d008
  0
BLOCK_RECORD
  5
A8F
330
A01
100
AcDbSymbolTableRecord
100
AcDbBlockTableRecord
  2
*d009
  0
BLOCK_RECORD
  5
A99
330
A01
100
AcDbSymbolTableRecord
100
AcDbBlockTableRecord
  2
*d010
  0
BLOCK_RECORD
  5
AA3
330
A01
100
AcDbSymbolTableRecord
100
AcDbBlockTableRecord
  2
*d011
  0
BLOCK_RECORD
  5
AAD
330
A01
100
AcDbSymbolTableRecord
100
AcDbBlockTableRecord
  2
*d012
  0
BLOCK_RECORD
  5
AB8
330
A01
100
AcDbSymbolTableRecord
100
AcDbBlockTableRecord
  2
*d013
  0
BLOCK_RECORD
  5
AC0
330
A01
100
AcDbSymbolTableRecord
100
AcDbBlockTableRecord
  2
*d014
  0
BLOCK_RECORD
  5
AC8
330
A01
100
AcDbSymbolTableRecord
100
AcDbBlockTableRecord
  2
*d015
  0
BLOCK_RECORD
  5
AD0
330
A01
100
AcDbSymbolTableRecord
100
AcDbBlockTableRecord
  2
*d016
  0
ENDTAB
  0
ENDSEC
  0
SECTION
  2
BLOCKS
  0
BLOCK
  5
A04
330
A02
100
AcDbEntity
  8
0
100
AcDbBlockBegin
  2
*MODEL_SPACE
 70
   0
 10
0
 20
0
 30
0
  3
*MODEL_SPACE
  1
 
  0
ENDBLK
  5
A05
330
A02
100
AcDbEntity
  8
0
100
AcDbBlockEnd
  0
BLOCK
  5
A06
330
A03
100
AcDbEntity
 67
1
  8
0
100
AcDbBlockBegin
  2
*PAPER_SPACE
 70
   0
 10
0
 20
0
 30
0
  3
*PAPER_SPACE
  1
 
  0
ENDBLK
  5
A07
330
A03
100
AcDbEntity
 67
    1
  8
0
100
AcDbBlockEnd
  0
BLOCK
  5
A36
330
A35
100
AcDbEntity
  8
d000
100
AcDbBlockBegin
  2
*d000
 70
   1
 10
0
 20
0
 30
0
  3
*d000
  1
 
  0
LINE
  5
A37
330
A35
100
AcDbEntity
  8
d000
100
AcDbLine
 10
100
 20
157
 30
0
 11
100
 21
144
 31
0
  0
LINE
  5
A38
330
A35
100
AcDbEntity
  8
d000
100
AcDbLine
 10
103.15
 20
157
 30
0
 11
103.15
 21
144
 31
0
  0
LINE
  5
A39
330
A35
100
AcDbEntity
  8
d000
100
AcDbLine
 10
103.15
 20
144
 30
0
 11
100
 21
144
 31
0
  0
TEXT
  5
A3A
330
A35
100
AcDbEntity
  8
d000
100
AcDbText
 10
150
 20
139
 30
0
 40
3.5
  1
6,3
  7
STANDARD
 72
1
 11
150
 21
144
 31
0
100
AcDbText
  0
SOLID
  5
A3B
330
A35
100
AcDbEntity
  8
0
 62
     0
100
AcDbTrace
 10
108.15
 20
143.583
 30
0
 11
108.15
 21
144.417
 31
0
 12
103.15
 22
144
 32
0
 13
103.15
 23
144
 33
0
  0
SOLID
  5
A3C
330
A35
100
AcDbEntity
  8
0
 62
     0
100
AcDbTrace
 10
95
 20
143.583
 30
0
 11
95
 21
144.417
 31
0
 12
100
 22
144
 32
0
 13
100
 23
144
 33
0
  0
ENDBLK
  5
A3D
330
A35
100
AcDbEntity
  8
d000
100
AcDbBlockEnd
  0
BLOCK
  5
A40
330
A3F
100
AcDbEntity
  8
d001
100
AcDbBlockBegin
  2
*d001
 70
   1
 10
0
 20
0
 30
0
  3
*d001
  1
 
  0
LINE
  5
A41
330
A3F
100
AcDbEntity
  8
d001
100
AcDbLine
 10
100
 20
170
 30
0
 11
100
 21
133
 31
0
  0
LINE
  5
A42
330
A3F
100
AcDbEntity
  8
d001
100
AcDbLine
 10
109
 20
170
 30
0
 11
109
 21
133
 31
0
  0
LINE
  5
A43
330
A3F
100
AcDbEntity
  8
d001
100
AcDbLine
 10
109
 20
133
 30
0
 11
100
 21
133
 31
0
  0
TEXT
  5
A44
330
A3F
100
AcDbEntity
  8
d001
100
AcDbText
 10
150
 20
128
 30
0
 40
3.5
  1
18
  7
STANDARD
 72
1
 11
150
 21
133
 31
0
100
AcDbText
  0
SOLID
  5
A45
330
A3F
100
AcDbEntity
  8
0
 62
     0
100
AcDbTrace
 10
114
 20
132.583
 30
0
 11
114
 21
133.417
 31
0
 12
109
 22
133
 32
0
 13
109
 23
133
 33
0
  0
SOLID
  5
A46
330
A3F
100
AcDbEntity
  8
0
 62
     0
100
AcDbTrace
 10
95
 20
132.583
 30
0
 11
95
 21
133.417
 31
0
 12
100
 22
133
 32
0
 13
100
 23
133
 33
0
  0
ENDBLK
  5
A47
330
A3F
100
AcDbEntity
  8
d001
100
AcDbBlockEnd
  0
BLOCK
  5
A4A
330
A49
100
AcDbEntity
  8
d002
100
AcDbBlockBegin
  2
*d002
 70
   1
 10
0
 20
0
 30
0
  3
*d002
  1
 
  0
LINE
  5
A4B
330
A49
100
AcDbEntity
  8
d002
100
AcDbLine
 10
100
 20
157
 30
0
 11
100
 21
122
 31
0
  0
LINE
  5
A4C
330
A49
100
AcDbEntity
  8
d002
100
AcDbLine
 10
113.3
 20
157
 30
0
 11
113.3
 21
122
 31
0
  0
LINE
  5
A4D
330
A49
100
AcDbEntity
  8
d002
100
AcDbLine
 10
113.3
 20
122
 30
0
 11
100
 21
122
 31
0
  0
TEXT
  5
A4E
330
A49
100
AcDbEntity
  8
d002
100
AcDbText
 10
150
 20
117
 30
0
 40
3.5
  1
26,6
  7
STANDARD
 72
1
 11
150
 21
122
 31
0
100
AcDbText
  0
SOLID
  5
A4F
330
A49
100
AcDbEntity
  8
0
 62
     0
100
AcDbTrace
 10
118.3
 20
121.583
 30
0
 11
118.3
 21
122.417
 31
0
 12
113.3
 22
122
 32
0
 13
113.3
 23
122
 33
0
  0
SOLID
  5
A50
330
A49
100
AcDbEntity
  8
0
 62
     0
100
AcDbTrace
 10
95
 20
121.583
 30
0
 11
95
 21
122.417
 31
0
 12
100
 22
122
 32
0
 13
100
 23
122
 33
0
  0
ENDBLK
  5
A51
330
A49
100
AcDbEntity
  8
d002
100
AcDbBlockEnd
  0
BLOCK
  5
A54
330
A53
100
AcDbEntity
  8
d003
100
AcDbBlockBegin
  2
*d003
 70
   1
 10
0
 20
0
 30
0
  3
*d003
  1
 
  0
LINE
  5
A55
330
A53
100
AcDbEntity
  8
d003
100
AcDbLine
 10
100
 20
170
 30
0
 11
100
 21
111
 31
0
  0
LINE
  5
A56
330
A53
100
AcDbEntity
  8
d003
100
AcDbLine
 10
123.5
 20
170
 30
0
 11
123.5
 21
111
 31
0
  0
LINE
  5
A57
330
A53
100
AcDbEntity
  8
d003
100
AcDbLine
 10
123.5
 20
111
 30
0
 11
100
 21
111
 31
0
  0
TEXT
  5
A58
330
A53
100
AcDbEntity
  8
d003
100
AcDbText
 10
150
 20
106
 30
0
 40
3.5
  1
47
  7
STANDARD
 72
1
 11
150
 21
111
 31
0
100
AcDbText
  0
SOLID
  5
A59
330
A53
100
AcDbEntity
  8
0
 62
     0
100
AcDbTrace
 10
128.5
 20
110.583
 30
0
 11
128.5
 21
111.417
 31
0
 12
123.5
 22
111
 32
0
 13
123.5
 23
111
 33
0
  0
SOLID
  5
A5A
330
A53
100
AcDbEntity
  8
0
 62
     0
100
AcDbTrace
 10
95
 20
110.583
 30
0
 11
95
 21
111.417
 31
0
 12
100
 22
111
 32
0
 13
100
 23
111
 33
0
  0
ENDBLK
  5
A5B
330
A53
100
AcDbEntity
  8
d003
100
AcDbBlockEnd
  0
BLOCK
  5
A5E
330
A5D
100
AcDbEntity
  8
d004
100
AcDbBlockBegin
  2
*d004
 70
   1
 10
0
 20
0
 30
0
  3
*d004
  1
 
  0
LINE
  5
A5F
330
A5D
100
AcDbEntity
  8
d004
100
AcDbLine
 10
100
 20
170
 30
0
 11
100
 21
100
 31
0
  0
LINE
  5
A60
330
A5D
100
AcDbEntity
  8
d004
100
AcDbLine
 10
176.5
 20
170
 30
0
 11
176.5
 21
100
 31
0
  0
LINE
  5
A61
330
A5D
100
AcDbEntity
  8
d004
100
AcDbLine
 10
176.5
 20
100
 30
0
 11
100
 21
100
 31
0
  0
TEXT
  5
A62
330
A5D
100
AcDbEntity
  8
d004
100
AcDbText
 10
150
 20
95
 30
0
 40
3.5
  1
153
  7
STANDARD
 72
1
 11
150
 21
100
 31
0
100
AcDbText
  0
SOLID
  5
A63
330
A5D
100
AcDbEntity
  8
0
 62
     0
100
AcDbTrace
 10
181.5
 20
99.5833
 30
0
 11
181.5
 21
100.417
 31
0
 12
176.5
 22
100
 32
0
 13
176.5
 23
100
 33
0
  0
SOLID
  5
A64
330
A5D
100
AcDbEntity
  8
0
 62
     0
100
AcDbTrace
 10
95
 20
99.5833
 30
0
 11
95
 21
100.417
 31
0
 12
100
 22
100
 32
0
 13
100
 23
100
 33
0
  0
ENDBLK
  5
A65
330
A5D
100
AcDbEntity
  8
d004
100
AcDbBlockEnd
  0
BLOCK
  5
A68
330
A67
100
AcDbEntity
  8
d005
100
AcDbBlockBegin
  2
*d005
 70
   1
 10
0
 20
0
 30
0
  3
*d005
  1
 
  0
LINE
  5
A69
330
A67
100
AcDbEntity
  8
d005
100
AcDbLine
 10
100
 20
170
 30
0
 11
100
 21
89
 31
0
  0
LINE
  5
A6A
330
A67
100
AcDbEntity
  8
d005
100
AcDbLine
 10
191
 20
170
 30
0
 11
191
 21
89
 31
0
  0
LINE
  5
A6B
330
A67
100
AcDbEntity
  8
d005
100
AcDbLine
 10
191
 20
89
 30
0
 11
100
 21
89
 31
0
  0
TEXT
  5
A6C
330
A67
100
AcDbEntity
  8
d005
100
AcDbText
 10
150
 20
84
 30
0
 40
3.5
  1
182
  7
STANDARD
 72
1
 11
150
 21
89
 31
0
100
AcDbText
  0
SOLID
  5
A6D
330
A67
100
AcDbEntity
  8
0
 62
     0
100
AcDbTrace
 10
196
 20
88.5833
 30
0
 11
196
 21
89.4167
 31
0
 12
191
 22
89
 32
0
 13
191
 23
89
 33
0
  0
SOLID
  5
A6E
330
A67
100
AcDbEntity
  8
0
 62
     0
100
AcDbTrace
 10
95
 20
88.5833
 30
0
 11
95
 21
89.4167
 31
0
 12
100
 22
89
 32
0
 13
100
 23
89
 33
0
  0
ENDBLK
  5
A6F
330
A67
100
AcDbEntity
  8
d005
100
AcDbBlockEnd
  0
BLOCK
  5
A72
330
A71
100
AcDbEntity
  8
d006
100
AcDbBlockBegin
  2
*d006
 70
   1
 10
0
 20
0
 30
0
  3
*d006
  1
 
  0
LINE
  5
A73
330
A71
100
AcDbEntity
  8
d006
100
AcDbLine
 10
109
 20
231
 30
0
 11
79
 21
231
 31
0
  0
LINE
  5
A74
330
A71
100
AcDbEntity
  8
d006
100
AcDbLine
 10
109
 20
179
 30
0
 11
79
 21
179
 31
0
  0
LINE
  5
A75
330
A71
100
AcDbEntity
  8
d006
100
AcDbLine
 10
79
 20
179
 30
0
 11
79
 21
231
 31
0
  0
TEXT
  5
A76
330
A71
100
AcDbEntity
  8
d006
100
AcDbText
 10
84
 20
205
 30
0
 40
3.5
  1
104
  7
STANDARD
 72
1
 11
79
 21
205
 31
0
100
AcDbText
  0
SOLID
  5
A77
330
A71
100
AcDbEntity
  8
0
 62
     0
100
AcDbTrace
 10
78.5833
 20
174
 30
0
 11
79.4167
 21
174
 31
0
 12
79
 22
179
 32
0
 13
79
 23
179
 33
0
  0
SOLID
  5
A78
330
A71
100
AcDbEntity
  8
0
 62
     0
100
AcDbTrace
 10
78.5833
 20
236
 30
0
 11
79.4167
 21
236
 31
0
 12
79
 22
231
 32
0
 13
79
 23
231
 33
0
  0
ENDBLK
  5
A79
330
A71
100
AcDbEntity
  8
d006
100
AcDbBlockEnd
  0
BLOCK
  5
A7C
330
A7B
100
AcDbEntity
  8
d007
100
AcDbBlockBegin
  2
*d007
 70
   1
 10
0
 20
0
 30
0
  3
*d007
  1
 
  0
LINE
  5
A7D
330
A7B
100
AcDbEntity
  8
d007
100
AcDbLine
 10
109
 20
240
 30
0
 11
68
 21
240
 31
0
  0
LINE
  5
A7E
330
A7B
100
AcDbEntity
  8
d007
100
AcDbLine
 10
109
 20
170
 30
0
 11
68
 21
170
 31
0
  0
LINE
  5
A7F
330
A7B
100
AcDbEntity
  8
d007
100
AcDbLine
 10
68
 20
170
 30
0
 11
68
 21
240
 31
0
  0
TEXT
  5
A80
330
A7B
100
AcDbEntity
  8
d007
100
AcDbText
 10
73
 20
205
 30
0
 40
3.5
  1
140
  7
STANDARD
 72
1
 11
68
 21
205
 31
0
100
AcDbText
  0
SOLID
  5
A81
330
A7B
100
AcDbEntity
  8
0
 62
     0
100
AcDbTrace
 10
67.5833
 20
165
 30
0
 11
68.4167
 21
165
 31
0
 12
68
 22
170
 32
0
 13
68
 23
170
 33
0
  0
SOLID
  5
A82
330
A7B
100
AcDbEntity
  8
0
 62
     0
100
AcDbTrace
 10
67.5833
 20
245
 30
0
 11
68.4167
 21
245
 31
0
 12
68
 22
240
 32
0
 13
68
 23
240
 33
0
  0
ENDBLK
  5
A83
330
A7B
100
AcDbEntity
  8
d007
100
AcDbBlockEnd
  0
BLOCK
  5
A86
330
A85
100
AcDbEntity
  8
d008
100
AcDbBlockBegin
  2
*d008
 70
   1
 10
0
 20
0
 30
0
  3
*d008
  1
 
  0
LINE
  5
A87
330
A85
100
AcDbEntity
  8
d008
100
AcDbLine
 10
103.15
 20
247
 30
0
 11
57
 21
247
 31
0
  0
LINE
  5
A88
330
A85
100
AcDbEntity
  8
d008
100
AcDbLine
 10
103.15
 20
163
 30
0
 11
57
 21
163
 31
0
  0
LINE
  5
A89
330
A85
100
AcDbEntity
  8
d008
100
AcDbLine
 10
57
 20
163
 30
0
 11
57
 21
247
 31
0
  0
TEXT
  5
A8A
330
A85
100
AcDbEntity
  8
d008
100
AcDbText
 10
62
 20
205
 30
0
 40
3.5
  1
168
  7
STANDARD
 72
1
 11
57
 21
205
 31
0
100
AcDbText
  0
SOLID
  5
A8B
330
A85
100
AcDbEntity
  8
0
 62
     0
100
AcDbTrace
 10
56.5833
 20
158
 30
0
 11
57.4167
 21
158
 31
0
 12
57
 22
163
 32
0
 13
57
 23
163
 33
0
  0
SOLID
  5
A8C
330
A85
100
AcDbEntity
  8
0
 62
     0
100
AcDbTrace
 10
56.5833
 20
252
 30
0
 11
57.4167
 21
252
 31
0
 12
57
 22
247
 32
0
 13
57
 23
247
 33
0
  0
ENDBLK
  5
A8D
330
A85
100
AcDbEntity
  8
d008
100
AcDbBlockEnd
  0
BLOCK
  5
A90
330
A8F
100
AcDbEntity
  8
d009
100
AcDbBlockBegin
  2
*d009
 70
   1
 10
0
 20
0
 30
0
  3
*d009
  1
 
  0
LINE
  5
A91
330
A8F
100
AcDbEntity
  8
d009
100
AcDbLine
 10
103.15
 20
253
 30
0
 11
46
 21
253
 31
0
  0
LINE
  5
A92
330
A8F
100
AcDbEntity
  8
d009
100
AcDbLine
 10
103.15
 20
157
 30
0
 11
46
 21
157
 31
0
  0
LINE
  5
A93
330
A8F
100
AcDbEntity
  8
d009
100
AcDbLine
 10
46
 20
157
 30
0
 11
46
 21
253
 31
0
  0
TEXT
  5
A94
330
A8F
100
AcDbEntity
  8
d009
100
AcDbText
 10
51
 20
205
 30
0
 40
3.5
  1
192
  7
STANDARD
 72
1
 11
46
 21
205
 31
0
100
AcDbText
  0
SOLID
  5
A95
330
A8F
100
AcDbEntity
  8
0
 62
     0
100
AcDbTrace
 10
45.5833
 20
152
 30
0
 11
46.4167
 21
152
 31
0
 12
46
 22
157
 32
0
 13
46
 23
157
 33
0
  0
SOLID
  5
A96
330
A8F
100
AcDbEntity
  8
0
 62
     0
100
AcDbTrace
 10
45.5833
 20
258
 30
0
 11
46.4167
 21
258
 31
0
 12
46
 22
253
 32
0
 13
46
 23
253
 33
0
  0
ENDBLK
  5
A97
330
A8F
100
AcDbEntity
  8
d009
100
AcDbBlockEnd
  0
BLOCK
  5
A9A
330
A99
100
AcDbEntity
  8
d010
100
AcDbBlockBegin
  2
*d010
 70
   1
 10
0
 20
0
 30
0
  3
*d010
  1
 
  0
LINE
  5
A9B
330
A99
100
AcDbEntity
  8
d010
100
AcDbLine
 10
200
 20
255
 30
0
 11
200
 21
68
 31
0
  0
LINE
  5
A9C
330
A99
100
AcDbEntity
  8
d010
100
AcDbLine
 10
100
 20
255
 30
0
 11
100
 21
68
 31
0
  0
LINE
  5
A9D
330
A99
100
AcDbEntity
  8
d010
100
AcDbLine
 10
100
 20
68
 30
0
 11
200
 21
68
 31
0
  0
TEXT
  5
A9E
330
A99
100
AcDbEntity
  8
d010
100
AcDbText
 10
150
 20
73
 30
0
 40
3.5
  1
200
  7
STANDARD
 72
1
 11
150
 21
68
 31
0
100
AcDbText
  0
SOLID
  5
A9F
330
A99
100
AcDbEntity
  8
0
 62
     0
100
AcDbTrace
 10
95
 20
67.5833
 30
0
 11
95
 21
68.4167
 31
0
 12
100
 22
68
 32
0
 13
100
 23
68
 33
0
  0
SOLID
  5
AA0
330
A99
100
AcDbEntity
  8
0
 62
     0
100
AcDbTrace
 10
205
 20
67.5833
 30
0
 11
205
 21
68.4167
 31
0
 12
200
 22
68
 32
0
 13
200
 23
68
 33
0
  0
ENDBLK
  5
AA1
330
A99
100
AcDbEntity
  8
d010
100
AcDbBlockEnd
  0
BLOCK
  5
AA4
330
AA3
100
AcDbEntity
  8
d011
100
AcDbBlockBegin
  2
*d011
 70
   1
 10
0
 20
0
 30
0
  3
*d011
  1
 
  0
LINE
  5
AA5
330
AA3
100
AcDbEntity
  8
d011
100
AcDbLine
 10
100
 20
255
 30
0
 11
35
 21
255
 31
0
  0
LINE
  5
AA6
330
AA3
100
AcDbEntity
  8
d011
100
AcDbLine
 10
100
 20
155
 30
0
 11
35
 21
155
 31
0
  0
LINE
  5
AA7
330
AA3
100
AcDbEntity
  8
d011
100
AcDbLine
 10
35
 20
155
 30
0
 11
35
 21
255
 31
0
  0
TEXT
  5
AA8
330
AA3
100
AcDbEntity
  8
d011
100
AcDbText
 10
40
 20
205
 30
0
 40
3.5
  1
200
  7
STANDARD
 72
1
 11
35
 21
205
 31
0
100
AcDbText
  0
SOLID
  5
AA9
330
AA3
100
AcDbEntity
  8
0
 62
     0
100
AcDbTrace
 10
34.5833
 20
150
 30
0
 11
35.4167
 21
150
 31
0
 12
35
 22
155
 32
0
 13
35
 23
155
 33
0
  0
SOLID
  5
AAA
330
AA3
100
AcDbEntity
  8
0
 62
     0
100
AcDbTrace
 10
34.5833
 20
260
 30
0
 11
35.4167
 21
260
 31
0
 12
35
 22
255
 32
0
 13
35
 23
255
 33
0
  0
ENDBLK
  5
AAB
330
AA3
100
AcDbEntity
  8
d011
100
AcDbBlockEnd
  0
BLOCK
  5
AAE
330
AAD
100
AcDbEntity
  8
d012
100
AcDbBlockBegin
  2
*d012
 70
   1
 10
0
 20
0
 30
0
  3
*d012
  1
 
  0
LINE
  5
AAF
330
AAD
100
AcDbEntity
  8
d012
100
AcDbLine
 10
336.5
 20
155
 30
0
 11
336.5
 21
134
 31
0
  0
LINE
  5
AB0
330
AAD
100
AcDbEntity
  8
d012
100
AcDbLine
 10
333.5
 20
155
 30
0
 11
333.5
 21
134
 31
0
  0
LINE
  5
AB1
330
AAD
100
AcDbEntity
  8
d012
100
AcDbLine
 10
333.5
 20
134
 30
0
 11
336.5
 21
134
 31
0
  0
TEXT
  5
AB2
330
AAD
100
AcDbEntity
  8
d012
100
AcDbText
 10
335
 20
139
 30
0
 40
3.5
  1
6
  7
STANDARD
 72
1
 11
335
 21
134
 31
0
100
AcDbText
  0
SOLID
  5
AB3
330
AAD
100
AcDbEntity
  8
0
 62
     0
100
AcDbTrace
 10
328.5
 20
133.583
 30
0
 11
328.5
 21
134.417
 31
0
 12
333.5
 22
134
 32
0
 13
333.5
 23
134
 33
0
  0
SOLID
  5
AB4
330
AAD
100
AcDbEntity
  8
0
 62
     0
100
AcDbTrace
 10
341.5
 20
133.583
 30
0
 11
341.5
 21
134.417
 31
0
 12
336.5
 22
134
 32
0
 13
336.5
 23
134
 33
0
  0
ENDBLK
  5
AB5
330
AAD
100
AcDbEntity
  8
d012
100
AcDbBlockEnd
  0
BLOCK
  5
AB9
330
AB8
100
AcDbEntity
  8
d013
100
AcDbBlockBegin
  2
*d013
 70
   1
 10
0
 20
0
 30
0
  3
*d013
  1
 
  0
LINE
  5
ABA
330
AB8
100
AcDbEntity
  8
d013
100
AcDbLine
 10
191
 20
240
 30
0
 11
191
 21
240
 31
0
  0
TEXT
  5
ABB
330
AB8
100
AcDbEntity
  8
d013
100
AcDbText
 10
226
 20
255
 30
0
 40
3.5
  1
28x M3
  7
STANDARD
 72
1
 11
226
 21
255
 31
0
100
AcDbText
  0
SOLID
  5
ABC
330
AB8
100
AcDbEntity
  8
0
 62
     0
100
AcDbTrace
 10
191
 20
240
 30
0
 11
191
 21
240
 31
0
 12
191
 22
240
 32
0
 13
191
 23
240
 33
0
  0
SOLID
  5
ABD
330
AB8
100
AcDbEntity
  8
0
 62
     0
100
AcDbTrace
 10
191
 20
240
 30
0
 11
191
 21
240
 31
0
 12
191
 22
240
 32
0
 13
191
 23
240
 33
0
  0
ENDBLK
  5
ABE
330
AB8
100
AcDbEntity
  8
d013
100
AcDbBlockEnd
  0
BLOCK
  5
AC1
330
AC0
100
AcDbEntity
  8
d014
100
AcDbBlockBegin
  2
*d014
 70
   1
 10
0
 20
0
 30
0
  3
*d014
  1
 
  0
LINE
  5
AC2
330
AC0
100
AcDbEntity
  8
d014
100
AcDbLine
 10
161.658
 20
240.879
 30
0
 11
161.658
 21
240.879
 31
0
  0
TEXT
  5
AC3
330
AC0
100
AcDbEntity
  8
d014
100
AcDbText
 10
226
 20
244
 30
0
 40
3.5
  1
5x ⌀10
  7
STANDARD
 72
1
 11
226
 21
244
 31
0
100
AcDbText
  0
SOLID
  5
AC4
330
AC0
100
AcDbEntity
  8
0
 62
     0
100
AcDbTrace
 10
161.658
 20
240.879
 30
0
 11
161.658
 21
240.879
 31
0
 12
161.658
 22
240.879
 32
0
 13
161.658
 23
240.879
 33
0
  0
SOLID
  5
AC5
330
AC0
100
AcDbEntity
  8
0
 62
     0
100
AcDbTrace
 10
161.658
 20
240.879
 30
0
 11
161.658
 21
240.879
 31
0
 12
161.658
 22
240.879
 32
0
 13
161.658
 23
240.879
 33
0
  0
ENDBLK
  5
AC6
330
AC0
100
AcDbEntity
  8
d014
100
AcDbBlockEnd
  0
BLOCK
  5
AC9
330
AC8
100
AcDbEntity
  8
d015
100
AcDbBlockBegin
  2
*d015
 70
   1
 10
0
 20
0
 30
0
  3
*d015
  1
 
  0
LINE
  5
ACA
330
AC8
100
AcDbEntity
  8
d015
100
AcDbLine
 10
150
 20
205
 30
0
 11
150
 21
205
 31
0
  0
TEXT
  5
ACB
330
AC8
100
AcDbEntity
  8
d015
100
AcDbText
 10
226
 20
190
 30
0
 40
3.5
  1
⌀122 B.C.
  7
STANDARD
 72
1
 11
226
 21
190
 31
0
100
AcDbText
  0
SOLID
  5
ACC
330
AC8
100
AcDbEntity
  8
0
 62
     0
100
AcDbTrace
 10
150
 20
205
 30
0
 11
150
 21
205
 31
0
 12
150
 22
205
 32
0
 13
150
 23
205
 33
0
  0
SOLID
  5
ACD
330
AC8
100
AcDbEntity
  8
0
 62
     0
100
AcDbTrace
 10
150
 20
205
 30
0
 11
150
 21
205
 31
0
 12
150
 22
205
 32
0
 13
150
 23
205
 33
0
  0
ENDBLK
  5
ACE
330
AC8
100
AcDbEntity
  8
d015
100
AcDbBlockEnd
  0
BLOCK
  5
AD1
330
AD0
100
AcDbEntity
  8
d016
100
AcDbBlockBegin
  2
*d016
 70
   1
 10
0
 20
0
 30
0
  3
*d016
  1
 
  0
LINE
  5
AD2
330
AD0
100
AcDbEntity
  8
d016
100
AcDbLine
 10
150
 20
205
 30
0
 11
150
 21
205
 31
0
  0
TEXT
  5
AD3
330
AD0
100
AcDbEntity
  8
d016
100
AcDbText
 10
226
 20
162
 30
0
 40
3.5
  1
⌀150,9 B.C.
  7
STANDARD
 72
1
 11
226
 21
162
 31
0
100
AcDbText
  0
SOLID
  5
AD4
330
AD0
100
AcDbEntity
  8
0
 62
     0
100
AcDbTrace
 10
150
 20
205
 30
0
 11
150
 21
205
 31
0
 12
150
 22
205
 32
0
 13
150
 23
205
 33
0
  0
SOLID
  5
AD5
330
AD0
100
AcDbEntity
  8
0
 62
     0
100
AcDbTrace
 10
150
 20
205
 30
0
 11
150
 21
205
 31
0
 12
150
 22
205
 32
0
 13
150
 23
205
 33
0
  0
ENDBLK
  5
AD6
330
AD0
100
AcDbEntity
  8
d016
100
AcDbBlockEnd
  0
ENDSEC
  0
SECTION
  2
ENTITIES
  0
LINE
  5
A08
330
A02
100
AcDbEntity
  8
Face
100
AcDbLine
 10
100.000000000
 20
155.000000000
 30
0.000000000
 11
200.000000000
 21
155.000000000
 31
0.000000000
  0
LINE
  5
A09
330
A02
100
AcDbEntity
  8
Face
100
AcDbLine
 10
100.000000000
 20
255.000000000
 30
0.000000000
 11
100.000000000
 21
155.000000000
 31
0.000000000
  0
LINE
  5
A0A
330
A02
100
AcDbEntity
  8
Face
100
AcDbLine
 10
200.000000000
 20
155.000000000
 30
0.000000000
 11
200.000000000
 21
255.000000000
 31
0.000000000
  0
LINE
  5
A0B
330
A02
100
AcDbEntity
  8
Face
100
AcDbLine
 10
200.000000000
 20
255.000000000
 30
0.000000000
 11
100.000000000
 21
255.000000000
 31
0.000000000
  0
CIRCLE
  5
A0C
330
A02
100
AcDbEntity
  8
Face
100
AcDbCircle
 10
103.150000000
 20
157.000000000
 30
0.000000000
 40
0.625000000
  0
CIRCLE
  5
A0D
330
A02
100
AcDbEntity
  8
Face
100
AcDbCircle
 10
103.150000000
 20
163.000000000
 30
0.000000000
 40
0.625000000
  0
CIRCLE
  5
A0E
330
A02
100
AcDbEntity
  8
Face
100
AcDbCircle
 10
113.300000000
 20
157.000000000
 30
0.000000000
 40
0.625000000
  0
CIRCLE
  5
A0F
330
A02
100
AcDbEntity
  8
Face
100
AcDbCircle
 10
113.300000000
 20
163.000000000
 30
0.000000000
 40
0.625000000
  0
CIRCLE
  5
A10
330
A02
100
AcDbEntity
  8
Face
100
AcDbCircle
 10
109.000000000
 20
170.000000000
 30
0.000000000
 40
0.625000000
  0
CIRCLE
  5
A11
330
A02
100
AcDbEntity
  8
Face
100
AcDbCircle
 10
109.000000000
 20
179.000000000
 30
0.000000000
 40
0.625000000
  0
CIRCLE
  5
A12
330
A02
100
AcDbEntity
  8
Face
100
AcDbCircle
 10
123.500000000
 20
170.000000000
 30
0.000000000
 40
0.625000000
  0
CIRCLE
  5
A13
330
A02
100
AcDbEntity
  8
Face
100
AcDbCircle
 10
123.500000000
 20
179.000000000
 30
0.000000000
 40
0.625000000
  0
CIRCLE
  5
A14
330
A02
100
AcDbEntity
  8
Face
100
AcDbCircle
 10
119.479833887
 20
182.825801357
 30
0.000000000
 40
2.500000000
  0
CIRCLE
  5
A15
330
A02
100
AcDbEntity
  8
Face
100
AcDbCircle
 10
119.500000000
 20
205.000000000
 30
0.000000000
 40
0.625000000
  0
CIRCLE
  5
A16
330
A02
100
AcDbEntity
  8
Face
100
AcDbCircle
 10
119.479833887
 20
227.174198643
 30
0.000000000
 40
2.500000000
  0
CIRCLE
  5
A17
330
A02
100
AcDbEntity
  8
Face
100
AcDbCircle
 10
109.000000000
 20
231.000000000
 30
0.000000000
 40
0.625000000
  0
CIRCLE
  5
A18
330
A02
100
AcDbEntity
  8
Face
100
AcDbCircle
 10
109.000000000
 20
240.000000000
 30
0.000000000
 40
0.625000000
  0
CIRCLE
  5
A19
330
A02
100
AcDbEntity
  8
Face
100
AcDbCircle
 10
103.150000000
 20
247.000000000
 30
0.000000000
 40
0.625000000
  0
CIRCLE
  5
A1A
330
A02
100
AcDbEntity
  8
Face
100
AcDbCircle
 10
103.150000000
 20
253.000000000
 30
0.000000000
 40
0.625000000
  0
CIRCLE
  5
A1B
330
A02
100
AcDbEntity
  8
Face
100
AcDbCircle
 10
113.300000000
 20
247.000000000
 30
0.000000000
 40
0.625000000
  0
CIRCLE
  5
A1C
330
A02
100
AcDbEntity
  8
Face
100
AcDbCircle
 10
113.300000000
 20
253.000000000
 30
0.000000000
 40
0.625000000
  0
CIRCLE
  5
A1D
330
A02
100
AcDbEntity
  8
Face
100
AcDbCircle
 10
123.500000000
 20
231.000000000
 30
0.000000000
 40
0.625000000
  0
CIRCLE
  5
A1E
330
A02
100
AcDbEntity
  8
Face
100
AcDbCircle
 10
123.500000000
 20
240.000000000
 30
0.000000000
 40
0.625000000
  0
CIRCLE
  5
A1F
330
A02
100
AcDbEntity
  8
Face
100
AcDbCircle
 10
150.000000000
 20
174.500000000
 30
0.000000000
 40
0.625000000
  0
CIRCLE
  5
A20
330
A02
100
AcDbEntity
  8
Face
100
AcDbCircle
 10
161.657666113
 20
169.121392923
 30
0.000000000
 40
2.500000000
  0
CIRCLE
  5
A21
330
A02
100
AcDbEntity
  8
Face
100
AcDbCircle
 10
176.500000000
 20
170.000000000
 30
0.000000000
 40
0.625000000
  0
CIRCLE
  5
A22
330
A02
100
AcDbEntity
  8
Face
100
AcDbCircle
 10
176.500000000
 20
179.000000000
 30
0.000000000
 40
0.625000000
  0
CIRCLE
  5
A23
330
A02
100
AcDbEntity
  8
Face
100
AcDbCircle
 10
191.000000000
 20
170.000000000
 30
0.000000000
 40
0.625000000
  0
CIRCLE
  5
A24
330
A02
100
AcDbEntity
  8
Face
100
AcDbCircle
 10
191.000000000
 20
179.000000000
 30
0.000000000
 40
0.625000000
  0
CIRCLE
  5
A25
330
A02
100
AcDbEntity
  8
Face
100
AcDbCircle
 10
180.500000000
 20
205.000000000
 30
0.000000000
 40
0.625000000
  0
CIRCLE
  5
A26
330
A02
100
AcDbEntity
  8
Face
100
AcDbCircle
 10
187.725000000
 20
205.000000000
 30
0.000000000
 40
2.500000000
  0
CIRCLE
  5
A27
330
A02
100
AcDbEntity
  8
Face
100
AcDbCircle
 10
150.000000000
 20
235.500000000
 30
0.000000000
 40
0.625000000
  0
CIRCLE
  5
A28
330
A02
100
AcDbEntity
  8
Face
100
AcDbCircle
 10
161.657666113
 20
240.878607077
 30
0.000000000
 40
2.500000000
  0
CIRCLE
  5
A29
330
A02
100
AcDbEntity
  8
Face
100
AcDbCircle
 10
176.500000000
 20
231.000000000
 30
0.000000000
 40
0.625000000
  0
CIRCLE
  5
A2A
330
A02
100
AcDbEntity
  8
Face
100
AcDbCircle
 10
176.500000000
 20
240.000000000
 30
0.000000000
 40
0.625000000
  0
CIRCLE
  5
A2B
330
A02
100
AcDbEntity
  8
Face
100
AcDbCircle
 10
191.000000000
 20
231.000000000
 30
0.000000000
 40
0.625000000
  0
CIRCLE
  5
A2C
330
A02
100
AcDbEntity
  8
Face
100
AcDbCircle
 10
191.000000000
 20
240.000000000
 30
0.000000000
 40
0.625000000
  0
CIRCLE
  5
A2D
330
A02
100
AcDbEntity
  8
Face
100
AcDbCircle
 10
150.000000000
 20
205.000000000
 30
0.000000000
 40
30.500000000
  0
CIRCLE
  5
A2E
330
A02
100
AcDbEntity
  8
Face
100
AcDbCircle
 10
150.000000000
 20
205.000000000
 30
0.000000000
 40
37.725000000
  0
LINE
  5
A2F
330
A02
100
AcDbEntity
  8
Face
100
AcDbLine
 10
94.000000000
 20
205.000000000
 30
0.000000000
 11
206.000000000
 21
205.000000000
 31
0.000000000
  0
LINE
  5
A30
330
A02
100
AcDbEntity
  8
Edge
100
AcDbLine
 10
333.500000000
 20
155.000000000
 30
0.000000000
 11
336.500000000
 21
155.000000000
 31
0.000000000
  0
LINE
  5
A31
330
A02
100
AcDbEntity
  8
Edge
100
AcDbLine
 10
333.500000000
 20
255.000000000
 30
0.000000000
 11
336.500000000
 21
255.000000000
 31
0.000000000
  0
LINE
  5
A32
330
A02
100
AcDbEntity
  8
Edge
100
AcDbLine
 10
333.500000000
 20
155.000000000
 30
0.000000000
 11
333.500000000
 21
255.000000000
 31
0.000000000
  0
LINE
  5
A33
330
A02
100
AcDbEntity
  8
Edge
100
AcDbLine
 10
336.500000000
 20
155.000000000
 30
0.000000000
 11
336.500000000
 21
255.000000000
 31
0.000000000
  0
DIMENSION
  5
A34
330
A02
100
AcDbEntity
  8
d000
100
AcDbDimension
  2
*d000
 10
150.000000000
 20
144.000000000
 30
0.000000000
 11
150.000000000
 21
139.000000000
 31
0.000000000
 70
32
  1
6,3
  3
STANDARD
100
AcDbAlignedDimension
 13
103.150000000
 23
157.000000000
 33
0.000000000
 14
100.000000000
 24
157.000000000
 34
0.000000000
100
AcDbRotatedDimension
  0
DIMENSION
  5
A3E
330
A02
100
AcDbEntity
  8
d001
100
AcDbDimension
  2
*d001
 10
150.000000000
 20
133.000000000
 30
0.000000000
 11
150.000000000
 21
128.000000000
 31
0.000000000
 70
32
  1
18
  3
STANDARD
100
AcDbAlignedDimension
 13
109.000000000
 23
170.000000000
 33
0.000000000
 14
100.000000000
 24
170.000000000
 34
0.000000000
100
AcDbRotatedDimension
  0
DIMENSION
  5
A48
330
A02
100
AcDbEntity
  8
d002
100
AcDbDimension
  2
*d002
 10
150.000000000
 20
122.000000000
 30
0.000000000
 11
150.000000000
 21
117.000000000
 31
0.000000000
 70
32
  1
26,6
  3
STANDARD
100
AcDbAlignedDimension
 13
113.300000000
 23
157.000000000
 33
0.000000000
 14
100.000000000
 24
157.000000000
 34
0.000000000
100
AcDbRotatedDimension
  0
DIMENSION
  5
A52
330
A02
100
AcDbEntity
  8
d003
100
AcDbDimension
  2
*d003
 10
150.000000000
 20
111.000000000
 30
0.000000000
 11
150.000000000
 21
106.000000000
 31
0.000000000
 70
32
  1
47
  3
STANDARD
100
AcDbAlignedDimension
 13
123.500000000
 23
170.000000000
 33
0.000000000
 14
100.000000000
 24
170.000000000
 34
0.000000000
100
AcDbRotatedDimension
  0
DIMENSION
  5
A5C
330
A02
100
AcDbEntity
  8
d004
100
AcDbDimension
  2
*d004
 10
150.000000000
 20
100.000000000
 30
0.000000000
 11
150.000000000
 21
95.000000000
 31
0.000000000
 70
32
  1
153
  3
STANDARD
100
AcDbAlignedDimension
 13
176.500000000
 23
170.000000000
 33
0.000000000
 14
100.000000000
 24
170.000000000
 34
0.000000000
100
AcDbRotatedDimension
  0
DIMENSION
  5
A66
330
A02
100
AcDbEntity
  8
d005
100
AcDbDimension
  2
*d005
 10
150.000000000
 20
89.000000000
 30
0.000000000
 11
150.000000000
 21
84.000000000
 31
0.000000000
 70
32
  1
182
  3
STANDARD
100
AcDbAlignedDimension
 13
191.000000000
 23
170.000000000
 33
0.000000000
 14
100.000000000
 24
170.000000000
 34
0.000000000
100
AcDbRotatedDimension
  0
DIMENSION
  5
A70
330
A02
100
AcDbEntity
  8
d006
100
AcDbDimension
  2
*d006
 10
79.000000000
 20
205.000000000
 30
0.000000000
 11
84.000000000
 21
205.000000000
 31
0.000000000
 70
32
  1
104
  3
STANDARD
100
AcDbAlignedDimension
 13
109.000000000
 23
179.000000000
 33
0.000000000
 14
109.000000000
 24
231.000000000
 34
0.000000000
 50
90
100
AcDbRotatedDimension
  0
DIMENSION
  5
A7A
330
A02
100
AcDbEntity
  8
d007
100
AcDbDimension
  2
*d007
 10
68.000000000
 20
205.000000000
 30
0.000000000
 11
73.000000000
 21
205.000000000
 31
0.000000000
 70
32
  1
140
  3
STANDARD
100
AcDbAlignedDimension
 13
109.000000000
 23
170.000000000
 33
0.000000000
 14
109.000000000
 24
240.000000000
 34
0.000000000
 50
90
100
AcDbRotatedDimension
  0
DIMENSION
  5
A84
330
A02
100
AcDbEntity
  8
d008
100
AcDbDimension
  2
*d008
 10
57.000000000
 20
205.000000000
 30
0.000000000
 11
62.000000000
 21
205.000000000
 31
0.000000000
 70
32
  1
168
  3
STANDARD
100
AcDbAlignedDimension
 13
103.150000000
 23
163.000000000
 33
0.000000000
 14
103.150000000
 24
247.000000000
 34
0.000000000
 50
90
100
AcDbRotatedDimension
  0
DIMENSION
  5
A8E
330
A02
100
AcDbEntity
  8
d009
100
AcDbDimension
  2
*d009
 10
46.000000000
 20
205.000000000
 30
0.000000000
 11
51.000000000
 21
205.000000000
 31
0.000000000
 70
32
  1
192
  3
STANDARD
100
AcDbAlignedDimension
 13
103.150000000
 23
157.000000000
 33
0.000000000
 14
103.150000000
 24
253.000000000
 34
0.000000000
 50
90
100
AcDbRotatedDimension
  0
DIMENSION
  5
A98
330
A02
100
AcDbEntity
  8
d010
100
AcDbDimension
  2
*d010
 10
150.000000000
 20
68.000000000
 30
0.000000000
 11
150.000000000
 21
73.000000000
 31
0.000000000
 70
32
  1
200
  3
STANDARD
100
AcDbAlignedDimension
 13
100.000000000
 23
255.000000000
 33
0.000000000
 14
200.000000000
 24
255.000000000
 34
0.000000000
100
AcDbRotatedDimension
  0
DIMENSION
  5
AA2
330
A02
100
AcDbEntity
  8
d011
100
AcDbDimension
  2
*d011
 10
35.000000000
 20
205.000000000
 30
0.000000000
 11
40.000000000
 21
205.000000000
 31
0.000000000
 70
32
  1
200
  3
STANDARD
100
AcDbAlignedDimension
 13
100.000000000
 23
155.000000000
 33
0.000000000
 14
100.000000000
 24
255.000000000
 34
0.000000000
 50
90
100
AcDbRotatedDimension
  0
DIMENSION
  5
AAC
330
A02
100
AcDbEntity
  8
d012
100
AcDbDimension
  2
*d012
 10
335.000000000
 20
134.000000000
 30
0.000000000
 11
335.000000000
 21
139.000000000
 31
0.000000000
 70
32
  1
6
  3
STANDARD
100
AcDbAlignedDimension
 13
333.500000000
 23
155.000000000
 33
0.000000000
 14
336.500000000
 24
155.000000000
 34
0.000000000
100
AcDbRotatedDimension
  0
TEXT
  5
AB6
330
A02
100
AcDbEntity
  8
note015
100
AcDbText
 10
335.000000000
 20
263.000000000
 30
0.000000000
 40
3.000000000
  1
EDGE VIEW
  7
STANDARD
 72
1
 11
335.000000000
 21
263.000000000
 31
0.000000000
100
AcDbText
  0
DIMENSION
  5
AB7
330
A02
100
AcDbEntity
  8
d013
100
AcDbDimension
  2
*d013
 10
191.000000000
 20
240.000000000
 30
0.000000000
 11
226.000000000
 21
255.000000000
 31
0.000000000
 70
3
  1
28x M3
  3
STANDARD
100
AcDbDiametricDimension
 15
191.000000000
 25
240.000000000
 35
0.000000000
 40
0
  0
DIMENSION
  5
ABF
330
A02
100
AcDbEntity
  8
d014
100
AcDbDimension
  2
*d014
 10
161.657666113
 20
240.878607077
 30
0.000000000
 11
226.000000000
 21
244.000000000
 31
0.000000000
 70
3
  1
5x ⌀10
  3
STANDARD
100
AcDbDiametricDimension
 15
161.657666113
 25
240.878607077
 35
0.000000000
 40
0
  0
DIMENSION
  5
AC7
330
A02
100
AcDbEntity
  8
d015
100
AcDbDimension
  2
*d015
 10
150.000000000
 20
205.000000000
 30
0.000000000
 11
226.000000000
 21
190.000000000
 31
0.000000000
 70
3
  1
⌀122 B.C.
  3
STANDARD
100
AcDbDiametricDimension
 15
150.000000000
 25
205.000000000
 35
0.000000000
 40
0
  0
DIMENSION
  5
ACF
330
A02
100
AcDbEntity
  8
d016
100
AcDbDimension
  2
*d016
 10
150.000000000
 20
205.000000000
 30
0.000000000
 11
226.000000000
 21
162.000000000
 31
0.000000000
 70
3
  1
⌀150,9 B.C.
  3
STANDARD
100
AcDbDiametricDimension
 15
150.000000000
 25
205.000000000
 35
0.000000000
 40
0
  0
TEXT
  5
AD7
330
A02
100
AcDbEntity
  8
note020
100
AcDbText
 10
80.460000000
 20
44.990000000
 30
0.000000000
 40
3.000000000
  1
6 mm aluminium plate, cut 200 x 200
  7
STANDARD
 72
1
 11
80.460000000
 21
44.990000000
 31
0.000000000
100
AcDbText
  0
ENDSEC
  0
SECTION
  2
OBJECTS
  0
DICTIONARY
  5
F000
330
0
100
AcDbDictionary
  3
ACAD_GROUP
350
F001
  0
DICTIONARY
  5
F001
330
F000
100
AcDbDictionary
  0
ENDSEC
  0
EOF