999
FreeCAD v1.1 44987 (Git)
  0
SECTION
  2
HEADER
  9
$ACADVER
  1
AC1014
  9
$ACADMAINTVER
 70
     9
  9
$DWGCODEPAGE
  3
ANSI_1252
  9
$TEXTSTYLE
  7
STANDARD
  9
$DIMSTYLE
  2
STANDARD
  9
$DIMTXSTY
  7
STANDARD
  9
$CMLSTYLE
  2
STANDARD
  9
$LUNITS
 70
2
  9
$INSUNITS
 70
4
  9
$PEXTMAX
 10
50
 20
50
 30
50
  9
$PEXTMIN
 10
0
 20
0
 30
0
  9
$HANDSEED
  5
FFFF
  0
ENDSEC
  0
SECTION
  2
CLASSES
  0
CLASS
  1
ACDBDICTIONARYWDFLT
  2
AcDbDictionaryWithDefault
  3
ObjectDBX Classes
 90
        0
280
     0
281
     0
  0
CLASS
  1
XRECORD
  2
AcDbXrecord
  3
ObjectDBX Classes
 90
        0
280
     0
281
     0
  0
CLASS
  1
LWPOLYLINE
  2
AcDbPolyline
  3
ObjectDBX Classes
 90
        0
280
     0
281
     1
  0
ENDSEC
  0
SECTION
  2
TABLES
  0
TABLE
  2
VPORT
  5
20
330
0
100
AcDbSymbolTable
 70
     1
  0
VPORT
  5
21
330
20
100
AcDbSymbolTableRecord
100
AcDbViewportTableRecord
  2
*ACTIVE
 70
     0
  0
ENDTAB
  0
TABLE
  2
LTYPE
  5
22
330
0
100
AcDbSymbolTable
 70
     1
  0
LTYPE
  5
23
330
21
100
AcDbSymbolTableRecord
100
AcDbLinetypeTableRecord
  2
BYBLOCK
 70
     0
  3

 72
    65
 73
     0
 40
0.0
  0
LTYPE
  5
24
330
21
100
AcDbSymbolTableRecord
100
AcDbLinetypeTableRecord
  2
BYLAYER
 70
     0
  3

 72
    65
 73
     0
 40
0.0
  0
LTYPE
  5
25
330
21
100
AcDbSymbolTableRecord
100
AcDbLinetypeTableRecord
  2
CONTINUOUS
 70
     0
  3
Solid line
 72
    65
 73
     0
 40
0.0
  0
ENDTAB
  0
TABLE
  2
LAYER
  5
AD8
330
0
100
AcDbSymbolTable
 70
17
  0
LAYER
  5
AD9
330
AD8
100
AcDbSymbolTableRecord
100
AcDbLayerTableRecord
  2
0
 70
   0
 62
   7
  6
CONTINUOUS
  0
LAYER
  5
ADA
330
AD8
100
AcDbSymbolTableRecord
100
AcDbLayerTableRecord
  2
Face
 70
    0
 62
    7
  6
CONTINUOUS
  0
LAYER
  5
ADB
330
AD8
100
AcDbSymbolTableRecord
100
AcDbLayerTableRecord
  2
Edge
 70
    0
 62
    7
  6
CONTINUOUS
  0
LAYER
  5
ADC
330
AD8
100
AcDbSymbolTableRecord
100
AcDbLayerTableRecord
  2
d000
 70
    0
 62
    7
  6
CONTINUOUS
  0
LAYER
  5
ADD
330
AD8
100
AcDbSymbolTableRecord
100
AcDbLayerTableRecord
  2
d001
 70
    0
 62
    7
  6
CONTINUOUS
  0
LAYER
  5
ADE
330
AD8
100
AcDbSymbolTableRecord
100
AcDbLayerTableRecord
  2
d002
 70
    0
 62
    7
  6
CONTINUOUS
  0
LAYER
  5
ADF
330
AD8
100
AcDbSymbolTableRecord
100
AcDbLayerTableRecord
  2
d003
 70
    0
 62
    7
  6
CONTINUOUS
  0
LAYER
  5
AE0
330
AD8
100
AcDbSymbolTableRecord
100
AcDbLayerTableRecord
  2
d004
 70
    0
 62
    7
  6
CONTINUOUS
  0
LAYER
  5
AE1
330
AD8
100
AcDbSymbolTableRecord
100
AcDbLayerTableRecord
  2
d005
 70
    0
 62
    7
  6
CONTINUOUS
  0
LAYER
  5
AE2
330
AD8
100
AcDbSymbolTableRecord
100
AcDbLayerTableRecord
  2
d006
 70
    0
 62
    7
  6
CONTINUOUS
  0
LAYER
  5
AE3
330
AD8
100
AcDbSymbolTableRecord
100
AcDbLayerTableRecord
  2
d007
 70
    0
 62
    7
  6
CONTINUOUS
  0
LAYER
  5
AE4
330
AD8
100
AcDbSymbolTableRecord
100
AcDbLayerTableRecord
  2
d008
 70
    0
 62
    7
  6
CONTINUOUS
  0
LAYER
  5
AE5
330
AD8
100
AcDbSymbolTableRecord
100
AcDbLayerTableRecord
  2
note011
 70
    0
 62
    7
  6
CONTINUOUS
  0
LAYER
  5
AE6
330
AD8
100
AcDbSymbolTableRecord
100
AcDbLayerTableRecord
  2
d009
 70
    0
 62
    7
  6
CONTINUOUS
  0
LAYER
  5
AE7
330
AD8
100
AcDbSymbolTableRecord
100
AcDbLayerTableRecord
  2
d010
 70
    0
 62
    7
  6
CONTINUOUS
  0
LAYER
  5
AE8
330
AD8
100
AcDbSymbolTableRecord
100
AcDbLayerTableRecord
  2
note014
 70
    0
 62
    7
  6
CONTINUOUS
  0
LAYER
  5
AE9
330
AD8
100
AcDbSymbolTableRecord
100
AcDbLayerTableRecord
  2
note015
 70
    0
 62
    7
  6
CONTINUOUS
  0
ENDTAB
  0
TABLE
  2
STYLE
  5
70
330
0
100
AcDbSymbolTable
 70
     2
  0
STYLE
  5
71
330
70
100
AcDbSymbolTableRecord
100
AcDbTextStyleTableRecord
  2
STANDARD
 70
     0
 40
0.0
 41
1.0
 50
0.0
 71
     0
 42
2.5
  3
arial.ttf
  4

  0
STYLE
  5
72
330
70
100
AcDbSymbolTableRecord
100
AcDbTextStyleTableRecord
  2
ANNOTATIVE
 70
     0
 40
0.0
 41
1.0
 50
0.0
 71
     0
 42
2.5
  3
arial.ttf
  4

  0
ENDTAB
  0
TABLE
  2
VIEW
  5
73
330
0
100
AcDbSymbolTable
 70
     0
  0
ENDTAB
  0
TABLE
  2
UCS
  5
74
330
0
100
AcDbSymbolTable
 70
     0
  0
ENDTAB
  0
TABLE
  2
APPID
  5
75
330
0
100
AcDbSymbolTable
 70
     2
  0
APPID
  5
76
330
75
100
AcDbSymbolTableRecord
100
AcDbRegAppTableRecord
  2
ACAD
 70
     0
  0
APPID
  5
77
330
75
100
AcDbSymbolTableRecord
100
AcDbRegAppTableRecord
  2
ACADANNOTATIVE
 70
     0
  0
ENDTAB
  0
TABLE
  2
DIMSTYLE
  5
78
330
0
100
AcDbSymbolTable
 70
     2
  0
DIMSTYLE
105
79
330
78
100
AcDbSymbolTableRecord
100
AcDbDimStyleTableRecord
  2
STANDARD
 70
     0
  3

  4

  5

  6

  7

 40
0.0
 41
2.5
 42
0.625
 43
3.75
 44
1.25
 45
0.0
 46
0.0
 47
0.0
 48
0.0
140
2.5
141
2.5
142
0.0
143
0.03937007874016
144
1.0
145
0.0
146
1.0
147
0.625
 71
     0
 72
     0
 73
     0
 74
     0
 75
     0
 76
     0
 77
     1
 78
     8
170
     0
171
     3
172
     1
173
     0
174
     0
175
     0
176
     0
177
     0
178
     0
270
     2
271
     2
272
     2
273
     2
274
     3
340
71
275
     0
280
     0
281
     0
282
     0
283
     0
284
     8
285
     0
286
     0
287
     3
288
     0
  0
ENDTAB
  0
TABLE
  2
BLOCK_RECORD
  5
A01
330
0
100
AcDbSymbolTable
  70
5
  0
BLOCK_RECORD
  5
A02
330
A01
100
AcDbSymbolTableRecord
100
AcDbBlockTableRecord
  2
*MODEL_SPACE
  0
BLOCK_RECORD
  5
A03
330
A01
100
AcDbSymbolTableRecord
100
AcDbBlockTableRecord
  2
*PAPER_SPACE
  0
BLOCK_RECORD
  5
A6C
330
A01
100
AcDbSymbolTableRecord
100
AcDbBlockTableRecord
  2
*d000
  0
BLOCK_RECORD
  5
A76
330
A01
100
AcDbSymbolTableRecord
100
AcDbBlockTableRecord
  2
*d001
  0
BLOCK_RECORD
  5
A80
330
A01
100
AcDbSymbolTableRecord
100
AcDbBlockTableRecord
  2
*d002
  0
BLOCK_RECORD
  5
A8A
330
A01
100
AcDbSymbolTableRecord
100
AcDbBlockTableRecord
  2
*d003
  0
BLOCK_RECORD
  5
A94
330
A01
100
AcDbSymbolTableRecord
100
AcDbBlockTableRecord
  2
*d004
  0
BLOCK_RECORD
  5
A9E
330
A01
100
AcDbSymbolTableRecord
100
AcDbBlockTableRecord
  2
*d005
  0
BLOCK_RECORD
  5
AA8
330
A01
100
AcDbSymbolTableRecord
100
AcDbBlockTableRecord
  2
*d006
  0
BLOCK_RECORD
  5
AB2
330
A01
100
AcDbSymbolTableRecord
100
AcDbBlockTableRecord
  2
*d007
  0
BLOCK_RECORD
  5
ABC
330
A01
100
AcDbSymbolTableRecord
100
AcDbBlockTableRecord
  2
*d008
  0
BLOCK_RECORD
  5
AC7
330
A01
100
AcDbSymbolTableRecord
100
AcDbBlockTableRecord
  2
*d009
  0
BLOCK_RECORD
  5
ACF
330
A01
100
AcDbSymbolTableRecord
100
AcDbBlockTableRecord
  2
*d010
  0
ENDTAB
  0
ENDSEC
  0
SECTION
  2
BLOCKS
  0
BLOCK
  5
A04
330
A02
100
AcDbEntity
  8
0
100
AcDbBlockBegin
  2
*MODEL_SPACE
 70
   0
 10
0
 20
0
 30
0
  3
*MODEL_SPACE
  1
 
  0
ENDBLK
  5
A05
330
A02
100
AcDbEntity
  8
0
100
AcDbBlockEnd
  0
BLOCK
  5
A06
330
A03
100
AcDbEntity
 67
1
  8
0
100
AcDbBlockBegin
  2
*PAPER_SPACE
 70
   0
 10
0
 20
0
 30
0
  3
*PAPER_SPACE
  1
 
  0
ENDBLK
  5
A07
330
A03
100
AcDbEntity
 67
    1
  8
0
100
AcDbBlockEnd
  0
BLOCK
  5
A6D
330
A6C
100
AcDbEntity
  8
d000
100
AcDbBlockBegin
  2
*d000
 70
   1
 10
0
 20
0
 30
0
  3
*d000
  1
 
  0
LINE
  5
A6E
330
A6C
100
AcDbEntity
  8
d000
100
AcDbLine
 10
105
 20
175
 30
0
 11
105
 21
135.464
 31
0
  0
LINE
  5
A6F
330
A6C
100
AcDbEntity
  8
d000
100
AcDbLine
 10
97.5
 20
167.5
 30
0
 11
97.5
 21
135.464
 31
0
  0
LINE
  5
A70
330
A6C
100
AcDbEntity
  8
d000
100
AcDbLine
 10
97.5
 20
135.464
 30
0
 11
105
 21
135.464
 31
0
  0
TEXT
  5
A71
330
A6C
100
AcDbEntity
  8
d000
100
AcDbText
 10
150
 20
139
 30
0
 40
3.5
  1
15
  7
STANDARD
 72
1
 11
146.464
 21
135.464
 31
0
100
AcDbText
  0
SOLID
  5
A72
330
A6C
100
AcDbEntity
  8
0
 62
     0
100
AcDbTrace
 10
92.5
 20
135.048
 30
0
 11
92.5
 21
135.881
 31
0
 12
97.5
 22
135.464
 32
0
 13
97.5
 23
135.464
 33
0
  0
SOLID
  5
A73
330
A6C
100
AcDbEntity
  8
0
 62
     0
100
AcDbTrace
 10
110
 20
135.048
 30
0
 11
110
 21
135.881
 31
0
 12
105
 22
135.464
 32
0
 13
105
 23
135.464
 33
0
  0
ENDBLK
  5
A74
330
A6C
100
AcDbEntity
  8
d000
100
AcDbBlockEnd
  0
BLOCK
  5
A77
330
A76
100
AcDbEntity
  8
d001
100
AcDbBlockBegin
  2
*d001
 70
   1
 10
0
 20
0
 30
0
  3
*d001
  1
 
  0
LINE
  5
A78
330
A76
100
AcDbEntity
  8
d001
100
AcDbLine
 10
195
 20
175
 30
0
 11
195
 21
123
 31
0
  0
LINE
  5
A79
330
A76
100
AcDbEntity
  8
d001
100
AcDbLine
 10
105
 20
175
 30
0
 11
105
 21
123
 31
0
  0
LINE
  5
A7A
330
A76
100
AcDbEntity
  8
d001
100
AcDbLine
 10
105
 20
123
 30
0
 11
195
 21
123
 31
0
  0
TEXT
  5
A7B
330
A76
100
AcDbEntity
  8
d001
100
AcDbText
 10
150
 20
128
 30
0
 40
3.5
  1
180
  7
STANDARD
 72
1
 11
150
 21
123
 31
0
100
AcDbText
  0
SOLID
  5
A7C
330
A76
100
AcDbEntity
  8
0
 62
     0
100
AcDbTrace
 10
100
 20
122.583
 30
0
 11
100
 21
123.417
 31
0
 12
105
 22
123
 32
0
 13
105
 23
123
 33
0
  0
SOLID
  5
A7D
330
A76
100
AcDbEntity
  8
0
 62
     0
100
AcDbTrace
 10
200
 20
122.583
 30
0
 11
200
 21
123.417
 31
0
 12
195
 22
123
 32
0
 13
195
 23
123
 33
0
  0
ENDBLK
  5
A7E
330
A76
100
AcDbEntity
  8
d001
100
AcDbBlockEnd
  0
BLOCK
  5
A81
330
A80
100
AcDbEntity
  8
d002
100
AcDbBlockBegin
  2
*d002
 70
   1
 10
0
 20
0
 30
0
  3
*d002
  1
 
  0
LINE
  5
A82
330
A80
100
AcDbEntity
  8
d002
100
AcDbLine
 10
202.5
 20
167.5
 30
0
 11
202.5
 21
112
 31
0
  0
LINE
  5
A83
330
A80
100
AcDbEntity
  8
d002
100
AcDbLine
 10
97.5
 20
167.5
 30
0
 11
97.5
 21
112
 31
0
  0
LINE
  5
A84
330
A80
100
AcDbEntity
  8
d002
100
AcDbLine
 10
97.5
 20
112
 30
0
 11
202.5
 21
112
 31
0
  0
TEXT
  5
A85
330
A80
100
AcDbEntity
  8
d002
100
AcDbText
 10
150
 20
117
 30
0
 40
3.5
  1
210
  7
STANDARD
 72
1
 11
150
 21
112
 31
0
100
AcDbText
  0
SOLID
  5
A86
330
A80
100
AcDbEntity
  8
0
 62
     0
100
AcDbTrace
 10
92.5
 20
111.583
 30
0
 11
92.5
 21
112.417
 31
0
 12
97.5
 22
112
 32
0
 13
97.5
 23
112
 33
0
  0
SOLID
  5
A87
330
A80
100
AcDbEntity
  8
0
 62
     0
100
AcDbTrace
 10
207.5
 20
111.583
 30
0
 11
207.5
 21
112.417
 31
0
 12
202.5
 22
112
 32
0
 13
202.5
 23
112
 33
0
  0
ENDBLK
  5
A88
330
A80
100
AcDbEntity
  8
d002
100
AcDbBlockEnd
  0
BLOCK
  5
A8B
330
A8A
100
AcDbEntity
  8
d003
100
AcDbBlockBegin
  2
*d003
 70
   1
 10
0
 20
0
 30
0
  3
*d003
  1
 
  0
LINE
  5
A8C
330
A8A
100
AcDbEntity
  8
d003
100
AcDbLine
 10
97.5
 20
182.5
 30
0
 11
69
 21
182.5
 31
0
  0
LINE
  5
A8D
330
A8A
100
AcDbEntity
  8
d003
100
AcDbLine
 10
97.5
 20
167.5
 30
0
 11
69
 21
167.5
 31
0
  0
LINE
  5
A8E
330
A8A
100
AcDbEntity
  8
d003
100
AcDbLine
 10
69
 20
167.5
 30
0
 11
69
 21
182.5
 31
0
  0
TEXT
  5
A8F
330
A8A
100
AcDbEntity
  8
d003
100
AcDbText
 10
74
 20
205
 30
0
 40
3.5
  1
30
  7
STANDARD
 72
1
 11
69
 21
205
 31
0
100
AcDbText
  0
SOLID
  5
A90
330
A8A
100
AcDbEntity
  8
0
 62
     0
100
AcDbTrace
 10
68.5833
 20
162.5
 30
0
 11
69.4167
 21
162.5
 31
0
 12
69
 22
167.5
 32
0
 13
69
 23
167.5
 33
0
  0
SOLID
  5
A91
330
A8A
100
AcDbEntity
  8
0
 62
     0
100
AcDbTrace
 10
68.5833
 20
187.5
 30
0
 11
69.4167
 21
187.5
 31
0
 12
69
 22
182.5
 32
0
 13
69
 23
182.5
 33
0
  0
ENDBLK
  5
A92
330
A8A
100
AcDbEntity
  8
d003
100
AcDbBlockEnd
  0
BLOCK
  5
A95
330
A94
100
AcDbEntity
  8
d004
100
AcDbBlockBegin
  2
*d004
 70
   1
 10
0
 20
0
 30
0
  3
*d004
  1
 
  0
LINE
  5
A96
330
A94
100
AcDbEntity
  8
d004
100
AcDbLine
 10
105
 20
235
 30
0
 11
58
 21
235
 31
0
  0
LINE
  5
A97
330
A94
100
AcDbEntity
  8
d004
100
AcDbLine
 10
105
 20
175
 30
0
 11
58
 21
175
 31
0
  0
LINE
  5
A98
330
A94
100
AcDbEntity
  8
d004
100
AcDbLine
 10
58
 20
175
 30
0
 11
58
 21
235
 31
0
  0
TEXT
  5
A99
330
A94
100
AcDbEntity
  8
d004
100
AcDbText
 10
63
 20
205
 30
0
 40
3.5
  1
120
  7
STANDARD
 72
1
 11
58
 21
205
 31
0
100
AcDbText
  0
SOLID
  5
A9A
330
A94
100
AcDbEntity
  8
0
 62
     0
100
AcDbTrace
 10
57.5833
 20
170
 30
0
 11
58.4167
 21
170
 31
0
 12
58
 22
175
 32
0
 13
58
 23
175
 33
0
  0
SOLID
  5
A9B
330
A94
100
AcDbEntity
  8
0
 62
     0
100
AcDbTrace
 10
57.5833
 20
240
 30
0
 11
58.4167
 21
240
 31
0
 12
58
 22
235
 32
0
 13
58
 23
235
 33
0
  0
ENDBLK
  5
A9C
330
A94
100
AcDbEntity
  8
d004
100
AcDbBlockEnd
  0
BLOCK
  5
A9F
330
A9E
100
AcDbEntity
  8
d005
100
AcDbBlockBegin
  2
*d005
 70
   1
 10
0
 20
0
 30
0
  3
*d005
  1
 
  0
LINE
  5
AA0
330
A9E
100
AcDbEntity
  8
d005
100
AcDbLine
 10
97.5
 20
242.5
 30
0
 11
47
 21
242.5
 31
0
  0
LINE
  5
AA1
330
A9E
100
AcDbEntity
  8
d005
100
AcDbLine
 10
97.5
 20
167.5
 30
0
 11
47
 21
167.5
 31
0
  0
LINE
  5
AA2
330
A9E
100
AcDbEntity
  8
d005
100
AcDbLine
 10
47
 20
167.5
 30
0
 11
47
 21
242.5
 31
0
  0
TEXT
  5
AA3
330
A9E
100
AcDbEntity
  8
d005
100
AcDbText
 10
52
 20
205
 30
0
 40
3.5
  1
150
  7
STANDARD
 72
1
 11
47
 21
205
 31
0
100
AcDbText
  0
SOLID
  5
AA4
330
A9E
100
AcDbEntity
  8
0
 62
     0
100
AcDbTrace
 10
46.5833
 20
162.5
 30
0
 11
47.4167
 21
162.5
 31
0
 12
47
 22
167.5
 32
0
 13
47
 23
167.5
 33
0
  0
SOLID
  5
AA5
330
A9E
100
AcDbEntity
  8
0
 62
     0
100
AcDbTrace
 10
46.5833
 20
247.5
 30
0
 11
47.4167
 21
247.5
 31
0
 12
47
 22
242.5
 32
0
 13
47
 23
242.5
 33
0
  0
ENDBLK
  5
AA6
330
A9E
100
AcDbEntity
  8
d005
100
AcDbBlockEnd
  0
BLOCK
  5
AA9
330
AA8
100
AcDbEntity
  8
d006
100
AcDbBlockBegin
  2
*d006
 70
   1
 10
0
 20
0
 30
0
  3
*d006
  1
 
  0
LINE
  5
AAA
330
AA8
100
AcDbEntity
  8
d006
100
AcDbLine
 10
210
 20
255
 30
0
 11
210
 21
101
 31
0
  0
LINE
  5
AAB
330
AA8
100
AcDbEntity
  8
d006
100
AcDbLine
 10
90
 20
255
 30
0
 11
90
 21
101
 31
0
  0
LINE
  5
AAC
330
AA8
100
AcDbEntity
  8
d006
100
AcDbLine
 10
90
 20
101
 30
0
 11
210
 21
101
 31
0
  0
TEXT
  5
AAD
330
AA8
100
AcDbEntity
  8
d006
100
AcDbText
 10
150
 20
106
 30
0
 40
3.5
  1
240
  7
STANDARD
 72
1
 11
150
 21
101
 31
0
100
AcDbText
  0
SOLID
  5
AAE
330
AA8
100
AcDbEntity
  8
0
 62
     0
100
AcDbTrace
 10
85
 20
100.583
 30
0
 11
85
 21
101.417
 31
0
 12
90
 22
101
 32
0
 13
90
 23
101
 33
0
  0
SOLID
  5
AAF
330
AA8
100
AcDbEntity
  8
0
 62
     0
100
AcDbTrace
 10
215
 20
100.583
 30
0
 11
215
 21
101.417
 31
0
 12
210
 22
101
 32
0
 13
210
 23
101
 33
0
  0
ENDBLK
  5
AB0
330
AA8
100
AcDbEntity
  8
d006
100
AcDbBlockEnd
  0
BLOCK
  5
AB3
330
AB2
100
AcDbEntity
  8
d007
100
AcDbBlockBegin
  2
*d007
 70
   1
 10
0
 20
0
 30
0
  3
*d007
  1
 
  0
LINE
  5
AB4
330
AB2
100
AcDbEntity
  8
d007
100
AcDbLine
 10
90
 20
255
 30
0
 11
36
 21
255
 31
0
  0
LINE
  5
AB5
330
AB2
100
AcDbEntity
  8
d007
100
AcDbLine
 10
90
 20
155
 30
0
 11
36
 21
155
 31
0
  0
LINE
  5
AB6
330
AB2
100
AcDbEntity
  8
d007
100
AcDbLine
 10
36
 20
155
 30
0
 11
36
 21
255
 31
0
  0
TEXT
  5
AB7
330
AB2
100
AcDbEntity
  8
d007
100
AcDbText
 10
41
 20
205
 30
0
 40
3.5
  1
200
  7
STANDARD
 72
1
 11
36
 21
205
 31
0
100
AcDbText
  0
SOLID
  5
AB8
330
AB2
100
AcDbEntity
  8
0
 62
     0
100
AcDbTrace
 10
35.5833
 20
150
 30
0
 11
36.4167
 21
150
 31
0
 12
36
 22
155
 32
0
 13
36
 23
155
 33
0
  0
SOLID
  5
AB9
330
AB2
100
AcDbEntity
  8
0
 62
     0
100
AcDbTrace
 10
35.5833
 20
260
 30
0
 11
36.4167
 21
260
 31
0
 12
36
 22
255
 32
0
 13
36
 23
255
 33
0
  0
ENDBLK
  5
ABA
330
AB2
100
AcDbEntity
  8
d007
100
AcDbBlockEnd
  0
BLOCK
  5
ABD
330
ABC
100
AcDbEntity
  8
d008
100
AcDbBlockBegin
  2
*d008
 70
   1
 10
0
 20
0
 30
0
  3
*d008
  1
 
  0
LINE
  5
ABE
330
ABC
100
AcDbEntity
  8
d008
100
AcDbLine
 10
336.5
 20
155
 30
0
 11
336.5
 21
134
 31
0
  0
LINE
  5
ABF
330
ABC
100
AcDbEntity
  8
d008
100
AcDbLine
 10
333.5
 20
155
 30
0
 11
333.5
 21
134
 31
0
  0
LINE
  5
AC0
330
ABC
100
AcDbEntity
  8
d008
100
AcDbLine
 10
333.5
 20
134
 30
0
 11
336.5
 21
134
 31
0
  0
TEXT
  5
AC1
330
ABC
100
AcDbEntity
  8
d008
100
AcDbText
 10
335
 20
139
 30
0
 40
3.5
  1
6
  7
STANDARD
 72
1
 11
335
 21
134
 31
0
100
AcDbText
  0
SOLID
  5
AC2
330
ABC
100
AcDbEntity
  8
0
 62
     0
100
AcDbTrace
 10
328.5
 20
133.583
 30
0
 11
328.5
 21
134.417
 31
0
 12
333.5
 22
134
 32
0
 13
333.5
 23
134
 33
0
  0
SOLID
  5
AC3
330
ABC
100
AcDbEntity
  8
0
 62
     0
100
AcDbTrace
 10
341.5
 20
133.583
 30
0
 11
341.5
 21
134.417
 31
0
 12
336.5
 22
134
 32
0
 13
336.5
 23
134
 33
0
  0
ENDBLK
  5
AC4
330
ABC
100
AcDbEntity
  8
d008
100
AcDbBlockEnd
  0
BLOCK
  5
AC8
330
AC7
100
AcDbEntity
  8
d009
100
AcDbBlockBegin
  2
*d009
 70
   1
 10
0
 20
0
 30
0
  3
*d009
  1
 
  0
LINE
  5
AC9
330
AC7
100
AcDbEntity
  8
d009
100
AcDbLine
 10
202.5
 20
242.5
 30
0
 11
202.5
 21
242.5
 31
0
  0
TEXT
  5
ACA
330
AC7
100
AcDbEntity
  8
d009
100
AcDbText
 10
236
 20
255
 30
0
 40
3.5
  1
88x ⌀3,5
  7
STANDARD
 72
1
 11
236
 21
255
 31
0
100
AcDbText
  0
SOLID
  5
ACB
330
AC7
100
AcDbEntity
  8
0
 62
     0
100
AcDbTrace
 10
202.5
 20
242.5
 30
0
 11
202.5
 21
242.5
 31
0
 12
202.5
 22
242.5
 32
0
 13
202.5
 23
242.5
 33
0
  0
SOLID
  5
ACC
330
AC7
100
AcDbEntity
  8
0
 62
     0
100
AcDbTrace
 10
202.5
 20
242.5
 30
0
 11
202.5
 21
242.5
 31
0
 12
202.5
 22
242.5
 32
0
 13
202.5
 23
242.5
 33
0
  0
ENDBLK
  5
ACD
330
AC7
100
AcDbEntity
  8
d009
100
AcDbBlockEnd
  0
BLOCK
  5
AD0
330
ACF
100
AcDbEntity
  8
d010
100
AcDbBlockBegin
  2
*d010
 70
   1
 10
0
 20
0
 30
0
  3
*d010
  1
 
  0
LINE
  5
AD1
330
ACF
100
AcDbEntity
  8
d010
100
AcDbLine
 10
150
 20
205
 30
0
 11
150
 21
205
 31
0
  0
TEXT
  5
AD2
330
ACF
100
AcDbEntity
  8
d010
100
AcDbText
 10
236
 20
190
 30
0
 40
3.5
  1
⌀150,9 B.C.
  7
STANDARD
 72
1
 11
236
 21
190
 31
0
100
AcDbText
  0
SOLID
  5
AD3
330
ACF
100
AcDbEntity
  8
0
 62
     0
100
AcDbTrace
 10
150
 20
205
 30
0
 11
150
 21
205
 31
0
 12
150
 22
205
 32
0
 13
150
 23
205
 33
0
  0
SOLID
  5
AD4
330
ACF
100
AcDbEntity
  8
0
 62
     0
100
AcDbTrace
 10
150
 20
205
 30
0
 11
150
 21
205
 31
0
 12
150
 22
205
 32
0
 13
150
 23
205
 33
0
  0
ENDBLK
  5
AD5
330
ACF
100
AcDbEntity
  8
d010
100
AcDbBlockEnd
  0
ENDSEC
  0
SECTION
  2
ENTITIES
  0
LINE
  5
A08
330
A02
100
AcDbEntity
  8
Face
100
AcDbLine
 10
90.000000000
 20
155.000000000
 30
0.000000000
 11
210.000000000
 21
155.000000000
 31
0.000000000
  0
LINE
  5
A09
330
A02
100
AcDbEntity
  8
Face
100
AcDbLine
 10
90.000000000
 20
255.000000000
 30
0.000000000
 11
90.000000000
 21
155.000000000
 31
0.000000000
  0
LINE
  5
A0A
330
A02
100
AcDbEntity
  8
Face
100
AcDbLine
 10
210.000000000
 20
155.000000000
 30
0.000000000
 11
210.000000000
 21
255.000000000
 31
0.000000000
  0
LINE
  5
A0B
330
A02
100
AcDbEntity
  8
Face
100
AcDbLine
 10
210.000000000
 20
255.000000000
 30
0.000000000
 11
90.000000000
 21
255.000000000
 31
0.000000000
  0
CIRCLE
  5
A0C
330
A02
100
AcDbEntity
  8
Face
100
AcDbCircle
 10
97.500000000
 20
167.500000000
 30
0.000000000
 40
0.875000000
  0
CIRCLE
  5
A0D
330
A02
100
AcDbEntity
  8
Face
100
AcDbCircle
 10
105.000000000
 20
175.000000000
 30
0.000000000
 40
0.875000000
  0
CIRCLE
  5
A0E
330
A02
100
AcDbEntity
  8
Face
100
AcDbCircle
 10
97.500000000
 20
182.500000000
 30
0.000000000
 40
0.875000000
  0
CIRCLE
  5
A0F
330
A02
100
AcDbEntity
  8
Face
100
AcDbCircle
 10
112.500000000
 20
167.500000000
 30
0.000000000
 40
0.875000000
  0
CIRCLE
  5
A10
330
A02
100
AcDbEntity
  8
Face
100
AcDbCircle
 10
120.000000000
 20
175.000000000
 30
0.000000000
 40
0.875000000
  0
CIRCLE
  5
A11
330
A02
100
AcDbEntity
  8
Face
100
AcDbCircle
 10
112.500000000
 20
182.500000000
 30
0.000000000
 40
0.875000000
  0
CIRCLE
  5
A12
330
A02
100
AcDbEntity
  8
Face
100
AcDbCircle
 10
119.479833887
 20
182.825801357
 30
0.000000000
 40
0.875000000
  0
CIRCLE
  5
A13
330
A02
100
AcDbEntity
  8
Face
100
AcDbCircle
 10
105.000000000
 20
190.000000000
 30
0.000000000
 40
0.875000000
  0
CIRCLE
  5
A14
330
A02
100
AcDbEntity
  8
Face
100
AcDbCircle
 10
97.500000000
 20
197.500000000
 30
0.000000000
 40
0.875000000
  0
CIRCLE
  5
A15
330
A02
100
AcDbEntity
  8
Face
100
AcDbCircle
 10
120.000000000
 20
190.000000000
 30
0.000000000
 40
0.875000000
  0
CIRCLE
  5
A16
330
A02
100
AcDbEntity
  8
Face
100
AcDbCircle
 10
112.500000000
 20
197.500000000
 30
0.000000000
 40
0.875000000
  0
CIRCLE
  5
A17
330
A02
100
AcDbEntity
  8
Face
100
AcDbCircle
 10
127.500000000
 20
167.500000000
 30
0.000000000
 40
0.875000000
  0
CIRCLE
  5
A18
330
A02
100
AcDbEntity
  8
Face
100
AcDbCircle
 10
135.000000000
 20
175.000000000
 30
0.000000000
 40
0.875000000
  0
CIRCLE
  5
A19
330
A02
100
AcDbEntity
  8
Face
100
AcDbCircle
 10
127.500000000
 20
182.500000000
 30
0.000000000
 40
0.875000000
  0
CIRCLE
  5
A1A
330
A02
100
AcDbEntity
  8
Face
100
AcDbCircle
 10
142.500000000
 20
167.500000000
 30
0.000000000
 40
0.875000000
  0
CIRCLE
  5
A1B
330
A02
100
AcDbEntity
  8
Face
100
AcDbCircle
 10
142.500000000
 20
182.500000000
 30
0.000000000
 40
0.875000000
  0
CIRCLE
  5
A1C
330
A02
100
AcDbEntity
  8
Face
100
AcDbCircle
 10
135.000000000
 20
190.000000000
 30
0.000000000
 40
0.875000000
  0
CIRCLE
  5
A1D
330
A02
100
AcDbEntity
  8
Face
100
AcDbCircle
 10
127.500000000
 20
197.500000000
 30
0.000000000
 40
0.875000000
  0
CIRCLE
  5
A1E
330
A02
100
AcDbEntity
  8
Face
100
AcDbCircle
 10
142.500000000
 20
197.500000000
 30
0.000000000
 40
0.875000000
  0
CIRCLE
  5
A1F
330
A02
100
AcDbEntity
  8
Face
100
AcDbCircle
 10
97.500000000
 20
212.500000000
 30
0.000000000
 40
0.875000000
  0
CIRCLE
  5
A20
330
A02
100
AcDbEntity
  8
Face
100
AcDbCircle
 10
105.000000000
 20
205.000000000
 30
0.000000000
 40
0.875000000
  0
CIRCLE
  5
A21
330
A02
100
AcDbEntity
  8
Face
100
AcDbCircle
 10
105.000000000
 20
220.000000000
 30
0.000000000
 40
0.875000000
  0
CIRCLE
  5
A22
330
A02
100
AcDbEntity
  8
Face
100
AcDbCircle
 10
112.500000000
 20
212.500000000
 30
0.000000000
 40
0.875000000
  0
CIRCLE
  5
A23
330
A02
100
AcDbEntity
  8
Face
100
AcDbCircle
 10
120.000000000
 20
205.000000000
 30
0.000000000
 40
0.875000000
  0
CIRCLE
  5
A24
330
A02
100
AcDbEntity
  8
Face
100
AcDbCircle
 10
120.000000000
 20
220.000000000
 30
0.000000000
 40
0.875000000
  0
CIRCLE
  5
A25
330
A02
100
AcDbEntity
  8
Face
100
AcDbCircle
 10
97.500000000
 20
227.500000000
 30
0.000000000
 40
0.875000000
  0
CIRCLE
  5
A26
330
A02
100
AcDbEntity
  8
Face
100
AcDbCircle
 10
97.500000000
 20
242.500000000
 30
0.000000000
 40
0.875000000
  0
CIRCLE
  5
A27
330
A02
100
AcDbEntity
  8
Face
100
AcDbCircle
 10
105.000000000
 20
235.000000000
 30
0.000000000
 40
0.875000000
  0
CIRCLE
  5
A28
330
A02
100
AcDbEntity
  8
Face
100
AcDbCircle
 10
112.500000000
 20
227.500000000
 30
0.000000000
 40
0.875000000
  0
CIRCLE
  5
A29
330
A02
100
AcDbEntity
  8
Face
100
AcDbCircle
 10
119.479833887
 20
227.174198643
 30
0.000000000
 40
0.875000000
  0
CIRCLE
  5
A2A
330
A02
100
AcDbEntity
  8
Face
100
AcDbCircle
 10
112.500000000
 20
242.500000000
 30
0.000000000
 40
0.875000000
  0
CIRCLE
  5
A2B
330
A02
100
AcDbEntity
  8
Face
100
AcDbCircle
 10
120.000000000
 20
235.000000000
 30
0.000000000
 40
0.875000000
  0
CIRCLE
  5
A2C
330
A02
100
AcDbEntity
  8
Face
100
AcDbCircle
 10
127.500000000
 20
212.500000000
 30
0.000000000
 40
0.875000000
  0
CIRCLE
  5
A2D
330
A02
100
AcDbEntity
  8
Face
100
AcDbCircle
 10
135.000000000
 20
205.000000000
 30
0.000000000
 40
0.875000000
  0
CIRCLE
  5
A2E
330
A02
100
AcDbEntity
  8
Face
100
AcDbCircle
 10
135.000000000
 20
220.000000000
 30
0.000000000
 40
0.875000000
  0
CIRCLE
  5
A2F
330
A02
100
AcDbEntity
  8
Face
100
AcDbCircle
 10
142.500000000
 20
212.500000000
 30
0.000000000
 40
0.875000000
  0
CIRCLE
  5
A30
330
A02
100
AcDbEntity
  8
Face
100
AcDbCircle
 10
127.500000000
 20
227.500000000
 30
0.000000000
 40
0.875000000
  0
CIRCLE
  5
A31
330
A02
100
AcDbEntity
  8
Face
100
AcDbCircle
 10
127.500000000
 20
242.500000000
 30
0.000000000
 40
0.875000000
  0
CIRCLE
  5
A32
330
A02
100
AcDbEntity
  8
Face
100
AcDbCircle
 10
135.000000000
 20
235.000000000
 30
0.000000000
 40
0.875000000
  0
CIRCLE
  5
A33
330
A02
100
AcDbEntity
  8
Face
100
AcDbCircle
 10
142.500000000
 20
227.500000000
 30
0.000000000
 40
0.875000000
  0
CIRCLE
  5
A34
330
A02
100
AcDbEntity
  8
Face
100
AcDbCircle
 10
142.500000000
 20
242.500000000
 30
0.000000000
 40
0.875000000
  0
CIRCLE
  5
A35
330
A02
100
AcDbEntity
  8
Face
100
AcDbCircle
 10
150.000000000
 20
175.000000000
 30
0.000000000
 40
0.875000000
  0
CIRCLE
  5
A36
330
A02
100
AcDbEntity
  8
Face
100
AcDbCircle
 10
157.500000000
 20
167.500000000
 30
0.000000000
 40
0.875000000
  0
CIRCLE
  5
A37
330
A02
100
AcDbEntity
  8
Face
100
AcDbCircle
 10
161.657666113
 20
169.121392923
 30
0.000000000
 40
0.875000000
  0
CIRCLE
  5
A38
330
A02
100
AcDbEntity
  8
Face
100
AcDbCircle
 10
157.500000000
 20
182.500000000
 30
0.000000000
 40
0.875000000
  0
CIRCLE
  5
A39
330
A02
100
AcDbEntity
  8
Face
100
AcDbCircle
 10
165.000000000
 20
175.000000000
 30
0.000000000
 40
0.875000000
  0
CIRCLE
  5
A3A
330
A02
100
AcDbEntity
  8
Face
100
AcDbCircle
 10
172.500000000
 20
167.500000000
 30
0.000000000
 40
0.875000000
  0
CIRCLE
  5
A3B
330
A02
100
AcDbEntity
  8
Face
100
AcDbCircle
 10
172.500000000
 20
182.500000000
 30
0.000000000
 40
0.875000000
  0
CIRCLE
  5
A3C
330
A02
100
AcDbEntity
  8
Face
100
AcDbCircle
 10
150.000000000
 20
190.000000000
 30
0.000000000
 40
0.875000000
  0
CIRCLE
  5
A3D
330
A02
100
AcDbEntity
  8
Face
100
AcDbCircle
 10
157.500000000
 20
197.500000000
 30
0.000000000
 40
0.875000000
  0
CIRCLE
  5
A3E
330
A02
100
AcDbEntity
  8
Face
100
AcDbCircle
 10
165.000000000
 20
190.000000000
 30
0.000000000
 40
0.875000000
  0
CIRCLE
  5
A3F
330
A02
100
AcDbEntity
  8
Face
100
AcDbCircle
 10
172.500000000
 20
197.500000000
 30
0.000000000
 40
0.875000000
  0
CIRCLE
  5
A40
330
A02
100
AcDbEntity
  8
Face
100
AcDbCircle
 10
180.000000000
 20
175.000000000
 30
0.000000000
 40
0.875000000
  0
CIRCLE
  5
A41
330
A02
100
AcDbEntity
  8
Face
100
AcDbCircle
 10
187.500000000
 20
167.500000000
 30
0.000000000
 40
0.875000000
  0
CIRCLE
  5
A42
330
A02
100
AcDbEntity
  8
Face
100
AcDbCircle
 10
187.500000000
 20
182.500000000
 30
0.000000000
 40
0.875000000
  0
CIRCLE
  5
A43
330
A02
100
AcDbEntity
  8
Face
100
AcDbCircle
 10
195.000000000
 20
175.000000000
 30
0.000000000
 40
0.875000000
  0
CIRCLE
  5
A44
330
A02
100
AcDbEntity
  8
Face
100
AcDbCircle
 10
202.500000000
 20
167.500000000
 30
0.000000000
 40
0.875000000
  0
CIRCLE
  5
A45
330
A02
100
AcDbEntity
  8
Face
100
AcDbCircle
 10
202.500000000
 20
182.500000000
 30
0.000000000
 40
0.875000000
  0
CIRCLE
  5
A46
330
A02
100
AcDbEntity
  8
Face
100
AcDbCircle
 10
180.000000000
 20
190.000000000
 30
0.000000000
 40
0.875000000
  0
CIRCLE
  5
A47
330
A02
100
AcDbEntity
  8
Face
100
AcDbCircle
 10
187.500000000
 20
197.500000000
 30
0.000000000
 40
0.875000000
  0
CIRCLE
  5
A48
330
A02
100
AcDbEntity
  8
Face
100
AcDbCircle
 10
195.000000000
 20
190.000000000
 30
0.000000000
 40
0.875000000
  0
CIRCLE
  5
A49
330
A02
100
AcDbEntity
  8
Face
100
AcDbCircle
 10
202.500000000
 20
197.500000000
 30
0.000000000
 40
0.875000000
  0
CIRCLE
  5
A4A
330
A02
100
AcDbEntity
  8
Face
100
AcDbCircle
 10
150.000000000
 20
205.000000000
 30
0.000000000
 40
0.875000000
  0
CIRCLE
  5
A4B
330
A02
100
AcDbEntity
  8
Face
100
AcDbCircle
 10
157.500000000
 20
212.500000000
 30
0.000000000
 40
0.875000000
  0
CIRCLE
  5
A4C
330
A02
100
AcDbEntity
  8
Face
100
AcDbCircle
 10
150.000000000
 20
220.000000000
 30
0.000000000
 40
0.875000000
  0
CIRCLE
  5
A4D
330
A02
100
AcDbEntity
  8
Face
100
AcDbCircle
 10
165.000000000
 20
205.000000000
 30
0.000000000
 40
0.875000000
  0
CIRCLE
  5
A4E
330
A02
100
AcDbEntity
  8
Face
100
AcDbCircle
 10
172.500000000
 20
212.500000000
 30
0.000000000
 40
0.875000000
  0
CIRCLE
  5
A4F
330
A02
100
AcDbEntity
  8
Face
100
AcDbCircle
 10
165.000000000
 20
220.000000000
 30
0.000000000
 40
0.875000000
  0
CIRCLE
  5
A50
330
A02
100
AcDbEntity
  8
Face
100
AcDbCircle
 10
157.500000000
 20
227.500000000
 30
0.000000000
 40
0.875000000
  0
CIRCLE
  5
A51
330
A02
100
AcDbEntity
  8
Face
100
AcDbCircle
 10
150.000000000
 20
235.000000000
 30
0.000000000
 40
0.875000000
  0
CIRCLE
  5
A52
330
A02
100
AcDbEntity
  8
Face
100
AcDbCircle
 10
157.500000000
 20
242.500000000
 30
0.000000000
 40
0.875000000
  0
CIRCLE
  5
A53
330
A02
100
AcDbEntity
  8
Face
100
AcDbCircle
 10
161.657666113
 20
240.878607077
 30
0.000000000
 40
0.875000000
  0
CIRCLE
  5
A54
330
A02
100
AcDbEntity
  8
Face
100
AcDbCircle
 10
172.500000000
 20
227.500000000
 30
0.000000000
 40
0.875000000
  0
CIRCLE
  5
A55
330
A02
100
AcDbEntity
  8
Face
100
AcDbCircle
 10
165.000000000
 20
235.000000000
 30
0.000000000
 40
0.875000000
  0
CIRCLE
  5
A56
330
A02
100
AcDbEntity
  8
Face
100
AcDbCircle
 10
172.500000000
 20
242.500000000
 30
0.000000000
 40
0.875000000
  0
CIRCLE
  5
A57
330
A02
100
AcDbEntity
  8
Face
100
AcDbCircle
 10
180.000000000
 20
205.000000000
 30
0.000000000
 40
0.875000000
  0
CIRCLE
  5
A58
330
A02
100
AcDbEntity
  8
Face
100
AcDbCircle
 10
187.725000000
 20
205.000000000
 30
0.000000000
 40
0.875000000
  0
CIRCLE
  5
A59
330
A02
100
AcDbEntity
  8
Face
100
AcDbCircle
 10
187.500000000
 20
212.500000000
 30
0.000000000
 40
0.875000000
  0
CIRCLE
  5
A5A
330
A02
100
AcDbEntity
  8
Face
100
AcDbCircle
 10
180.000000000
 20
220.000000000
 30
0.000000000
 40
0.875000000
  0
CIRCLE
  5
A5B
330
A02
100
AcDbEntity
  8
Face
100
AcDbCircle
 10
195.000000000
 20
205.000000000
 30
0.000000000
 40
0.875000000
  0
CIRCLE
  5
A5C
330
A02
100
AcDbEntity
  8
Face
100
AcDbCircle
 10
202.500000000
 20
212.500000000
 30
0.000000000
 40
0.875000000
  0
CIRCLE
  5
A5D
330
A02
100
AcDbEntity
  8
Face
100
AcDbCircle
 10
195.000000000
 20
220.000000000
 30
0.000000000
 40
0.875000000
  0
CIRCLE
  5
A5E
330
A02
100
AcDbEntity
  8
Face
100
AcDbCircle
 10
187.500000000
 20
227.500000000
 30
0.000000000
 40
0.875000000
  0
CIRCLE
  5
A5F
330
A02
100
AcDbEntity
  8
Face
100
AcDbCircle
 10
180.000000000
 20
235.000000000
 30
0.000000000
 40
0.875000000
  0
CIRCLE
  5
A60
330
A02
100
AcDbEntity
  8
Face
100
AcDbCircle
 10
187.500000000
 20
242.500000000
 30
0.000000000
 40
0.875000000
  0
CIRCLE
  5
A61
330
A02
100
AcDbEntity
  8
Face
100
AcDbCircle
 10
202.500000000
 20
227.500000000
 30
0.000000000
 40
0.875000000
  0
CIRCLE
  5
A62
330
A02
100
AcDbEntity
  8
Face
100
AcDbCircle
 10
195.000000000
 20
235.000000000
 30
0.000000000
 40
0.875000000
  0
CIRCLE
  5
A63
330
A02
100
AcDbEntity
  8
Face
100
AcDbCircle
 10
202.500000000
 20
242.500000000
 30
0.000000000
 40
0.875000000
  0
CIRCLE
  5
A64
330
A02
100
AcDbEntity
  8
Face
100
AcDbCircle
 10
150.000000000
 20
205.000000000
 30
0.000000000
 40
37.725000000
  0
LINE
  5
A65
330
A02
100
AcDbEntity
  8
Face
100
AcDbLine
 10
150.000000000
 20
149.000000000
 30
0.000000000
 11
150.000000000
 21
261.000000000
 31
0.000000000
  0
LINE
  5
A66
330
A02
100
AcDbEntity
  8
Face
100
AcDbLine
 10
84.000000000
 20
205.000000000
 30
0.000000000
 11
216.000000000
 21
205.000000000
 31
0.000000000
  0
LINE
  5
A67
330
A02
100
AcDbEntity
  8
Edge
100
AcDbLine
 10
333.500000000
 20
155.000000000
 30
0.000000000
 11
336.500000000
 21
155.000000000
 31
0.000000000
  0
LINE
  5
A68
330
A02
100
AcDbEntity
  8
Edge
100
AcDbLine
 10
333.500000000
 20
255.000000000
 30
0.000000000
 11
336.500000000
 21
255.000000000
 31
0.000000000
  0
LINE
  5
A69
330
A02
100
AcDbEntity
  8
Edge
100
AcDbLine
 10
333.500000000
 20
155.000000000
 30
0.000000000
 11
333.500000000
 21
255.000000000
 31
0.000000000
  0
LINE
  5
A6A
330
A02
100
AcDbEntity
  8
Edge
100
AcDbLine
 10
336.500000000
 20
155.000000000
 30
0.000000000
 11
336.500000000
 21
255.000000000
 31
0.000000000
  0
DIMENSION
  5
A6B
330
A02
100
AcDbEntity
  8
d000
100
AcDbDimension
  2
*d000
 10
146.464466094
 20
135.464466094
 30
0.000000000
 11
150.000000000
 21
139.000000000
 31
0.000000000
 70
32
  1
15
  3
STANDARD
100
AcDbAlignedDimension
 13
97.500000000
 23
167.500000000
 33
0.000000000
 14
105.000000000
 24
175.000000000
 34
0.000000000
100
AcDbRotatedDimension
  0
DIMENSION
  5
A75
330
A02
100
AcDbEntity
  8
d001
100
AcDbDimension
  2
*d001
 10
150.000000000
 20
123.000000000
 30
0.000000000
 11
150.000000000
 21
128.000000000
 31
0.000000000
 70
32
  1
180
  3
STANDARD
100
AcDbAlignedDimension
 13
105.000000000
 23
175.000000000
 33
0.000000000
 14
195.000000000
 24
175.000000000
 34
0.000000000
100
AcDbRotatedDimension
  0
DIMENSION
  5
A7F
330
A02
100
AcDbEntity
  8
d002
100
AcDbDimension
  2
*d002
 10
150.000000000
 20
112.000000000
 30
0.000000000
 11
150.000000000
 21
117.000000000
 31
0.000000000
 70
32
  1
210
  3
STANDARD
100
AcDbAlignedDimension
 13
97.500000000
 23
167.500000000
 33
0.000000000
 14
202.500000000
 24
167.500000000
 34
0.000000000
100
AcDbRotatedDimension
  0
DIMENSION
  5
A89
330
A02
100
AcDbEntity
  8
d003
100
AcDbDimension
  2
*d003
 10
69.000000000
 20
205.000000000
 30
0.000000000
 11
74.000000000
 21
205.000000000
 31
0.000000000
 70
32
  1
30
  3
STANDARD
100
AcDbAlignedDimension
 13
97.500000000
 23
167.500000000
 33
0.000000000
 14
97.500000000
 24
182.500000000
 34
0.000000000
 50
90
100
AcDbRotatedDimension
  0
DIMENSION
  5
A93
330
A02
100
AcDbEntity
  8
d004
100
AcDbDimension
  2
*d004
 10
58.000000000
 20
205.000000000
 30
0.000000000
 11
63.000000000
 21
205.000000000
 31
0.000000000
 70
32
  1
120
  3
STANDARD
100
AcDbAlignedDimension
 13
105.000000000
 23
175.000000000
 33
0.000000000
 14
105.000000000
 24
235.000000000
 34
0.000000000
 50
90
100
AcDbRotatedDimension
  0
DIMENSION
  5
A9D
330
A02
100
AcDbEntity
  8
d005
100
AcDbDimension
  2
*d005
 10
47.000000000
 20
205.000000000
 30
0.000000000
 11
52.000000000
 21
205.000000000
 31
0.000000000
 70
32
  1
150
  3
STANDARD
100
AcDbAlignedDimension
 13
97.500000000
 23
167.500000000
 33
0.000000000
 14
97.500000000
 24
242.500000000
 34
0.000000000
 50
90
100
AcDbRotatedDimension
  0
DIMENSION
  5
AA7
330
A02
100
AcDbEntity
  8
d006
100
AcDbDimension
  2
*d006
 10
150.000000000
 20
101.000000000
 30
0.000000000
 11
150.000000000
 21
106.000000000
 31
0.000000000
 70
32
  1
240
  3
STANDARD
100
AcDbAlignedDimension
 13
90.000000000
 23
255.000000000
 33
0.000000000
 14
210.000000000
 24
255.000000000
 34
0.000000000
100
AcDbRotatedDimension
  0
DIMENSION
  5
AB1
330
A02
100
AcDbEntity
  8
d007
100
AcDbDimension
  2
*d007
 10
36.000000000
 20
205.000000000
 30
0.000000000
 11
41.000000000
 21
205.000000000
 31
0.000000000
 70
32
  1
200
  3
STANDARD
100
AcDbAlignedDimension
 13
90.000000000
 23
155.000000000
 33
0.000000000
 14
90.000000000
 24
255.000000000
 34
0.000000000
 50
90
100
AcDbRotatedDimension
  0
DIMENSION
  5
ABB
330
A02
100
AcDbEntity
  8
d008
100
AcDbDimension
  2
*d008
 10
335.000000000
 20
134.000000000
 30
0.000000000
 11
335.000000000
 21
139.000000000
 31
0.000000000
 70
32
  1
6
  3
STANDARD
100
AcDbAlignedDimension
 13
333.500000000
 23
155.000000000
 33
0.000000000
 14
336.500000000
 24
155.000000000
 34
0.000000000
100
AcDbRotatedDimension
  0
TEXT
  5
AC5
330
A02
100
AcDbEntity
  8
note011
100
AcDbText
 10
335.000000000
 20
263.000000000
 30
0.000000000
 40
3.000000000
  1
EDGE VIEW
  7
STANDARD
 72
1
 11
335.000000000
 21
263.000000000
 31
0.000000000
100
AcDbText
  0
DIMENSION
  5
AC6
330
A02
100
AcDbEntity
  8
d009
100
AcDbDimension
  2
*d009
 10
202.500000000
 20
242.500000000
 30
0.000000000
 11
236.000000000
 21
255.000000000
 31
0.000000000
 70
3
  1
88x ⌀3,5
  3
STANDARD
100
AcDbDiametricDimension
 15
202.500000000
 25
242.500000000
 35
0.000000000
 40
0
  0
DIMENSION
  5
ACE
330
A02
100
AcDbEntity
  8
d010
100
AcDbDimension
  2
*d010
 10
150.000000000
 20
205.000000000
 30
0.000000000
 11
236.000000000
 21
190.000000000
 31
0.000000000
 70
3
  1
⌀150,9 B.C.
  3
STANDARD
100
AcDbDiametricDimension
 15
150.000000000
 25
205.000000000
 35
0.000000000
 40
0
  0
TEXT
  5
AD6
330
A02
100
AcDbEntity
  8
note014
100
AcDbText
 10
79.590000000
 20
44.990000000
 30
0.000000000
 40
3.000000000
  1
6 mm aluminium plate, cut 240 x 200
  7
STANDARD
 72
1
 11
79.590000000
 21
44.990000000
 31
0.000000000
100
AcDbText
  0
TEXT
  5
AD7
330
A02
100
AcDbEntity
  8
note015
100
AcDbText
 10
276.128000000
 20
255.887000000
 30
0.000000000
 40
2.600000000
  1
HOLE SUMMARY
  7
STANDARD
 72
1
 11
276.128000000
 21
255.887000000
 31
0.000000000
100
AcDbText
  0
ENDSEC
  0
SECTION
  2
OBJECTS
  0
DICTIONARY
  5
F000
330
0
100
AcDbDictionary
  3
ACAD_GROUP
350
F001
  0
DICTIONARY
  5
F001
330
F000
100
AcDbDictionary
  0
ENDSEC
  0
EOF