999
FreeCAD v1.1 44987 (Git)
  0
SECTION
  2
HEADER
  9
$ACADVER
  1
AC1014
  9
$ACADMAINTVER
 70
     9
  9
$DWGCODEPAGE
  3
ANSI_1252
  9
$TEXTSTYLE
  7
STANDARD
  9
$DIMSTYLE
  2
STANDARD
  9
$DIMTXSTY
  7
STANDARD
  9
$CMLSTYLE
  2
STANDARD
  9
$LUNITS
 70
2
  9
$INSUNITS
 70
4
  9
$PEXTMAX
 10
50
 20
50
 30
50
  9
$PEXTMIN
 10
0
 20
0
 30
0
  9
$HANDSEED
  5
FFFF
  0
ENDSEC
  0
SECTION
  2
CLASSES
  0
CLASS
  1
ACDBDICTIONARYWDFLT
  2
AcDbDictionaryWithDefault
  3
ObjectDBX Classes
 90
        0
280
     0
281
     0
  0
CLASS
  1
XRECORD
  2
AcDbXrecord
  3
ObjectDBX Classes
 90
        0
280
     0
281
     0
  0
CLASS
  1
LWPOLYLINE
  2
AcDbPolyline
  3
ObjectDBX Classes
 90
        0
280
     0
281
     1
  0
ENDSEC
  0
SECTION
  2
TABLES
  0
TABLE
  2
VPORT
  5
20
330
0
100
AcDbSymbolTable
 70
     1
  0
VPORT
  5
21
330
20
100
AcDbSymbolTableRecord
100
AcDbViewportTableRecord
  2
*ACTIVE
 70
     0
  0
ENDTAB
  0
TABLE
  2
LTYPE
  5
22
330
0
100
AcDbSymbolTable
 70
     1
  0
LTYPE
  5
23
330
21
100
AcDbSymbolTableRecord
100
AcDbLinetypeTableRecord
  2
BYBLOCK
 70
     0
  3

 72
    65
 73
     0
 40
0.0
  0
LTYPE
  5
24
330
21
100
AcDbSymbolTableRecord
100
AcDbLinetypeTableRecord
  2
BYLAYER
 70
     0
  3

 72
    65
 73
     0
 40
0.0
  0
LTYPE
  5
25
330
21
100
AcDbSymbolTableRecord
100
AcDbLinetypeTableRecord
  2
CONTINUOUS
 70
     0
  3
Solid line
 72
    65
 73
     0
 40
0.0
  0
ENDTAB
  0
TABLE
  2
LAYER
  5
A6B
330
0
100
AcDbSymbolTable
 70
14
  0
LAYER
  5
A6C
330
A6B
100
AcDbSymbolTableRecord
100
AcDbLayerTableRecord
  2
0
 70
   0
 62
   7
  6
CONTINUOUS
  0
LAYER
  5
A6D
330
A6B
100
AcDbSymbolTableRecord
100
AcDbLayerTableRecord
  2
Flat
 70
    0
 62
    7
  6
CONTINUOUS
  0
LAYER
  5
A6E
330
A6B
100
AcDbSymbolTableRecord
100
AcDbLayerTableRecord
  2
d000
 70
    0
 62
    7
  6
CONTINUOUS
  0
LAYER
  5
A6F
330
A6B
100
AcDbSymbolTableRecord
100
AcDbLayerTableRecord
  2
d001
 70
    0
 62
    7
  6
CONTINUOUS
  0
LAYER
  5
A70
330
A6B
100
AcDbSymbolTableRecord
100
AcDbLayerTableRecord
  2
d002
 70
    0
 62
    7
  6
CONTINUOUS
  0
LAYER
  5
A71
330
A6B
100
AcDbSymbolTableRecord
100
AcDbLayerTableRecord
  2
d003
 70
    0
 62
    7
  6
CONTINUOUS
  0
LAYER
  5
A72
330
A6B
100
AcDbSymbolTableRecord
100
AcDbLayerTableRecord
  2
d004
 70
    0
 62
    7
  6
CONTINUOUS
  0
LAYER
  5
A73
330
A6B
100
AcDbSymbolTableRecord
100
AcDbLayerTableRecord
  2
note006
 70
    0
 62
    7
  6
CONTINUOUS
  0
LAYER
  5
A74
330
A6B
100
AcDbSymbolTableRecord
100
AcDbLayerTableRecord
  2
End
 70
    0
 62
    7
  6
CONTINUOUS
  0
LAYER
  5
A75
330
A6B
100
AcDbSymbolTableRecord
100
AcDbLayerTableRecord
  2
d005
 70
    0
 62
    7
  6
CONTINUOUS
  0
LAYER
  5
A76
330
A6B
100
AcDbSymbolTableRecord
100
AcDbLayerTableRecord
  2
d006
 70
    0
 62
    7
  6
CONTINUOUS
  0
LAYER
  5
A77
330
A6B
100
AcDbSymbolTableRecord
100
AcDbLayerTableRecord
  2
d007
 70
    0
 62
    7
  6
CONTINUOUS
  0
LAYER
  5
A78
330
A6B
100
AcDbSymbolTableRecord
100
AcDbLayerTableRecord
  2
note011
 70
    0
 62
    7
  6
CONTINUOUS
  0
LAYER
  5
A79
330
A6B
100
AcDbSymbolTableRecord
100
AcDbLayerTableRecord
  2
note012
 70
    0
 62
    7
  6
CONTINUOUS
  0
ENDTAB
  0
TABLE
  2
STYLE
  5
70
330
0
100
AcDbSymbolTable
 70
     2
  0
STYLE
  5
71
330
70
100
AcDbSymbolTableRecord
100
AcDbTextStyleTableRecord
  2
STANDARD
 70
     0
 40
0.0
 41
1.0
 50
0.0
 71
     0
 42
2.5
  3
arial.ttf
  4

  0
STYLE
  5
72
330
70
100
AcDbSymbolTableRecord
100
AcDbTextStyleTableRecord
  2
ANNOTATIVE
 70
     0
 40
0.0
 41
1.0
 50
0.0
 71
     0
 42
2.5
  3
arial.ttf
  4

  0
ENDTAB
  0
TABLE
  2
VIEW
  5
73
330
0
100
AcDbSymbolTable
 70
     0
  0
ENDTAB
  0
TABLE
  2
UCS
  5
74
330
0
100
AcDbSymbolTable
 70
     0
  0
ENDTAB
  0
TABLE
  2
APPID
  5
75
330
0
100
AcDbSymbolTable
 70
     2
  0
APPID
  5
76
330
75
100
AcDbSymbolTableRecord
100
AcDbRegAppTableRecord
  2
ACAD
 70
     0
  0
APPID
  5
77
330
75
100
AcDbSymbolTableRecord
100
AcDbRegAppTableRecord
  2
ACADANNOTATIVE
 70
     0
  0
ENDTAB
  0
TABLE
  2
DIMSTYLE
  5
78
330
0
100
AcDbSymbolTable
 70
     2
  0
DIMSTYLE
105
79
330
78
100
AcDbSymbolTableRecord
100
AcDbDimStyleTableRecord
  2
STANDARD
 70
     0
  3

  4

  5

  6

  7

 40
0.0
 41
2.5
 42
0.625
 43
3.75
 44
1.25
 45
0.0
 46
0.0
 47
0.0
 48
0.0
140
2.5
141
2.5
142
0.0
143
0.03937007874016
144
1.0
145
0.0
146
1.0
147
0.625
 71
     0
 72
     0
 73
     0
 74
     0
 75
     0
 76
     0
 77
     1
 78
     8
170
     0
171
     3
172
     1
173
     0
174
     0
175
     0
176
     0
177
     0
178
     0
270
     2
271
     2
272
     2
273
     2
274
     3
340
71
275
     0
280
     0
281
     0
282
     0
283
     0
284
     8
285
     0
286
     0
287
     3
288
     0
  0
ENDTAB
  0
TABLE
  2
BLOCK_RECORD
  5
A01
330
0
100
AcDbSymbolTable
  70
5
  0
BLOCK_RECORD
  5
A02
330
A01
100
AcDbSymbolTableRecord
100
AcDbBlockTableRecord
  2
*MODEL_SPACE
  0
BLOCK_RECORD
  5
A03
330
A01
100
AcDbSymbolTableRecord
100
AcDbBlockTableRecord
  2
*PAPER_SPACE
  0
BLOCK_RECORD
  5
A15
330
A01
100
AcDbSymbolTableRecord
100
AcDbBlockTableRecord
  2
*d000
  0
BLOCK_RECORD
  5
A1F
330
A01
100
AcDbSymbolTableRecord
100
AcDbBlockTableRecord
  2
*d001
  0
BLOCK_RECORD
  5
A29
330
A01
100
AcDbSymbolTableRecord
100
AcDbBlockTableRecord
  2
*d002
  0
BLOCK_RECORD
  5
A33
330
A01
100
AcDbSymbolTableRecord
100
AcDbBlockTableRecord
  2
*d003
  0
BLOCK_RECORD
  5
A3D
330
A01
100
AcDbSymbolTableRecord
100
AcDbBlockTableRecord
  2
*d004
  0
BLOCK_RECORD
  5
A4C
330
A01
100
AcDbSymbolTableRecord
100
AcDbBlockTableRecord
  2
*d005
  0
BLOCK_RECORD
  5
A56
330
A01
100
AcDbSymbolTableRecord
100
AcDbBlockTableRecord
  2
*d006
  0
BLOCK_RECORD
  5
A60
330
A01
100
AcDbSymbolTableRecord
100
AcDbBlockTableRecord
  2
*d007
  0
ENDTAB
  0
ENDSEC
  0
SECTION
  2
BLOCKS
  0
BLOCK
  5
A04
330
A02
100
AcDbEntity
  8
0
100
AcDbBlockBegin
  2
*MODEL_SPACE
 70
   0
 10
0
 20
0
 30
0
  3
*MODEL_SPACE
  1
 
  0
ENDBLK
  5
A05
330
A02
100
AcDbEntity
  8
0
100
AcDbBlockEnd
  0
BLOCK
  5
A06
330
A03
100
AcDbEntity
 67
1
  8
0
100
AcDbBlockBegin
  2
*PAPER_SPACE
 70
   0
 10
0
 20
0
 30
0
  3
*PAPER_SPACE
  1
 
  0
ENDBLK
  5
A07
330
A03
100
AcDbEntity
 67
    1
  8
0
100
AcDbBlockEnd
  0
BLOCK
  5
A16
330
A15
100
AcDbEntity
  8
d000
100
AcDbBlockBegin
  2
*d000
 70
   1
 10
0
 20
0
 30
0
  3
*d000
  1
 
  0
LINE
  5
A17
330
A15
100
AcDbEntity
  8
d000
100
AcDbLine
 10
162.5
 20
235
 30
0
 11
162.5
 21
209
 31
0
  0
LINE
  5
A18
330
A15
100
AcDbEntity
  8
d000
100
AcDbLine
 10
137.5
 20
235
 30
0
 11
137.5
 21
209
 31
0
  0
LINE
  5
A19
330
A15
100
AcDbEntity
  8
d000
100
AcDbLine
 10
137.5
 20
209
 30
0
 11
162.5
 21
209
 31
0
  0
TEXT
  5
A1A
330
A15
100
AcDbEntity
  8
d000
100
AcDbText
 10
150
 20
214
 30
0
 40
3.5
  1
50
  7
STANDARD
 72
1
 11
150
 21
209
 31
0
100
AcDbText
  0
SOLID
  5
A1B
330
A15
100
AcDbEntity
  8
0
 62
     0
100
AcDbTrace
 10
132.5
 20
208.583
 30
0
 11
132.5
 21
209.417
 31
0
 12
137.5
 22
209
 32
0
 13
137.5
 23
209
 33
0
  0
SOLID
  5
A1C
330
A15
100
AcDbEntity
  8
0
 62
     0
100
AcDbTrace
 10
167.5
 20
208.583
 30
0
 11
167.5
 21
209.417
 31
0
 12
162.5
 22
209
 32
0
 13
162.5
 23
209
 33
0
  0
ENDBLK
  5
A1D
330
A15
100
AcDbEntity
  8
d000
100
AcDbBlockEnd
  0
BLOCK
  5
A20
330
A1F
100
AcDbEntity
  8
d001
100
AcDbBlockBegin
  2
*d001
 70
   1
 10
0
 20
0
 30
0
  3
*d001
  1
 
  0
LINE
  5
A21
330
A1F
100
AcDbEntity
  8
d001
100
AcDbLine
 10
187.5
 20
235
 30
0
 11
187.5
 21
198
 31
0
  0
LINE
  5
A22
330
A1F
100
AcDbEntity
  8
d001
100
AcDbLine
 10
112.5
 20
235
 30
0
 11
112.5
 21
198
 31
0
  0
LINE
  5
A23
330
A1F
100
AcDbEntity
  8
d001
100
AcDbLine
 10
112.5
 20
198
 30
0
 11
187.5
 21
198
 31
0
  0
TEXT
  5
A24
330
A1F
100
AcDbEntity
  8
d001
100
AcDbText
 10
150
 20
203
 30
0
 40
3.5
  1
150
  7
STANDARD
 72
1
 11
150
 21
198
 31
0
100
AcDbText
  0
SOLID
  5
A25
330
A1F
100
AcDbEntity
  8
0
 62
     0
100
AcDbTrace
 10
107.5
 20
197.583
 30
0
 11
107.5
 21
198.417
 31
0
 12
112.5
 22
198
 32
0
 13
112.5
 23
198
 33
0
  0
SOLID
  5
A26
330
A1F
100
AcDbEntity
  8
0
 62
     0
100
AcDbTrace
 10
192.5
 20
197.583
 30
0
 11
192.5
 21
198.417
 31
0
 12
187.5
 22
198
 32
0
 13
187.5
 23
198
 33
0
  0
ENDBLK
  5
A27
330
A1F
100
AcDbEntity
  8
d001
100
AcDbBlockEnd
  0
BLOCK
  5
A2A
330
A29
100
AcDbEntity
  8
d002
100
AcDbBlockBegin
  2
*d002
 70
   1
 10
0
 20
0
 30
0
  3
*d002
  1
 
  0
LINE
  5
A2B
330
A29
100
AcDbEntity
  8
d002
100
AcDbLine
 10
112.5
 20
230
 30
0
 11
89.5
 21
230
 31
0
  0
LINE
  5
A2C
330
A29
100
AcDbEntity
  8
d002
100
AcDbLine
 10
112.5
 20
235
 30
0
 11
89.5
 21
235
 31
0
  0
LINE
  5
A2D
330
A29
100
AcDbEntity
  8
d002
100
AcDbLine
 10
89.5
 20
235
 30
0
 11
89.5
 21
230
 31
0
  0
TEXT
  5
A2E
330
A29
100
AcDbEntity
  8
d002
100
AcDbText
 10
84.5
 20
235
 30
0
 40
3.5
  1
10
  7
STANDARD
 72
1
 11
89.5
 21
235
 31
0
100
AcDbText
  0
SOLID
  5
A2F
330
A29
100
AcDbEntity
  8
0
 62
     0
100
AcDbTrace
 10
89.0833
 20
240
 30
0
 11
89.9167
 21
240
 31
0
 12
89.5
 22
235
 32
0
 13
89.5
 23
235
 33
0
  0
SOLID
  5
A30
330
A29
100
AcDbEntity
  8
0
 62
     0
100
AcDbTrace
 10
89.0833
 20
225
 30
0
 11
89.9167
 21
225
 31
0
 12
89.5
 22
230
 32
0
 13
89.5
 23
230
 33
0
  0
ENDBLK
  5
A31
330
A29
100
AcDbEntity
  8
d002
100
AcDbBlockEnd
  0
BLOCK
  5
A34
330
A33
100
AcDbEntity
  8
d003
100
AcDbBlockBegin
  2
*d003
 70
   1
 10
0
 20
0
 30
0
  3
*d003
  1
 
  0
LINE
  5
A35
330
A33
100
AcDbEntity
  8
d003
100
AcDbLine
 10
199.5
 20
240
 30
0
 11
199.5
 21
187
 31
0
  0
LINE
  5
A36
330
A33
100
AcDbEntity
  8
d003
100
AcDbLine
 10
100.5
 20
240
 30
0
 11
100.5
 21
187
 31
0
  0
LINE
  5
A37
330
A33
100
AcDbEntity
  8
d003
100
AcDbLine
 10
100.5
 20
187
 30
0
 11
199.5
 21
187
 31
0
  0
TEXT
  5
A38
330
A33
100
AcDbEntity
  8
d003
100
AcDbText
 10
150
 20
192
 30
0
 40
3.5
  1
198
  7
STANDARD
 72
1
 11
150
 21
187
 31
0
100
AcDbText
  0
SOLID
  5
A39
330
A33
100
AcDbEntity
  8
0
 62
     0
100
AcDbTrace
 10
95.5
 20
186.583
 30
0
 11
95.5
 21
187.417
 31
0
 12
100.5
 22
187
 32
0
 13
100.5
 23
187
 33
0
  0
SOLID
  5
A3A
330
A33
100
AcDbEntity
  8
0
 62
     0
100
AcDbTrace
 10
204.5
 20
186.583
 30
0
 11
204.5
 21
187.417
 31
0
 12
199.5
 22
187
 32
0
 13
199.5
 23
187
 33
0
  0
ENDBLK
  5
A3B
330
A33
100
AcDbEntity
  8
d003
100
AcDbBlockEnd
  0
BLOCK
  5
A3E
330
A3D
100
AcDbEntity
  8
d004
100
AcDbBlockBegin
  2
*d004
 70
   1
 10
0
 20
0
 30
0
  3
*d004
  1
 
  0
LINE
  5
A3F
330
A3D
100
AcDbEntity
  8
d004
100
AcDbLine
 10
187.5
 20
235
 30
0
 11
187.5
 21
235
 31
0
  0
TEXT
  5
A40
330
A3D
100
AcDbEntity
  8
d004
100
AcDbText
 10
225.5
 20
240
 30
0
 40
3.5
  1
4x ⌀3,4
  7
STANDARD
 72
1
 11
225.5
 21
240
 31
0
100
AcDbText
  0
SOLID
  5
A41
330
A3D
100
AcDbEntity
  8
0
 62
     0
100
AcDbTrace
 10
187.5
 20
235
 30
0
 11
187.5
 21
235
 31
0
 12
187.5
 22
235
 32
0
 13
187.5
 23
235
 33
0
  0
SOLID
  5
A42
330
A3D
100
AcDbEntity
  8
0
 62
     0
100
AcDbTrace
 10
187.5
 20
235
 30
0
 11
187.5
 21
235
 31
0
 12
187.5
 22
235
 32
0
 13
187.5
 23
235
 33
0
  0
ENDBLK
  5
A43
330
A3D
100
AcDbEntity
  8
d004
100
AcDbBlockEnd
  0
BLOCK
  5
A4D
330
A4C
100
AcDbEntity
  8
d005
100
AcDbBlockBegin
  2
*d005
 70
   1
 10
0
 20
0
 30
0
  3
*d005
  1
 
  0
LINE
  5
A4E
330
A4C
100
AcDbEntity
  8
d005
100
AcDbLine
 10
319
 20
220
 30
0
 11
319
 21
231
 31
0
  0
LINE
  5
A4F
330
A4C
100
AcDbEntity
  8
d005
100
AcDbLine
 10
315
 20
220
 30
0
 11
315
 21
231
 31
0
  0
LINE
  5
A50
330
A4C
100
AcDbEntity
  8
d005
100
AcDbLine
 10
315
 20
231
 30
0
 11
319
 21
231
 31
0
  0
TEXT
  5
A51
330
A4C
100
AcDbEntity
  8
d005
100
AcDbText
 10
335
 20
236
 30
0
 40
3.5
  1
2
  7
STANDARD
 72
1
 11
335
 21
231
 31
0
100
AcDbText
  0
SOLID
  5
A52
330
A4C
100
AcDbEntity
  8
0
 62
     0
100
AcDbTrace
 10
310
 20
231.417
 30
0
 11
310
 21
230.583
 31
0
 12
315
 22
231
 32
0
 13
315
 23
231
 33
0
  0
SOLID
  5
A53
330
A4C
100
AcDbEntity
  8
0
 62
     0
100
AcDbTrace
 10
324
 20
231.417
 30
0
 11
324
 21
230.583
 31
0
 12
319
 22
231
 32
0
 13
319
 23
231
 33
0
  0
ENDBLK
  5
A54
330
A4C
100
AcDbEntity
  8
d005
100
AcDbBlockEnd
  0
BLOCK
  5
A57
330
A56
100
AcDbEntity
  8
d006
100
AcDbBlockBegin
  2
*d006
 70
   1
 10
0
 20
0
 30
0
  3
*d006
  1
 
  0
LINE
  5
A58
330
A56
100
AcDbEntity
  8
d006
100
AcDbLine
 10
355
 20
180
 30
0
 11
355
 21
159
 31
0
  0
LINE
  5
A59
330
A56
100
AcDbEntity
  8
d006
100
AcDbLine
 10
315
 20
180
 30
0
 11
315
 21
159
 31
0
  0
LINE
  5
A5A
330
A56
100
AcDbEntity
  8
d006
100
AcDbLine
 10
315
 20
159
 30
0
 11
355
 21
159
 31
0
  0
TEXT
  5
A5B
330
A56
100
AcDbEntity
  8
d006
100
AcDbText
 10
335
 20
164
 30
0
 40
3.5
  1
20
  7
STANDARD
 72
1
 11
335
 21
159
 31
0
100
AcDbText
  0
SOLID
  5
A5C
330
A56
100
AcDbEntity
  8
0
 62
     0
100
AcDbTrace
 10
310
 20
158.583
 30
0
 11
310
 21
159.417
 31
0
 12
315
 22
159
 32
0
 13
315
 23
159
 33
0
  0
SOLID
  5
A5D
330
A56
100
AcDbEntity
  8
0
 62
     0
100
AcDbTrace
 10
360
 20
158.583
 30
0
 11
360
 21
159.417
 31
0
 12
355
 22
159
 32
0
 13
355
 23
159
 33
0
  0
ENDBLK
  5
A5E
330
A56
100
AcDbEntity
  8
d006
100
AcDbBlockEnd
  0
BLOCK
  5
A61
330
A60
100
AcDbEntity
  8
d007
100
AcDbBlockBegin
  2
*d007
 70
   1
 10
0
 20
0
 30
0
  3
*d007
  1
 
  0
LINE
  5
A62
330
A60
100
AcDbEntity
  8
d007
100
AcDbLine
 10
315
 20
220
 30
0
 11
294
 21
220
 31
0
  0
LINE
  5
A63
330
A60
100
AcDbEntity
  8
d007
100
AcDbLine
 10
315
 20
180
 30
0
 11
294
 21
180
 31
0
  0
LINE
  5
A64
330
A60
100
AcDbEntity
  8
d007
100
AcDbLine
 10
294
 20
180
 30
0
 11
294
 21
220
 31
0
  0
TEXT
  5
A65
330
A60
100
AcDbEntity
  8
d007
100
AcDbText
 10
299
 20
200
 30
0
 40
3.5
  1
20
  7
STANDARD
 72
1
 11
294
 21
200
 31
0
100
AcDbText
  0
SOLID
  5
A66
330
A60
100
AcDbEntity
  8
0
 62
     0
100
AcDbTrace
 10
293.583
 20
175
 30
0
 11
294.417
 21
175
 31
0
 12
294
 22
180
 32
0
 13
294
 23
180
 33
0
  0
SOLID
  5
A67
330
A60
100
AcDbEntity
  8
0
 62
     0
100
AcDbTrace
 10
293.583
 20
225
 30
0
 11
294.417
 21
225
 31
0
 12
294
 22
220
 32
0
 13
294
 23
220
 33
0
  0
ENDBLK
  5
A68
330
A60
100
AcDbEntity
  8
d007
100
AcDbBlockEnd
  0
ENDSEC
  0
SECTION
  2
ENTITIES
  0
LINE
  5
A08
330
A02
100
AcDbEntity
  8
Flat
100
AcDbLine
 10
100.500000000
 20
230.000000000
 30
0.000000000
 11
199.500000000
 21
230.000000000
 31
0.000000000
  0
LINE
  5
A09
330
A02
100
AcDbEntity
  8
Flat
100
AcDbLine
 10
100.500000000
 20
240.000000000
 30
0.000000000
 11
100.500000000
 21
231.000000000
 31
0.000000000
  0
LINE
  5
A0A
330
A02
100
AcDbEntity
  8
Flat
100
AcDbLine
 10
100.500000000
 20
231.000000000
 30
0.000000000
 11
100.500000000
 21
230.000000000
 31
0.000000000
  0
LINE
  5
A0B
330
A02
100
AcDbEntity
  8
Flat
100
AcDbLine
 10
199.500000000
 20
240.000000000
 30
0.000000000
 11
199.500000000
 21
231.000000000
 31
0.000000000
  0
LINE
  5
A0C
330
A02
100
AcDbEntity
  8
Flat
100
AcDbLine
 10
199.500000000
 20
231.000000000
 30
0.000000000
 11
199.500000000
 21
230.000000000
 31
0.000000000
  0
LINE
  5
A0D
330
A02
100
AcDbEntity
  8
Flat
100
AcDbLine
 10
100.500000000
 20
240.000000000
 30
0.000000000
 11
199.500000000
 21
240.000000000
 31
0.000000000
  0
CIRCLE
  5
A0E
330
A02
100
AcDbEntity
  8
Flat
100
AcDbCircle
 10
187.500000000
 20
235.000000000
 30
0.000000000
 40
0.850000000
  0
CIRCLE
  5
A0F
330
A02
100
AcDbEntity
  8
Flat
100
AcDbCircle
 10
162.500000000
 20
235.000000000
 30
0.000000000
 40
0.850000000
  0
CIRCLE
  5
A10
330
A02
100
AcDbEntity
  8
Flat
100
AcDbCircle
 10
137.500000000
 20
235.000000000
 30
0.000000000
 40
0.850000000
  0
CIRCLE
  5
A11
330
A02
100
AcDbEntity
  8
Flat
100
AcDbCircle
 10
112.500000000
 20
235.000000000
 30
0.000000000
 40
0.850000000
  0
LINE
  5
A12
330
A02
100
AcDbEntity
  8
Flat
100
AcDbLine
 10
100.500000000
 20
231.000000000
 30
0.000000000
 11
199.500000000
 21
231.000000000
 31
0.000000000
  0
LINE
  5
A13
330
A02
100
AcDbEntity
  8
Flat
100
AcDbLine
 10
150.000000000
 20
224.000000000
 30
0.000000000
 11
150.000000000
 21
246.000000000
 31
0.000000000
  0
DIMENSION
  5
A14
330
A02
100
AcDbEntity
  8
d000
100
AcDbDimension
  2
*d000
 10
150.000000000
 20
209.000000000
 30
0.000000000
 11
150.000000000
 21
214.000000000
 31
0.000000000
 70
32
  1
50
  3
STANDARD
100
AcDbAlignedDimension
 13
137.500000000
 23
235.000000000
 33
0.000000000
 14
162.500000000
 24
235.000000000
 34
0.000000000
100
AcDbRotatedDimension
  0
DIMENSION
  5
A1E
330
A02
100
AcDbEntity
  8
d001
100
AcDbDimension
  2
*d001
 10
150.000000000
 20
198.000000000
 30
0.000000000
 11
150.000000000
 21
203.000000000
 31
0.000000000
 70
32
  1
150
  3
STANDARD
100
AcDbAlignedDimension
 13
112.500000000
 23
235.000000000
 33
0.000000000
 14
187.500000000
 24
235.000000000
 34
0.000000000
100
AcDbRotatedDimension
  0
DIMENSION
  5
A28
330
A02
100
AcDbEntity
  8
d002
100
AcDbDimension
  2
*d002
 10
89.500000000
 20
235.000000000
 30
0.000000000
 11
84.500000000
 21
235.000000000
 31
0.000000000
 70
32
  1
10
  3
STANDARD
100
AcDbAlignedDimension
 13
112.500000000
 23
235.000000000
 33
0.000000000
 14
112.500000000
 24
230.000000000
 34
0.000000000
 50
90
100
AcDbRotatedDimension
  0
DIMENSION
  5
A32
330
A02
100
AcDbEntity
  8
d003
100
AcDbDimension
  2
*d003
 10
150.000000000
 20
187.000000000
 30
0.000000000
 11
150.000000000
 21
192.000000000
 31
0.000000000
 70
32
  1
198
  3
STANDARD
100
AcDbAlignedDimension
 13
100.500000000
 23
240.000000000
 33
0.000000000
 14
199.500000000
 24
240.000000000
 34
0.000000000
100
AcDbRotatedDimension
  0
DIMENSION
  5
A3C
330
A02
100
AcDbEntity
  8
d004
100
AcDbDimension
  2
*d004
 10
187.500000000
 20
235.000000000
 30
0.000000000
 11
225.500000000
 21
240.000000000
 31
0.000000000
 70
3
  1
4x ⌀3,4
  3
STANDARD
100
AcDbDiametricDimension
 15
187.500000000
 25
235.000000000
 35
0.000000000
 40
0
  0
TEXT
  5
A44
330
A02
100
AcDbEntity
  8
note006
100
AcDbText
 10
150.000000000
 20
248.000000000
 30
0.000000000
 40
3.000000000
  1
THE FLAT LEG, FROM ABOVE
  7
STANDARD
 72
1
 11
150.000000000
 21
248.000000000
 31
0.000000000
100
AcDbText
  0
LINE
  5
A45
330
A02
100
AcDbEntity
  8
End
100
AcDbLine
 10
315.000000000
 20
180.000000100
 30
0.000000000
 11
355.000000000
 21
180.000000100
 31
0.000000000
  0
LINE
  5
A46
330
A02
100
AcDbEntity
  8
End
100
AcDbLine
 10
315.000000000
 20
220.000000100
 30
0.000000000
 11
315.000000000
 21
180.000000100
 31
0.000000000
  0
LINE
  5
A47
330
A02
100
AcDbEntity
  8
End
100
AcDbLine
 10
355.000000000
 20
180.000000100
 30
0.000000000
 11
355.000000000
 21
184.000000100
 31
0.000000000
  0
LINE
  5
A48
330
A02
100
AcDbEntity
  8
End
100
AcDbLine
 10
355.000000000
 20
184.000000100
 30
0.000000000
 11
319.000000000
 21
184.000000100
 31
0.000000000
  0
LINE
  5
A49
330
A02
100
AcDbEntity
  8
End
100
AcDbLine
 10
319.000000000
 20
184.000000100
 30
0.000000000
 11
319.000000000
 21
220.000000100
 31
0.000000000
  0
LINE
  5
A4A
330
A02
100
AcDbEntity
  8
End
100
AcDbLine
 10
319.000000000
 20
220.000000100
 30
0.000000000
 11
315.000000000
 21
220.000000100
 31
0.000000000
  0
DIMENSION
  5
A4B
330
A02
100
AcDbEntity
  8
d005
100
AcDbDimension
  2
*d005
 10
335.000000000
 20
231.000000000
 30
0.000000000
 11
335.000000000
 21
236.000000000
 31
0.000000000
 70
32
  1
2
  3
STANDARD
100
AcDbAlignedDimension
 13
315.000000000
 23
220.000000100
 33
0.000000000
 14
319.000000000
 24
220.000000100
 34
0.000000000
100
AcDbRotatedDimension
  0
DIMENSION
  5
A55
330
A02
100
AcDbEntity
  8
d006
100
AcDbDimension
  2
*d006
 10
335.000000000
 20
159.000000000
 30
0.000000000
 11
335.000000000
 21
164.000000000
 31
0.000000000
 70
32
  1
20
  3
STANDARD
100
AcDbAlignedDimension
 13
315.000000000
 23
180.000000100
 33
0.000000000
 14
355.000000000
 24
180.000000100
 34
0.000000000
100
AcDbRotatedDimension
  0
DIMENSION
  5
A5F
330
A02
100
AcDbEntity
  8
d007
100
AcDbDimension
  2
*d007
 10
294.000000000
 20
200.000000000
 30
0.000000000
 11
299.000000000
 21
200.000000000
 31
0.000000000
 70
32
  1
20
  3
STANDARD
100
AcDbAlignedDimension
 13
315.000000000
 23
180.000000100
 33
0.000000000
 14
315.000000000
 24
220.000000100
 34
0.000000000
 50
90
100
AcDbRotatedDimension
  0
TEXT
  5
A69
330
A02
100
AcDbEntity
  8
note011
100
AcDbText
 10
335.000000000
 20
153.000000000
 30
0.000000000
 40
3.000000000
  1
END VIEW   2 : 1
  7
STANDARD
 72
1
 11
335.000000000
 21
153.000000000
 31
0.000000000
100
AcDbText
  0
TEXT
  5
A6A
330
A02
100
AcDbEntity
  8
note012
100
AcDbText
 10
73.500000000
 20
44.990000000
 30
0.000000000
 40
3.000000000
  1
aluminium angle 20 x 20 x 2, cut 198 long
  7
STANDARD
 72
1
 11
73.500000000
 21
44.990000000
 31
0.000000000
100
AcDbText
  0
ENDSEC
  0
SECTION
  2
OBJECTS
  0
DICTIONARY
  5
F000
330
0
100
AcDbDictionary
  3
ACAD_GROUP
350
F001
  0
DICTIONARY
  5
F001
330
F000
100
AcDbDictionary
  0
ENDSEC
  0
EOF