999
FreeCAD v1.1 44987 (Git)
  0
SECTION
  2
HEADER
  9
$ACADVER
  1
AC1014
  9
$ACADMAINTVER
 70
     9
  9
$DWGCODEPAGE
  3
ANSI_1252
  9
$TEXTSTYLE
  7
STANDARD
  9
$DIMSTYLE
  2
STANDARD
  9
$DIMTXSTY
  7
STANDARD
  9
$CMLSTYLE
  2
STANDARD
  9
$LUNITS
 70
2
  9
$INSUNITS
 70
4
  9
$PEXTMAX
 10
50
 20
50
 30
50
  9
$PEXTMIN
 10
0
 20
0
 30
0
  9
$HANDSEED
  5
FFFF
  0
ENDSEC
  0
SECTION
  2
CLASSES
  0
CLASS
  1
ACDBDICTIONARYWDFLT
  2
AcDbDictionaryWithDefault
  3
ObjectDBX Classes
 90
        0
280
     0
281
     0
  0
CLASS
  1
XRECORD
  2
AcDbXrecord
  3
ObjectDBX Classes
 90
        0
280
     0
281
     0
  0
CLASS
  1
LWPOLYLINE
  2
AcDbPolyline
  3
ObjectDBX Classes
 90
        0
280
     0
281
     1
  0
ENDSEC
  0
SECTION
  2
TABLES
  0
TABLE
  2
VPORT
  5
20
330
0
100
AcDbSymbolTable
 70
     1
  0
VPORT
  5
21
330
20
100
AcDbSymbolTableRecord
100
AcDbViewportTableRecord
  2
*ACTIVE
 70
     0
  0
ENDTAB
  0
TABLE
  2
LTYPE
  5
22
330
0
100
AcDbSymbolTable
 70
     1
  0
LTYPE
  5
23
330
21
100
AcDbSymbolTableRecord
100
AcDbLinetypeTableRecord
  2
BYBLOCK
 70
     0
  3

 72
    65
 73
     0
 40
0.0
  0
LTYPE
  5
24
330
21
100
AcDbSymbolTableRecord
100
AcDbLinetypeTableRecord
  2
BYLAYER
 70
     0
  3

 72
    65
 73
     0
 40
0.0
  0
LTYPE
  5
25
330
21
100
AcDbSymbolTableRecord
100
AcDbLinetypeTableRecord
  2
CONTINUOUS
 70
     0
  3
Solid line
 72
    65
 73
     0
 40
0.0
  0
ENDTAB
  0
TABLE
  2
LAYER
  5
AB1
330
0
100
AcDbSymbolTable
 70
22
  0
LAYER
  5
AB2
330
AB1
100
AcDbSymbolTableRecord
100
AcDbLayerTableRecord
  2
0
 70
   0
 62
   7
  6
CONTINUOUS
  0
LAYER
  5
AB3
330
AB1
100
AcDbSymbolTableRecord
100
AcDbLayerTableRecord
  2
Flat
 70
    0
 62
    7
  6
CONTINUOUS
  0
LAYER
  5
AB4
330
AB1
100
AcDbSymbolTableRecord
100
AcDbLayerTableRecord
  2
d000
 70
    0
 62
    7
  6
CONTINUOUS
  0
LAYER
  5
AB5
330
AB1
100
AcDbSymbolTableRecord
100
AcDbLayerTableRecord
  2
d001
 70
    0
 62
    7
  6
CONTINUOUS
  0
LAYER
  5
AB6
330
AB1
100
AcDbSymbolTableRecord
100
AcDbLayerTableRecord
  2
d002
 70
    0
 62
    7
  6
CONTINUOUS
  0
LAYER
  5
AB7
330
AB1
100
AcDbSymbolTableRecord
100
AcDbLayerTableRecord
  2
d003
 70
    0
 62
    7
  6
CONTINUOUS
  0
LAYER
  5
AB8
330
AB1
100
AcDbSymbolTableRecord
100
AcDbLayerTableRecord
  2
d004
 70
    0
 62
    7
  6
CONTINUOUS
  0
LAYER
  5
AB9
330
AB1
100
AcDbSymbolTableRecord
100
AcDbLayerTableRecord
  2
d005
 70
    0
 62
    7
  6
CONTINUOUS
  0
LAYER
  5
ABA
330
AB1
100
AcDbSymbolTableRecord
100
AcDbLayerTableRecord
  2
d006
 70
    0
 62
    7
  6
CONTINUOUS
  0
LAYER
  5
ABB
330
AB1
100
AcDbSymbolTableRecord
100
AcDbLayerTableRecord
  2
d007
 70
    0
 62
    7
  6
CONTINUOUS
  0
LAYER
  5
ABC
330
AB1
100
AcDbSymbolTableRecord
100
AcDbLayerTableRecord
  2
note009
 70
    0
 62
    7
  6
CONTINUOUS
  0
LAYER
  5
ABD
330
AB1
100
AcDbSymbolTableRecord
100
AcDbLayerTableRecord
  2
Upright
 70
    0
 62
    7
  6
CONTINUOUS
  0
LAYER
  5
ABE
330
AB1
100
AcDbSymbolTableRecord
100
AcDbLayerTableRecord
  2
d008
 70
    0
 62
    7
  6
CONTINUOUS
  0
LAYER
  5
ABF
330
AB1
100
AcDbSymbolTableRecord
100
AcDbLayerTableRecord
  2
d009
 70
    0
 62
    7
  6
CONTINUOUS
  0
LAYER
  5
AC0
330
AB1
100
AcDbSymbolTableRecord
100
AcDbLayerTableRecord
  2
d010
 70
    0
 62
    7
  6
CONTINUOUS
  0
LAYER
  5
AC1
330
AB1
100
AcDbSymbolTableRecord
100
AcDbLayerTableRecord
  2
note014
 70
    0
 62
    7
  6
CONTINUOUS
  0
LAYER
  5
AC2
330
AB1
100
AcDbSymbolTableRecord
100
AcDbLayerTableRecord
  2
End
 70
    0
 62
    7
  6
CONTINUOUS
  0
LAYER
  5
AC3
330
AB1
100
AcDbSymbolTableRecord
100
AcDbLayerTableRecord
  2
d011
 70
    0
 62
    7
  6
CONTINUOUS
  0
LAYER
  5
AC4
330
AB1
100
AcDbSymbolTableRecord
100
AcDbLayerTableRecord
  2
d012
 70
    0
 62
    7
  6
CONTINUOUS
  0
LAYER
  5
AC5
330
AB1
100
AcDbSymbolTableRecord
100
AcDbLayerTableRecord
  2
d013
 70
    0
 62
    7
  6
CONTINUOUS
  0
LAYER
  5
AC6
330
AB1
100
AcDbSymbolTableRecord
100
AcDbLayerTableRecord
  2
note019
 70
    0
 62
    7
  6
CONTINUOUS
  0
LAYER
  5
AC7
330
AB1
100
AcDbSymbolTableRecord
100
AcDbLayerTableRecord
  2
note020
 70
    0
 62
    7
  6
CONTINUOUS
  0
ENDTAB
  0
TABLE
  2
STYLE
  5
70
330
0
100
AcDbSymbolTable
 70
     2
  0
STYLE
  5
71
330
70
100
AcDbSymbolTableRecord
100
AcDbTextStyleTableRecord
  2
STANDARD
 70
     0
 40
0.0
 41
1.0
 50
0.0
 71
     0
 42
2.5
  3
arial.ttf
  4

  0
STYLE
  5
72
330
70
100
AcDbSymbolTableRecord
100
AcDbTextStyleTableRecord
  2
ANNOTATIVE
 70
     0
 40
0.0
 41
1.0
 50
0.0
 71
     0
 42
2.5
  3
arial.ttf
  4

  0
ENDTAB
  0
TABLE
  2
VIEW
  5
73
330
0
100
AcDbSymbolTable
 70
     0
  0
ENDTAB
  0
TABLE
  2
UCS
  5
74
330
0
100
AcDbSymbolTable
 70
     0
  0
ENDTAB
  0
TABLE
  2
APPID
  5
75
330
0
100
AcDbSymbolTable
 70
     2
  0
APPID
  5
76
330
75
100
AcDbSymbolTableRecord
100
AcDbRegAppTableRecord
  2
ACAD
 70
     0
  0
APPID
  5
77
330
75
100
AcDbSymbolTableRecord
100
AcDbRegAppTableRecord
  2
ACADANNOTATIVE
 70
     0
  0
ENDTAB
  0
TABLE
  2
DIMSTYLE
  5
78
330
0
100
AcDbSymbolTable
 70
     2
  0
DIMSTYLE
105
79
330
78
100
AcDbSymbolTableRecord
100
AcDbDimStyleTableRecord
  2
STANDARD
 70
     0
  3

  4

  5

  6

  7

 40
0.0
 41
2.5
 42
0.625
 43
3.75
 44
1.25
 45
0.0
 46
0.0
 47
0.0
 48
0.0
140
2.5
141
2.5
142
0.0
143
0.03937007874016
144
1.0
145
0.0
146
1.0
147
0.625
 71
     0
 72
     0
 73
     0
 74
     0
 75
     0
 76
     0
 77
     1
 78
     8
170
     0
171
     3
172
     1
173
     0
174
     0
175
     0
176
     0
177
     0
178
     0
270
     2
271
     2
272
     2
273
     2
274
     3
340
71
275
     0
280
     0
281
     0
282
     0
283
     0
284
     8
285
     0
286
     0
287
     3
288
     0
  0
ENDTAB
  0
TABLE
  2
BLOCK_RECORD
  5
A01
330
0
100
AcDbSymbolTable
  70
5
  0
BLOCK_RECORD
  5
A02
330
A01
100
AcDbSymbolTableRecord
100
AcDbBlockTableRecord
  2
*MODEL_SPACE
  0
BLOCK_RECORD
  5
A03
330
A01
100
AcDbSymbolTableRecord
100
AcDbBlockTableRecord
  2
*PAPER_SPACE
  0
BLOCK_RECORD
  5
A19
330
A01
100
AcDbSymbolTableRecord
100
AcDbBlockTableRecord
  2
*d000
  0
BLOCK_RECORD
  5
A23
330
A01
100
AcDbSymbolTableRecord
100
AcDbBlockTableRecord
  2
*d001
  0
BLOCK_RECORD
  5
A2D
330
A01
100
AcDbSymbolTableRecord
100
AcDbBlockTableRecord
  2
*d002
  0
BLOCK_RECORD
  5
A37
330
A01
100
AcDbSymbolTableRecord
100
AcDbBlockTableRecord
  2
*d003
  0
BLOCK_RECORD
  5
A41
330
A01
100
AcDbSymbolTableRecord
100
AcDbBlockTableRecord
  2
*d004
  0
BLOCK_RECORD
  5
A4B
330
A01
100
AcDbSymbolTableRecord
100
AcDbBlockTableRecord
  2
*d005
  0
BLOCK_RECORD
  5
A55
330
A01
100
AcDbSymbolTableRecord
100
AcDbBlockTableRecord
  2
*d006
  0
BLOCK_RECORD
  5
A5F
330
A01
100
AcDbSymbolTableRecord
100
AcDbBlockTableRecord
  2
*d007
  0
BLOCK_RECORD
  5
A6F
330
A01
100
AcDbSymbolTableRecord
100
AcDbBlockTableRecord
  2
*d008
  0
BLOCK_RECORD
  5
A79
330
A01
100
AcDbSymbolTableRecord
100
AcDbBlockTableRecord
  2
*d009
  0
BLOCK_RECORD
  5
A83
330
A01
100
AcDbSymbolTableRecord
100
AcDbBlockTableRecord
  2
*d010
  0
BLOCK_RECORD
  5
A92
330
A01
100
AcDbSymbolTableRecord
100
AcDbBlockTableRecord
  2
*d011
  0
BLOCK_RECORD
  5
A9C
330
A01
100
AcDbSymbolTableRecord
100
AcDbBlockTableRecord
  2
*d012
  0
BLOCK_RECORD
  5
AA6
330
A01
100
AcDbSymbolTableRecord
100
AcDbBlockTableRecord
  2
*d013
  0
ENDTAB
  0
ENDSEC
  0
SECTION
  2
BLOCKS
  0
BLOCK
  5
A04
330
A02
100
AcDbEntity
  8
0
100
AcDbBlockBegin
  2
*MODEL_SPACE
 70
   0
 10
0
 20
0
 30
0
  3
*MODEL_SPACE
  1
 
  0
ENDBLK
  5
A05
330
A02
100
AcDbEntity
  8
0
100
AcDbBlockEnd
  0
BLOCK
  5
A06
330
A03
100
AcDbEntity
 67
1
  8
0
100
AcDbBlockBegin
  2
*PAPER_SPACE
 70
   0
 10
0
 20
0
 30
0
  3
*PAPER_SPACE
  1
 
  0
ENDBLK
  5
A07
330
A03
100
AcDbEntity
 67
    1
  8
0
100
AcDbBlockEnd
  0
BLOCK
  5
A1A
330
A19
100
AcDbEntity
  8
d000
100
AcDbBlockBegin
  2
*d000
 70
   1
 10
0
 20
0
 30
0
  3
*d000
  1
 
  0
LINE
  5
A1B
330
A19
100
AcDbEntity
  8
d000
100
AcDbLine
 10
162.5
 20
234
 30
0
 11
162.5
 21
209
 31
0
  0
LINE
  5
A1C
330
A19
100
AcDbEntity
  8
d000
100
AcDbLine
 10
137.5
 20
234
 30
0
 11
137.5
 21
209
 31
0
  0
LINE
  5
A1D
330
A19
100
AcDbEntity
  8
d000
100
AcDbLine
 10
137.5
 20
209
 30
0
 11
162.5
 21
209
 31
0
  0
TEXT
  5
A1E
330
A19
100
AcDbEntity
  8
d000
100
AcDbText
 10
150
 20
214
 30
0
 40
3.5
  1
50
  7
STANDARD
 72
1
 11
150
 21
209
 31
0
100
AcDbText
  0
SOLID
  5
A1F
330
A19
100
AcDbEntity
  8
0
 62
     0
100
AcDbTrace
 10
132.5
 20
208.583
 30
0
 11
132.5
 21
209.417
 31
0
 12
137.5
 22
209
 32
0
 13
137.5
 23
209
 33
0
  0
SOLID
  5
A20
330
A19
100
AcDbEntity
  8
0
 62
     0
100
AcDbTrace
 10
167.5
 20
208.583
 30
0
 11
167.5
 21
209.417
 31
0
 12
162.5
 22
209
 32
0
 13
162.5
 23
209
 33
0
  0
ENDBLK
  5
A21
330
A19
100
AcDbEntity
  8
d000
100
AcDbBlockEnd
  0
BLOCK
  5
A24
330
A23
100
AcDbEntity
  8
d001
100
AcDbBlockBegin
  2
*d001
 70
   1
 10
0
 20
0
 30
0
  3
*d001
  1
 
  0
LINE
  5
A25
330
A23
100
AcDbEntity
  8
d001
100
AcDbLine
 10
187.5
 20
234
 30
0
 11
187.5
 21
198
 31
0
  0
LINE
  5
A26
330
A23
100
AcDbEntity
  8
d001
100
AcDbLine
 10
112.5
 20
234
 30
0
 11
112.5
 21
198
 31
0
  0
LINE
  5
A27
330
A23
100
AcDbEntity
  8
d001
100
AcDbLine
 10
112.5
 20
198
 30
0
 11
187.5
 21
198
 31
0
  0
TEXT
  5
A28
330
A23
100
AcDbEntity
  8
d001
100
AcDbText
 10
150
 20
203
 30
0
 40
3.5
  1
150
  7
STANDARD
 72
1
 11
150
 21
198
 31
0
100
AcDbText
  0
SOLID
  5
A29
330
A23
100
AcDbEntity
  8
0
 62
     0
100
AcDbTrace
 10
107.5
 20
197.583
 30
0
 11
107.5
 21
198.417
 31
0
 12
112.5
 22
198
 32
0
 13
112.5
 23
198
 33
0
  0
SOLID
  5
A2A
330
A23
100
AcDbEntity
  8
0
 62
     0
100
AcDbTrace
 10
192.5
 20
197.583
 30
0
 11
192.5
 21
198.417
 31
0
 12
187.5
 22
198
 32
0
 13
187.5
 23
198
 33
0
  0
ENDBLK
  5
A2B
330
A23
100
AcDbEntity
  8
d001
100
AcDbBlockEnd
  0
BLOCK
  5
A2E
330
A2D
100
AcDbEntity
  8
d002
100
AcDbBlockBegin
  2
*d002
 70
   1
 10
0
 20
0
 30
0
  3
*d002
  1
 
  0
LINE
  5
A2F
330
A2D
100
AcDbEntity
  8
d002
100
AcDbLine
 10
201.555
 20
233.2
 30
0
 11
201.555
 21
187
 31
0
  0
LINE
  5
A30
330
A2D
100
AcDbEntity
  8
d002
100
AcDbLine
 10
98.445
 20
233.2
 30
0
 11
98.445
 21
187
 31
0
  0
LINE
  5
A31
330
A2D
100
AcDbEntity
  8
d002
100
AcDbLine
 10
98.445
 20
187
 30
0
 11
201.555
 21
187
 31
0
  0
TEXT
  5
A32
330
A2D
100
AcDbEntity
  8
d002
100
AcDbText
 10
150
 20
192
 30
0
 40
3.5
  1
206,22
  7
STANDARD
 72
1
 11
150
 21
187
 31
0
100
AcDbText
  0
SOLID
  5
A33
330
A2D
100
AcDbEntity
  8
0
 62
     0
100
AcDbTrace
 10
93.445
 20
186.583
 30
0
 11
93.445
 21
187.417
 31
0
 12
98.445
 22
187
 32
0
 13
98.445
 23
187
 33
0
  0
SOLID
  5
A34
330
A2D
100
AcDbEntity
  8
0
 62
     0
100
AcDbTrace
 10
206.555
 20
186.583
 30
0
 11
206.555
 21
187.417
 31
0
 12
201.555
 22
187
 32
0
 13
201.555
 23
187
 33
0
  0
ENDBLK
  5
A35
330
A2D
100
AcDbEntity
  8
d002
100
AcDbBlockEnd
  0
BLOCK
  5
A38
330
A37
100
AcDbEntity
  8
d003
100
AcDbBlockBegin
  2
*d003
 70
   1
 10
0
 20
0
 30
0
  3
*d003
  1
 
  0
LINE
  5
A39
330
A37
100
AcDbEntity
  8
d003
100
AcDbLine
 10
98.445
 20
230
 30
0
 11
85.57
 21
230
 31
0
  0
LINE
  5
A3A
330
A37
100
AcDbEntity
  8
d003
100
AcDbLine
 10
98.445
 20
233.2
 30
0
 11
85.57
 21
233.2
 31
0
  0
LINE
  5
A3B
330
A37
100
AcDbEntity
  8
d003
100
AcDbLine
 10
85.57
 20
233.2
 30
0
 11
85.57
 21
230
 31
0
  0
TEXT
  5
A3C
330
A37
100
AcDbEntity
  8
d003
100
AcDbText
 10
80.57
 20
235
 30
0
 40
3.5
  1
6,4
  7
STANDARD
 72
1
 11
85.57
 21
235
 31
0
100
AcDbText
  0
SOLID
  5
A3D
330
A37
100
AcDbEntity
  8
0
 62
     0
100
AcDbTrace
 10
85.1533
 20
238.2
 30
0
 11
85.9867
 21
238.2
 31
0
 12
85.57
 22
233.2
 32
0
 13
85.57
 23
233.2
 33
0
  0
SOLID
  5
A3E
330
A37
100
AcDbEntity
  8
0
 62
     0
100
AcDbTrace
 10
85.1533
 20
225
 30
0
 11
85.9867
 21
225
 31
0
 12
85.57
 22
230
 32
0
 13
85.57
 23
230
 33
0
  0
ENDBLK
  5
A3F
330
A37
100
AcDbEntity
  8
d003
100
AcDbBlockEnd
  0
BLOCK
  5
A42
330
A41
100
AcDbEntity
  8
d004
100
AcDbBlockBegin
  2
*d004
 70
   1
 10
0
 20
0
 30
0
  3
*d004
  1
 
  0
LINE
  5
A43
330
A41
100
AcDbEntity
  8
d004
100
AcDbLine
 10
112.5
 20
230
 30
0
 11
74.57
 21
230
 31
0
  0
LINE
  5
A44
330
A41
100
AcDbEntity
  8
d004
100
AcDbLine
 10
112.5
 20
234
 30
0
 11
74.57
 21
234
 31
0
  0
LINE
  5
A45
330
A41
100
AcDbEntity
  8
d004
100
AcDbLine
 10
74.57
 20
234
 30
0
 11
74.57
 21
230
 31
0
  0
TEXT
  5
A46
330
A41
100
AcDbEntity
  8
d004
100
AcDbText
 10
69.57
 20
235
 30
0
 40
3.5
  1
8
  7
STANDARD
 72
1
 11
74.57
 21
235
 31
0
100
AcDbText
  0
SOLID
  5
A47
330
A41
100
AcDbEntity
  8
0
 62
     0
100
AcDbTrace
 10
74.1533
 20
239
 30
0
 11
74.9867
 21
239
 31
0
 12
74.57
 22
234
 32
0
 13
74.57
 23
234
 33
0
  0
SOLID
  5
A48
330
A41
100
AcDbEntity
  8
0
 62
     0
100
AcDbTrace
 10
74.1533
 20
225
 30
0
 11
74.9867
 21
225
 31
0
 12
74.57
 22
230
 32
0
 13
74.57
 23
230
 33
0
  0
ENDBLK
  5
A49
330
A41
100
AcDbEntity
  8
d004
100
AcDbBlockEnd
  0
BLOCK
  5
A4C
330
A4B
100
AcDbEntity
  8
d005
100
AcDbBlockBegin
  2
*d005
 70
   1
 10
0
 20
0
 30
0
  3
*d005
  1
 
  0
LINE
  5
A4D
330
A4B
100
AcDbEntity
  8
d005
100
AcDbLine
 10
98.445
 20
230
 30
0
 11
63.57
 21
230
 31
0
  0
LINE
  5
A4E
330
A4B
100
AcDbEntity
  8
d005
100
AcDbLine
 10
98.445
 20
237.8
 30
0
 11
63.57
 21
237.8
 31
0
  0
LINE
  5
A4F
330
A4B
100
AcDbEntity
  8
d005
100
AcDbLine
 10
63.57
 20
237.8
 30
0
 11
63.57
 21
230
 31
0
  0
TEXT
  5
A50
330
A4B
100
AcDbEntity
  8
d005
100
AcDbText
 10
58.57
 20
235
 30
0
 40
3.5
  1
15,6
  7
STANDARD
 72
1
 11
63.57
 21
235
 31
0
100
AcDbText
  0
SOLID
  5
A51
330
A4B
100
AcDbEntity
  8
0
 62
     0
100
AcDbTrace
 10
63.1533
 20
242.8
 30
0
 11
63.9867
 21
242.8
 31
0
 12
63.57
 22
237.8
 32
0
 13
63.57
 23
237.8
 33
0
  0
SOLID
  5
A52
330
A4B
100
AcDbEntity
  8
0
 62
     0
100
AcDbTrace
 10
63.1533
 20
225
 30
0
 11
63.9867
 21
225
 31
0
 12
63.57
 22
230
 32
0
 13
63.57
 23
230
 33
0
  0
ENDBLK
  5
A53
330
A4B
100
AcDbEntity
  8
d005
100
AcDbBlockEnd
  0
BLOCK
  5
A56
330
A55
100
AcDbEntity
  8
d006
100
AcDbBlockBegin
  2
*d006
 70
   1
 10
0
 20
0
 30
0
  3
*d006
  1
 
  0
LINE
  5
A57
330
A55
100
AcDbEntity
  8
d006
100
AcDbLine
 10
203.43
 20
231
 30
0
 11
203.43
 21
176
 31
0
  0
LINE
  5
A58
330
A55
100
AcDbEntity
  8
d006
100
AcDbLine
 10
96.57
 20
231
 30
0
 11
96.57
 21
176
 31
0
  0
LINE
  5
A59
330
A55
100
AcDbEntity
  8
d006
100
AcDbLine
 10
96.57
 20
176
 30
0
 11
203.43
 21
176
 31
0
  0
TEXT
  5
A5A
330
A55
100
AcDbEntity
  8
d006
100
AcDbText
 10
150
 20
181
 30
0
 40
3.5
  1
213,72
  7
STANDARD
 72
1
 11
150
 21
176
 31
0
100
AcDbText
  0
SOLID
  5
A5B
330
A55
100
AcDbEntity
  8
0
 62
     0
100
AcDbTrace
 10
91.57
 20
175.583
 30
0
 11
91.57
 21
176.417
 31
0
 12
96.57
 22
176
 32
0
 13
96.57
 23
176
 33
0
  0
SOLID
  5
A5C
330
A55
100
AcDbEntity
  8
0
 62
     0
100
AcDbTrace
 10
208.43
 20
175.583
 30
0
 11
208.43
 21
176.417
 31
0
 12
203.43
 22
176
 32
0
 13
203.43
 23
176
 33
0
  0
ENDBLK
  5
A5D
330
A55
100
AcDbEntity
  8
d006
100
AcDbBlockEnd
  0
BLOCK
  5
A60
330
A5F
100
AcDbEntity
  8
d007
100
AcDbBlockBegin
  2
*d007
 70
   1
 10
0
 20
0
 30
0
  3
*d007
  1
 
  0
LINE
  5
A61
330
A5F
100
AcDbEntity
  8
d007
100
AcDbLine
 10
201.555
 20
237.8
 30
0
 11
201.555
 21
237.8
 31
0
  0
TEXT
  5
A62
330
A5F
100
AcDbEntity
  8
d007
100
AcDbText
 10
229.43
 20
240
 30
0
 40
3.5
  1
8x ⌀3,4
  7
STANDARD
 72
1
 11
229.43
 21
240
 31
0
100
AcDbText
  0
SOLID
  5
A63
330
A5F
100
AcDbEntity
  8
0
 62
     0
100
AcDbTrace
 10
201.555
 20
237.8
 30
0
 11
201.555
 21
237.8
 31
0
 12
201.555
 22
237.8
 32
0
 13
201.555
 23
237.8
 33
0
  0
SOLID
  5
A64
330
A5F
100
AcDbEntity
  8
0
 62
     0
100
AcDbTrace
 10
201.555
 20
237.8
 30
0
 11
201.555
 21
237.8
 31
0
 12
201.555
 22
237.8
 32
0
 13
201.555
 23
237.8
 33
0
  0
ENDBLK
  5
A65
330
A5F
100
AcDbEntity
  8
d007
100
AcDbBlockEnd
  0
BLOCK
  5
A70
330
A6F
100
AcDbEntity
  8
d008
100
AcDbBlockBegin
  2
*d008
 70
   1
 10
0
 20
0
 30
0
  3
*d008
  1
 
  0
LINE
  5
A71
330
A6F
100
AcDbEntity
  8
d008
100
AcDbLine
 10
201.555
 20
142.82
 30
0
 11
201.555
 21
114
 31
0
  0
LINE
  5
A72
330
A6F
100
AcDbEntity
  8
d008
100
AcDbLine
 10
98.445
 20
142.82
 30
0
 11
98.445
 21
114
 31
0
  0
LINE
  5
A73
330
A6F
100
AcDbEntity
  8
d008
100
AcDbLine
 10
98.445
 20
114
 30
0
 11
201.555
 21
114
 31
0
  0
TEXT
  5
A74
330
A6F
100
AcDbEntity
  8
d008
100
AcDbText
 10
150
 20
119
 30
0
 40
3.5
  1
206,22
  7
STANDARD
 72
1
 11
150
 21
114
 31
0
100
AcDbText
  0
SOLID
  5
A75
330
A6F
100
AcDbEntity
  8
0
 62
     0
100
AcDbTrace
 10
93.445
 20
113.583
 30
0
 11
93.445
 21
114.417
 31
0
 12
98.445
 22
114
 32
0
 13
98.445
 23
114
 33
0
  0
SOLID
  5
A76
330
A6F
100
AcDbEntity
  8
0
 62
     0
100
AcDbTrace
 10
206.555
 20
113.583
 30
0
 11
206.555
 21
114.417
 31
0
 12
201.555
 22
114
 32
0
 13
201.555
 23
114
 33
0
  0
ENDBLK
  5
A77
330
A6F
100
AcDbEntity
  8
d008
100
AcDbBlockEnd
  0
BLOCK
  5
A7A
330
A79
100
AcDbEntity
  8
d009
100
AcDbBlockBegin
  2
*d009
 70
   1
 10
0
 20
0
 30
0
  3
*d009
  1
 
  0
LINE
  5
A7B
330
A79
100
AcDbEntity
  8
d009
100
AcDbLine
 10
98.445
 20
135
 30
0
 11
85.57
 21
135
 31
0
  0
LINE
  5
A7C
330
A79
100
AcDbEntity
  8
d009
100
AcDbLine
 10
98.445
 20
142.82
 30
0
 11
85.57
 21
142.82
 31
0
  0
LINE
  5
A7D
330
A79
100
AcDbEntity
  8
d009
100
AcDbLine
 10
85.57
 20
142.82
 30
0
 11
85.57
 21
135
 31
0
  0
TEXT
  5
A7E
330
A79
100
AcDbEntity
  8
d009
100
AcDbText
 10
80.57
 20
140
 30
0
 40
3.5
  1
15,64
  7
STANDARD
 72
1
 11
85.57
 21
140
 31
0
100
AcDbText
  0
SOLID
  5
A7F
330
A79
100
AcDbEntity
  8
0
 62
     0
100
AcDbTrace
 10
85.1533
 20
147.82
 30
0
 11
85.9867
 21
147.82
 31
0
 12
85.57
 22
142.82
 32
0
 13
85.57
 23
142.82
 33
0
  0
SOLID
  5
A80
330
A79
100
AcDbEntity
  8
0
 62
     0
100
AcDbTrace
 10
85.1533
 20
130
 30
0
 11
85.9867
 21
130
 31
0
 12
85.57
 22
135
 32
0
 13
85.57
 23
135
 33
0
  0
ENDBLK
  5
A81
330
A79
100
AcDbEntity
  8
d009
100
AcDbBlockEnd
  0
BLOCK
  5
A84
330
A83
100
AcDbEntity
  8
d010
100
AcDbBlockBegin
  2
*d010
 70
   1
 10
0
 20
0
 30
0
  3
*d010
  1
 
  0
LINE
  5
A85
330
A83
100
AcDbEntity
  8
d010
100
AcDbLine
 10
201.555
 20
142.82
 30
0
 11
201.555
 21
142.82
 31
0
  0
TEXT
  5
A86
330
A83
100
AcDbEntity
  8
d010
100
AcDbText
 10
229.43
 20
145
 30
0
 40
3.5
  1
2x ⌀3,4
  7
STANDARD
 72
1
 11
229.43
 21
145
 31
0
100
AcDbText
  0
SOLID
  5
A87
330
A83
100
AcDbEntity
  8
0
 62
     0
100
AcDbTrace
 10
201.555
 20
142.82
 30
0
 11
201.555
 21
142.82
 31
0
 12
201.555
 22
142.82
 32
0
 13
201.555
 23
142.82
 33
0
  0
SOLID
  5
A88
330
A83
100
AcDbEntity
  8
0
 62
     0
100
AcDbTrace
 10
201.555
 20
142.82
 30
0
 11
201.555
 21
142.82
 31
0
 12
201.555
 22
142.82
 32
0
 13
201.555
 23
142.82
 33
0
  0
ENDBLK
  5
A89
330
A83
100
AcDbEntity
  8
d010
100
AcDbBlockEnd
  0
BLOCK
  5
A93
330
A92
100
AcDbEntity
  8
d011
100
AcDbBlockBegin
  2
*d011
 70
   1
 10
0
 20
0
 30
0
  3
*d011
  1
 
  0
LINE
  5
A94
330
A92
100
AcDbEntity
  8
d011
100
AcDbLine
 10
319
 20
220
 30
0
 11
319
 21
231
 31
0
  0
LINE
  5
A95
330
A92
100
AcDbEntity
  8
d011
100
AcDbLine
 10
315
 20
220
 30
0
 11
315
 21
231
 31
0
  0
LINE
  5
A96
330
A92
100
AcDbEntity
  8
d011
100
AcDbLine
 10
315
 20
231
 30
0
 11
319
 21
231
 31
0
  0
TEXT
  5
A97
330
A92
100
AcDbEntity
  8
d011
100
AcDbText
 10
335
 20
236
 30
0
 40
3.5
  1
2
  7
STANDARD
 72
1
 11
335
 21
231
 31
0
100
AcDbText
  0
SOLID
  5
A98
330
A92
100
AcDbEntity
  8
0
 62
     0
100
AcDbTrace
 10
310
 20
231.417
 30
0
 11
310
 21
230.583
 31
0
 12
315
 22
231
 32
0
 13
315
 23
231
 33
0
  0
SOLID
  5
A99
330
A92
100
AcDbEntity
  8
0
 62
     0
100
AcDbTrace
 10
324
 20
231.417
 30
0
 11
324
 21
230.583
 31
0
 12
319
 22
231
 32
0
 13
319
 23
231
 33
0
  0
ENDBLK
  5
A9A
330
A92
100
AcDbEntity
  8
d011
100
AcDbBlockEnd
  0
BLOCK
  5
A9D
330
A9C
100
AcDbEntity
  8
d012
100
AcDbBlockBegin
  2
*d012
 70
   1
 10
0
 20
0
 30
0
  3
*d012
  1
 
  0
LINE
  5
A9E
330
A9C
100
AcDbEntity
  8
d012
100
AcDbLine
 10
355
 20
180
 30
0
 11
355
 21
159
 31
0
  0
LINE
  5
A9F
330
A9C
100
AcDbEntity
  8
d012
100
AcDbLine
 10
315
 20
180
 30
0
 11
315
 21
159
 31
0
  0
LINE
  5
AA0
330
A9C
100
AcDbEntity
  8
d012
100
AcDbLine
 10
315
 20
159
 30
0
 11
355
 21
159
 31
0
  0
TEXT
  5
AA1
330
A9C
100
AcDbEntity
  8
d012
100
AcDbText
 10
335
 20
164
 30
0
 40
3.5
  1
20
  7
STANDARD
 72
1
 11
335
 21
159
 31
0
100
AcDbText
  0
SOLID
  5
AA2
330
A9C
100
AcDbEntity
  8
0
 62
     0
100
AcDbTrace
 10
310
 20
158.583
 30
0
 11
310
 21
159.417
 31
0
 12
315
 22
159
 32
0
 13
315
 23
159
 33
0
  0
SOLID
  5
AA3
330
A9C
100
AcDbEntity
  8
0
 62
     0
100
AcDbTrace
 10
360
 20
158.583
 30
0
 11
360
 21
159.417
 31
0
 12
355
 22
159
 32
0
 13
355
 23
159
 33
0
  0
ENDBLK
  5
AA4
330
A9C
100
AcDbEntity
  8
d012
100
AcDbBlockEnd
  0
BLOCK
  5
AA7
330
AA6
100
AcDbEntity
  8
d013
100
AcDbBlockBegin
  2
*d013
 70
   1
 10
0
 20
0
 30
0
  3
*d013
  1
 
  0
LINE
  5
AA8
330
AA6
100
AcDbEntity
  8
d013
100
AcDbLine
 10
315
 20
220
 30
0
 11
294
 21
220
 31
0
  0
LINE
  5
AA9
330
AA6
100
AcDbEntity
  8
d013
100
AcDbLine
 10
315
 20
180
 30
0
 11
294
 21
180
 31
0
  0
LINE
  5
AAA
330
AA6
100
AcDbEntity
  8
d013
100
AcDbLine
 10
294
 20
180
 30
0
 11
294
 21
220
 31
0
  0
TEXT
  5
AAB
330
AA6
100
AcDbEntity
  8
d013
100
AcDbText
 10
299
 20
200
 30
0
 40
3.5
  1
20
  7
STANDARD
 72
1
 11
294
 21
200
 31
0
100
AcDbText
  0
SOLID
  5
AAC
330
AA6
100
AcDbEntity
  8
0
 62
     0
100
AcDbTrace
 10
293.583
 20
175
 30
0
 11
294.417
 21
175
 31
0
 12
294
 22
180
 32
0
 13
294
 23
180
 33
0
  0
SOLID
  5
AAD
330
AA6
100
AcDbEntity
  8
0
 62
     0
100
AcDbTrace
 10
293.583
 20
225
 30
0
 11
294.417
 21
225
 31
0
 12
294
 22
220
 32
0
 13
294
 23
220
 33
0
  0
ENDBLK
  5
AAE
330
AA6
100
AcDbEntity
  8
d013
100
AcDbBlockEnd
  0
ENDSEC
  0
SECTION
  2
ENTITIES
  0
LINE
  5
A08
330
A02
100
AcDbEntity
  8
Flat
100
AcDbLine
 10
96.570000000
 20
230.000000025
 30
0.000000000
 11
203.430000000
 21
230.000000025
 31
0.000000000
  0
LINE
  5
A09
330
A02
100
AcDbEntity
  8
Flat
100
AcDbLine
 10
96.570000000
 20
240.000000025
 30
0.000000000
 11
96.570000000
 21
231.000000025
 31
0.000000000
  0
LINE
  5
A0A
330
A02
100
AcDbEntity
  8
Flat
100
AcDbLine
 10
96.570000000
 20
231.000000025
 30
0.000000000
 11
96.570000000
 21
230.000000025
 31
0.000000000
  0
LINE
  5
A0B
330
A02
100
AcDbEntity
  8
Flat
100
AcDbLine
 10
203.430000000
 20
240.000000025
 30
0.000000000
 11
203.430000000
 21
231.000000025
 31
0.000000000
  0
LINE
  5
A0C
330
A02
100
AcDbEntity
  8
Flat
100
AcDbLine
 10
203.430000000
 20
231.000000025
 30
0.000000000
 11
203.430000000
 21
230.000000025
 31
0.000000000
  0
LINE
  5
A0D
330
A02
100
AcDbEntity
  8
Flat
100
AcDbLine
 10
96.570000000
 20
240.000000025
 30
0.000000000
 11
203.430000000
 21
240.000000025
 31
0.000000000
  0
CIRCLE
  5
A0E
330
A02
100
AcDbEntity
  8
Flat
100
AcDbCircle
 10
201.555000000
 20
233.200000025
 30
0.000000000
 40
0.850000000
  0
CIRCLE
  5
A0F
330
A02
100
AcDbEntity
  8
Flat
100
AcDbCircle
 10
187.500000000
 20
234.000000025
 30
0.000000000
 40
0.850000000
  0
CIRCLE
  5
A10
330
A02
100
AcDbEntity
  8
Flat
100
AcDbCircle
 10
162.500000000
 20
234.000000025
 30
0.000000000
 40
0.850000000
  0
CIRCLE
  5
A11
330
A02
100
AcDbEntity
  8
Flat
100
AcDbCircle
 10
201.555000000
 20
237.800000025
 30
0.000000000
 40
0.850000000
  0
CIRCLE
  5
A12
330
A02
100
AcDbEntity
  8
Flat
100
AcDbCircle
 10
137.500000000
 20
234.000000025
 30
0.000000000
 40
0.850000000
  0
CIRCLE
  5
A13
330
A02
100
AcDbEntity
  8
Flat
100
AcDbCircle
 10
98.445000000
 20
233.200000025
 30
0.000000000
 40
0.850000000
  0
CIRCLE
  5
A14
330
A02
100
AcDbEntity
  8
Flat
100
AcDbCircle
 10
112.500000000
 20
234.000000025
 30
0.000000000
 40
0.850000000
  0
CIRCLE
  5
A15
330
A02
100
AcDbEntity
  8
Flat
100
AcDbCircle
 10
98.445000000
 20
237.800000025
 30
0.000000000
 40
0.850000000
  0
LINE
  5
A16
330
A02
100
AcDbEntity
  8
Flat
100
AcDbLine
 10
96.570000000
 20
231.000000025
 30
0.000000000
 11
203.430000000
 21
231.000000025
 31
0.000000000
  0
LINE
  5
A17
330
A02
100
AcDbEntity
  8
Flat
100
AcDbLine
 10
150.000000000
 20
224.000000025
 30
0.000000000
 11
150.000000000
 21
246.000000025
 31
0.000000000
  0
DIMENSION
  5
A18
330
A02
100
AcDbEntity
  8
d000
100
AcDbDimension
  2
*d000
 10
150.000000000
 20
209.000000000
 30
0.000000000
 11
150.000000000
 21
214.000000000
 31
0.000000000
 70
32
  1
50
  3
STANDARD
100
AcDbAlignedDimension
 13
137.500000000
 23
234.000000025
 33
0.000000000
 14
162.500000000
 24
234.000000025
 34
0.000000000
100
AcDbRotatedDimension
  0
DIMENSION
  5
A22
330
A02
100
AcDbEntity
  8
d001
100
AcDbDimension
  2
*d001
 10
150.000000000
 20
198.000000000
 30
0.000000000
 11
150.000000000
 21
203.000000000
 31
0.000000000
 70
32
  1
150
  3
STANDARD
100
AcDbAlignedDimension
 13
112.500000000
 23
234.000000025
 33
0.000000000
 14
187.500000000
 24
234.000000025
 34
0.000000000
100
AcDbRotatedDimension
  0
DIMENSION
  5
A2C
330
A02
100
AcDbEntity
  8
d002
100
AcDbDimension
  2
*d002
 10
150.000000000
 20
187.000000000
 30
0.000000000
 11
150.000000000
 21
192.000000000
 31
0.000000000
 70
32
  1
206,22
  3
STANDARD
100
AcDbAlignedDimension
 13
98.445000000
 23
233.200000025
 33
0.000000000
 14
201.555000000
 24
233.200000025
 34
0.000000000
100
AcDbRotatedDimension
  0
DIMENSION
  5
A36
330
A02
100
AcDbEntity
  8
d003
100
AcDbDimension
  2
*d003
 10
85.570000000
 20
235.000000000
 30
0.000000000
 11
80.570000000
 21
235.000000000
 31
0.000000000
 70
32
  1
6,4
  3
STANDARD
100
AcDbAlignedDimension
 13
98.445000000
 23
233.200000025
 33
0.000000000
 14
98.445000000
 24
230.000000025
 34
0.000000000
 50
90
100
AcDbRotatedDimension
  0
DIMENSION
  5
A40
330
A02
100
AcDbEntity
  8
d004
100
AcDbDimension
  2
*d004
 10
74.570000000
 20
235.000000000
 30
0.000000000
 11
69.570000000
 21
235.000000000
 31
0.000000000
 70
32
  1
8
  3
STANDARD
100
AcDbAlignedDimension
 13
112.500000000
 23
234.000000025
 33
0.000000000
 14
112.500000000
 24
230.000000025
 34
0.000000000
 50
90
100
AcDbRotatedDimension
  0
DIMENSION
  5
A4A
330
A02
100
AcDbEntity
  8
d005
100
AcDbDimension
  2
*d005
 10
63.570000000
 20
235.000000000
 30
0.000000000
 11
58.570000000
 21
235.000000000
 31
0.000000000
 70
32
  1
15,6
  3
STANDARD
100
AcDbAlignedDimension
 13
98.445000000
 23
237.800000025
 33
0.000000000
 14
98.445000000
 24
230.000000025
 34
0.000000000
 50
90
100
AcDbRotatedDimension
  0
DIMENSION
  5
A54
330
A02
100
AcDbEntity
  8
d006
100
AcDbDimension
  2
*d006
 10
150.000000000
 20
176.000000000
 30
0.000000000
 11
150.000000000
 21
181.000000000
 31
0.000000000
 70
32
  1
213,72
  3
STANDARD
100
AcDbAlignedDimension
 13
96.570000000
 23
231.000000025
 33
0.000000000
 14
203.430000000
 24
231.000000025
 34
0.000000000
100
AcDbRotatedDimension
  0
DIMENSION
  5
A5E
330
A02
100
AcDbEntity
  8
d007
100
AcDbDimension
  2
*d007
 10
201.555000000
 20
237.800000025
 30
0.000000000
 11
229.430000000
 21
240.000000000
 31
0.000000000
 70
3
  1
8x ⌀3,4
  3
STANDARD
100
AcDbDiametricDimension
 15
201.555000000
 25
237.800000025
 35
0.000000000
 40
0
  0
TEXT
  5
A66
330
A02
100
AcDbEntity
  8
note009
100
AcDbText
 10
150.000000000
 20
248.000000000
 30
0.000000000
 40
3.000000000
  1
THE FLAT LEG, FROM ABOVE
  7
STANDARD
 72
1
 11
150.000000000
 21
248.000000000
 31
0.000000000
100
AcDbText
  0
LINE
  5
A67
330
A02
100
AcDbEntity
  8
Upright
100
AcDbLine
 10
96.570000000
 20
135.000000025
 30
0.000000000
 11
203.430000000
 21
135.000000025
 31
0.000000000
  0
LINE
  5
A68
330
A02
100
AcDbEntity
  8
Upright
100
AcDbLine
 10
96.570000000
 20
145.000000025
 30
0.000000000
 11
203.430000000
 21
145.000000025
 31
0.000000000
  0
LINE
  5
A69
330
A02
100
AcDbEntity
  8
Upright
100
AcDbLine
 10
96.570000000
 20
145.000000025
 30
0.000000000
 11
96.570000000
 21
135.000000025
 31
0.000000000
  0
LINE
  5
A6A
330
A02
100
AcDbEntity
  8
Upright
100
AcDbLine
 10
203.430000000
 20
145.000000025
 30
0.000000000
 11
203.430000000
 21
135.000000025
 31
0.000000000
  0
CIRCLE
  5
A6B
330
A02
100
AcDbEntity
  8
Upright
100
AcDbCircle
 10
201.555000000
 20
142.820000025
 30
0.000000000
 40
0.850000000
  0
CIRCLE
  5
A6C
330
A02
100
AcDbEntity
  8
Upright
100
AcDbCircle
 10
98.445000000
 20
142.820000025
 30
0.000000000
 40
0.850000000
  0
LINE
  5
A6D
330
A02
100
AcDbEntity
  8
Upright
100
AcDbLine
 10
150.000000000
 20
129.000000025
 30
0.000000000
 11
150.000000000
 21
151.000000025
 31
0.000000000
  0
DIMENSION
  5
A6E
330
A02
100
AcDbEntity
  8
d008
100
AcDbDimension
  2
*d008
 10
150.000000000
 20
114.000000000
 30
0.000000000
 11
150.000000000
 21
119.000000000
 31
0.000000000
 70
32
  1
206,22
  3
STANDARD
100
AcDbAlignedDimension
 13
98.445000000
 23
142.820000025
 33
0.000000000
 14
201.555000000
 24
142.820000025
 34
0.000000000
100
AcDbRotatedDimension
  0
DIMENSION
  5
A78
330
A02
100
AcDbEntity
  8
d009
100
AcDbDimension
  2
*d009
 10
85.570000000
 20
140.000000000
 30
0.000000000
 11
80.570000000
 21
140.000000000
 31
0.000000000
 70
32
  1
15,64
  3
STANDARD
100
AcDbAlignedDimension
 13
98.445000000
 23
142.820000025
 33
0.000000000
 14
98.445000000
 24
135.000000025
 34
0.000000000
 50
90
100
AcDbRotatedDimension
  0
DIMENSION
  5
A82
330
A02
100
AcDbEntity
  8
d010
100
AcDbDimension
  2
*d010
 10
201.555000000
 20
142.820000025
 30
0.000000000
 11
229.430000000
 21
145.000000000
 31
0.000000000
 70
3
  1
2x ⌀3,4
  3
STANDARD
100
AcDbDiametricDimension
 15
201.555000000
 25
142.820000025
 35
0.000000000
 40
0
  0
TEXT
  5
A8A
330
A02
100
AcDbEntity
  8
note014
100
AcDbText
 10
150.000000000
 20
153.000000000
 30
0.000000000
 40
3.000000000
  1
THE UPRIGHT, FROM THE FRONT
  7
STANDARD
 72
1
 11
150.000000000
 21
153.000000000
 31
0.000000000
100
AcDbText
  0
LINE
  5
A8B
330
A02
100
AcDbEntity
  8
End
100
AcDbLine
 10
315.000000100
 20
180.000000100
 30
0.000000000
 11
355.000000100
 21
180.000000100
 31
0.000000000
  0
LINE
  5
A8C
330
A02
100
AcDbEntity
  8
End
100
AcDbLine
 10
315.000000100
 20
220.000000100
 30
0.000000000
 11
315.000000100
 21
180.000000100
 31
0.000000000
  0
LINE
  5
A8D
330
A02
100
AcDbEntity
  8
End
100
AcDbLine
 10
355.000000100
 20
180.000000100
 30
0.000000000
 11
355.000000100
 21
184.000000100
 31
0.000000000
  0
LINE
  5
A8E
330
A02
100
AcDbEntity
  8
End
100
AcDbLine
 10
355.000000100
 20
184.000000100
 30
0.000000000
 11
319.000000100
 21
184.000000100
 31
0.000000000
  0
LINE
  5
A8F
330
A02
100
AcDbEntity
  8
End
100
AcDbLine
 10
319.000000100
 20
184.000000100
 30
0.000000000
 11
319.000000100
 21
220.000000100
 31
0.000000000
  0
LINE
  5
A90
330
A02
100
AcDbEntity
  8
End
100
AcDbLine
 10
319.000000100
 20
220.000000100
 30
0.000000000
 11
315.000000100
 21
220.000000100
 31
0.000000000
  0
DIMENSION
  5
A91
330
A02
100
AcDbEntity
  8
d011
100
AcDbDimension
  2
*d011
 10
335.000000000
 20
231.000000000
 30
0.000000000
 11
335.000000000
 21
236.000000000
 31
0.000000000
 70
32
  1
2
  3
STANDARD
100
AcDbAlignedDimension
 13
315.000000100
 23
220.000000100
 33
0.000000000
 14
319.000000100
 24
220.000000100
 34
0.000000000
100
AcDbRotatedDimension
  0
DIMENSION
  5
A9B
330
A02
100
AcDbEntity
  8
d012
100
AcDbDimension
  2
*d012
 10
335.000000000
 20
159.000000000
 30
0.000000000
 11
335.000000000
 21
164.000000000
 31
0.000000000
 70
32
  1
20
  3
STANDARD
100
AcDbAlignedDimension
 13
315.000000100
 23
180.000000100
 33
0.000000000
 14
355.000000100
 24
180.000000100
 34
0.000000000
100
AcDbRotatedDimension
  0
DIMENSION
  5
AA5
330
A02
100
AcDbEntity
  8
d013
100
AcDbDimension
  2
*d013
 10
294.000000000
 20
200.000000000
 30
0.000000000
 11
299.000000000
 21
200.000000000
 31
0.000000000
 70
32
  1
20
  3
STANDARD
100
AcDbAlignedDimension
 13
315.000000100
 23
180.000000100
 33
0.000000000
 14
315.000000100
 24
220.000000100
 34
0.000000000
 50
90
100
AcDbRotatedDimension
  0
TEXT
  5
AAF
330
A02
100
AcDbEntity
  8
note019
100
AcDbText
 10
335.000000000
 20
153.000000000
 30
0.000000000
 40
3.000000000
  1
END VIEW   2 : 1
  7
STANDARD
 72
1
 11
335.000000000
 21
153.000000000
 31
0.000000000
100
AcDbText
  0
TEXT
  5
AB0
330
A02
100
AcDbEntity
  8
note020
100
AcDbText
 10
81.330000000
 20
44.990000000
 30
0.000000000
 40
3.000000000
  1
aluminium angle 20 x 20 x 2, cut 213.72 long
  7
STANDARD
 72
1
 11
81.330000000
 21
44.990000000
 31
0.000000000
100
AcDbText
  0
ENDSEC
  0
SECTION
  2
OBJECTS
  0
DICTIONARY
  5
F000
330
0
100
AcDbDictionary
  3
ACAD_GROUP
350
F001
  0
DICTIONARY
  5
F001
330
F000
100
AcDbDictionary
  0
ENDSEC
  0
EOF