999
FreeCAD v1.1 44987 (Git)
  0
SECTION
  2
HEADER
  9
$ACADVER
  1
AC1014
  9
$ACADMAINTVER
 70
     9
  9
$DWGCODEPAGE
  3
ANSI_1252
  9
$TEXTSTYLE
  7
STANDARD
  9
$DIMSTYLE
  2
STANDARD
  9
$DIMTXSTY
  7
STANDARD
  9
$CMLSTYLE
  2
STANDARD
  9
$LUNITS
 70
2
  9
$INSUNITS
 70
4
  9
$PEXTMAX
 10
50
 20
50
 30
50
  9
$PEXTMIN
 10
0
 20
0
 30
0
  9
$HANDSEED
  5
FFFF
  0
ENDSEC
  0
SECTION
  2
CLASSES
  0
CLASS
  1
ACDBDICTIONARYWDFLT
  2
AcDbDictionaryWithDefault
  3
ObjectDBX Classes
 90
        0
280
     0
281
     0
  0
CLASS
  1
XRECORD
  2
AcDbXrecord
  3
ObjectDBX Classes
 90
        0
280
     0
281
     0
  0
CLASS
  1
LWPOLYLINE
  2
AcDbPolyline
  3
ObjectDBX Classes
 90
        0
280
     0
281
     1
  0
ENDSEC
  0
SECTION
  2
TABLES
  0
TABLE
  2
VPORT
  5
20
330
0
100
AcDbSymbolTable
 70
     1
  0
VPORT
  5
21
330
20
100
AcDbSymbolTableRecord
100
AcDbViewportTableRecord
  2
*ACTIVE
 70
     0
  0
ENDTAB
  0
TABLE
  2
LTYPE
  5
22
330
0
100
AcDbSymbolTable
 70
     1
  0
LTYPE
  5
23
330
21
100
AcDbSymbolTableRecord
100
AcDbLinetypeTableRecord
  2
BYBLOCK
 70
     0
  3

 72
    65
 73
     0
 40
0.0
  0
LTYPE
  5
24
330
21
100
AcDbSymbolTableRecord
100
AcDbLinetypeTableRecord
  2
BYLAYER
 70
     0
  3

 72
    65
 73
     0
 40
0.0
  0
LTYPE
  5
25
330
21
100
AcDbSymbolTableRecord
100
AcDbLinetypeTableRecord
  2
CONTINUOUS
 70
     0
  3
Solid line
 72
    65
 73
     0
 40
0.0
  0
ENDTAB
  0
TABLE
  2
LAYER
  5
A76
330
0
100
AcDbSymbolTable
 70
15
  0
LAYER
  5
A77
330
A76
100
AcDbSymbolTableRecord
100
AcDbLayerTableRecord
  2
0
 70
   0
 62
   7
  6
CONTINUOUS
  0
LAYER
  5
A78
330
A76
100
AcDbSymbolTableRecord
100
AcDbLayerTableRecord
  2
Top
 70
    0
 62
    7
  6
CONTINUOUS
  0
LAYER
  5
A79
330
A76
100
AcDbSymbolTableRecord
100
AcDbLayerTableRecord
  2
Front
 70
    0
 62
    7
  6
CONTINUOUS
  0
LAYER
  5
A7A
330
A76
100
AcDbSymbolTableRecord
100
AcDbLayerTableRecord
  2
End
 70
    0
 62
    7
  6
CONTINUOUS
  0
LAYER
  5
A7B
330
A76
100
AcDbSymbolTableRecord
100
AcDbLayerTableRecord
  2
d000
 70
    0
 62
    7
  6
CONTINUOUS
  0
LAYER
  5
A7C
330
A76
100
AcDbSymbolTableRecord
100
AcDbLayerTableRecord
  2
d001
 70
    0
 62
    7
  6
CONTINUOUS
  0
LAYER
  5
A7D
330
A76
100
AcDbSymbolTableRecord
100
AcDbLayerTableRecord
  2
d002
 70
    0
 62
    7
  6
CONTINUOUS
  0
LAYER
  5
A7E
330
A76
100
AcDbSymbolTableRecord
100
AcDbLayerTableRecord
  2
d003
 70
    0
 62
    7
  6
CONTINUOUS
  0
LAYER
  5
A7F
330
A76
100
AcDbSymbolTableRecord
100
AcDbLayerTableRecord
  2
d004
 70
    0
 62
    7
  6
CONTINUOUS
  0
LAYER
  5
A80
330
A76
100
AcDbSymbolTableRecord
100
AcDbLayerTableRecord
  2
d005
 70
    0
 62
    7
  6
CONTINUOUS
  0
LAYER
  5
A81
330
A76
100
AcDbSymbolTableRecord
100
AcDbLayerTableRecord
  2
d006
 70
    0
 62
    7
  6
CONTINUOUS
  0
LAYER
  5
A82
330
A76
100
AcDbSymbolTableRecord
100
AcDbLayerTableRecord
  2
d007
 70
    0
 62
    7
  6
CONTINUOUS
  0
LAYER
  5
A83
330
A76
100
AcDbSymbolTableRecord
100
AcDbLayerTableRecord
  2
d008
 70
    0
 62
    7
  6
CONTINUOUS
  0
LAYER
  5
A84
330
A76
100
AcDbSymbolTableRecord
100
AcDbLayerTableRecord
  2
note012
 70
    0
 62
    7
  6
CONTINUOUS
  0
LAYER
  5
A85
330
A76
100
AcDbSymbolTableRecord
100
AcDbLayerTableRecord
  2
note013
 70
    0
 62
    7
  6
CONTINUOUS
  0
ENDTAB
  0
TABLE
  2
STYLE
  5
70
330
0
100
AcDbSymbolTable
 70
     2
  0
STYLE
  5
71
330
70
100
AcDbSymbolTableRecord
100
AcDbTextStyleTableRecord
  2
STANDARD
 70
     0
 40
0.0
 41
1.0
 50
0.0
 71
     0
 42
2.5
  3
arial.ttf
  4

  0
STYLE
  5
72
330
70
100
AcDbSymbolTableRecord
100
AcDbTextStyleTableRecord
  2
ANNOTATIVE
 70
     0
 40
0.0
 41
1.0
 50
0.0
 71
     0
 42
2.5
  3
arial.ttf
  4

  0
ENDTAB
  0
TABLE
  2
VIEW
  5
73
330
0
100
AcDbSymbolTable
 70
     0
  0
ENDTAB
  0
TABLE
  2
UCS
  5
74
330
0
100
AcDbSymbolTable
 70
     0
  0
ENDTAB
  0
TABLE
  2
APPID
  5
75
330
0
100
AcDbSymbolTable
 70
     2
  0
APPID
  5
76
330
75
100
AcDbSymbolTableRecord
100
AcDbRegAppTableRecord
  2
ACAD
 70
     0
  0
APPID
  5
77
330
75
100
AcDbSymbolTableRecord
100
AcDbRegAppTableRecord
  2
ACADANNOTATIVE
 70
     0
  0
ENDTAB
  0
TABLE
  2
DIMSTYLE
  5
78
330
0
100
AcDbSymbolTable
 70
     2
  0
DIMSTYLE
105
79
330
78
100
AcDbSymbolTableRecord
100
AcDbDimStyleTableRecord
  2
STANDARD
 70
     0
  3

  4

  5

  6

  7

 40
0.0
 41
2.5
 42
0.625
 43
3.75
 44
1.25
 45
0.0
 46
0.0
 47
0.0
 48
0.0
140
2.5
141
2.5
142
0.0
143
0.03937007874016
144
1.0
145
0.0
146
1.0
147
0.625
 71
     0
 72
     0
 73
     0
 74
     0
 75
     0
 76
     0
 77
     1
 78
     8
170
     0
171
     3
172
     1
173
     0
174
     0
175
     0
176
     0
177
     0
178
     0
270
     2
271
     2
272
     2
273
     2
274
     3
340
71
275
     0
280
     0
281
     0
282
     0
283
     0
284
     8
285
     0
286
     0
287
     3
288
     0
  0
ENDTAB
  0
TABLE
  2
BLOCK_RECORD
  5
A01
330
0
100
AcDbSymbolTable
  70
5
  0
BLOCK_RECORD
  5
A02
330
A01
100
AcDbSymbolTableRecord
100
AcDbBlockTableRecord
  2
*MODEL_SPACE
  0
BLOCK_RECORD
  5
A03
330
A01
100
AcDbSymbolTableRecord
100
AcDbBlockTableRecord
  2
*PAPER_SPACE
  0
BLOCK_RECORD
  5
A1F
330
A01
100
AcDbSymbolTableRecord
100
AcDbBlockTableRecord
  2
*d000
  0
BLOCK_RECORD
  5
A29
330
A01
100
AcDbSymbolTableRecord
100
AcDbBlockTableRecord
  2
*d001
  0
BLOCK_RECORD
  5
A33
330
A01
100
AcDbSymbolTableRecord
100
AcDbBlockTableRecord
  2
*d002
  0
BLOCK_RECORD
  5
A3D
330
A01
100
AcDbSymbolTableRecord
100
AcDbBlockTableRecord
  2
*d003
  0
BLOCK_RECORD
  5
A45
330
A01
100
AcDbSymbolTableRecord
100
AcDbBlockTableRecord
  2
*d004
  0
BLOCK_RECORD
  5
A4D
330
A01
100
AcDbSymbolTableRecord
100
AcDbBlockTableRecord
  2
*d005
  0
BLOCK_RECORD
  5
A57
330
A01
100
AcDbSymbolTableRecord
100
AcDbBlockTableRecord
  2
*d006
  0
BLOCK_RECORD
  5
A61
330
A01
100
AcDbSymbolTableRecord
100
AcDbBlockTableRecord
  2
*d007
  0
BLOCK_RECORD
  5
A6B
330
A01
100
AcDbSymbolTableRecord
100
AcDbBlockTableRecord
  2
*d008
  0
ENDTAB
  0
ENDSEC
  0
SECTION
  2
BLOCKS
  0
BLOCK
  5
A04
330
A02
100
AcDbEntity
  8
0
100
AcDbBlockBegin
  2
*MODEL_SPACE
 70
   0
 10
0
 20
0
 30
0
  3
*MODEL_SPACE
  1
 
  0
ENDBLK
  5
A05
330
A02
100
AcDbEntity
  8
0
100
AcDbBlockEnd
  0
BLOCK
  5
A06
330
A03
100
AcDbEntity
 67
1
  8
0
100
AcDbBlockBegin
  2
*PAPER_SPACE
 70
   0
 10
0
 20
0
 30
0
  3
*PAPER_SPACE
  1
 
  0
ENDBLK
  5
A07
330
A03
100
AcDbEntity
 67
    1
  8
0
100
AcDbBlockEnd
  0
BLOCK
  5
A20
330
A1F
100
AcDbEntity
  8
d000
100
AcDbBlockBegin
  2
*d000
 70
   1
 10
0
 20
0
 30
0
  3
*d000
  1
 
  0
LINE
  5
A21
330
A1F
100
AcDbEntity
  8
d000
100
AcDbLine
 10
219.3
 20
174.4
 30
0
 11
219.3
 21
201
 31
0
  0
LINE
  5
A22
330
A1F
100
AcDbEntity
  8
d000
100
AcDbLine
 10
80.7
 20
174.4
 30
0
 11
80.7
 21
201
 31
0
  0
LINE
  5
A23
330
A1F
100
AcDbEntity
  8
d000
100
AcDbLine
 10
80.7
 20
201
 30
0
 11
219.3
 21
201
 31
0
  0
TEXT
  5
A24
330
A1F
100
AcDbEntity
  8
d000
100
AcDbText
 10
150
 20
206
 30
0
 40
3.5
  1
198
  7
STANDARD
 72
1
 11
150
 21
201
 31
0
100
AcDbText
  0
SOLID
  5
A25
330
A1F
100
AcDbEntity
  8
0
 62
     0
100
AcDbTrace
 10
75.7
 20
201.417
 30
0
 11
75.7
 21
200.583
 31
0
 12
80.7
 22
201
 32
0
 13
80.7
 23
201
 33
0
  0
SOLID
  5
A26
330
A1F
100
AcDbEntity
  8
0
 62
     0
100
AcDbTrace
 10
224.3
 20
201.417
 30
0
 11
224.3
 21
200.583
 31
0
 12
219.3
 22
201
 32
0
 13
219.3
 23
201
 33
0
  0
ENDBLK
  5
A27
330
A1F
100
AcDbEntity
  8
d000
100
AcDbBlockEnd
  0
BLOCK
  5
A2A
330
A29
100
AcDbEntity
  8
d001
100
AcDbBlockBegin
  2
*d001
 70
   1
 10
0
 20
0
 30
0
  3
*d001
  1
 
  0
LINE
  5
A2B
330
A29
100
AcDbEntity
  8
d001
100
AcDbLine
 10
360
 20
200
 30
0
 11
360
 21
145
 31
0
  0
LINE
  5
A2C
330
A29
100
AcDbEntity
  8
d001
100
AcDbLine
 10
320
 20
200
 30
0
 11
320
 21
145
 31
0
  0
LINE
  5
A2D
330
A29
100
AcDbEntity
  8
d001
100
AcDbLine
 10
320
 20
145
 30
0
 11
360
 21
145
 31
0
  0
TEXT
  5
A2E
330
A29
100
AcDbEntity
  8
d001
100
AcDbText
 10
340
 20
150
 30
0
 40
3.5
  1
20
  7
STANDARD
 72
1
 11
340
 21
145
 31
0
100
AcDbText
  0
SOLID
  5
A2F
330
A29
100
AcDbEntity
  8
0
 62
     0
100
AcDbTrace
 10
315
 20
144.583
 30
0
 11
315
 21
145.417
 31
0
 12
320
 22
145
 32
0
 13
320
 23
145
 33
0
  0
SOLID
  5
A30
330
A29
100
AcDbEntity
  8
0
 62
     0
100
AcDbTrace
 10
365
 20
144.583
 30
0
 11
365
 21
145.417
 31
0
 12
360
 22
145
 32
0
 13
360
 23
145
 33
0
  0
ENDBLK
  5
A31
330
A29
100
AcDbEntity
  8
d001
100
AcDbBlockEnd
  0
BLOCK
  5
A34
330
A33
100
AcDbEntity
  8
d002
100
AcDbBlockBegin
  2
*d002
 70
   1
 10
0
 20
0
 30
0
  3
*d002
  1
 
  0
LINE
  5
A35
330
A33
100
AcDbEntity
  8
d002
100
AcDbLine
 10
320
 20
200
 30
0
 11
303
 21
200
 31
0
  0
LINE
  5
A36
330
A33
100
AcDbEntity
  8
d002
100
AcDbLine
 10
320
 20
160
 30
0
 11
303
 21
160
 31
0
  0
LINE
  5
A37
330
A33
100
AcDbEntity
  8
d002
100
AcDbLine
 10
303
 20
160
 30
0
 11
303
 21
200
 31
0
  0
TEXT
  5
A38
330
A33
100
AcDbEntity
  8
d002
100
AcDbText
 10
308
 20
180
 30
0
 40
3.5
  1
20
  7
STANDARD
 72
1
 11
303
 21
180
 31
0
100
AcDbText
  0
SOLID
  5
A39
330
A33
100
AcDbEntity
  8
0
 62
     0
100
AcDbTrace
 10
302.583
 20
155
 30
0
 11
303.417
 21
155
 31
0
 12
303
 22
160
 32
0
 13
303
 23
160
 33
0
  0
SOLID
  5
A3A
330
A33
100
AcDbEntity
  8
0
 62
     0
100
AcDbTrace
 10
302.583
 20
205
 30
0
 11
303.417
 21
205
 31
0
 12
303
 22
200
 32
0
 13
303
 23
200
 33
0
  0
ENDBLK
  5
A3B
330
A33
100
AcDbEntity
  8
d002
100
AcDbBlockEnd
  0
BLOCK
  5
A3E
330
A3D
100
AcDbEntity
  8
d003
100
AcDbBlockBegin
  2
*d003
 70
   1
 10
0
 20
0
 30
0
  3
*d003
  1
 
  0
LINE
  5
A3F
330
A3D
100
AcDbEntity
  8
d003
100
AcDbLine
 10
202.5
 20
180
 30
0
 11
202.5
 21
180
 31
0
  0
TEXT
  5
A40
330
A3D
100
AcDbEntity
  8
d003
100
AcDbText
 10
210
 20
209
 30
0
 40
3.5
  1
⌀3,4
  7
STANDARD
 72
1
 11
210
 21
209
 31
0
100
AcDbText
  0
SOLID
  5
A41
330
A3D
100
AcDbEntity
  8
0
 62
     0
100
AcDbTrace
 10
202.5
 20
180
 30
0
 11
202.5
 21
180
 31
0
 12
202.5
 22
180
 32
0
 13
202.5
 23
180
 33
0
  0
SOLID
  5
A42
330
A3D
100
AcDbEntity
  8
0
 62
     0
100
AcDbTrace
 10
202.5
 20
180
 30
0
 11
202.5
 21
180
 31
0
 12
202.5
 22
180
 32
0
 13
202.5
 23
180
 33
0
  0
ENDBLK
  5
A43
330
A3D
100
AcDbEntity
  8
d003
100
AcDbBlockEnd
  0
BLOCK
  5
A46
330
A45
100
AcDbEntity
  8
d004
100
AcDbBlockBegin
  2
*d004
 70
   1
 10
0
 20
0
 30
0
  3
*d004
  1
 
  0
LINE
  5
A47
330
A45
100
AcDbEntity
  8
d004
100
AcDbLine
 10
150
 20
111.05
 30
0
 11
150
 21
111.05
 31
0
  0
TEXT
  5
A48
330
A45
100
AcDbEntity
  8
d004
100
AcDbText
 10
210
 20
139
 30
0
 40
3.5
  1
⌀5,4
  7
STANDARD
 72
1
 11
210
 21
139
 31
0
100
AcDbText
  0
SOLID
  5
A49
330
A45
100
AcDbEntity
  8
0
 62
     0
100
AcDbTrace
 10
150
 20
111.05
 30
0
 11
150
 21
111.05
 31
0
 12
150
 22
111.05
 32
0
 13
150
 23
111.05
 33
0
  0
SOLID
  5
A4A
330
A45
100
AcDbEntity
  8
0
 62
     0
100
AcDbTrace
 10
150
 20
111.05
 30
0
 11
150
 21
111.05
 31
0
 12
150
 22
111.05
 32
0
 13
150
 23
111.05
 33
0
  0
ENDBLK
  5
A4B
330
A45
100
AcDbEntity
  8
d004
100
AcDbBlockEnd
  0
BLOCK
  5
A4E
330
A4D
100
AcDbEntity
  8
d005
100
AcDbBlockBegin
  2
*d005
 70
   1
 10
0
 20
0
 30
0
  3
*d005
  1
 
  0
LINE
  5
A4F
330
A4D
100
AcDbEntity
  8
d005
100
AcDbLine
 10
80.7
 20
180
 30
0
 11
80.7
 21
219
 31
0
  0
LINE
  5
A50
330
A4D
100
AcDbEntity
  8
d005
100
AcDbLine
 10
97.5
 20
180
 30
0
 11
97.5
 21
219
 31
0
  0
LINE
  5
A51
330
A4D
100
AcDbEntity
  8
d005
100
AcDbLine
 10
97.5
 20
219
 30
0
 11
80.7
 21
219
 31
0
  0
TEXT
  5
A52
330
A4D
100
AcDbEntity
  8
d005
100
AcDbText
 10
150
 20
214
 30
0
 40
3.5
  1
24
  7
STANDARD
 72
1
 11
150
 21
219
 31
0
100
AcDbText
  0
SOLID
  5
A53
330
A4D
100
AcDbEntity
  8
0
 62
     0
100
AcDbTrace
 10
102.5
 20
219.417
 30
0
 11
102.5
 21
218.583
 31
0
 12
97.5
 22
219
 32
0
 13
97.5
 23
219
 33
0
  0
SOLID
  5
A54
330
A4D
100
AcDbEntity
  8
0
 62
     0
100
AcDbTrace
 10
75.7
 20
219.417
 30
0
 11
75.7
 21
218.583
 31
0
 12
80.7
 22
219
 32
0
 13
80.7
 23
219
 33
0
  0
ENDBLK
  5
A55
330
A4D
100
AcDbEntity
  8
d005
100
AcDbBlockEnd
  0
BLOCK
  5
A58
330
A57
100
AcDbEntity
  8
d006
100
AcDbBlockBegin
  2
*d006
 70
   1
 10
0
 20
0
 30
0
  3
*d006
  1
 
  0
LINE
  5
A59
330
A57
100
AcDbEntity
  8
d006
100
AcDbLine
 10
80.7
 20
180
 30
0
 11
80.7
 21
227
 31
0
  0
LINE
  5
A5A
330
A57
100
AcDbEntity
  8
d006
100
AcDbLine
 10
132.5
 20
180
 30
0
 11
132.5
 21
227
 31
0
  0
LINE
  5
A5B
330
A57
100
AcDbEntity
  8
d006
100
AcDbLine
 10
132.5
 20
227
 30
0
 11
80.7
 21
227
 31
0
  0
TEXT
  5
A5C
330
A57
100
AcDbEntity
  8
d006
100
AcDbText
 10
150
 20
222
 30
0
 40
3.5
  1
74
  7
STANDARD
 72
1
 11
150
 21
227
 31
0
100
AcDbText
  0
SOLID
  5
A5D
330
A57
100
AcDbEntity
  8
0
 62
     0
100
AcDbTrace
 10
137.5
 20
227.417
 30
0
 11
137.5
 21
226.583
 31
0
 12
132.5
 22
227
 32
0
 13
132.5
 23
227
 33
0
  0
SOLID
  5
A5E
330
A57
100
AcDbEntity
  8
0
 62
     0
100
AcDbTrace
 10
75.7
 20
227.417
 30
0
 11
75.7
 21
226.583
 31
0
 12
80.7
 22
227
 32
0
 13
80.7
 23
227
 33
0
  0
ENDBLK
  5
A5F
330
A57
100
AcDbEntity
  8
d006
100
AcDbBlockEnd
  0
BLOCK
  5
A62
330
A61
100
AcDbEntity
  8
d007
100
AcDbBlockBegin
  2
*d007
 70
   1
 10
0
 20
0
 30
0
  3
*d007
  1
 
  0
LINE
  5
A63
330
A61
100
AcDbEntity
  8
d007
100
AcDbLine
 10
80.7
 20
180
 30
0
 11
80.7
 21
235
 31
0
  0
LINE
  5
A64
330
A61
100
AcDbEntity
  8
d007
100
AcDbLine
 10
167.5
 20
180
 30
0
 11
167.5
 21
235
 31
0
  0
LINE
  5
A65
330
A61
100
AcDbEntity
  8
d007
100
AcDbLine
 10
167.5
 20
235
 30
0
 11
80.7
 21
235
 31
0
  0
TEXT
  5
A66
330
A61
100
AcDbEntity
  8
d007
100
AcDbText
 10
150
 20
230
 30
0
 40
3.5
  1
124
  7
STANDARD
 72
1
 11
150
 21
235
 31
0
100
AcDbText
  0
SOLID
  5
A67
330
A61
100
AcDbEntity
  8
0
 62
     0
100
AcDbTrace
 10
172.5
 20
235.417
 30
0
 11
172.5
 21
234.583
 31
0
 12
167.5
 22
235
 32
0
 13
167.5
 23
235
 33
0
  0
SOLID
  5
A68
330
A61
100
AcDbEntity
  8
0
 62
     0
100
AcDbTrace
 10
75.7
 20
235.417
 30
0
 11
75.7
 21
234.583
 31
0
 12
80.7
 22
235
 32
0
 13
80.7
 23
235
 33
0
  0
ENDBLK
  5
A69
330
A61
100
AcDbEntity
  8
d007
100
AcDbBlockEnd
  0
BLOCK
  5
A6C
330
A6B
100
AcDbEntity
  8
d008
100
AcDbBlockBegin
  2
*d008
 70
   1
 10
0
 20
0
 30
0
  3
*d008
  1
 
  0
LINE
  5
A6D
330
A6B
100
AcDbEntity
  8
d008
100
AcDbLine
 10
80.7
 20
180
 30
0
 11
80.7
 21
243
 31
0
  0
LINE
  5
A6E
330
A6B
100
AcDbEntity
  8
d008
100
AcDbLine
 10
202.5
 20
180
 30
0
 11
202.5
 21
243
 31
0
  0
LINE
  5
A6F
330
A6B
100
AcDbEntity
  8
d008
100
AcDbLine
 10
202.5
 20
243
 30
0
 11
80.7
 21
243
 31
0
  0
TEXT
  5
A70
330
A6B
100
AcDbEntity
  8
d008
100
AcDbText
 10
150
 20
238
 30
0
 40
3.5
  1
174
  7
STANDARD
 72
1
 11
150
 21
243
 31
0
100
AcDbText
  0
SOLID
  5
A71
330
A6B
100
AcDbEntity
  8
0
 62
     0
100
AcDbTrace
 10
207.5
 20
243.417
 30
0
 11
207.5
 21
242.583
 31
0
 12
202.5
 22
243
 32
0
 13
202.5
 23
243
 33
0
  0
SOLID
  5
A72
330
A6B
100
AcDbEntity
  8
0
 62
     0
100
AcDbTrace
 10
75.7
 20
243.417
 30
0
 11
75.7
 21
242.583
 31
0
 12
80.7
 22
243
 32
0
 13
80.7
 23
243
 33
0
  0
ENDBLK
  5
A73
330
A6B
100
AcDbEntity
  8
d008
100
AcDbBlockEnd
  0
ENDSEC
  0
SECTION
  2
ENTITIES
  0
LINE
  5
A08
330
A02
100
AcDbEntity
  8
Top
100
AcDbLine
 10
80.700000000
 20
173.000000035
 30
0.000000000
 11
219.300000000
 21
173.000000035
 31
0.000000000
  0
LINE
  5
A09
330
A02
100
AcDbEntity
  8
Top
100
AcDbLine
 10
80.700000000
 20
187.000000035
 30
0.000000000
 11
80.700000000
 21
174.400000035
 31
0.000000000
  0
LINE
  5
A0A
330
A02
100
AcDbEntity
  8
Top
100
AcDbLine
 10
80.700000000
 20
174.400000035
 30
0.000000000
 11
80.700000000
 21
173.000000035
 31
0.000000000
  0
LINE
  5
A0B
330
A02
100
AcDbEntity
  8
Top
100
AcDbLine
 10
219.300000000
 20
187.000000035
 30
0.000000000
 11
219.300000000
 21
174.400000035
 31
0.000000000
  0
LINE
  5
A0C
330
A02
100
AcDbEntity
  8
Top
100
AcDbLine
 10
219.300000000
 20
174.400000035
 30
0.000000000
 11
219.300000000
 21
173.000000035
 31
0.000000000
  0
LINE
  5
A0D
330
A02
100
AcDbEntity
  8
Top
100
AcDbLine
 10
80.700000000
 20
187.000000035
 30
0.000000000
 11
219.300000000
 21
187.000000035
 31
0.000000000
  0
CIRCLE
  5
A0E
330
A02
100
AcDbEntity
  8
Top
100
AcDbCircle
 10
202.500000000
 20
180.000000035
 30
0.000000000
 40
1.190000000
  0
CIRCLE
  5
A0F
330
A02
100
AcDbEntity
  8
Top
100
AcDbCircle
 10
167.500000000
 20
180.000000035
 30
0.000000000
 40
1.190000000
  0
CIRCLE
  5
A10
330
A02
100
AcDbEntity
  8
Top
100
AcDbCircle
 10
132.500000000
 20
180.000000035
 30
0.000000000
 40
1.190000000
  0
CIRCLE
  5
A11
330
A02
100
AcDbEntity
  8
Top
100
AcDbCircle
 10
97.500000000
 20
180.000000035
 30
0.000000000
 40
1.190000000
  0
LINE
  5
A12
330
A02
100
AcDbEntity
  8
Top
100
AcDbLine
 10
80.700000000
 20
174.400000035
 30
0.000000000
 11
219.300000000
 21
174.400000035
 31
0.000000000
  0
LINE
  5
A13
330
A02
100
AcDbEntity
  8
Front
100
AcDbLine
 10
80.700000000
 20
103.000000035
 30
0.000000000
 11
219.300000000
 21
103.000000035
 31
0.000000000
  0
LINE
  5
A14
330
A02
100
AcDbEntity
  8
Front
100
AcDbLine
 10
80.700000000
 20
117.000000035
 30
0.000000000
 11
219.300000000
 21
117.000000035
 31
0.000000000
  0
LINE
  5
A15
330
A02
100
AcDbEntity
  8
Front
100
AcDbLine
 10
80.700000000
 20
117.000000035
 30
0.000000000
 11
80.700000000
 21
103.000000035
 31
0.000000000
  0
LINE
  5
A16
330
A02
100
AcDbEntity
  8
Front
100
AcDbLine
 10
219.300000000
 20
117.000000035
 30
0.000000000
 11
219.300000000
 21
103.000000035
 31
0.000000000
  0
CIRCLE
  5
A17
330
A02
100
AcDbEntity
  8
Front
100
AcDbCircle
 10
150.000000000
 20
111.050000035
 30
0.000000000
 40
1.890000000
  0
LINE
  5
A18
330
A02
100
AcDbEntity
  8
End
100
AcDbLine
 10
320.000000100
 20
199.999999900
 30
0.000000000
 11
360.000000100
 21
199.999999900
 31
0.000000000
  0
LINE
  5
A19
330
A02
100
AcDbEntity
  8
End
100
AcDbLine
 10
320.000000100
 20
159.999999900
 30
0.000000000
 11
320.000000100
 21
199.999999900
 31
0.000000000
  0
LINE
  5
A1A
330
A02
100
AcDbEntity
  8
End
100
AcDbLine
 10
360.000000100
 20
199.999999900
 30
0.000000000
 11
360.000000100
 21
195.999999900
 31
0.000000000
  0
LINE
  5
A1B
330
A02
100
AcDbEntity
  8
End
100
AcDbLine
 10
360.000000100
 20
195.999999900
 30
0.000000000
 11
324.000000100
 21
195.999999900
 31
0.000000000
  0
LINE
  5
A1C
330
A02
100
AcDbEntity
  8
End
100
AcDbLine
 10
324.000000100
 20
195.999999900
 30
0.000000000
 11
324.000000100
 21
159.999999900
 31
0.000000000
  0
LINE
  5
A1D
330
A02
100
AcDbEntity
  8
End
100
AcDbLine
 10
324.000000100
 20
159.999999900
 30
0.000000000
 11
320.000000100
 21
159.999999900
 31
0.000000000
  0
DIMENSION
  5
A1E
330
A02
100
AcDbEntity
  8
d000
100
AcDbDimension
  2
*d000
 10
150.000000000
 20
201.000000000
 30
0.000000000
 11
150.000000000
 21
206.000000000
 31
0.000000000
 70
32
  1
198
  3
STANDARD
100
AcDbAlignedDimension
 13
80.700000000
 23
174.400000035
 33
0.000000000
 14
219.300000000
 24
174.400000035
 34
0.000000000
100
AcDbRotatedDimension
  0
DIMENSION
  5
A28
330
A02
100
AcDbEntity
  8
d001
100
AcDbDimension
  2
*d001
 10
340.000000000
 20
145.000000000
 30
0.000000000
 11
340.000000000
 21
150.000000000
 31
0.000000000
 70
32
  1
20
  3
STANDARD
100
AcDbAlignedDimension
 13
320.000000100
 23
199.999999900
 33
0.000000000
 14
360.000000100
 24
199.999999900
 34
0.000000000
100
AcDbRotatedDimension
  0
DIMENSION
  5
A32
330
A02
100
AcDbEntity
  8
d002
100
AcDbDimension
  2
*d002
 10
303.000000000
 20
180.000000000
 30
0.000000000
 11
308.000000000
 21
180.000000000
 31
0.000000000
 70
32
  1
20
  3
STANDARD
100
AcDbAlignedDimension
 13
320.000000100
 23
159.999999900
 33
0.000000000
 14
320.000000100
 24
199.999999900
 34
0.000000000
 50
90
100
AcDbRotatedDimension
  0
DIMENSION
  5
A3C
330
A02
100
AcDbEntity
  8
d003
100
AcDbDimension
  2
*d003
 10
202.500000000
 20
180.000000035
 30
0.000000000
 11
210.000000000
 21
209.000000000
 31
0.000000000
 70
3
  1
⌀3,4
  3
STANDARD
100
AcDbDiametricDimension
 15
202.500000000
 25
180.000000035
 35
0.000000000
 40
0
  0
DIMENSION
  5
A44
330
A02
100
AcDbEntity
  8
d004
100
AcDbDimension
  2
*d004
 10
150.000000000
 20
111.050000035
 30
0.000000000
 11
210.000000000
 21
139.000000000
 31
0.000000000
 70
3
  1
⌀5,4
  3
STANDARD
100
AcDbDiametricDimension
 15
150.000000000
 25
111.050000035
 35
0.000000000
 40
0
  0
DIMENSION
  5
A4C
330
A02
100
AcDbEntity
  8
d005
100
AcDbDimension
  2
*d005
 10
150.000000000
 20
219.000000000
 30
0.000000000
 11
150.000000000
 21
214.000000000
 31
0.000000000
 70
32
  1
24
  3
STANDARD
100
AcDbAlignedDimension
 13
97.500000000
 23
180.000000035
 33
0.000000000
 14
80.700000000
 24
180.000000035
 34
0.000000000
100
AcDbRotatedDimension
  0
DIMENSION
  5
A56
330
A02
100
AcDbEntity
  8
d006
100
AcDbDimension
  2
*d006
 10
150.000000000
 20
227.000000000
 30
0.000000000
 11
150.000000000
 21
222.000000000
 31
0.000000000
 70
32
  1
74
  3
STANDARD
100
AcDbAlignedDimension
 13
132.500000000
 23
180.000000035
 33
0.000000000
 14
80.700000000
 24
180.000000035
 34
0.000000000
100
AcDbRotatedDimension
  0
DIMENSION
  5
A60
330
A02
100
AcDbEntity
  8
d007
100
AcDbDimension
  2
*d007
 10
150.000000000
 20
235.000000000
 30
0.000000000
 11
150.000000000
 21
230.000000000
 31
0.000000000
 70
32
  1
124
  3
STANDARD
100
AcDbAlignedDimension
 13
167.500000000
 23
180.000000035
 33
0.000000000
 14
80.700000000
 24
180.000000035
 34
0.000000000
100
AcDbRotatedDimension
  0
DIMENSION
  5
A6A
330
A02
100
AcDbEntity
  8
d008
100
AcDbDimension
  2
*d008
 10
150.000000000
 20
243.000000000
 30
0.000000000
 11
150.000000000
 21
238.000000000
 31
0.000000000
 70
32
  1
174
  3
STANDARD
100
AcDbAlignedDimension
 13
202.500000000
 23
180.000000035
 33
0.000000000
 14
80.700000000
 24
180.000000035
 34
0.000000000
100
AcDbRotatedDimension
  0
TEXT
  5
A74
330
A02
100
AcDbEntity
  8
note012
100
AcDbText
 10
82.000000000
 20
58.000000000
 30
0.000000000
 40
3.200000000
  1
angle 20 x 20 x 2, length 198
  7
STANDARD
 72
1
 11
82.000000000
 21
58.000000000
 31
0.000000000
100
AcDbText
  0
TEXT
  5
A75
330
A02
100
AcDbEntity
  8
note013
100
AcDbText
 10
330.000000000
 20
262.000000000
 30
0.000000000
 40
2.600000000
  1
HOLE SUMMARY
  7
STANDARD
 72
1
 11
330.000000000
 21
262.000000000
 31
0.000000000
100
AcDbText
  0
ENDSEC
  0
SECTION
  2
OBJECTS
  0
DICTIONARY
  5
F000
330
0
100
AcDbDictionary
  3
ACAD_GROUP
350
F001
  0
DICTIONARY
  5
F001
330
F000
100
AcDbDictionary
  0
ENDSEC
  0
EOF