999
FreeCAD v1.1 44987 (Git)
  0
SECTION
  2
HEADER
  9
$ACADVER
  1
AC1014
  9
$ACADMAINTVER
 70
     9
  9
$DWGCODEPAGE
  3
ANSI_1252
  9
$TEXTSTYLE
  7
STANDARD
  9
$DIMSTYLE
  2
STANDARD
  9
$DIMTXSTY
  7
STANDARD
  9
$CMLSTYLE
  2
STANDARD
  9
$LUNITS
 70
2
  9
$INSUNITS
 70
4
  9
$PEXTMAX
 10
50
 20
50
 30
50
  9
$PEXTMIN
 10
0
 20
0
 30
0
  9
$HANDSEED
  5
FFFF
  0
ENDSEC
  0
SECTION
  2
CLASSES
  0
CLASS
  1
ACDBDICTIONARYWDFLT
  2
AcDbDictionaryWithDefault
  3
ObjectDBX Classes
 90
        0
280
     0
281
     0
  0
CLASS
  1
XRECORD
  2
AcDbXrecord
  3
ObjectDBX Classes
 90
        0
280
     0
281
     0
  0
CLASS
  1
LWPOLYLINE
  2
AcDbPolyline
  3
ObjectDBX Classes
 90
        0
280
     0
281
     1
  0
ENDSEC
  0
SECTION
  2
TABLES
  0
TABLE
  2
VPORT
  5
20
330
0
100
AcDbSymbolTable
 70
     1
  0
VPORT
  5
21
330
20
100
AcDbSymbolTableRecord
100
AcDbViewportTableRecord
  2
*ACTIVE
 70
     0
  0
ENDTAB
  0
TABLE
  2
LTYPE
  5
22
330
0
100
AcDbSymbolTable
 70
     1
  0
LTYPE
  5
23
330
21
100
AcDbSymbolTableRecord
100
AcDbLinetypeTableRecord
  2
BYBLOCK
 70
     0
  3

 72
    65
 73
     0
 40
0.0
  0
LTYPE
  5
24
330
21
100
AcDbSymbolTableRecord
100
AcDbLinetypeTableRecord
  2
BYLAYER
 70
     0
  3

 72
    65
 73
     0
 40
0.0
  0
LTYPE
  5
25
330
21
100
AcDbSymbolTableRecord
100
AcDbLinetypeTableRecord
  2
CONTINUOUS
 70
     0
  3
Solid line
 72
    65
 73
     0
 40
0.0
  0
ENDTAB
  0
TABLE
  2
LAYER
  5
A98
330
0
100
AcDbSymbolTable
 70
17
  0
LAYER
  5
A99
330
A98
100
AcDbSymbolTableRecord
100
AcDbLayerTableRecord
  2
0
 70
   0
 62
   7
  6
CONTINUOUS
  0
LAYER
  5
A9A
330
A98
100
AcDbSymbolTableRecord
100
AcDbLayerTableRecord
  2
Face
 70
    0
 62
    7
  6
CONTINUOUS
  0
LAYER
  5
A9B
330
A98
100
AcDbSymbolTableRecord
100
AcDbLayerTableRecord
  2
Edge
 70
    0
 62
    7
  6
CONTINUOUS
  0
LAYER
  5
A9C
330
A98
100
AcDbSymbolTableRecord
100
AcDbLayerTableRecord
  2
d000
 70
    0
 62
    7
  6
CONTINUOUS
  0
LAYER
  5
A9D
330
A98
100
AcDbSymbolTableRecord
100
AcDbLayerTableRecord
  2
d001
 70
    0
 62
    7
  6
CONTINUOUS
  0
LAYER
  5
A9E
330
A98
100
AcDbSymbolTableRecord
100
AcDbLayerTableRecord
  2
d002
 70
    0
 62
    7
  6
CONTINUOUS
  0
LAYER
  5
A9F
330
A98
100
AcDbSymbolTableRecord
100
AcDbLayerTableRecord
  2
d003
 70
    0
 62
    7
  6
CONTINUOUS
  0
LAYER
  5
AA0
330
A98
100
AcDbSymbolTableRecord
100
AcDbLayerTableRecord
  2
d004
 70
    0
 62
    7
  6
CONTINUOUS
  0
LAYER
  5
AA1
330
A98
100
AcDbSymbolTableRecord
100
AcDbLayerTableRecord
  2
d005
 70
    0
 62
    7
  6
CONTINUOUS
  0
LAYER
  5
AA2
330
A98
100
AcDbSymbolTableRecord
100
AcDbLayerTableRecord
  2
d006
 70
    0
 62
    7
  6
CONTINUOUS
  0
LAYER
  5
AA3
330
A98
100
AcDbSymbolTableRecord
100
AcDbLayerTableRecord
  2
d007
 70
    0
 62
    7
  6
CONTINUOUS
  0
LAYER
  5
AA4
330
A98
100
AcDbSymbolTableRecord
100
AcDbLayerTableRecord
  2
d008
 70
    0
 62
    7
  6
CONTINUOUS
  0
LAYER
  5
AA5
330
A98
100
AcDbSymbolTableRecord
100
AcDbLayerTableRecord
  2
d009
 70
    0
 62
    7
  6
CONTINUOUS
  0
LAYER
  5
AA6
330
A98
100
AcDbSymbolTableRecord
100
AcDbLayerTableRecord
  2
d010
 70
    0
 62
    7
  6
CONTINUOUS
  0
LAYER
  5
AA7
330
A98
100
AcDbSymbolTableRecord
100
AcDbLayerTableRecord
  2
d011
 70
    0
 62
    7
  6
CONTINUOUS
  0
LAYER
  5
AA8
330
A98
100
AcDbSymbolTableRecord
100
AcDbLayerTableRecord
  2
note014
 70
    0
 62
    7
  6
CONTINUOUS
  0
LAYER
  5
AA9
330
A98
100
AcDbSymbolTableRecord
100
AcDbLayerTableRecord
  2
note015
 70
    0
 62
    7
  6
CONTINUOUS
  0
ENDTAB
  0
TABLE
  2
STYLE
  5
70
330
0
100
AcDbSymbolTable
 70
     2
  0
STYLE
  5
71
330
70
100
AcDbSymbolTableRecord
100
AcDbTextStyleTableRecord
  2
STANDARD
 70
     0
 40
0.0
 41
1.0
 50
0.0
 71
     0
 42
2.5
  3
arial.ttf
  4

  0
STYLE
  5
72
330
70
100
AcDbSymbolTableRecord
100
AcDbTextStyleTableRecord
  2
ANNOTATIVE
 70
     0
 40
0.0
 41
1.0
 50
0.0
 71
     0
 42
2.5
  3
arial.ttf
  4

  0
ENDTAB
  0
TABLE
  2
VIEW
  5
73
330
0
100
AcDbSymbolTable
 70
     0
  0
ENDTAB
  0
TABLE
  2
UCS
  5
74
330
0
100
AcDbSymbolTable
 70
     0
  0
ENDTAB
  0
TABLE
  2
APPID
  5
75
330
0
100
AcDbSymbolTable
 70
     2
  0
APPID
  5
76
330
75
100
AcDbSymbolTableRecord
100
AcDbRegAppTableRecord
  2
ACAD
 70
     0
  0
APPID
  5
77
330
75
100
AcDbSymbolTableRecord
100
AcDbRegAppTableRecord
  2
ACADANNOTATIVE
 70
     0
  0
ENDTAB
  0
TABLE
  2
DIMSTYLE
  5
78
330
0
100
AcDbSymbolTable
 70
     2
  0
DIMSTYLE
105
79
330
78
100
AcDbSymbolTableRecord
100
AcDbDimStyleTableRecord
  2
STANDARD
 70
     0
  3

  4

  5

  6

  7

 40
0.0
 41
2.5
 42
0.625
 43
3.75
 44
1.25
 45
0.0
 46
0.0
 47
0.0
 48
0.0
140
2.5
141
2.5
142
0.0
143
0.03937007874016
144
1.0
145
0.0
146
1.0
147
0.625
 71
     0
 72
     0
 73
     0
 74
     0
 75
     0
 76
     0
 77
     1
 78
     8
170
     0
171
     3
172
     1
173
     0
174
     0
175
     0
176
     0
177
     0
178
     0
270
     2
271
     2
272
     2
273
     2
274
     3
340
71
275
     0
280
     0
281
     0
282
     0
283
     0
284
     8
285
     0
286
     0
287
     3
288
     0
  0
ENDTAB
  0
TABLE
  2
BLOCK_RECORD
  5
A01
330
0
100
AcDbSymbolTable
  70
5
  0
BLOCK_RECORD
  5
A02
330
A01
100
AcDbSymbolTableRecord
100
AcDbBlockTableRecord
  2
*MODEL_SPACE
  0
BLOCK_RECORD
  5
A03
330
A01
100
AcDbSymbolTableRecord
100
AcDbBlockTableRecord
  2
*PAPER_SPACE
  0
BLOCK_RECORD
  5
A21
330
A01
100
AcDbSymbolTableRecord
100
AcDbBlockTableRecord
  2
*d000
  0
BLOCK_RECORD
  5
A2B
330
A01
100
AcDbSymbolTableRecord
100
AcDbBlockTableRecord
  2
*d001
  0
BLOCK_RECORD
  5
A35
330
A01
100
AcDbSymbolTableRecord
100
AcDbBlockTableRecord
  2
*d002
  0
BLOCK_RECORD
  5
A3F
330
A01
100
AcDbSymbolTableRecord
100
AcDbBlockTableRecord
  2
*d003
  0
BLOCK_RECORD
  5
A47
330
A01
100
AcDbSymbolTableRecord
100
AcDbBlockTableRecord
  2
*d004
  0
BLOCK_RECORD
  5
A51
330
A01
100
AcDbSymbolTableRecord
100
AcDbBlockTableRecord
  2
*d005
  0
BLOCK_RECORD
  5
A5B
330
A01
100
AcDbSymbolTableRecord
100
AcDbBlockTableRecord
  2
*d006
  0
BLOCK_RECORD
  5
A65
330
A01
100
AcDbSymbolTableRecord
100
AcDbBlockTableRecord
  2
*d007
  0
BLOCK_RECORD
  5
A6F
330
A01
100
AcDbSymbolTableRecord
100
AcDbBlockTableRecord
  2
*d008
  0
BLOCK_RECORD
  5
A79
330
A01
100
AcDbSymbolTableRecord
100
AcDbBlockTableRecord
  2
*d009
  0
BLOCK_RECORD
  5
A83
330
A01
100
AcDbSymbolTableRecord
100
AcDbBlockTableRecord
  2
*d010
  0
BLOCK_RECORD
  5
A8D
330
A01
100
AcDbSymbolTableRecord
100
AcDbBlockTableRecord
  2
*d011
  0
ENDTAB
  0
ENDSEC
  0
SECTION
  2
BLOCKS
  0
BLOCK
  5
A04
330
A02
100
AcDbEntity
  8
0
100
AcDbBlockBegin
  2
*MODEL_SPACE
 70
   0
 10
0
 20
0
 30
0
  3
*MODEL_SPACE
  1
 
  0
ENDBLK
  5
A05
330
A02
100
AcDbEntity
  8
0
100
AcDbBlockEnd
  0
BLOCK
  5
A06
330
A03
100
AcDbEntity
 67
1
  8
0
100
AcDbBlockBegin
  2
*PAPER_SPACE
 70
   0
 10
0
 20
0
 30
0
  3
*PAPER_SPACE
  1
 
  0
ENDBLK
  5
A07
330
A03
100
AcDbEntity
 67
    1
  8
0
100
AcDbBlockEnd
  0
BLOCK
  5
A22
330
A21
100
AcDbEntity
  8
d000
100
AcDbBlockBegin
  2
*d000
 70
   1
 10
0
 20
0
 30
0
  3
*d000
  1
 
  0
LINE
  5
A23
330
A21
100
AcDbEntity
  8
d000
100
AcDbLine
 10
214.25
 20
220.5
 30
0
 11
214.25
 21
120.5
 31
0
  0
LINE
  5
A24
330
A21
100
AcDbEntity
  8
d000
100
AcDbLine
 10
85.75
 20
220.5
 30
0
 11
85.75
 21
120.5
 31
0
  0
LINE
  5
A25
330
A21
100
AcDbEntity
  8
d000
100
AcDbLine
 10
85.75
 20
120.5
 30
0
 11
214.25
 21
120.5
 31
0
  0
TEXT
  5
A26
330
A21
100
AcDbEntity
  8
d000
100
AcDbText
 10
150
 20
125.5
 30
0
 40
3.5
  1
257
  7
STANDARD
 72
1
 11
150
 21
120.5
 31
0
100
AcDbText
  0
SOLID
  5
A27
330
A21
100
AcDbEntity
  8
0
 62
     0
100
AcDbTrace
 10
80.75
 20
120.083
 30
0
 11
80.75
 21
120.917
 31
0
 12
85.75
 22
120.5
 32
0
 13
85.75
 23
120.5
 33
0
  0
SOLID
  5
A28
330
A21
100
AcDbEntity
  8
0
 62
     0
100
AcDbTrace
 10
219.25
 20
120.083
 30
0
 11
219.25
 21
120.917
 31
0
 12
214.25
 22
120.5
 32
0
 13
214.25
 23
120.5
 33
0
  0
ENDBLK
  5
A29
330
A21
100
AcDbEntity
  8
d000
100
AcDbBlockEnd
  0
BLOCK
  5
A2C
330
A2B
100
AcDbEntity
  8
d001
100
AcDbBlockBegin
  2
*d001
 70
   1
 10
0
 20
0
 30
0
  3
*d001
  1
 
  0
LINE
  5
A2D
330
A2B
100
AcDbEntity
  8
d001
100
AcDbLine
 10
85.75
 20
220.5
 30
0
 11
66.75
 21
220.5
 31
0
  0
LINE
  5
A2E
330
A2B
100
AcDbEntity
  8
d001
100
AcDbLine
 10
85.75
 20
139.5
 30
0
 11
66.75
 21
139.5
 31
0
  0
LINE
  5
A2F
330
A2B
100
AcDbEntity
  8
d001
100
AcDbLine
 10
66.75
 20
139.5
 30
0
 11
66.75
 21
220.5
 31
0
  0
TEXT
  5
A30
330
A2B
100
AcDbEntity
  8
d001
100
AcDbText
 10
71.75
 20
180
 30
0
 40
3.5
  1
162
  7
STANDARD
 72
1
 11
66.75
 21
180
 31
0
100
AcDbText
  0
SOLID
  5
A31
330
A2B
100
AcDbEntity
  8
0
 62
     0
100
AcDbTrace
 10
66.3333
 20
134.5
 30
0
 11
67.1667
 21
134.5
 31
0
 12
66.75
 22
139.5
 32
0
 13
66.75
 23
139.5
 33
0
  0
SOLID
  5
A32
330
A2B
100
AcDbEntity
  8
0
 62
     0
100
AcDbTrace
 10
66.3333
 20
225.5
 30
0
 11
67.1667
 21
225.5
 31
0
 12
66.75
 22
220.5
 32
0
 13
66.75
 23
220.5
 33
0
  0
ENDBLK
  5
A33
330
A2B
100
AcDbEntity
  8
d001
100
AcDbBlockEnd
  0
BLOCK
  5
A36
330
A35
100
AcDbEntity
  8
d002
100
AcDbBlockBegin
  2
*d002
 70
   1
 10
0
 20
0
 30
0
  3
*d002
  1
 
  0
LINE
  5
A37
330
A35
100
AcDbEntity
  8
d002
100
AcDbLine
 10
340.5
 20
139.5
 30
0
 11
340.5
 21
122.5
 31
0
  0
LINE
  5
A38
330
A35
100
AcDbEntity
  8
d002
100
AcDbLine
 10
339.5
 20
139.5
 30
0
 11
339.5
 21
122.5
 31
0
  0
LINE
  5
A39
330
A35
100
AcDbEntity
  8
d002
100
AcDbLine
 10
339.5
 20
122.5
 30
0
 11
340.5
 21
122.5
 31
0
  0
TEXT
  5
A3A
330
A35
100
AcDbEntity
  8
d002
100
AcDbText
 10
340
 20
127.5
 30
0
 40
3.5
  1
2
  7
STANDARD
 72
1
 11
340
 21
122.5
 31
0
100
AcDbText
  0
SOLID
  5
A3B
330
A35
100
AcDbEntity
  8
0
 62
     0
100
AcDbTrace
 10
334.5
 20
122.083
 30
0
 11
334.5
 21
122.917
 31
0
 12
339.5
 22
122.5
 32
0
 13
339.5
 23
122.5
 33
0
  0
SOLID
  5
A3C
330
A35
100
AcDbEntity
  8
0
 62
     0
100
AcDbTrace
 10
345.5
 20
122.083
 30
0
 11
345.5
 21
122.917
 31
0
 12
340.5
 22
122.5
 32
0
 13
340.5
 23
122.5
 33
0
  0
ENDBLK
  5
A3D
330
A35
100
AcDbEntity
  8
d002
100
AcDbBlockEnd
  0
BLOCK
  5
A40
330
A3F
100
AcDbEntity
  8
d003
100
AcDbBlockBegin
  2
*d003
 70
   1
 10
0
 20
0
 30
0
  3
*d003
  1
 
  0
LINE
  5
A41
330
A3F
100
AcDbEntity
  8
d003
100
AcDbLine
 10
212.175
 20
218
 30
0
 11
212.175
 21
218
 31
0
  0
TEXT
  5
A42
330
A3F
100
AcDbEntity
  8
d003
100
AcDbText
 10
238.25
 20
220.5
 30
0
 40
3.5
  1
⌀3,2
  7
STANDARD
 72
1
 11
238.25
 21
220.5
 31
0
100
AcDbText
  0
SOLID
  5
A43
330
A3F
100
AcDbEntity
  8
0
 62
     0
100
AcDbTrace
 10
212.175
 20
218
 30
0
 11
212.175
 21
218
 31
0
 12
212.175
 22
218
 32
0
 13
212.175
 23
218
 33
0
  0
SOLID
  5
A44
330
A3F
100
AcDbEntity
  8
0
 62
     0
100
AcDbTrace
 10
212.175
 20
218
 30
0
 11
212.175
 21
218
 31
0
 12
212.175
 22
218
 32
0
 13
212.175
 23
218
 33
0
  0
ENDBLK
  5
A45
330
A3F
100
AcDbEntity
  8
d003
100
AcDbBlockEnd
  0
BLOCK
  5
A48
330
A47
100
AcDbEntity
  8
d004
100
AcDbBlockBegin
  2
*d004
 70
   1
 10
0
 20
0
 30
0
  3
*d004
  1
 
  0
LINE
  5
A49
330
A47
100
AcDbEntity
  8
d004
100
AcDbLine
 10
85.75
 20
142
 30
0
 11
85.75
 21
118.5
 31
0
  0
LINE
  5
A4A
330
A47
100
AcDbEntity
  8
d004
100
AcDbLine
 10
87.825
 20
142
 30
0
 11
87.825
 21
118.5
 31
0
  0
LINE
  5
A4B
330
A47
100
AcDbEntity
  8
d004
100
AcDbLine
 10
87.825
 20
118.5
 30
0
 11
85.75
 21
118.5
 31
0
  0
TEXT
  5
A4C
330
A47
100
AcDbEntity
  8
d004
100
AcDbText
 10
150
 20
113.5
 30
0
 40
3.5
  1
4,15
  7
STANDARD
 72
1
 11
150
 21
118.5
 31
0
100
AcDbText
  0
SOLID
  5
A4D
330
A47
100
AcDbEntity
  8
0
 62
     0
100
AcDbTrace
 10
92.825
 20
118.083
 30
0
 11
92.825
 21
118.917
 31
0
 12
87.825
 22
118.5
 32
0
 13
87.825
 23
118.5
 33
0
  0
SOLID
  5
A4E
330
A47
100
AcDbEntity
  8
0
 62
     0
100
AcDbTrace
 10
80.75
 20
118.083
 30
0
 11
80.75
 21
118.917
 31
0
 12
85.75
 22
118.5
 32
0
 13
85.75
 23
118.5
 33
0
  0
ENDBLK
  5
A4F
330
A47
100
AcDbEntity
  8
d004
100
AcDbBlockEnd
  0
BLOCK
  5
A52
330
A51
100
AcDbEntity
  8
d005
100
AcDbBlockBegin
  2
*d005
 70
   1
 10
0
 20
0
 30
0
  3
*d005
  1
 
  0
LINE
  5
A53
330
A51
100
AcDbEntity
  8
d005
100
AcDbLine
 10
85.75
 20
142
 30
0
 11
85.75
 21
110.5
 31
0
  0
LINE
  5
A54
330
A51
100
AcDbEntity
  8
d005
100
AcDbLine
 10
101.175
 20
142
 30
0
 11
101.175
 21
110.5
 31
0
  0
LINE
  5
A55
330
A51
100
AcDbEntity
  8
d005
100
AcDbLine
 10
101.175
 20
110.5
 30
0
 11
85.75
 21
110.5
 31
0
  0
TEXT
  5
A56
330
A51
100
AcDbEntity
  8
d005
100
AcDbText
 10
150
 20
105.5
 30
0
 40
3.5
  1
30,85
  7
STANDARD
 72
1
 11
150
 21
110.5
 31
0
100
AcDbText
  0
SOLID
  5
A57
330
A51
100
AcDbEntity
  8
0
 62
     0
100
AcDbTrace
 10
106.175
 20
110.083
 30
0
 11
106.175
 21
110.917
 31
0
 12
101.175
 22
110.5
 32
0
 13
101.175
 23
110.5
 33
0
  0
SOLID
  5
A58
330
A51
100
AcDbEntity
  8
0
 62
     0
100
AcDbTrace
 10
80.75
 20
110.083
 30
0
 11
80.75
 21
110.917
 31
0
 12
85.75
 22
110.5
 32
0
 13
85.75
 23
110.5
 33
0
  0
ENDBLK
  5
A59
330
A51
100
AcDbEntity
  8
d005
100
AcDbBlockEnd
  0
BLOCK
  5
A5C
330
A5B
100
AcDbEntity
  8
d006
100
AcDbBlockBegin
  2
*d006
 70
   1
 10
0
 20
0
 30
0
  3
*d006
  1
 
  0
LINE
  5
A5D
330
A5B
100
AcDbEntity
  8
d006
100
AcDbLine
 10
85.75
 20
142
 30
0
 11
85.75
 21
102.5
 31
0
  0
LINE
  5
A5E
330
A5B
100
AcDbEntity
  8
d006
100
AcDbLine
 10
198.825
 20
142
 30
0
 11
198.825
 21
102.5
 31
0
  0
LINE
  5
A5F
330
A5B
100
AcDbEntity
  8
d006
100
AcDbLine
 10
198.825
 20
102.5
 30
0
 11
85.75
 21
102.5
 31
0
  0
TEXT
  5
A60
330
A5B
100
AcDbEntity
  8
d006
100
AcDbText
 10
150
 20
97.5
 30
0
 40
3.5
  1
226,15
  7
STANDARD
 72
1
 11
150
 21
102.5
 31
0
100
AcDbText
  0
SOLID
  5
A61
330
A5B
100
AcDbEntity
  8
0
 62
     0
100
AcDbTrace
 10
203.825
 20
102.083
 30
0
 11
203.825
 21
102.917
 31
0
 12
198.825
 22
102.5
 32
0
 13
198.825
 23
102.5
 33
0
  0
SOLID
  5
A62
330
A5B
100
AcDbEntity
  8
0
 62
     0
100
AcDbTrace
 10
80.75
 20
102.083
 30
0
 11
80.75
 21
102.917
 31
0
 12
85.75
 22
102.5
 32
0
 13
85.75
 23
102.5
 33
0
  0
ENDBLK
  5
A63
330
A5B
100
AcDbEntity
  8
d006
100
AcDbBlockEnd
  0
BLOCK
  5
A66
330
A65
100
AcDbEntity
  8
d007
100
AcDbBlockBegin
  2
*d007
 70
   1
 10
0
 20
0
 30
0
  3
*d007
  1
 
  0
LINE
  5
A67
330
A65
100
AcDbEntity
  8
d007
100
AcDbLine
 10
85.75
 20
142
 30
0
 11
85.75
 21
94.5
 31
0
  0
LINE
  5
A68
330
A65
100
AcDbEntity
  8
d007
100
AcDbLine
 10
212.175
 20
142
 30
0
 11
212.175
 21
94.5
 31
0
  0
LINE
  5
A69
330
A65
100
AcDbEntity
  8
d007
100
AcDbLine
 10
212.175
 20
94.5
 30
0
 11
85.75
 21
94.5
 31
0
  0
TEXT
  5
A6A
330
A65
100
AcDbEntity
  8
d007
100
AcDbText
 10
150
 20
89.5
 30
0
 40
3.5
  1
252,85
  7
STANDARD
 72
1
 11
150
 21
94.5
 31
0
100
AcDbText
  0
SOLID
  5
A6B
330
A65
100
AcDbEntity
  8
0
 62
     0
100
AcDbTrace
 10
217.175
 20
94.0833
 30
0
 11
217.175
 21
94.9167
 31
0
 12
212.175
 22
94.5
 32
0
 13
212.175
 23
94.5
 33
0
  0
SOLID
  5
A6C
330
A65
100
AcDbEntity
  8
0
 62
     0
100
AcDbTrace
 10
80.75
 20
94.0833
 30
0
 11
80.75
 21
94.9167
 31
0
 12
85.75
 22
94.5
 32
0
 13
85.75
 23
94.5
 33
0
  0
ENDBLK
  5
A6D
330
A65
100
AcDbEntity
  8
d007
100
AcDbBlockEnd
  0
BLOCK
  5
A70
330
A6F
100
AcDbEntity
  8
d008
100
AcDbBlockBegin
  2
*d008
 70
   1
 10
0
 20
0
 30
0
  3
*d008
  1
 
  0
LINE
  5
A71
330
A6F
100
AcDbEntity
  8
d008
100
AcDbLine
 10
87.825
 20
139.5
 30
0
 11
64.75
 21
139.5
 31
0
  0
LINE
  5
A72
330
A6F
100
AcDbEntity
  8
d008
100
AcDbLine
 10
87.825
 20
142
 30
0
 11
64.75
 21
142
 31
0
  0
LINE
  5
A73
330
A6F
100
AcDbEntity
  8
d008
100
AcDbLine
 10
64.75
 20
142
 30
0
 11
64.75
 21
139.5
 31
0
  0
TEXT
  5
A74
330
A6F
100
AcDbEntity
  8
d008
100
AcDbText
 10
59.75
 20
180
 30
0
 40
3.5
  1
5
  7
STANDARD
 72
1
 11
64.75
 21
180
 31
0
100
AcDbText
  0
SOLID
  5
A75
330
A6F
100
AcDbEntity
  8
0
 62
     0
100
AcDbTrace
 10
64.3333
 20
147
 30
0
 11
65.1667
 21
147
 31
0
 12
64.75
 22
142
 32
0
 13
64.75
 23
142
 33
0
  0
SOLID
  5
A76
330
A6F
100
AcDbEntity
  8
0
 62
     0
100
AcDbTrace
 10
64.3333
 20
134.5
 30
0
 11
65.1667
 21
134.5
 31
0
 12
64.75
 22
139.5
 32
0
 13
64.75
 23
139.5
 33
0
  0
ENDBLK
  5
A77
330
A6F
100
AcDbEntity
  8
d008
100
AcDbBlockEnd
  0
BLOCK
  5
A7A
330
A79
100
AcDbEntity
  8
d009
100
AcDbBlockBegin
  2
*d009
 70
   1
 10
0
 20
0
 30
0
  3
*d009
  1
 
  0
LINE
  5
A7B
330
A79
100
AcDbEntity
  8
d009
100
AcDbLine
 10
87.825
 20
139.5
 30
0
 11
56.75
 21
139.5
 31
0
  0
LINE
  5
A7C
330
A79
100
AcDbEntity
  8
d009
100
AcDbLine
 10
87.825
 20
150.5
 30
0
 11
56.75
 21
150.5
 31
0
  0
LINE
  5
A7D
330
A79
100
AcDbEntity
  8
d009
100
AcDbLine
 10
56.75
 20
150.5
 30
0
 11
56.75
 21
139.5
 31
0
  0
TEXT
  5
A7E
330
A79
100
AcDbEntity
  8
d009
100
AcDbText
 10
51.75
 20
180
 30
0
 40
3.5
  1
22
  7
STANDARD
 72
1
 11
56.75
 21
180
 31
0
100
AcDbText
  0
SOLID
  5
A7F
330
A79
100
AcDbEntity
  8
0
 62
     0
100
AcDbTrace
 10
56.3333
 20
155.5
 30
0
 11
57.1667
 21
155.5
 31
0
 12
56.75
 22
150.5
 32
0
 13
56.75
 23
150.5
 33
0
  0
SOLID
  5
A80
330
A79
100
AcDbEntity
  8
0
 62
     0
100
AcDbTrace
 10
56.3333
 20
134.5
 30
0
 11
57.1667
 21
134.5
 31
0
 12
56.75
 22
139.5
 32
0
 13
56.75
 23
139.5
 33
0
  0
ENDBLK
  5
A81
330
A79
100
AcDbEntity
  8
d009
100
AcDbBlockEnd
  0
BLOCK
  5
A84
330
A83
100
AcDbEntity
  8
d010
100
AcDbBlockBegin
  2
*d010
 70
   1
 10
0
 20
0
 30
0
  3
*d010
  1
 
  0
LINE
  5
A85
330
A83
100
AcDbEntity
  8
d010
100
AcDbLine
 10
87.825
 20
139.5
 30
0
 11
48.75
 21
139.5
 31
0
  0
LINE
  5
A86
330
A83
100
AcDbEntity
  8
d010
100
AcDbLine
 10
87.825
 20
209.5
 30
0
 11
48.75
 21
209.5
 31
0
  0
LINE
  5
A87
330
A83
100
AcDbEntity
  8
d010
100
AcDbLine
 10
48.75
 20
209.5
 30
0
 11
48.75
 21
139.5
 31
0
  0
TEXT
  5
A88
330
A83
100
AcDbEntity
  8
d010
100
AcDbText
 10
43.75
 20
180
 30
0
 40
3.5
  1
140
  7
STANDARD
 72
1
 11
48.75
 21
180
 31
0
100
AcDbText
  0
SOLID
  5
A89
330
A83
100
AcDbEntity
  8
0
 62
     0
100
AcDbTrace
 10
48.3333
 20
214.5
 30
0
 11
49.1667
 21
214.5
 31
0
 12
48.75
 22
209.5
 32
0
 13
48.75
 23
209.5
 33
0
  0
SOLID
  5
A8A
330
A83
100
AcDbEntity
  8
0
 62
     0
100
AcDbTrace
 10
48.3333
 20
134.5
 30
0
 11
49.1667
 21
134.5
 31
0
 12
48.75
 22
139.5
 32
0
 13
48.75
 23
139.5
 33
0
  0
ENDBLK
  5
A8B
330
A83
100
AcDbEntity
  8
d010
100
AcDbBlockEnd
  0
BLOCK
  5
A8E
330
A8D
100
AcDbEntity
  8
d011
100
AcDbBlockBegin
  2
*d011
 70
   1
 10
0
 20
0
 30
0
  3
*d011
  1
 
  0
LINE
  5
A8F
330
A8D
100
AcDbEntity
  8
d011
100
AcDbLine
 10
87.825
 20
139.5
 30
0
 11
40.75
 21
139.5
 31
0
  0
LINE
  5
A90
330
A8D
100
AcDbEntity
  8
d011
100
AcDbLine
 10
87.825
 20
218
 30
0
 11
40.75
 21
218
 31
0
  0
LINE
  5
A91
330
A8D
100
AcDbEntity
  8
d011
100
AcDbLine
 10
40.75
 20
218
 30
0
 11
40.75
 21
139.5
 31
0
  0
TEXT
  5
A92
330
A8D
100
AcDbEntity
  8
d011
100
AcDbText
 10
35.75
 20
180
 30
0
 40
3.5
  1
157
  7
STANDARD
 72
1
 11
40.75
 21
180
 31
0
100
AcDbText
  0
SOLID
  5
A93
330
A8D
100
AcDbEntity
  8
0
 62
     0
100
AcDbTrace
 10
40.3333
 20
223
 30
0
 11
41.1667
 21
223
 31
0
 12
40.75
 22
218
 32
0
 13
40.75
 23
218
 33
0
  0
SOLID
  5
A94
330
A8D
100
AcDbEntity
  8
0
 62
     0
100
AcDbTrace
 10
40.3333
 20
134.5
 30
0
 11
41.1667
 21
134.5
 31
0
 12
40.75
 22
139.5
 32
0
 13
40.75
 23
139.5
 33
0
  0
ENDBLK
  5
A95
330
A8D
100
AcDbEntity
  8
d011
100
AcDbBlockEnd
  0
ENDSEC
  0
SECTION
  2
ENTITIES
  0
LINE
  5
A08
330
A02
100
AcDbEntity
  8
Face
100
AcDbLine
 10
85.750000000
 20
139.500000000
 30
0.000000000
 11
214.250000000
 21
139.500000000
 31
0.000000000
  0
LINE
  5
A09
330
A02
100
AcDbEntity
  8
Face
100
AcDbLine
 10
85.750000000
 20
220.500000000
 30
0.000000000
 11
85.750000000
 21
139.500000000
 31
0.000000000
  0
LINE
  5
A0A
330
A02
100
AcDbEntity
  8
Face
100
AcDbLine
 10
214.250000000
 20
139.500000000
 30
0.000000000
 11
214.250000000
 21
220.500000000
 31
0.000000000
  0
LINE
  5
A0B
330
A02
100
AcDbEntity
  8
Face
100
AcDbLine
 10
214.250000000
 20
220.500000000
 30
0.000000000
 11
85.750000000
 21
220.500000000
 31
0.000000000
  0
CIRCLE
  5
A0C
330
A02
100
AcDbEntity
  8
Face
100
AcDbCircle
 10
87.825000000
 20
142.000000000
 30
0.000000000
 40
0.800000000
  0
CIRCLE
  5
A0D
330
A02
100
AcDbEntity
  8
Face
100
AcDbCircle
 10
87.825000000
 20
150.500000000
 30
0.000000000
 40
0.800000000
  0
CIRCLE
  5
A0E
330
A02
100
AcDbEntity
  8
Face
100
AcDbCircle
 10
101.175000000
 20
142.000000000
 30
0.000000000
 40
0.800000000
  0
CIRCLE
  5
A0F
330
A02
100
AcDbEntity
  8
Face
100
AcDbCircle
 10
101.175000000
 20
150.500000000
 30
0.000000000
 40
0.800000000
  0
CIRCLE
  5
A10
330
A02
100
AcDbEntity
  8
Face
100
AcDbCircle
 10
87.825000000
 20
209.500000000
 30
0.000000000
 40
0.800000000
  0
CIRCLE
  5
A11
330
A02
100
AcDbEntity
  8
Face
100
AcDbCircle
 10
87.825000000
 20
218.000000000
 30
0.000000000
 40
0.800000000
  0
CIRCLE
  5
A12
330
A02
100
AcDbEntity
  8
Face
100
AcDbCircle
 10
101.175000000
 20
209.500000000
 30
0.000000000
 40
0.800000000
  0
CIRCLE
  5
A13
330
A02
100
AcDbEntity
  8
Face
100
AcDbCircle
 10
101.175000000
 20
218.000000000
 30
0.000000000
 40
0.800000000
  0
CIRCLE
  5
A14
330
A02
100
AcDbEntity
  8
Face
100
AcDbCircle
 10
198.825000000
 20
142.000000000
 30
0.000000000
 40
0.800000000
  0
CIRCLE
  5
A15
330
A02
100
AcDbEntity
  8
Face
100
AcDbCircle
 10
198.825000000
 20
150.500000000
 30
0.000000000
 40
0.800000000
  0
CIRCLE
  5
A16
330
A02
100
AcDbEntity
  8
Face
100
AcDbCircle
 10
212.175000000
 20
142.000000000
 30
0.000000000
 40
0.800000000
  0
CIRCLE
  5
A17
330
A02
100
AcDbEntity
  8
Face
100
AcDbCircle
 10
212.175000000
 20
150.500000000
 30
0.000000000
 40
0.800000000
  0
CIRCLE
  5
A18
330
A02
100
AcDbEntity
  8
Face
100
AcDbCircle
 10
198.825000000
 20
209.500000000
 30
0.000000000
 40
0.800000000
  0
CIRCLE
  5
A19
330
A02
100
AcDbEntity
  8
Face
100
AcDbCircle
 10
198.825000000
 20
218.000000000
 30
0.000000000
 40
0.800000000
  0
CIRCLE
  5
A1A
330
A02
100
AcDbEntity
  8
Face
100
AcDbCircle
 10
212.175000000
 20
209.500000000
 30
0.000000000
 40
0.800000000
  0
CIRCLE
  5
A1B
330
A02
100
AcDbEntity
  8
Face
100
AcDbCircle
 10
212.175000000
 20
218.000000000
 30
0.000000000
 40
0.800000000
  0
LINE
  5
A1C
330
A02
100
AcDbEntity
  8
Edge
100
AcDbLine
 10
339.500000000
 20
139.500000000
 30
0.000000000
 11
340.500000000
 21
139.500000000
 31
0.000000000
  0
LINE
  5
A1D
330
A02
100
AcDbEntity
  8
Edge
100
AcDbLine
 10
339.500000000
 20
220.500000000
 30
0.000000000
 11
340.500000000
 21
220.500000000
 31
0.000000000
  0
LINE
  5
A1E
330
A02
100
AcDbEntity
  8
Edge
100
AcDbLine
 10
339.500000000
 20
139.500000000
 30
0.000000000
 11
339.500000000
 21
220.500000000
 31
0.000000000
  0
LINE
  5
A1F
330
A02
100
AcDbEntity
  8
Edge
100
AcDbLine
 10
340.500000000
 20
139.500000000
 30
0.000000000
 11
340.500000000
 21
220.500000000
 31
0.000000000
  0
DIMENSION
  5
A20
330
A02
100
AcDbEntity
  8
d000
100
AcDbDimension
  2
*d000
 10
150.000000000
 20
120.500000000
 30
0.000000000
 11
150.000000000
 21
125.500000000
 31
0.000000000
 70
32
  1
257
  3
STANDARD
100
AcDbAlignedDimension
 13
85.750000000
 23
220.500000000
 33
0.000000000
 14
214.250000000
 24
220.500000000
 34
0.000000000
100
AcDbRotatedDimension
  0
DIMENSION
  5
A2A
330
A02
100
AcDbEntity
  8
d001
100
AcDbDimension
  2
*d001
 10
66.750000000
 20
180.000000000
 30
0.000000000
 11
71.750000000
 21
180.000000000
 31
0.000000000
 70
32
  1
162
  3
STANDARD
100
AcDbAlignedDimension
 13
85.750000000
 23
139.500000000
 33
0.000000000
 14
85.750000000
 24
220.500000000
 34
0.000000000
 50
90
100
AcDbRotatedDimension
  0
DIMENSION
  5
A34
330
A02
100
AcDbEntity
  8
d002
100
AcDbDimension
  2
*d002
 10
340.000000000
 20
122.500000000
 30
0.000000000
 11
340.000000000
 21
127.500000000
 31
0.000000000
 70
32
  1
2
  3
STANDARD
100
AcDbAlignedDimension
 13
339.500000000
 23
139.500000000
 33
0.000000000
 14
340.500000000
 24
139.500000000
 34
0.000000000
100
AcDbRotatedDimension
  0
DIMENSION
  5
A3E
330
A02
100
AcDbEntity
  8
d003
100
AcDbDimension
  2
*d003
 10
212.175000000
 20
218.000000000
 30
0.000000000
 11
238.250000000
 21
220.500000000
 31
0.000000000
 70
3
  1
⌀3,2
  3
STANDARD
100
AcDbDiametricDimension
 15
212.175000000
 25
218.000000000
 35
0.000000000
 40
0
  0
DIMENSION
  5
A46
330
A02
100
AcDbEntity
  8
d004
100
AcDbDimension
  2
*d004
 10
150.000000000
 20
118.500000000
 30
0.000000000
 11
150.000000000
 21
113.500000000
 31
0.000000000
 70
32
  1
4,15
  3
STANDARD
100
AcDbAlignedDimension
 13
87.825000000
 23
142.000000000
 33
0.000000000
 14
85.750000000
 24
142.000000000
 34
0.000000000
100
AcDbRotatedDimension
  0
DIMENSION
  5
A50
330
A02
100
AcDbEntity
  8
d005
100
AcDbDimension
  2
*d005
 10
150.000000000
 20
110.500000000
 30
0.000000000
 11
150.000000000
 21
105.500000000
 31
0.000000000
 70
32
  1
30,85
  3
STANDARD
100
AcDbAlignedDimension
 13
101.175000000
 23
142.000000000
 33
0.000000000
 14
85.750000000
 24
142.000000000
 34
0.000000000
100
AcDbRotatedDimension
  0
DIMENSION
  5
A5A
330
A02
100
AcDbEntity
  8
d006
100
AcDbDimension
  2
*d006
 10
150.000000000
 20
102.500000000
 30
0.000000000
 11
150.000000000
 21
97.500000000
 31
0.000000000
 70
32
  1
226,15
  3
STANDARD
100
AcDbAlignedDimension
 13
198.825000000
 23
142.000000000
 33
0.000000000
 14
85.750000000
 24
142.000000000
 34
0.000000000
100
AcDbRotatedDimension
  0
DIMENSION
  5
A64
330
A02
100
AcDbEntity
  8
d007
100
AcDbDimension
  2
*d007
 10
150.000000000
 20
94.500000000
 30
0.000000000
 11
150.000000000
 21
89.500000000
 31
0.000000000
 70
32
  1
252,85
  3
STANDARD
100
AcDbAlignedDimension
 13
212.175000000
 23
142.000000000
 33
0.000000000
 14
85.750000000
 24
142.000000000
 34
0.000000000
100
AcDbRotatedDimension
  0
DIMENSION
  5
A6E
330
A02
100
AcDbEntity
  8
d008
100
AcDbDimension
  2
*d008
 10
64.750000000
 20
180.000000000
 30
0.000000000
 11
59.750000000
 21
180.000000000
 31
0.000000000
 70
32
  1
5
  3
STANDARD
100
AcDbAlignedDimension
 13
87.825000000
 23
142.000000000
 33
0.000000000
 14
87.825000000
 24
139.500000000
 34
0.000000000
 50
90
100
AcDbRotatedDimension
  0
DIMENSION
  5
A78
330
A02
100
AcDbEntity
  8
d009
100
AcDbDimension
  2
*d009
 10
56.750000000
 20
180.000000000
 30
0.000000000
 11
51.750000000
 21
180.000000000
 31
0.000000000
 70
32
  1
22
  3
STANDARD
100
AcDbAlignedDimension
 13
87.825000000
 23
150.500000000
 33
0.000000000
 14
87.825000000
 24
139.500000000
 34
0.000000000
 50
90
100
AcDbRotatedDimension
  0
DIMENSION
  5
A82
330
A02
100
AcDbEntity
  8
d010
100
AcDbDimension
  2
*d010
 10
48.750000000
 20
180.000000000
 30
0.000000000
 11
43.750000000
 21
180.000000000
 31
0.000000000
 70
32
  1
140
  3
STANDARD
100
AcDbAlignedDimension
 13
87.825000000
 23
209.500000000
 33
0.000000000
 14
87.825000000
 24
139.500000000
 34
0.000000000
 50
90
100
AcDbRotatedDimension
  0
DIMENSION
  5
A8C
330
A02
100
AcDbEntity
  8
d011
100
AcDbDimension
  2
*d011
 10
40.750000000
 20
180.000000000
 30
0.000000000
 11
35.750000000
 21
180.000000000
 31
0.000000000
 70
32
  1
157
  3
STANDARD
100
AcDbAlignedDimension
 13
87.825000000
 23
218.000000000
 33
0.000000000
 14
87.825000000
 24
139.500000000
 34
0.000000000
 50
90
100
AcDbRotatedDimension
  0
TEXT
  5
A96
330
A02
100
AcDbEntity
  8
note014
100
AcDbText
 10
82.000000000
 20
58.000000000
 30
0.000000000
 40
3.200000000
  1
16 x DIA 3.2 THROUGH
  7
STANDARD
 72
1
 11
82.000000000
 21
58.000000000
 31
0.000000000
100
AcDbText
  0
TEXT
  5
A97
330
A02
100
AcDbEntity
  8
note015
100
AcDbText
 10
330.000000000
 20
262.000000000
 30
0.000000000
 40
2.600000000
  1
HOLE SUMMARY
  7
STANDARD
 72
1
 11
330.000000000
 21
262.000000000
 31
0.000000000
100
AcDbText
  0
ENDSEC
  0
SECTION
  2
OBJECTS
  0
DICTIONARY
  5
F000
330
0
100
AcDbDictionary
  3
ACAD_GROUP
350
F001
  0
DICTIONARY
  5
F001
330
F000
100
AcDbDictionary
  0
ENDSEC
  0
EOF