999
FreeCAD v1.1 44987 (Git)
  0
SECTION
  2
HEADER
  9
$ACADVER
  1
AC1014
  9
$ACADMAINTVER
 70
     9
  9
$DWGCODEPAGE
  3
ANSI_1252
  9
$TEXTSTYLE
  7
STANDARD
  9
$DIMSTYLE
  2
STANDARD
  9
$DIMTXSTY
  7
STANDARD
  9
$CMLSTYLE
  2
STANDARD
  9
$LUNITS
 70
2
  9
$INSUNITS
 70
4
  9
$PEXTMAX
 10
50
 20
50
 30
50
  9
$PEXTMIN
 10
0
 20
0
 30
0
  9
$HANDSEED
  5
FFFF
  0
ENDSEC
  0
SECTION
  2
CLASSES
  0
CLASS
  1
ACDBDICTIONARYWDFLT
  2
AcDbDictionaryWithDefault
  3
ObjectDBX Classes
 90
        0
280
     0
281
     0
  0
CLASS
  1
XRECORD
  2
AcDbXrecord
  3
ObjectDBX Classes
 90
        0
280
     0
281
     0
  0
CLASS
  1
LWPOLYLINE
  2
AcDbPolyline
  3
ObjectDBX Classes
 90
        0
280
     0
281
     1
  0
ENDSEC
  0
SECTION
  2
TABLES
  0
TABLE
  2
VPORT
  5
20
330
0
100
AcDbSymbolTable
 70
     1
  0
VPORT
  5
21
330
20
100
AcDbSymbolTableRecord
100
AcDbViewportTableRecord
  2
*ACTIVE
 70
     0
  0
ENDTAB
  0
TABLE
  2
LTYPE
  5
22
330
0
100
AcDbSymbolTable
 70
     1
  0
LTYPE
  5
23
330
21
100
AcDbSymbolTableRecord
100
AcDbLinetypeTableRecord
  2
BYBLOCK
 70
     0
  3

 72
    65
 73
     0
 40
0.0
  0
LTYPE
  5
24
330
21
100
AcDbSymbolTableRecord
100
AcDbLinetypeTableRecord
  2
BYLAYER
 70
     0
  3

 72
    65
 73
     0
 40
0.0
  0
LTYPE
  5
25
330
21
100
AcDbSymbolTableRecord
100
AcDbLinetypeTableRecord
  2
CONTINUOUS
 70
     0
  3
Solid line
 72
    65
 73
     0
 40
0.0
  0
ENDTAB
  0
TABLE
  2
LAYER
  5
A72
330
0
100
AcDbSymbolTable
 70
13
  0
LAYER
  5
A73
330
A72
100
AcDbSymbolTableRecord
100
AcDbLayerTableRecord
  2
0
 70
   0
 62
   7
  6
CONTINUOUS
  0
LAYER
  5
A74
330
A72
100
AcDbSymbolTableRecord
100
AcDbLayerTableRecord
  2
Face
 70
    0
 62
    7
  6
CONTINUOUS
  0
LAYER
  5
A75
330
A72
100
AcDbSymbolTableRecord
100
AcDbLayerTableRecord
  2
Edge
 70
    0
 62
    7
  6
CONTINUOUS
  0
LAYER
  5
A76
330
A72
100
AcDbSymbolTableRecord
100
AcDbLayerTableRecord
  2
d000
 70
    0
 62
    7
  6
CONTINUOUS
  0
LAYER
  5
A77
330
A72
100
AcDbSymbolTableRecord
100
AcDbLayerTableRecord
  2
d001
 70
    0
 62
    7
  6
CONTINUOUS
  0
LAYER
  5
A78
330
A72
100
AcDbSymbolTableRecord
100
AcDbLayerTableRecord
  2
d002
 70
    0
 62
    7
  6
CONTINUOUS
  0
LAYER
  5
A79
330
A72
100
AcDbSymbolTableRecord
100
AcDbLayerTableRecord
  2
d003
 70
    0
 62
    7
  6
CONTINUOUS
  0
LAYER
  5
A7A
330
A72
100
AcDbSymbolTableRecord
100
AcDbLayerTableRecord
  2
d004
 70
    0
 62
    7
  6
CONTINUOUS
  0
LAYER
  5
A7B
330
A72
100
AcDbSymbolTableRecord
100
AcDbLayerTableRecord
  2
d005
 70
    0
 62
    7
  6
CONTINUOUS
  0
LAYER
  5
A7C
330
A72
100
AcDbSymbolTableRecord
100
AcDbLayerTableRecord
  2
d006
 70
    0
 62
    7
  6
CONTINUOUS
  0
LAYER
  5
A7D
330
A72
100
AcDbSymbolTableRecord
100
AcDbLayerTableRecord
  2
note009
 70
    0
 62
    7
  6
CONTINUOUS
  0
LAYER
  5
A7E
330
A72
100
AcDbSymbolTableRecord
100
AcDbLayerTableRecord
  2
d007
 70
    0
 62
    7
  6
CONTINUOUS
  0
LAYER
  5
A7F
330
A72
100
AcDbSymbolTableRecord
100
AcDbLayerTableRecord
  2
note011
 70
    0
 62
    7
  6
CONTINUOUS
  0
ENDTAB
  0
TABLE
  2
STYLE
  5
70
330
0
100
AcDbSymbolTable
 70
     2
  0
STYLE
  5
71
330
70
100
AcDbSymbolTableRecord
100
AcDbTextStyleTableRecord
  2
STANDARD
 70
     0
 40
0.0
 41
1.0
 50
0.0
 71
     0
 42
2.5
  3
arial.ttf
  4

  0
STYLE
  5
72
330
70
100
AcDbSymbolTableRecord
100
AcDbTextStyleTableRecord
  2
ANNOTATIVE
 70
     0
 40
0.0
 41
1.0
 50
0.0
 71
     0
 42
2.5
  3
arial.ttf
  4

  0
ENDTAB
  0
TABLE
  2
VIEW
  5
73
330
0
100
AcDbSymbolTable
 70
     0
  0
ENDTAB
  0
TABLE
  2
UCS
  5
74
330
0
100
AcDbSymbolTable
 70
     0
  0
ENDTAB
  0
TABLE
  2
APPID
  5
75
330
0
100
AcDbSymbolTable
 70
     2
  0
APPID
  5
76
330
75
100
AcDbSymbolTableRecord
100
AcDbRegAppTableRecord
  2
ACAD
 70
     0
  0
APPID
  5
77
330
75
100
AcDbSymbolTableRecord
100
AcDbRegAppTableRecord
  2
ACADANNOTATIVE
 70
     0
  0
ENDTAB
  0
TABLE
  2
DIMSTYLE
  5
78
330
0
100
AcDbSymbolTable
 70
     2
  0
DIMSTYLE
105
79
330
78
100
AcDbSymbolTableRecord
100
AcDbDimStyleTableRecord
  2
STANDARD
 70
     0
  3

  4

  5

  6

  7

 40
0.0
 41
2.5
 42
0.625
 43
3.75
 44
1.25
 45
0.0
 46
0.0
 47
0.0
 48
0.0
140
2.5
141
2.5
142
0.0
143
0.03937007874016
144
1.0
145
0.0
146
1.0
147
0.625
 71
     0
 72
     0
 73
     0
 74
     0
 75
     0
 76
     0
 77
     1
 78
     8
170
     0
171
     3
172
     1
173
     0
174
     0
175
     0
176
     0
177
     0
178
     0
270
     2
271
     2
272
     2
273
     2
274
     3
340
71
275
     0
280
     0
281
     0
282
     0
283
     0
284
     8
285
     0
286
     0
287
     3
288
     0
  0
ENDTAB
  0
TABLE
  2
BLOCK_RECORD
  5
A01
330
0
100
AcDbSymbolTable
  70
5
  0
BLOCK_RECORD
  5
A02
330
A01
100
AcDbSymbolTableRecord
100
AcDbBlockTableRecord
  2
*MODEL_SPACE
  0
BLOCK_RECORD
  5
A03
330
A01
100
AcDbSymbolTableRecord
100
AcDbBlockTableRecord
  2
*PAPER_SPACE
  0
BLOCK_RECORD
  5
A23
330
A01
100
AcDbSymbolTableRecord
100
AcDbBlockTableRecord
  2
*d000
  0
BLOCK_RECORD
  5
A2D
330
A01
100
AcDbSymbolTableRecord
100
AcDbBlockTableRecord
  2
*d001
  0
BLOCK_RECORD
  5
A37
330
A01
100
AcDbSymbolTableRecord
100
AcDbBlockTableRecord
  2
*d002
  0
BLOCK_RECORD
  5
A41
330
A01
100
AcDbSymbolTableRecord
100
AcDbBlockTableRecord
  2
*d003
  0
BLOCK_RECORD
  5
A4B
330
A01
100
AcDbSymbolTableRecord
100
AcDbBlockTableRecord
  2
*d004
  0
BLOCK_RECORD
  5
A55
330
A01
100
AcDbSymbolTableRecord
100
AcDbBlockTableRecord
  2
*d005
  0
BLOCK_RECORD
  5
A5F
330
A01
100
AcDbSymbolTableRecord
100
AcDbBlockTableRecord
  2
*d006
  0
BLOCK_RECORD
  5
A6A
330
A01
100
AcDbSymbolTableRecord
100
AcDbBlockTableRecord
  2
*d007
  0
ENDTAB
  0
ENDSEC
  0
SECTION
  2
BLOCKS
  0
BLOCK
  5
A04
330
A02
100
AcDbEntity
  8
0
100
AcDbBlockBegin
  2
*MODEL_SPACE
 70
   0
 10
0
 20
0
 30
0
  3
*MODEL_SPACE
  1
 
  0
ENDBLK
  5
A05
330
A02
100
AcDbEntity
  8
0
100
AcDbBlockEnd
  0
BLOCK
  5
A06
330
A03
100
AcDbEntity
 67
1
  8
0
100
AcDbBlockBegin
  2
*PAPER_SPACE
 70
   0
 10
0
 20
0
 30
0
  3
*PAPER_SPACE
  1
 
  0
ENDBLK
  5
A07
330
A03
100
AcDbEntity
 67
    1
  8
0
100
AcDbBlockEnd
  0
BLOCK
  5
A24
330
A23
100
AcDbEntity
  8
d000
100
AcDbBlockBegin
  2
*d000
 70
   1
 10
0
 20
0
 30
0
  3
*d000
  1
 
  0
LINE
  5
A25
330
A23
100
AcDbEntity
  8
d000
100
AcDbLine
 10
198.825
 20
167
 30
0
 11
198.825
 21
143.5
 31
0
  0
LINE
  5
A26
330
A23
100
AcDbEntity
  8
d000
100
AcDbLine
 10
101.175
 20
167
 30
0
 11
101.175
 21
143.5
 31
0
  0
LINE
  5
A27
330
A23
100
AcDbEntity
  8
d000
100
AcDbLine
 10
101.175
 20
143.5
 30
0
 11
198.825
 21
143.5
 31
0
  0
TEXT
  5
A28
330
A23
100
AcDbEntity
  8
d000
100
AcDbText
 10
150
 20
148.5
 30
0
 40
3.5
  1
195,3
  7
STANDARD
 72
1
 11
150
 21
143.5
 31
0
100
AcDbText
  0
SOLID
  5
A29
330
A23
100
AcDbEntity
  8
0
 62
     0
100
AcDbTrace
 10
96.175
 20
143.083
 30
0
 11
96.175
 21
143.917
 31
0
 12
101.175
 22
143.5
 32
0
 13
101.175
 23
143.5
 33
0
  0
SOLID
  5
A2A
330
A23
100
AcDbEntity
  8
0
 62
     0
100
AcDbTrace
 10
203.825
 20
143.083
 30
0
 11
203.825
 21
143.917
 31
0
 12
198.825
 22
143.5
 32
0
 13
198.825
 23
143.5
 33
0
  0
ENDBLK
  5
A2B
330
A23
100
AcDbEntity
  8
d000
100
AcDbBlockEnd
  0
BLOCK
  5
A2E
330
A2D
100
AcDbEntity
  8
d001
100
AcDbBlockBegin
  2
*d001
 70
   1
 10
0
 20
0
 30
0
  3
*d001
  1
 
  0
LINE
  5
A2F
330
A2D
100
AcDbEntity
  8
d001
100
AcDbLine
 10
212.175
 20
167
 30
0
 11
212.175
 21
132.5
 31
0
  0
LINE
  5
A30
330
A2D
100
AcDbEntity
  8
d001
100
AcDbLine
 10
87.825
 20
167
 30
0
 11
87.825
 21
132.5
 31
0
  0
LINE
  5
A31
330
A2D
100
AcDbEntity
  8
d001
100
AcDbLine
 10
87.825
 20
132.5
 30
0
 11
212.175
 21
132.5
 31
0
  0
TEXT
  5
A32
330
A2D
100
AcDbEntity
  8
d001
100
AcDbText
 10
150
 20
137.5
 30
0
 40
3.5
  1
248,7
  7
STANDARD
 72
1
 11
150
 21
132.5
 31
0
100
AcDbText
  0
SOLID
  5
A33
330
A2D
100
AcDbEntity
  8
0
 62
     0
100
AcDbTrace
 10
82.825
 20
132.083
 30
0
 11
82.825
 21
132.917
 31
0
 12
87.825
 22
132.5
 32
0
 13
87.825
 23
132.5
 33
0
  0
SOLID
  5
A34
330
A2D
100
AcDbEntity
  8
0
 62
     0
100
AcDbTrace
 10
217.175
 20
132.083
 30
0
 11
217.175
 21
132.917
 31
0
 12
212.175
 22
132.5
 32
0
 13
212.175
 23
132.5
 33
0
  0
ENDBLK
  5
A35
330
A2D
100
AcDbEntity
  8
d001
100
AcDbBlockEnd
  0
BLOCK
  5
A38
330
A37
100
AcDbEntity
  8
d002
100
AcDbBlockBegin
  2
*d002
 70
   1
 10
0
 20
0
 30
0
  3
*d002
  1
 
  0
LINE
  5
A39
330
A37
100
AcDbEntity
  8
d002
100
AcDbLine
 10
87.825
 20
234.5
 30
0
 11
64.75
 21
234.5
 31
0
  0
LINE
  5
A3A
330
A37
100
AcDbEntity
  8
d002
100
AcDbLine
 10
87.825
 20
175.5
 30
0
 11
64.75
 21
175.5
 31
0
  0
LINE
  5
A3B
330
A37
100
AcDbEntity
  8
d002
100
AcDbLine
 10
64.75
 20
175.5
 30
0
 11
64.75
 21
234.5
 31
0
  0
TEXT
  5
A3C
330
A37
100
AcDbEntity
  8
d002
100
AcDbText
 10
69.75
 20
205
 30
0
 40
3.5
  1
118
  7
STANDARD
 72
1
 11
64.75
 21
205
 31
0
100
AcDbText
  0
SOLID
  5
A3D
330
A37
100
AcDbEntity
  8
0
 62
     0
100
AcDbTrace
 10
64.3333
 20
170.5
 30
0
 11
65.1667
 21
170.5
 31
0
 12
64.75
 22
175.5
 32
0
 13
64.75
 23
175.5
 33
0
  0
SOLID
  5
A3E
330
A37
100
AcDbEntity
  8
0
 62
     0
100
AcDbTrace
 10
64.3333
 20
239.5
 30
0
 11
65.1667
 21
239.5
 31
0
 12
64.75
 22
234.5
 32
0
 13
64.75
 23
234.5
 33
0
  0
ENDBLK
  5
A3F
330
A37
100
AcDbEntity
  8
d002
100
AcDbBlockEnd
  0
BLOCK
  5
A42
330
A41
100
AcDbEntity
  8
d003
100
AcDbBlockBegin
  2
*d003
 70
   1
 10
0
 20
0
 30
0
  3
*d003
  1
 
  0
LINE
  5
A43
330
A41
100
AcDbEntity
  8
d003
100
AcDbLine
 10
87.825
 20
243
 30
0
 11
53.75
 21
243
 31
0
  0
LINE
  5
A44
330
A41
100
AcDbEntity
  8
d003
100
AcDbLine
 10
87.825
 20
167
 30
0
 11
53.75
 21
167
 31
0
  0
LINE
  5
A45
330
A41
100
AcDbEntity
  8
d003
100
AcDbLine
 10
53.75
 20
167
 30
0
 11
53.75
 21
243
 31
0
  0
TEXT
  5
A46
330
A41
100
AcDbEntity
  8
d003
100
AcDbText
 10
58.75
 20
205
 30
0
 40
3.5
  1
152
  7
STANDARD
 72
1
 11
53.75
 21
205
 31
0
100
AcDbText
  0
SOLID
  5
A47
330
A41
100
AcDbEntity
  8
0
 62
     0
100
AcDbTrace
 10
53.3333
 20
162
 30
0
 11
54.1667
 21
162
 31
0
 12
53.75
 22
167
 32
0
 13
53.75
 23
167
 33
0
  0
SOLID
  5
A48
330
A41
100
AcDbEntity
  8
0
 62
     0
100
AcDbTrace
 10
53.3333
 20
248
 30
0
 11
54.1667
 21
248
 31
0
 12
53.75
 22
243
 32
0
 13
53.75
 23
243
 33
0
  0
ENDBLK
  5
A49
330
A41
100
AcDbEntity
  8
d003
100
AcDbBlockEnd
  0
BLOCK
  5
A4C
330
A4B
100
AcDbEntity
  8
d004
100
AcDbBlockBegin
  2
*d004
 70
   1
 10
0
 20
0
 30
0
  3
*d004
  1
 
  0
LINE
  5
A4D
330
A4B
100
AcDbEntity
  8
d004
100
AcDbLine
 10
214.25
 20
245.5
 30
0
 11
214.25
 21
121.5
 31
0
  0
LINE
  5
A4E
330
A4B
100
AcDbEntity
  8
d004
100
AcDbLine
 10
85.75
 20
245.5
 30
0
 11
85.75
 21
121.5
 31
0
  0
LINE
  5
A4F
330
A4B
100
AcDbEntity
  8
d004
100
AcDbLine
 10
85.75
 20
121.5
 30
0
 11
214.25
 21
121.5
 31
0
  0
TEXT
  5
A50
330
A4B
100
AcDbEntity
  8
d004
100
AcDbText
 10
150
 20
126.5
 30
0
 40
3.5
  1
257
  7
STANDARD
 72
1
 11
150
 21
121.5
 31
0
100
AcDbText
  0
SOLID
  5
A51
330
A4B
100
AcDbEntity
  8
0
 62
     0
100
AcDbTrace
 10
80.75
 20
121.083
 30
0
 11
80.75
 21
121.917
 31
0
 12
85.75
 22
121.5
 32
0
 13
85.75
 23
121.5
 33
0
  0
SOLID
  5
A52
330
A4B
100
AcDbEntity
  8
0
 62
     0
100
AcDbTrace
 10
219.25
 20
121.083
 30
0
 11
219.25
 21
121.917
 31
0
 12
214.25
 22
121.5
 32
0
 13
214.25
 23
121.5
 33
0
  0
ENDBLK
  5
A53
330
A4B
100
AcDbEntity
  8
d004
100
AcDbBlockEnd
  0
BLOCK
  5
A56
330
A55
100
AcDbEntity
  8
d005
100
AcDbBlockBegin
  2
*d005
 70
   1
 10
0
 20
0
 30
0
  3
*d005
  1
 
  0
LINE
  5
A57
330
A55
100
AcDbEntity
  8
d005
100
AcDbLine
 10
85.75
 20
245.5
 30
0
 11
42.75
 21
245.5
 31
0
  0
LINE
  5
A58
330
A55
100
AcDbEntity
  8
d005
100
AcDbLine
 10
85.75
 20
164.5
 30
0
 11
42.75
 21
164.5
 31
0
  0
LINE
  5
A59
330
A55
100
AcDbEntity
  8
d005
100
AcDbLine
 10
42.75
 20
164.5
 30
0
 11
42.75
 21
245.5
 31
0
  0
TEXT
  5
A5A
330
A55
100
AcDbEntity
  8
d005
100
AcDbText
 10
47.75
 20
205
 30
0
 40
3.5
  1
162
  7
STANDARD
 72
1
 11
42.75
 21
205
 31
0
100
AcDbText
  0
SOLID
  5
A5B
330
A55
100
AcDbEntity
  8
0
 62
     0
100
AcDbTrace
 10
42.3333
 20
159.5
 30
0
 11
43.1667
 21
159.5
 31
0
 12
42.75
 22
164.5
 32
0
 13
42.75
 23
164.5
 33
0
  0
SOLID
  5
A5C
330
A55
100
AcDbEntity
  8
0
 62
     0
100
AcDbTrace
 10
42.3333
 20
250.5
 30
0
 11
43.1667
 21
250.5
 31
0
 12
42.75
 22
245.5
 32
0
 13
42.75
 23
245.5
 33
0
  0
ENDBLK
  5
A5D
330
A55
100
AcDbEntity
  8
d005
100
AcDbBlockEnd
  0
BLOCK
  5
A60
330
A5F
100
AcDbEntity
  8
d006
100
AcDbBlockBegin
  2
*d006
 70
   1
 10
0
 20
0
 30
0
  3
*d006
  1
 
  0
LINE
  5
A61
330
A5F
100
AcDbEntity
  8
d006
100
AcDbLine
 10
335.5
 20
164.5
 30
0
 11
335.5
 21
143.5
 31
0
  0
LINE
  5
A62
330
A5F
100
AcDbEntity
  8
d006
100
AcDbLine
 10
334.5
 20
164.5
 30
0
 11
334.5
 21
143.5
 31
0
  0
LINE
  5
A63
330
A5F
100
AcDbEntity
  8
d006
100
AcDbLine
 10
334.5
 20
143.5
 30
0
 11
335.5
 21
143.5
 31
0
  0
TEXT
  5
A64
330
A5F
100
AcDbEntity
  8
d006
100
AcDbText
 10
335
 20
148.5
 30
0
 40
3.5
  1
2
  7
STANDARD
 72
1
 11
335
 21
143.5
 31
0
100
AcDbText
  0
SOLID
  5
A65
330
A5F
100
AcDbEntity
  8
0
 62
     0
100
AcDbTrace
 10
329.5
 20
143.083
 30
0
 11
329.5
 21
143.917
 31
0
 12
334.5
 22
143.5
 32
0
 13
334.5
 23
143.5
 33
0
  0
SOLID
  5
A66
330
A5F
100
AcDbEntity
  8
0
 62
     0
100
AcDbTrace
 10
340.5
 20
143.083
 30
0
 11
340.5
 21
143.917
 31
0
 12
335.5
 22
143.5
 32
0
 13
335.5
 23
143.5
 33
0
  0
ENDBLK
  5
A67
330
A5F
100
AcDbEntity
  8
d006
100
AcDbBlockEnd
  0
BLOCK
  5
A6B
330
A6A
100
AcDbEntity
  8
d007
100
AcDbBlockBegin
  2
*d007
 70
   1
 10
0
 20
0
 30
0
  3
*d007
  1
 
  0
LINE
  5
A6C
330
A6A
100
AcDbEntity
  8
d007
100
AcDbLine
 10
212.175
 20
243
 30
0
 11
212.175
 21
243
 31
0
  0
TEXT
  5
A6D
330
A6A
100
AcDbEntity
  8
d007
100
AcDbText
 10
240.25
 20
245.5
 30
0
 40
3.5
  1
16x ⌀3,2
  7
STANDARD
 72
1
 11
240.25
 21
245.5
 31
0
100
AcDbText
  0
SOLID
  5
A6E
330
A6A
100
AcDbEntity
  8
0
 62
     0
100
AcDbTrace
 10
212.175
 20
243
 30
0
 11
212.175
 21
243
 31
0
 12
212.175
 22
243
 32
0
 13
212.175
 23
243
 33
0
  0
SOLID
  5
A6F
330
A6A
100
AcDbEntity
  8
0
 62
     0
100
AcDbTrace
 10
212.175
 20
243
 30
0
 11
212.175
 21
243
 31
0
 12
212.175
 22
243
 32
0
 13
212.175
 23
243
 33
0
  0
ENDBLK
  5
A70
330
A6A
100
AcDbEntity
  8
d007
100
AcDbBlockEnd
  0
ENDSEC
  0
SECTION
  2
ENTITIES
  0
LINE
  5
A08
330
A02
100
AcDbEntity
  8
Face
100
AcDbLine
 10
85.750000000
 20
164.500000000
 30
0.000000000
 11
214.250000000
 21
164.500000000
 31
0.000000000
  0
LINE
  5
A09
330
A02
100
AcDbEntity
  8
Face
100
AcDbLine
 10
85.750000000
 20
245.500000000
 30
0.000000000
 11
85.750000000
 21
164.500000000
 31
0.000000000
  0
LINE
  5
A0A
330
A02
100
AcDbEntity
  8
Face
100
AcDbLine
 10
214.250000000
 20
164.500000000
 30
0.000000000
 11
214.250000000
 21
245.500000000
 31
0.000000000
  0
LINE
  5
A0B
330
A02
100
AcDbEntity
  8
Face
100
AcDbLine
 10
214.250000000
 20
245.500000000
 30
0.000000000
 11
85.750000000
 21
245.500000000
 31
0.000000000
  0
CIRCLE
  5
A0C
330
A02
100
AcDbEntity
  8
Face
100
AcDbCircle
 10
87.825000000
 20
167.000000000
 30
0.000000000
 40
0.800000000
  0
CIRCLE
  5
A0D
330
A02
100
AcDbEntity
  8
Face
100
AcDbCircle
 10
87.825000000
 20
175.500000000
 30
0.000000000
 40
0.800000000
  0
CIRCLE
  5
A0E
330
A02
100
AcDbEntity
  8
Face
100
AcDbCircle
 10
101.175000000
 20
167.000000000
 30
0.000000000
 40
0.800000000
  0
CIRCLE
  5
A0F
330
A02
100
AcDbEntity
  8
Face
100
AcDbCircle
 10
101.175000000
 20
175.500000000
 30
0.000000000
 40
0.800000000
  0
CIRCLE
  5
A10
330
A02
100
AcDbEntity
  8
Face
100
AcDbCircle
 10
87.825000000
 20
234.500000000
 30
0.000000000
 40
0.800000000
  0
CIRCLE
  5
A11
330
A02
100
AcDbEntity
  8
Face
100
AcDbCircle
 10
87.825000000
 20
243.000000000
 30
0.000000000
 40
0.800000000
  0
CIRCLE
  5
A12
330
A02
100
AcDbEntity
  8
Face
100
AcDbCircle
 10
101.175000000
 20
234.500000000
 30
0.000000000
 40
0.800000000
  0
CIRCLE
  5
A13
330
A02
100
AcDbEntity
  8
Face
100
AcDbCircle
 10
101.175000000
 20
243.000000000
 30
0.000000000
 40
0.800000000
  0
CIRCLE
  5
A14
330
A02
100
AcDbEntity
  8
Face
100
AcDbCircle
 10
198.825000000
 20
167.000000000
 30
0.000000000
 40
0.800000000
  0
CIRCLE
  5
A15
330
A02
100
AcDbEntity
  8
Face
100
AcDbCircle
 10
198.825000000
 20
175.500000000
 30
0.000000000
 40
0.800000000
  0
CIRCLE
  5
A16
330
A02
100
AcDbEntity
  8
Face
100
AcDbCircle
 10
212.175000000
 20
167.000000000
 30
0.000000000
 40
0.800000000
  0
CIRCLE
  5
A17
330
A02
100
AcDbEntity
  8
Face
100
AcDbCircle
 10
212.175000000
 20
175.500000000
 30
0.000000000
 40
0.800000000
  0
CIRCLE
  5
A18
330
A02
100
AcDbEntity
  8
Face
100
AcDbCircle
 10
198.825000000
 20
234.500000000
 30
0.000000000
 40
0.800000000
  0
CIRCLE
  5
A19
330
A02
100
AcDbEntity
  8
Face
100
AcDbCircle
 10
198.825000000
 20
243.000000000
 30
0.000000000
 40
0.800000000
  0
CIRCLE
  5
A1A
330
A02
100
AcDbEntity
  8
Face
100
AcDbCircle
 10
212.175000000
 20
234.500000000
 30
0.000000000
 40
0.800000000
  0
CIRCLE
  5
A1B
330
A02
100
AcDbEntity
  8
Face
100
AcDbCircle
 10
212.175000000
 20
243.000000000
 30
0.000000000
 40
0.800000000
  0
LINE
  5
A1C
330
A02
100
AcDbEntity
  8
Face
100
AcDbLine
 10
150.000000000
 20
158.500000000
 30
0.000000000
 11
150.000000000
 21
251.500000000
 31
0.000000000
  0
LINE
  5
A1D
330
A02
100
AcDbEntity
  8
Face
100
AcDbLine
 10
79.750000000
 20
205.000000000
 30
0.000000000
 11
220.250000000
 21
205.000000000
 31
0.000000000
  0
LINE
  5
A1E
330
A02
100
AcDbEntity
  8
Edge
100
AcDbLine
 10
334.500000000
 20
164.500000000
 30
0.000000000
 11
335.500000000
 21
164.500000000
 31
0.000000000
  0
LINE
  5
A1F
330
A02
100
AcDbEntity
  8
Edge
100
AcDbLine
 10
334.500000000
 20
245.500000000
 30
0.000000000
 11
335.500000000
 21
245.500000000
 31
0.000000000
  0
LINE
  5
A20
330
A02
100
AcDbEntity
  8
Edge
100
AcDbLine
 10
334.500000000
 20
164.500000000
 30
0.000000000
 11
334.500000000
 21
245.500000000
 31
0.000000000
  0
LINE
  5
A21
330
A02
100
AcDbEntity
  8
Edge
100
AcDbLine
 10
335.500000000
 20
164.500000000
 30
0.000000000
 11
335.500000000
 21
245.500000000
 31
0.000000000
  0
DIMENSION
  5
A22
330
A02
100
AcDbEntity
  8
d000
100
AcDbDimension
  2
*d000
 10
150.000000000
 20
143.500000000
 30
0.000000000
 11
150.000000000
 21
148.500000000
 31
0.000000000
 70
32
  1
195,3
  3
STANDARD
100
AcDbAlignedDimension
 13
101.175000000
 23
167.000000000
 33
0.000000000
 14
198.825000000
 24
167.000000000
 34
0.000000000
100
AcDbRotatedDimension
  0
DIMENSION
  5
A2C
330
A02
100
AcDbEntity
  8
d001
100
AcDbDimension
  2
*d001
 10
150.000000000
 20
132.500000000
 30
0.000000000
 11
150.000000000
 21
137.500000000
 31
0.000000000
 70
32
  1
248,7
  3
STANDARD
100
AcDbAlignedDimension
 13
87.825000000
 23
167.000000000
 33
0.000000000
 14
212.175000000
 24
167.000000000
 34
0.000000000
100
AcDbRotatedDimension
  0
DIMENSION
  5
A36
330
A02
100
AcDbEntity
  8
d002
100
AcDbDimension
  2
*d002
 10
64.750000000
 20
205.000000000
 30
0.000000000
 11
69.750000000
 21
205.000000000
 31
0.000000000
 70
32
  1
118
  3
STANDARD
100
AcDbAlignedDimension
 13
87.825000000
 23
175.500000000
 33
0.000000000
 14
87.825000000
 24
234.500000000
 34
0.000000000
 50
90
100
AcDbRotatedDimension
  0
DIMENSION
  5
A40
330
A02
100
AcDbEntity
  8
d003
100
AcDbDimension
  2
*d003
 10
53.750000000
 20
205.000000000
 30
0.000000000
 11
58.750000000
 21
205.000000000
 31
0.000000000
 70
32
  1
152
  3
STANDARD
100
AcDbAlignedDimension
 13
87.825000000
 23
167.000000000
 33
0.000000000
 14
87.825000000
 24
243.000000000
 34
0.000000000
 50
90
100
AcDbRotatedDimension
  0
DIMENSION
  5
A4A
330
A02
100
AcDbEntity
  8
d004
100
AcDbDimension
  2
*d004
 10
150.000000000
 20
121.500000000
 30
0.000000000
 11
150.000000000
 21
126.500000000
 31
0.000000000
 70
32
  1
257
  3
STANDARD
100
AcDbAlignedDimension
 13
85.750000000
 23
245.500000000
 33
0.000000000
 14
214.250000000
 24
245.500000000
 34
0.000000000
100
AcDbRotatedDimension
  0
DIMENSION
  5
A54
330
A02
100
AcDbEntity
  8
d005
100
AcDbDimension
  2
*d005
 10
42.750000000
 20
205.000000000
 30
0.000000000
 11
47.750000000
 21
205.000000000
 31
0.000000000
 70
32
  1
162
  3
STANDARD
100
AcDbAlignedDimension
 13
85.750000000
 23
164.500000000
 33
0.000000000
 14
85.750000000
 24
245.500000000
 34
0.000000000
 50
90
100
AcDbRotatedDimension
  0
DIMENSION
  5
A5E
330
A02
100
AcDbEntity
  8
d006
100
AcDbDimension
  2
*d006
 10
335.000000000
 20
143.500000000
 30
0.000000000
 11
335.000000000
 21
148.500000000
 31
0.000000000
 70
32
  1
2
  3
STANDARD
100
AcDbAlignedDimension
 13
334.500000000
 23
164.500000000
 33
0.000000000
 14
335.500000000
 24
164.500000000
 34
0.000000000
100
AcDbRotatedDimension
  0
TEXT
  5
A68
330
A02
100
AcDbEntity
  8
note009
100
AcDbText
 10
335.000000000
 20
253.500000000
 30
0.000000000
 40
3.000000000
  1
EDGE VIEW
  7
STANDARD
 72
1
 11
335.000000000
 21
253.500000000
 31
0.000000000
100
AcDbText
  0
DIMENSION
  5
A69
330
A02
100
AcDbEntity
  8
d007
100
AcDbDimension
  2
*d007
 10
212.175000000
 20
243.000000000
 30
0.000000000
 11
240.250000000
 21
245.500000000
 31
0.000000000
 70
3
  1
16x ⌀3,2
  3
STANDARD
100
AcDbDiametricDimension
 15
212.175000000
 25
243.000000000
 35
0.000000000
 40
0
  0
TEXT
  5
A71
330
A02
100
AcDbEntity
  8
note011
100
AcDbText
 10
76.110000000
 20
44.990000000
 30
0.000000000
 40
3.000000000
  1
2 mm aluminium sheet, cut 257 x 162
  7
STANDARD
 72
1
 11
76.110000000
 21
44.990000000
 31
0.000000000
100
AcDbText
  0
ENDSEC
  0
SECTION
  2
OBJECTS
  0
DICTIONARY
  5
F000
330
0
100
AcDbDictionary
  3
ACAD_GROUP
350
F001
  0
DICTIONARY
  5
F001
330
F000
100
AcDbDictionary
  0
ENDSEC
  0
EOF